G04*
G04 #@! TF.GenerationSoftware,Altium Limited,Altium Designer,22.11.1 (43)*
G04*
G04 Layer_Color=8388736*
%FSLAX44Y44*%
%MOMM*%
G71*
G04*
G04 #@! TF.SameCoordinates,C47467C8-9064-4A8D-955C-1DE8D4ADFDDE*
G04*
G04*
G04 #@! TF.FilePolarity,Positive*
G04*
G01*
G75*
%ADD11C,0.2540*%
%ADD12C,0.3000*%
%ADD13C,0.4000*%
%ADD15C,0.2000*%
%ADD149C,0.0508*%
G36*
X154009Y965377D02*
X143009D01*
Y967377D01*
X154009D01*
Y965377D01*
D02*
G37*
G36*
X170363Y967066D02*
X174897D01*
Y965066D01*
X170363D01*
Y960911D01*
X168363D01*
Y965066D01*
X163897D01*
Y967066D01*
X168363D01*
Y971911D01*
X170363D01*
Y967066D01*
D02*
G37*
G36*
X636390Y880896D02*
X627537D01*
Y901216D01*
X627500Y902416D01*
X636390D01*
Y880896D01*
D02*
G37*
G36*
X571620D02*
X562767D01*
Y901216D01*
X562730Y902416D01*
X571620D01*
Y880896D01*
D02*
G37*
G36*
X419219Y880300D02*
X410366D01*
Y900620D01*
X410329Y901821D01*
X419219D01*
Y880300D01*
D02*
G37*
G36*
X700080Y824212D02*
X698640D01*
Y828532D01*
X698280D01*
Y828172D01*
X697200D01*
Y828892D01*
X697920D01*
Y829252D01*
X698280D01*
Y829612D01*
X699000D01*
Y829972D01*
X700080D01*
Y824212D01*
D02*
G37*
G36*
X636390Y764385D02*
X636365Y764360D01*
X627500D01*
Y863046D01*
X636390D01*
Y764385D01*
D02*
G37*
G36*
X571620D02*
X571595Y764360D01*
X562730D01*
Y863046D01*
X571620D01*
Y764385D01*
D02*
G37*
G36*
X419219Y763789D02*
X419194Y763764D01*
X410329D01*
Y862450D01*
X419219D01*
Y763789D01*
D02*
G37*
G36*
X636390Y725015D02*
X627537D01*
Y745335D01*
X636390D01*
Y725015D01*
D02*
G37*
G36*
X615951Y893657D02*
X616070Y893538D01*
X584320D01*
Y733917D01*
X584320Y733916D01*
X615638D01*
Y725026D01*
X575441D01*
X575430Y725015D01*
Y902416D01*
X615951D01*
Y893657D01*
D02*
G37*
G36*
X571620Y725015D02*
X562767D01*
Y745335D01*
X571620D01*
Y725015D01*
D02*
G37*
G36*
X551180Y893657D02*
X551300Y893538D01*
X519550D01*
Y733917D01*
X519550Y733916D01*
X550868D01*
Y725026D01*
X510671D01*
X510660Y725015D01*
Y902416D01*
X551180D01*
Y893657D01*
D02*
G37*
G36*
X419219Y724419D02*
X410366D01*
Y744739D01*
X419219D01*
Y724419D01*
D02*
G37*
G36*
X398780Y893062D02*
X398900Y892942D01*
X367150D01*
Y733321D01*
X367149Y733321D01*
X398468D01*
Y724431D01*
X358271D01*
X358259Y724419D01*
Y901821D01*
X398780D01*
Y893062D01*
D02*
G37*
G36*
X562370Y509550D02*
X554450D01*
Y511530D01*
X562370D01*
Y509550D01*
D02*
G37*
G36*
X148350Y508280D02*
X140430D01*
Y510260D01*
X148350D01*
Y508280D01*
D02*
G37*
G36*
X352820Y507010D02*
X344900D01*
Y508990D01*
X352820D01*
Y507010D01*
D02*
G37*
G36*
X613520Y511530D02*
X616490D01*
Y509550D01*
X613520D01*
Y503940D01*
X611540D01*
Y509550D01*
X608570D01*
Y511530D01*
X611540D01*
Y517140D01*
X613520D01*
Y511530D01*
D02*
G37*
G36*
X199500Y510260D02*
X202470D01*
Y508280D01*
X199500D01*
Y502670D01*
X197520D01*
Y508280D01*
X194550D01*
Y510260D01*
X197520D01*
Y515870D01*
X199500D01*
Y510260D01*
D02*
G37*
G36*
X403970Y508990D02*
X406940D01*
Y507010D01*
X403970D01*
Y501400D01*
X401990D01*
Y507010D01*
X399020D01*
Y508990D01*
X401990D01*
Y514600D01*
X403970D01*
Y508990D01*
D02*
G37*
G36*
X876952Y361149D02*
Y360789D01*
X877312D01*
Y360429D01*
X877672D01*
Y360069D01*
Y359710D01*
X878031D01*
Y359349D01*
Y358989D01*
Y358629D01*
X872272D01*
Y358989D01*
Y359349D01*
Y359710D01*
Y360069D01*
X876592D01*
Y360429D01*
X876232D01*
Y360789D01*
Y361149D01*
Y361509D01*
X876952D01*
Y361149D01*
D02*
G37*
G36*
X325256Y221157D02*
X314256D01*
Y223157D01*
X325256D01*
Y221157D01*
D02*
G37*
G36*
X341610Y222846D02*
X346144D01*
Y220846D01*
X341610D01*
Y216691D01*
X339610D01*
Y220846D01*
X335144D01*
Y222846D01*
X339610D01*
Y227691D01*
X341610D01*
Y222846D01*
D02*
G37*
G36*
X325599Y197027D02*
X314599D01*
Y199027D01*
X325599D01*
Y197027D01*
D02*
G37*
G36*
X341953Y198716D02*
X346487D01*
Y196716D01*
X341953D01*
Y192561D01*
X339953D01*
Y196716D01*
X335486D01*
Y198716D01*
X339953D01*
Y203561D01*
X341953D01*
Y198716D01*
D02*
G37*
G36*
X325599Y172897D02*
X314599D01*
Y174897D01*
X325599D01*
Y172897D01*
D02*
G37*
G36*
X341953Y174586D02*
X346487D01*
Y172586D01*
X341953D01*
Y168431D01*
X339953D01*
Y172586D01*
X335486D01*
Y174586D01*
X339953D01*
Y179431D01*
X341953D01*
Y174586D01*
D02*
G37*
G36*
X79734Y159982D02*
X84232D01*
X84282Y159931D01*
Y158864D01*
X84257Y158839D01*
X79734D01*
Y152200D01*
X78652D01*
X78587Y153226D01*
X78595Y158839D01*
X75545D01*
X75494Y158763D01*
Y159931D01*
X75545Y159982D01*
X78597D01*
X78605Y165901D01*
X78569Y165937D01*
X79686D01*
X79712Y165963D01*
X79734Y165982D01*
Y159982D01*
D02*
G37*
G36*
X81580Y106234D02*
X81410Y106197D01*
X79247D01*
X79272Y119836D01*
X79482Y119931D01*
X81645D01*
X81580Y106234D01*
D02*
G37*
G36*
X281733Y86537D02*
X270734D01*
Y88537D01*
X281733D01*
Y86537D01*
D02*
G37*
G36*
X202994D02*
X191994D01*
Y88537D01*
X202994D01*
Y86537D01*
D02*
G37*
G36*
X298087Y88226D02*
X302621D01*
Y86226D01*
X298087D01*
Y82071D01*
X296087D01*
Y86226D01*
X291621D01*
Y88226D01*
X296087D01*
Y93071D01*
X298087D01*
Y88226D01*
D02*
G37*
G36*
X219347D02*
X223881D01*
Y86226D01*
X219347D01*
Y82071D01*
X217347D01*
Y86226D01*
X212881D01*
Y88226D01*
X217347D01*
Y93071D01*
X219347D01*
Y88226D01*
D02*
G37*
G36*
X151563Y69267D02*
X113563D01*
Y74267D01*
X151563D01*
Y69267D01*
D02*
G37*
G36*
X105066Y73755D02*
Y69267D01*
X100150D01*
X100066Y69350D01*
Y57768D01*
X95062D01*
Y73764D01*
X95065Y73767D01*
X105054D01*
X105066Y73755D01*
D02*
G37*
G36*
X308560Y68530D02*
X270560D01*
Y73530D01*
X308560D01*
Y68530D01*
D02*
G37*
G36*
X262063Y73018D02*
Y68530D01*
X257147D01*
X257064Y68614D01*
Y57031D01*
X252060D01*
Y73027D01*
X252063Y73030D01*
X262052D01*
X262063Y73018D01*
D02*
G37*
G36*
X230020Y68530D02*
X192020D01*
Y73530D01*
X230020D01*
Y68530D01*
D02*
G37*
G36*
X183523Y73018D02*
Y68530D01*
X178608D01*
X178524Y68614D01*
Y57031D01*
X173520D01*
Y73027D01*
X173523Y73030D01*
X183512D01*
X183523Y73018D01*
D02*
G37*
G36*
X170066Y74263D02*
Y58268D01*
X165062D01*
Y69850D01*
X164978Y69766D01*
X160062D01*
Y74255D01*
X160074Y74266D01*
X170063D01*
X170066Y74263D01*
D02*
G37*
G36*
X327063Y73527D02*
Y57531D01*
X322059D01*
Y69113D01*
X321976Y69030D01*
X317060D01*
Y73518D01*
X317071Y73530D01*
X327060D01*
X327063Y73527D01*
D02*
G37*
G36*
X248523D02*
Y57531D01*
X243519D01*
Y69113D01*
X243436Y69030D01*
X238520D01*
Y73518D01*
X238531Y73530D01*
X248520D01*
X248523Y73527D01*
D02*
G37*
G36*
X719691Y73830D02*
Y37330D01*
X714690Y36830D01*
Y68504D01*
X649691D01*
Y36830D01*
X644691D01*
Y73830D01*
X644691Y73830D01*
X719690D01*
X719691Y73830D01*
D02*
G37*
G36*
X640550D02*
Y37330D01*
X635549Y36830D01*
Y68504D01*
X570550D01*
Y36830D01*
X565550D01*
Y73830D01*
X565550Y73830D01*
X640549D01*
X640550Y73830D01*
D02*
G37*
G36*
X82684Y36810D02*
X86839D01*
Y34810D01*
X82684D01*
Y30344D01*
X80684D01*
Y34810D01*
X75839D01*
Y36810D01*
X80684D01*
Y41344D01*
X82684D01*
Y36810D01*
D02*
G37*
G36*
X170063Y13266D02*
X170062Y13266D01*
X95063D01*
X95063Y13267D01*
Y49767D01*
X100063Y50267D01*
Y18593D01*
X165062D01*
Y50267D01*
X170063D01*
Y13266D01*
D02*
G37*
G36*
X327060Y12530D02*
X327060Y12530D01*
X252061D01*
X252060Y12530D01*
Y49030D01*
X257061Y49530D01*
Y17856D01*
X322059D01*
Y49530D01*
X327060D01*
Y12530D01*
D02*
G37*
G36*
X248520D02*
X248520Y12530D01*
X173521D01*
X173520Y12530D01*
Y49030D01*
X178521Y49530D01*
Y17856D01*
X243519D01*
Y49530D01*
X248520D01*
Y12530D01*
D02*
G37*
G36*
X719691Y13333D02*
X719688Y13330D01*
X709699D01*
X709687Y13342D01*
Y17830D01*
X714603D01*
X714687Y17746D01*
Y29329D01*
X719691D01*
Y13333D01*
D02*
G37*
G36*
X640550D02*
X640547Y13330D01*
X630558D01*
X630547Y13342D01*
Y17830D01*
X635462D01*
X635546Y17746D01*
Y29329D01*
X640550D01*
Y13333D01*
D02*
G37*
G36*
X649691Y17247D02*
X649775Y17330D01*
X654691D01*
Y12842D01*
X654679Y12830D01*
X644691D01*
X644688Y12833D01*
Y28829D01*
X649691D01*
Y17247D01*
D02*
G37*
G36*
X570550D02*
X570634Y17330D01*
X575550D01*
Y12842D01*
X575539Y12830D01*
X565550D01*
X565547Y12833D01*
Y28829D01*
X570550D01*
Y17247D01*
D02*
G37*
G36*
X701191Y12830D02*
X663191D01*
Y17830D01*
X701191D01*
Y12830D01*
D02*
G37*
G36*
X622050D02*
X584050D01*
Y17830D01*
X622050D01*
Y12830D01*
D02*
G37*
G36*
X82373Y9456D02*
X80373D01*
Y20456D01*
X82373D01*
Y9456D01*
D02*
G37*
D11*
X704972Y818581D02*
G03*
X704972Y818581I-1270J0D01*
G01*
X867910Y355007D02*
G03*
X867910Y355007I-1270J0D01*
G01*
D12*
X193131Y832830D02*
G03*
X193131Y832830I-1501J0D01*
G01*
X434147Y851220D02*
G03*
X434147Y851220I-1501J0D01*
G01*
X860072Y378457D02*
G03*
X860072Y378457I-1501J0D01*
G01*
X702781Y894709D02*
G03*
X702781Y894709I-1501J0D01*
G01*
D13*
X916398Y339091D02*
G03*
X916398Y339091I-1999J0D01*
G01*
D15*
X632620Y78110D02*
G03*
X632620Y78110I-1001J0D01*
G01*
X379692Y937100D02*
G03*
X379692Y937100I-1001J0D01*
G01*
X421602D02*
G03*
X421602Y937100I-1001J0D01*
G01*
X542450Y907900D02*
G03*
X542450Y907900I-1001J0D01*
G01*
X583700Y907580D02*
G03*
X583700Y907580I-1001J0D01*
G01*
X504101Y746600D02*
G03*
X504101Y746600I-1001J0D01*
G01*
X446771Y676824D02*
G03*
X446771Y676824I-1001J0D01*
G01*
X874281Y409979D02*
G03*
X874281Y409979I-1001J0D01*
G01*
X450151Y746440D02*
G03*
X450151Y746440I-1001J0D01*
G01*
X867781Y596471D02*
G03*
X867781Y596471I-1001J0D01*
G01*
Y629491D02*
G03*
X867781Y629491I-1001J0D01*
G01*
X941641Y258280D02*
G03*
X941641Y258280I-1001J0D01*
G01*
D149*
X760900Y440860D02*
Y493860D01*
X800900D01*
X813900Y480860D01*
Y453860D02*
Y480860D01*
X800900Y440860D02*
X813900Y453860D01*
X760900Y440860D02*
X800900D01*
X859030Y517780D02*
Y533780D01*
X891030D01*
Y517780D02*
Y533780D01*
X859030Y517780D02*
X891030D01*
X156311Y414840D02*
X539250D01*
Y324300D02*
Y414840D01*
X156311Y324300D02*
X539250D01*
X156311D02*
Y414840D01*
X271420Y821830D02*
X307420D01*
Y775830D02*
Y821830D01*
X271420Y775830D02*
X307420D01*
X271420D02*
Y821830D01*
X123690Y892960D02*
X140690D01*
X123690Y879960D02*
Y892960D01*
Y879960D02*
X140690D01*
Y892960D01*
X239330Y976060D02*
X342330D01*
Y893660D02*
Y976060D01*
X321730Y873060D02*
X342330Y893660D01*
X259930Y873060D02*
X321730D01*
X239330Y893660D02*
X259930Y873060D01*
X239330Y893660D02*
Y976060D01*
X166400Y702785D02*
Y755785D01*
X206400D01*
X219400Y742785D01*
Y715785D02*
Y742785D01*
X206400Y702785D02*
X219400Y715785D01*
X166400Y702785D02*
X206400D01*
X261950Y755480D02*
X301950D01*
X248950Y742480D02*
X261950Y755480D01*
X248950Y715480D02*
Y742480D01*
Y715480D02*
X261950Y702480D01*
X301950D01*
Y755480D01*
X199170Y896210D02*
X235170D01*
X199170D02*
Y940210D01*
X235170D01*
Y896210D02*
Y940210D01*
X138900Y898790D02*
Y947790D01*
Y898790D02*
X177900D01*
Y947790D01*
X138900D02*
X177900D01*
X797208Y858990D02*
X897208D01*
X797208Y758990D02*
Y858990D01*
Y758990D02*
X897208D01*
Y858990D01*
X101092Y105308D02*
X166091D01*
Y166294D01*
X101092D02*
X166091D01*
X101092Y105308D02*
Y166294D01*
X836960Y460630D02*
Y476630D01*
X868960D01*
Y460630D02*
Y476630D01*
X836960Y460630D02*
X868960D01*
X847730Y498939D02*
Y538939D01*
X834730Y551939D02*
X847730Y538939D01*
X807730Y551939D02*
X834730D01*
X794730Y538939D02*
X807730Y551939D01*
X794730Y498939D02*
Y538939D01*
Y498939D02*
X847730D01*
X198150Y215766D02*
X297150D01*
X198150Y176766D02*
Y215766D01*
Y176766D02*
X297150D01*
Y215766D01*
X794731Y635350D02*
X847731D01*
Y595350D02*
Y635350D01*
X834731Y582350D02*
X847731Y595350D01*
X807731Y582350D02*
X834731D01*
X794731Y595350D02*
X807731Y582350D01*
X794731Y595350D02*
Y635350D01*
X859030Y557910D02*
X891030D01*
X859030Y541910D02*
Y557910D01*
Y541910D02*
X891030D01*
Y557910D01*
M02*
