G04*
G04 #@! TF.GenerationSoftware,Altium Limited,Altium Designer,22.11.1 (43)*
G04*
G04 Layer_Physical_Order=2*
G04 Layer_Color=16711680*
%FSLAX44Y44*%
%MOMM*%
G71*
G04*
G04 #@! TF.SameCoordinates,BBE4461F-FD4E-4243-A50F-CCB5411C037D*
G04*
G04*
G04 #@! TF.FilePolarity,Positive*
G04*
G01*
G75*
%ADD24C,1.2700*%
%ADD25C,1.8000*%
%ADD26R,1.8000X1.8000*%
%ADD27C,1.6000*%
%ADD28R,1.6000X1.5240*%
%ADD29C,3.1000*%
%ADD30C,0.7620*%
%ADD31C,0.6000*%
G36*
X397385Y315455D02*
X396212Y314969D01*
X365750Y345430D01*
X363893Y346855D01*
X361731Y347751D01*
X359410Y348057D01*
X224866D01*
Y365683D01*
X240030D01*
X242351Y365989D01*
X244513Y366885D01*
X246370Y368310D01*
X256385Y378324D01*
X257810Y380181D01*
X258706Y382344D01*
X259011Y384665D01*
Y398033D01*
X260293Y399314D01*
X261812Y401946D01*
X262599Y404881D01*
Y407919D01*
X261812Y410854D01*
X260293Y413486D01*
X258144Y415634D01*
X255513Y417154D01*
X252578Y417940D01*
X249539D01*
X246604Y417154D01*
X243973Y415634D01*
X241824Y413486D01*
X240305Y410854D01*
X239519Y407919D01*
Y404881D01*
X240305Y401946D01*
X241078Y400607D01*
Y388379D01*
X236316Y383617D01*
X182347D01*
X180160Y385804D01*
Y400607D01*
X180933Y401946D01*
X181719Y404881D01*
Y407919D01*
X180933Y410854D01*
X179414Y413486D01*
X178132Y414767D01*
Y419281D01*
X177827Y421601D01*
X176931Y423764D01*
X175506Y425621D01*
X169307Y431820D01*
X169793Y432993D01*
X180520D01*
X182841Y433299D01*
X185004Y434195D01*
X186861Y435620D01*
X194300Y443059D01*
X195725Y444916D01*
X196621Y447079D01*
X196927Y449399D01*
Y465620D01*
X216280D01*
Y485940D01*
X196927D01*
Y492893D01*
X198197Y493419D01*
X199268Y492347D01*
X201672Y490960D01*
X204352Y490241D01*
X207128D01*
X209808Y490960D01*
X212212Y492347D01*
X214174Y494310D01*
X215562Y496713D01*
X216280Y499394D01*
Y502169D01*
X215562Y504850D01*
X214174Y507253D01*
X212212Y509215D01*
X209808Y510603D01*
X207128Y511321D01*
X206514D01*
X206028Y512495D01*
X209376Y515843D01*
X209808Y515958D01*
X212212Y517346D01*
X214174Y519308D01*
X215562Y521712D01*
X216280Y524392D01*
Y527168D01*
X215562Y529848D01*
X214174Y532252D01*
X212212Y534214D01*
X209808Y535602D01*
X207128Y536320D01*
X205756D01*
X205230Y537590D01*
X208157Y540517D01*
X209808Y540960D01*
X212212Y542347D01*
X214174Y544310D01*
X215562Y546713D01*
X216280Y549394D01*
Y552169D01*
X215562Y554850D01*
X214174Y557253D01*
X212212Y559215D01*
X209808Y560603D01*
X207128Y561321D01*
X204352D01*
X201672Y560603D01*
X199268Y559215D01*
X197306Y557253D01*
X195918Y554850D01*
X195476Y553198D01*
X166380Y524102D01*
X164955Y522245D01*
X164059Y520082D01*
X163753Y517761D01*
Y513636D01*
X162580Y513150D01*
X162347Y513383D01*
X160020Y514347D01*
Y508000D01*
Y501653D01*
X162347Y502617D01*
X162580Y502850D01*
X163753Y502364D01*
Y468354D01*
X161566Y466167D01*
X150240D01*
Y486338D01*
X129160D01*
Y466167D01*
X99060D01*
X96739Y465861D01*
X94577Y464965D01*
X92720Y463540D01*
X17790Y388610D01*
X16365Y386753D01*
X15469Y384591D01*
X15163Y382270D01*
Y149679D01*
X15469Y147359D01*
X16365Y145196D01*
X17790Y143339D01*
X35389Y125740D01*
X37246Y124315D01*
X39409Y123419D01*
X41729Y123113D01*
X121920D01*
X124241Y123419D01*
X126403Y124315D01*
X128260Y125740D01*
X163701Y161180D01*
X164079D01*
X167014Y161966D01*
X169646Y163486D01*
X171794Y165634D01*
X173314Y168266D01*
X174100Y171201D01*
Y174239D01*
X173314Y177174D01*
X171794Y179806D01*
X169646Y181954D01*
X167014Y183473D01*
X164079Y184260D01*
X161041D01*
X158106Y183473D01*
X155474Y181954D01*
X153326Y179806D01*
X151806Y177174D01*
X151020Y174239D01*
Y173861D01*
X149873Y172714D01*
X148700Y173200D01*
Y174239D01*
X147914Y177174D01*
X146394Y179806D01*
X144246Y181954D01*
X141614Y183473D01*
X138679Y184260D01*
X135641D01*
X132706Y183473D01*
X130074Y181954D01*
X127926Y179806D01*
X126406Y177174D01*
X125620Y174239D01*
Y173861D01*
X124473Y172714D01*
X123300Y173200D01*
Y174239D01*
X122514Y177174D01*
X120994Y179806D01*
X118846Y181954D01*
X116214Y183473D01*
X113279Y184260D01*
X113030D01*
Y172720D01*
X111760D01*
Y171450D01*
X100220D01*
Y171201D01*
X101006Y168266D01*
X102526Y165634D01*
X104674Y163486D01*
X107306Y161966D01*
X110241Y161180D01*
X111280D01*
X111766Y160007D01*
X109316Y157557D01*
X50524D01*
X48524Y159556D01*
X48679Y160872D01*
X49420Y161180D01*
X49607Y161180D01*
X72500D01*
Y184260D01*
X49607D01*
X49420Y184260D01*
X48337Y184711D01*
Y195737D01*
X49607Y195904D01*
X50206Y193666D01*
X51726Y191034D01*
X53874Y188886D01*
X56506Y187367D01*
X59441Y186580D01*
X62479D01*
X65414Y187367D01*
X68046Y188886D01*
X70194Y191034D01*
X71714Y193666D01*
X72500Y196601D01*
Y199639D01*
X71714Y202574D01*
X70194Y205206D01*
X68046Y207354D01*
X65414Y208874D01*
X62479Y209660D01*
X59441D01*
X56506Y208874D01*
X53874Y207354D01*
X51726Y205206D01*
X50206Y202574D01*
X49607Y200336D01*
X48337Y200503D01*
Y369666D01*
X97713Y419042D01*
X98983Y418516D01*
Y325120D01*
Y237309D01*
X99289Y234989D01*
X100185Y232826D01*
X101610Y230969D01*
X109049Y223530D01*
X110906Y222105D01*
X113069Y221209D01*
X115389Y220903D01*
X227606D01*
X229793Y218716D01*
Y205473D01*
X229526Y205206D01*
X228006Y202574D01*
X227220Y199639D01*
Y196601D01*
X228006Y193666D01*
X229526Y191034D01*
X231674Y188886D01*
X234306Y187367D01*
X237241Y186580D01*
X240279D01*
X243214Y187367D01*
X245846Y188886D01*
X247994Y191034D01*
X249513Y193666D01*
X250300Y196601D01*
Y199639D01*
X249513Y202574D01*
X247994Y205206D01*
X247727Y205473D01*
Y222430D01*
X247421Y224751D01*
X246525Y226914D01*
X245100Y228771D01*
X237661Y236210D01*
X235804Y237635D01*
X233641Y238531D01*
X231320Y238837D01*
X119104D01*
X116917Y241024D01*
Y325120D01*
Y415566D01*
X119104Y417753D01*
X133641D01*
Y397527D01*
X133622Y397430D01*
X133641Y397334D01*
Y394860D01*
X135321D01*
X135414Y394616D01*
X135639Y393723D01*
X135837Y392553D01*
X136214Y387066D01*
Y310749D01*
X136520Y308428D01*
X137415Y306266D01*
X138840Y304409D01*
X148600Y294650D01*
X150457Y293225D01*
X152619Y292329D01*
X154940Y292023D01*
X311426D01*
X326064Y277386D01*
X325225Y276429D01*
X324473Y277005D01*
X322311Y277901D01*
X319990Y278207D01*
X156210D01*
X153889Y277901D01*
X151727Y277005D01*
X149870Y275580D01*
X148445Y273723D01*
X147549Y271561D01*
X147243Y269240D01*
X147549Y266919D01*
X148445Y264757D01*
X149870Y262900D01*
X151727Y261475D01*
X153889Y260579D01*
X156210Y260273D01*
X281247D01*
X281773Y259003D01*
X280367Y257597D01*
X279403Y255270D01*
X292097D01*
X291133Y257597D01*
X289727Y259003D01*
X290253Y260273D01*
X316276D01*
X351663Y224886D01*
Y204162D01*
X350393Y203822D01*
X349594Y205206D01*
X347446Y207354D01*
X344814Y208874D01*
X341879Y209660D01*
X338841D01*
X335906Y208874D01*
X333274Y207354D01*
X331126Y205206D01*
X329607Y202574D01*
X328820Y199639D01*
Y196601D01*
X329607Y193666D01*
X331126Y191034D01*
X333274Y188886D01*
X335906Y187367D01*
X338841Y186580D01*
X341879D01*
X344814Y187367D01*
X347446Y188886D01*
X349594Y191034D01*
X350393Y192418D01*
X351663Y192078D01*
Y178762D01*
X350393Y178422D01*
X349594Y179806D01*
X347446Y181954D01*
X344814Y183473D01*
X341879Y184260D01*
X338841D01*
X335906Y183473D01*
X333274Y181954D01*
X331126Y179806D01*
X329607Y177174D01*
X328820Y174239D01*
Y171201D01*
X329607Y168266D01*
X331126Y165634D01*
X333274Y163486D01*
X335906Y161966D01*
X338841Y161180D01*
X339780D01*
X340266Y160007D01*
X339086Y158827D01*
X318770D01*
X316449Y158521D01*
X314287Y157625D01*
X312430Y156200D01*
X311005Y154343D01*
X310109Y152181D01*
X309803Y149860D01*
X310109Y147539D01*
X311005Y145377D01*
X312430Y143520D01*
X314287Y142095D01*
X316449Y141199D01*
X317605Y141047D01*
X317521Y139777D01*
X304704D01*
X298527Y145954D01*
Y165367D01*
X298794Y165634D01*
X300313Y168266D01*
X301100Y171201D01*
Y174239D01*
X300313Y177174D01*
X298794Y179806D01*
X296646Y181954D01*
X294014Y183473D01*
X291079Y184260D01*
X288041D01*
X285106Y183473D01*
X282474Y181954D01*
X280326Y179806D01*
X278806Y177174D01*
X278020Y174239D01*
Y171201D01*
X278806Y168266D01*
X280326Y165634D01*
X280593Y165367D01*
Y142240D01*
X280899Y139919D01*
X281795Y137757D01*
X283220Y135900D01*
X294650Y124470D01*
X296507Y123045D01*
X298669Y122149D01*
X300990Y121843D01*
X348161D01*
X350481Y122149D01*
X352644Y123045D01*
X354501Y124470D01*
X380970Y150939D01*
X382143Y150453D01*
Y115294D01*
X379956Y113107D01*
X280574D01*
X273127Y120554D01*
Y165367D01*
X273394Y165634D01*
X274914Y168266D01*
X275700Y171201D01*
Y174239D01*
X274914Y177174D01*
X273394Y179806D01*
X271246Y181954D01*
X268614Y183473D01*
X265679Y184260D01*
X262641D01*
X259706Y183473D01*
X257074Y181954D01*
X254926Y179806D01*
X253407Y177174D01*
X252620Y174239D01*
Y171201D01*
X253407Y168266D01*
X254926Y165634D01*
X255193Y165367D01*
Y116840D01*
X255499Y114519D01*
X256395Y112357D01*
X257820Y110500D01*
X270520Y97800D01*
X272377Y96375D01*
X274539Y95479D01*
X276860Y95173D01*
X383671D01*
X385991Y95479D01*
X388154Y96375D01*
X390011Y97800D01*
X396212Y104001D01*
X397385Y103515D01*
Y5155D01*
X5155D01*
Y597385D01*
X397385D01*
Y315455D01*
D02*
G37*
G36*
X153653Y397304D02*
X153207Y396922D01*
X152814Y396287D01*
X152474Y395398D01*
X152186Y394255D01*
X151950Y392859D01*
X151767Y391208D01*
X151557Y387144D01*
X151531Y384730D01*
X138831D01*
X138805Y387144D01*
X138412Y392859D01*
X138176Y394255D01*
X137888Y395398D01*
X137547Y396287D01*
X137154Y396922D01*
X136709Y397304D01*
X136211Y397430D01*
X154150D01*
X153653Y397304D01*
D02*
G37*
G36*
X160199Y415566D02*
Y412193D01*
X159426Y410854D01*
X158639Y407919D01*
Y404881D01*
X159426Y401946D01*
X160945Y399314D01*
X162227Y398033D01*
Y382090D01*
X162532Y379769D01*
X163428Y377606D01*
X164853Y375749D01*
X172293Y368310D01*
X174150Y366885D01*
X176312Y365989D01*
X178633Y365683D01*
X206933D01*
Y346443D01*
X206665Y346176D01*
X205146Y343544D01*
X204359Y340609D01*
Y337571D01*
X205146Y334636D01*
X206665Y332004D01*
X208814Y329856D01*
X211445Y328336D01*
X214380Y327550D01*
X217419D01*
X220354Y328336D01*
X222985Y329856D01*
X223253Y330123D01*
X355696D01*
X382143Y303676D01*
Y248327D01*
X380970Y247841D01*
X321481Y307330D01*
X319624Y308755D01*
X317461Y309651D01*
X315140Y309957D01*
X158654D01*
X154148Y314463D01*
Y387091D01*
X154349Y390998D01*
X154516Y392500D01*
X154722Y393723D01*
X154947Y394616D01*
X155041Y394860D01*
X156721D01*
Y397334D01*
X156740Y397430D01*
X156721Y397527D01*
Y417753D01*
X158012D01*
X160199Y415566D01*
D02*
G37*
%LPC*%
G36*
X372722Y589437D02*
X369168D01*
X365683Y588744D01*
X362400Y587384D01*
X359445Y585410D01*
X356932Y582897D01*
X354958Y579943D01*
X353598Y576660D01*
X352905Y573174D01*
Y569621D01*
X353598Y566135D01*
X354958Y562852D01*
X356932Y559897D01*
X359445Y557385D01*
X362400Y555410D01*
X365683Y554051D01*
X369168Y553357D01*
X372722D01*
X376207Y554051D01*
X379490Y555410D01*
X382445Y557385D01*
X384958Y559897D01*
X386932Y562852D01*
X388292Y566135D01*
X388985Y569621D01*
Y573174D01*
X388292Y576660D01*
X386932Y579943D01*
X384958Y582897D01*
X382445Y585410D01*
X379490Y587384D01*
X376207Y588744D01*
X372722Y589437D01*
D02*
G37*
G36*
X33632D02*
X30078D01*
X26593Y588744D01*
X23310Y587384D01*
X20355Y585410D01*
X17842Y582897D01*
X15868Y579943D01*
X14508Y576660D01*
X13815Y573174D01*
Y569621D01*
X14508Y566135D01*
X15868Y562852D01*
X17842Y559897D01*
X20355Y557385D01*
X23310Y555410D01*
X26593Y554051D01*
X30078Y553357D01*
X33632D01*
X37117Y554051D01*
X40400Y555410D01*
X43355Y557385D01*
X45868Y559897D01*
X47842Y562852D01*
X49202Y566135D01*
X49895Y569621D01*
Y573174D01*
X49202Y576660D01*
X47842Y579943D01*
X45868Y582897D01*
X43355Y585410D01*
X40400Y587384D01*
X37117Y588744D01*
X33632Y589437D01*
D02*
G37*
G36*
X273168Y561719D02*
X270392D01*
X267712Y561000D01*
X265308Y559613D01*
X263346Y557650D01*
X261958Y555247D01*
X261240Y552566D01*
Y549791D01*
X261958Y547110D01*
X263346Y544707D01*
X265308Y542745D01*
X267712Y541357D01*
X270392Y540639D01*
X273168D01*
X275848Y541357D01*
X278252Y542745D01*
X280214Y544707D01*
X281602Y547110D01*
X282320Y549791D01*
Y552566D01*
X281602Y555247D01*
X280214Y557650D01*
X278252Y559613D01*
X275848Y561000D01*
X273168Y561719D01*
D02*
G37*
G36*
X141088D02*
X138312D01*
X135632Y561000D01*
X133228Y559613D01*
X131266Y557650D01*
X129878Y555247D01*
X129160Y552566D01*
Y549791D01*
X129878Y547110D01*
X131266Y544707D01*
X133228Y542745D01*
X135632Y541357D01*
X138312Y540639D01*
X141088D01*
X143768Y541357D01*
X146172Y542745D01*
X148134Y544707D01*
X149522Y547110D01*
X150240Y549791D01*
Y552566D01*
X149522Y555247D01*
X148134Y557650D01*
X146172Y559613D01*
X143768Y561000D01*
X141088Y561719D01*
D02*
G37*
G36*
X273168Y536717D02*
X270392D01*
X267712Y535999D01*
X265308Y534612D01*
X263346Y532649D01*
X261958Y530246D01*
X261240Y527565D01*
Y524790D01*
X261958Y522109D01*
X263346Y519706D01*
X265308Y517743D01*
X267712Y516356D01*
X270392Y515638D01*
X273168D01*
X275848Y516356D01*
X278252Y517743D01*
X280214Y519706D01*
X281602Y522109D01*
X282320Y524790D01*
Y527565D01*
X281602Y530246D01*
X280214Y532649D01*
X278252Y534612D01*
X275848Y535999D01*
X273168Y536717D01*
D02*
G37*
G36*
X141088D02*
X138312D01*
X135632Y535999D01*
X133228Y534612D01*
X131266Y532649D01*
X129878Y530246D01*
X129160Y527565D01*
Y524790D01*
X129878Y522109D01*
X131266Y519706D01*
X133228Y517743D01*
X135632Y516356D01*
X138312Y515638D01*
X141088D01*
X143768Y516356D01*
X146172Y517743D01*
X148134Y519706D01*
X149522Y522109D01*
X150240Y524790D01*
Y527565D01*
X149522Y530246D01*
X148134Y532649D01*
X146172Y534612D01*
X143768Y535999D01*
X141088Y536717D01*
D02*
G37*
G36*
X157480Y514347D02*
X155153Y513383D01*
X153367Y511597D01*
X152403Y509270D01*
X157480D01*
Y514347D01*
D02*
G37*
G36*
Y506730D02*
X152403D01*
X153367Y504403D01*
X155153Y502617D01*
X157480Y501653D01*
Y506730D01*
D02*
G37*
G36*
X273168Y511719D02*
X270392D01*
X267712Y511001D01*
X265308Y509613D01*
X263346Y507650D01*
X261958Y505247D01*
X261240Y502566D01*
Y499791D01*
X261958Y497110D01*
X263346Y494707D01*
X265308Y492745D01*
X267712Y491357D01*
X270392Y490639D01*
X273168D01*
X275848Y491357D01*
X278252Y492745D01*
X280214Y494707D01*
X281602Y497110D01*
X282320Y499791D01*
Y502566D01*
X281602Y505247D01*
X280214Y507650D01*
X278252Y509613D01*
X275848Y511001D01*
X273168Y511719D01*
D02*
G37*
G36*
X141088D02*
X138312D01*
X135632Y511001D01*
X133228Y509613D01*
X131266Y507650D01*
X129878Y505247D01*
X129160Y502566D01*
Y499791D01*
X129878Y497110D01*
X131266Y494707D01*
X133228Y492745D01*
X135632Y491357D01*
X138312Y490639D01*
X141088D01*
X143768Y491357D01*
X146172Y492745D01*
X148134Y494707D01*
X149522Y497110D01*
X150240Y499791D01*
Y502566D01*
X149522Y505247D01*
X148134Y507650D01*
X146172Y509613D01*
X143768Y511001D01*
X141088Y511719D01*
D02*
G37*
G36*
X282320Y486338D02*
X261240D01*
Y466018D01*
X282320D01*
Y486338D01*
D02*
G37*
G36*
X318770Y450847D02*
Y445770D01*
X323847D01*
X322883Y448097D01*
X321097Y449883D01*
X318770Y450847D01*
D02*
G37*
G36*
X316230D02*
X313903Y449883D01*
X312117Y448097D01*
X311153Y445770D01*
X316230D01*
Y450847D01*
D02*
G37*
G36*
X323847Y443230D02*
X318770D01*
Y438153D01*
X321097Y439117D01*
X322883Y440903D01*
X323847Y443230D01*
D02*
G37*
G36*
X316230D02*
X311153D01*
X312117Y440903D01*
X313903Y439117D01*
X316230Y438153D01*
Y443230D01*
D02*
G37*
G36*
X237600Y417940D02*
X214520D01*
Y394860D01*
X237600D01*
Y417940D01*
D02*
G37*
G36*
X292097Y252730D02*
X287020D01*
Y247653D01*
X289347Y248617D01*
X291133Y250403D01*
X292097Y252730D01*
D02*
G37*
G36*
X284480D02*
X279403D01*
X280367Y250403D01*
X282153Y248617D01*
X284480Y247653D01*
Y252730D01*
D02*
G37*
G36*
X164079Y209660D02*
X163830D01*
Y199390D01*
X174100D01*
Y199639D01*
X173314Y202574D01*
X171794Y205206D01*
X169646Y207354D01*
X167014Y208874D01*
X164079Y209660D01*
D02*
G37*
G36*
X161290D02*
X161041D01*
X158106Y208874D01*
X155474Y207354D01*
X153326Y205206D01*
X151806Y202574D01*
X151020Y199639D01*
Y199390D01*
X161290D01*
Y209660D01*
D02*
G37*
G36*
X316479D02*
X313441D01*
X310506Y208874D01*
X307874Y207354D01*
X305726Y205206D01*
X304207Y202574D01*
X303420Y199639D01*
Y196601D01*
X304207Y193666D01*
X305726Y191034D01*
X307874Y188886D01*
X310506Y187367D01*
X313441Y186580D01*
X316479D01*
X319414Y187367D01*
X322046Y188886D01*
X324194Y191034D01*
X325714Y193666D01*
X326500Y196601D01*
Y199639D01*
X325714Y202574D01*
X324194Y205206D01*
X322046Y207354D01*
X319414Y208874D01*
X316479Y209660D01*
D02*
G37*
G36*
X291079D02*
X288041D01*
X285106Y208874D01*
X282474Y207354D01*
X280326Y205206D01*
X278806Y202574D01*
X278020Y199639D01*
Y196601D01*
X278806Y193666D01*
X280326Y191034D01*
X282474Y188886D01*
X285106Y187367D01*
X288041Y186580D01*
X291079D01*
X294014Y187367D01*
X296646Y188886D01*
X298794Y191034D01*
X300313Y193666D01*
X301100Y196601D01*
Y199639D01*
X300313Y202574D01*
X298794Y205206D01*
X296646Y207354D01*
X294014Y208874D01*
X291079Y209660D01*
D02*
G37*
G36*
X265679D02*
X262641D01*
X259706Y208874D01*
X257074Y207354D01*
X254926Y205206D01*
X253407Y202574D01*
X252620Y199639D01*
Y196601D01*
X253407Y193666D01*
X254926Y191034D01*
X257074Y188886D01*
X259706Y187367D01*
X262641Y186580D01*
X265679D01*
X268614Y187367D01*
X271246Y188886D01*
X273394Y191034D01*
X274914Y193666D01*
X275700Y196601D01*
Y199639D01*
X274914Y202574D01*
X273394Y205206D01*
X271246Y207354D01*
X268614Y208874D01*
X265679Y209660D01*
D02*
G37*
G36*
X214879D02*
X211841D01*
X208906Y208874D01*
X206274Y207354D01*
X204126Y205206D01*
X202607Y202574D01*
X201820Y199639D01*
Y196601D01*
X202607Y193666D01*
X204126Y191034D01*
X206274Y188886D01*
X208906Y187367D01*
X211841Y186580D01*
X214879D01*
X217814Y187367D01*
X220446Y188886D01*
X222594Y191034D01*
X224114Y193666D01*
X224900Y196601D01*
Y199639D01*
X224114Y202574D01*
X222594Y205206D01*
X220446Y207354D01*
X217814Y208874D01*
X214879Y209660D01*
D02*
G37*
G36*
X189479D02*
X186441D01*
X183506Y208874D01*
X180874Y207354D01*
X178726Y205206D01*
X177206Y202574D01*
X176420Y199639D01*
Y196601D01*
X177206Y193666D01*
X178726Y191034D01*
X180874Y188886D01*
X183506Y187367D01*
X186441Y186580D01*
X189479D01*
X192414Y187367D01*
X195046Y188886D01*
X197194Y191034D01*
X198713Y193666D01*
X199500Y196601D01*
Y199639D01*
X198713Y202574D01*
X197194Y205206D01*
X195046Y207354D01*
X192414Y208874D01*
X189479Y209660D01*
D02*
G37*
G36*
X174100Y196850D02*
X163830D01*
Y186580D01*
X164079D01*
X167014Y187367D01*
X169646Y188886D01*
X171794Y191034D01*
X173314Y193666D01*
X174100Y196601D01*
Y196850D01*
D02*
G37*
G36*
X161290D02*
X151020D01*
Y196601D01*
X151806Y193666D01*
X153326Y191034D01*
X155474Y188886D01*
X158106Y187367D01*
X161041Y186580D01*
X161290D01*
Y196850D01*
D02*
G37*
G36*
X138679Y209660D02*
X135641D01*
X132706Y208874D01*
X130074Y207354D01*
X127926Y205206D01*
X126406Y202574D01*
X125620Y199639D01*
Y196601D01*
X126406Y193666D01*
X127926Y191034D01*
X130074Y188886D01*
X132706Y187367D01*
X135641Y186580D01*
X138679D01*
X141614Y187367D01*
X144246Y188886D01*
X146394Y191034D01*
X147914Y193666D01*
X148700Y196601D01*
Y199639D01*
X147914Y202574D01*
X146394Y205206D01*
X144246Y207354D01*
X141614Y208874D01*
X138679Y209660D01*
D02*
G37*
G36*
X113279D02*
X110241D01*
X107306Y208874D01*
X104674Y207354D01*
X102526Y205206D01*
X101006Y202574D01*
X100220Y199639D01*
Y196601D01*
X101006Y193666D01*
X102526Y191034D01*
X104674Y188886D01*
X107306Y187367D01*
X110241Y186580D01*
X113279D01*
X116214Y187367D01*
X118846Y188886D01*
X120994Y191034D01*
X122514Y193666D01*
X123300Y196601D01*
Y199639D01*
X122514Y202574D01*
X120994Y205206D01*
X118846Y207354D01*
X116214Y208874D01*
X113279Y209660D01*
D02*
G37*
G36*
X87879D02*
X84841D01*
X81906Y208874D01*
X79274Y207354D01*
X77126Y205206D01*
X75606Y202574D01*
X74820Y199639D01*
Y196601D01*
X75606Y193666D01*
X77126Y191034D01*
X79274Y188886D01*
X81906Y187367D01*
X84841Y186580D01*
X87879D01*
X90814Y187367D01*
X93446Y188886D01*
X95594Y191034D01*
X97114Y193666D01*
X97900Y196601D01*
Y199639D01*
X97114Y202574D01*
X95594Y205206D01*
X93446Y207354D01*
X90814Y208874D01*
X87879Y209660D01*
D02*
G37*
G36*
X240279Y184260D02*
X240030D01*
Y173990D01*
X250300D01*
Y174239D01*
X249513Y177174D01*
X247994Y179806D01*
X245846Y181954D01*
X243214Y183473D01*
X240279Y184260D01*
D02*
G37*
G36*
X237490D02*
X237241D01*
X234306Y183473D01*
X231674Y181954D01*
X229526Y179806D01*
X228006Y177174D01*
X227220Y174239D01*
Y173990D01*
X237490D01*
Y184260D01*
D02*
G37*
G36*
X110490D02*
X110241D01*
X107306Y183473D01*
X104674Y181954D01*
X102526Y179806D01*
X101006Y177174D01*
X100220Y174239D01*
Y173990D01*
X110490D01*
Y184260D01*
D02*
G37*
G36*
X316479D02*
X313441D01*
X310506Y183473D01*
X307874Y181954D01*
X305726Y179806D01*
X304207Y177174D01*
X303420Y174239D01*
Y171201D01*
X304207Y168266D01*
X305726Y165634D01*
X307874Y163486D01*
X310506Y161966D01*
X313441Y161180D01*
X316479D01*
X319414Y161966D01*
X322046Y163486D01*
X324194Y165634D01*
X325714Y168266D01*
X326500Y171201D01*
Y174239D01*
X325714Y177174D01*
X324194Y179806D01*
X322046Y181954D01*
X319414Y183473D01*
X316479Y184260D01*
D02*
G37*
G36*
X214879D02*
X211841D01*
X208906Y183473D01*
X206274Y181954D01*
X204126Y179806D01*
X202607Y177174D01*
X201820Y174239D01*
Y171201D01*
X202607Y168266D01*
X204126Y165634D01*
X206274Y163486D01*
X208906Y161966D01*
X211841Y161180D01*
X214879D01*
X217814Y161966D01*
X220446Y163486D01*
X222594Y165634D01*
X224114Y168266D01*
X224900Y171201D01*
Y174239D01*
X224114Y177174D01*
X222594Y179806D01*
X220446Y181954D01*
X217814Y183473D01*
X214879Y184260D01*
D02*
G37*
G36*
X189479D02*
X186441D01*
X183506Y183473D01*
X180874Y181954D01*
X178726Y179806D01*
X177206Y177174D01*
X176420Y174239D01*
Y171201D01*
X177206Y168266D01*
X178726Y165634D01*
X180874Y163486D01*
X183506Y161966D01*
X186441Y161180D01*
X189479D01*
X192414Y161966D01*
X195046Y163486D01*
X197194Y165634D01*
X198713Y168266D01*
X199500Y171201D01*
Y174239D01*
X198713Y177174D01*
X197194Y179806D01*
X195046Y181954D01*
X192414Y183473D01*
X189479Y184260D01*
D02*
G37*
G36*
X87879D02*
X84841D01*
X81906Y183473D01*
X79274Y181954D01*
X77126Y179806D01*
X75606Y177174D01*
X74820Y174239D01*
Y171201D01*
X75606Y168266D01*
X77126Y165634D01*
X79274Y163486D01*
X81906Y161966D01*
X84841Y161180D01*
X87879D01*
X90814Y161966D01*
X93446Y163486D01*
X95594Y165634D01*
X97114Y168266D01*
X97900Y171201D01*
Y174239D01*
X97114Y177174D01*
X95594Y179806D01*
X93446Y181954D01*
X90814Y183473D01*
X87879Y184260D01*
D02*
G37*
G36*
X160020Y133347D02*
Y128270D01*
X165097D01*
X164133Y130597D01*
X162347Y132383D01*
X160020Y133347D01*
D02*
G37*
G36*
X157480D02*
X155153Y132383D01*
X153367Y130597D01*
X152403Y128270D01*
X157480D01*
Y133347D01*
D02*
G37*
G36*
X165097Y125730D02*
X160020D01*
Y120653D01*
X162347Y121617D01*
X164133Y123403D01*
X165097Y125730D01*
D02*
G37*
G36*
X157480D02*
X152403D01*
X153367Y123403D01*
X155153Y121617D01*
X157480Y120653D01*
Y125730D01*
D02*
G37*
G36*
X250300Y171450D02*
X227220D01*
Y171201D01*
X228006Y168266D01*
X229526Y165634D01*
X229793Y165367D01*
Y118014D01*
X221076Y109297D01*
X157480D01*
X155159Y108991D01*
X152997Y108095D01*
X151140Y106670D01*
X149715Y104813D01*
X148819Y102651D01*
X148513Y100330D01*
X148819Y98009D01*
X149715Y95847D01*
X151140Y93990D01*
X152997Y92565D01*
X155159Y91669D01*
X157480Y91363D01*
X224790D01*
X227111Y91669D01*
X229273Y92565D01*
X231130Y93990D01*
X245100Y107960D01*
X246525Y109817D01*
X247421Y111979D01*
X247727Y114300D01*
Y165367D01*
X247994Y165634D01*
X249513Y168266D01*
X250300Y171201D01*
Y171450D01*
D02*
G37*
G36*
X318770Y69847D02*
Y64770D01*
X323847D01*
X322883Y67097D01*
X321097Y68883D01*
X318770Y69847D01*
D02*
G37*
G36*
X316230D02*
X313903Y68883D01*
X312117Y67097D01*
X311153Y64770D01*
X316230D01*
Y69847D01*
D02*
G37*
G36*
X255270D02*
Y64770D01*
X260347D01*
X259383Y67097D01*
X257597Y68883D01*
X255270Y69847D01*
D02*
G37*
G36*
X252730D02*
X250403Y68883D01*
X248617Y67097D01*
X247653Y64770D01*
X252730D01*
Y69847D01*
D02*
G37*
G36*
X191770D02*
Y64770D01*
X196847D01*
X195883Y67097D01*
X194097Y68883D01*
X191770Y69847D01*
D02*
G37*
G36*
X189230D02*
X186903Y68883D01*
X185117Y67097D01*
X184153Y64770D01*
X189230D01*
Y69847D01*
D02*
G37*
G36*
X128270D02*
Y64770D01*
X133347D01*
X132383Y67097D01*
X130597Y68883D01*
X128270Y69847D01*
D02*
G37*
G36*
X125730D02*
X123403Y68883D01*
X121617Y67097D01*
X120653Y64770D01*
X125730D01*
Y69847D01*
D02*
G37*
G36*
X64770D02*
Y64770D01*
X69847D01*
X68883Y67097D01*
X67097Y68883D01*
X64770Y69847D01*
D02*
G37*
G36*
X62230D02*
X59903Y68883D01*
X58117Y67097D01*
X57153Y64770D01*
X62230D01*
Y69847D01*
D02*
G37*
G36*
X323847Y62230D02*
X318770D01*
Y57153D01*
X321097Y58117D01*
X322883Y59903D01*
X323847Y62230D01*
D02*
G37*
G36*
X316230D02*
X311153D01*
X312117Y59903D01*
X313903Y58117D01*
X316230Y57153D01*
Y62230D01*
D02*
G37*
G36*
X260347D02*
X255270D01*
Y57153D01*
X257597Y58117D01*
X259383Y59903D01*
X260347Y62230D01*
D02*
G37*
G36*
X252730D02*
X247653D01*
X248617Y59903D01*
X250403Y58117D01*
X252730Y57153D01*
Y62230D01*
D02*
G37*
G36*
X196847D02*
X191770D01*
Y57153D01*
X194097Y58117D01*
X195883Y59903D01*
X196847Y62230D01*
D02*
G37*
G36*
X189230D02*
X184153D01*
X185117Y59903D01*
X186903Y58117D01*
X189230Y57153D01*
Y62230D01*
D02*
G37*
G36*
X133347D02*
X128270D01*
Y57153D01*
X130597Y58117D01*
X132383Y59903D01*
X133347Y62230D01*
D02*
G37*
G36*
X125730D02*
X120653D01*
X121617Y59903D01*
X123403Y58117D01*
X125730Y57153D01*
Y62230D01*
D02*
G37*
G36*
X69847D02*
X64770D01*
Y57153D01*
X67097Y58117D01*
X68883Y59903D01*
X69847Y62230D01*
D02*
G37*
G36*
X62230D02*
X57153D01*
X58117Y59903D01*
X59903Y58117D01*
X62230Y57153D01*
Y62230D01*
D02*
G37*
G36*
X372722Y49688D02*
X369168D01*
X365683Y48994D01*
X362400Y47634D01*
X359445Y45660D01*
X356932Y43147D01*
X354958Y40193D01*
X353598Y36909D01*
X352905Y33424D01*
Y29871D01*
X353598Y26385D01*
X354958Y23102D01*
X356932Y20148D01*
X359445Y17635D01*
X362400Y15660D01*
X365683Y14301D01*
X369168Y13607D01*
X372722D01*
X376207Y14301D01*
X379490Y15660D01*
X382445Y17635D01*
X384958Y20148D01*
X386932Y23102D01*
X388292Y26385D01*
X388985Y29871D01*
Y33424D01*
X388292Y36909D01*
X386932Y40193D01*
X384958Y43147D01*
X382445Y45660D01*
X379490Y47634D01*
X376207Y48994D01*
X372722Y49688D01*
D02*
G37*
G36*
X33632D02*
X30078D01*
X26593Y48994D01*
X23310Y47634D01*
X20355Y45660D01*
X17842Y43147D01*
X15868Y40193D01*
X14508Y36909D01*
X13815Y33424D01*
Y29871D01*
X14508Y26385D01*
X15868Y23102D01*
X17842Y20148D01*
X20355Y17635D01*
X23310Y15660D01*
X26593Y14301D01*
X30078Y13607D01*
X33632D01*
X37117Y14301D01*
X40400Y15660D01*
X43355Y17635D01*
X45868Y20148D01*
X47842Y23102D01*
X49202Y26385D01*
X49895Y29871D01*
Y33424D01*
X49202Y36909D01*
X47842Y40193D01*
X45868Y43147D01*
X43355Y45660D01*
X40400Y47634D01*
X37117Y48994D01*
X33632Y49688D01*
D02*
G37*
G36*
X202441Y350630D02*
X179361D01*
Y327550D01*
X202441D01*
Y350630D01*
D02*
G37*
G36*
X318770Y323847D02*
Y318770D01*
X323847D01*
X322883Y321097D01*
X321097Y322883D01*
X318770Y323847D01*
D02*
G37*
G36*
X316230D02*
X313903Y322883D01*
X312117Y321097D01*
X311153Y318770D01*
X316230D01*
Y323847D01*
D02*
G37*
G36*
X323847Y316230D02*
X318770D01*
Y311153D01*
X321097Y312117D01*
X322883Y313903D01*
X323847Y316230D01*
D02*
G37*
G36*
X316230D02*
X311153D01*
X312117Y313903D01*
X313903Y312117D01*
X316230Y311153D01*
Y316230D01*
D02*
G37*
%LPD*%
D24*
X107950Y325120D02*
Y419281D01*
Y237309D02*
Y325120D01*
X115389Y426720D02*
X161726D01*
X107950Y237309D02*
X115389Y229870D01*
X231320D01*
X107950Y419281D02*
X115389Y426720D01*
X215900Y339090D02*
X215900Y339090D01*
X359410D02*
X391110Y307390D01*
X215900Y339090D02*
X359410D01*
X315140Y300990D02*
X375870Y240261D01*
X154940Y300990D02*
X315140D01*
X145181Y310749D02*
X154940Y300990D01*
X391110Y111580D02*
Y307390D01*
X250045Y405385D02*
X251059Y406400D01*
X250045Y384665D02*
Y405385D01*
X217170Y374650D02*
X240030D01*
X250045Y384665D01*
X145181Y310749D02*
Y406400D01*
X171194Y382090D02*
X178633Y374650D01*
X217170D01*
X170180Y406400D02*
X171194Y405386D01*
X215900Y373380D02*
X217170Y374650D01*
X171194Y382090D02*
Y405386D01*
X215900Y339090D02*
Y373380D01*
X342800Y149860D02*
X360630Y167690D01*
Y228600D01*
X318770Y149860D02*
X342800D01*
X319990Y269240D02*
X360630Y228600D01*
X156210Y269240D02*
X319990D01*
X238760Y198120D02*
Y222430D01*
X231320Y229870D02*
X238760Y222430D01*
X276860Y104140D02*
X383671D01*
X375870Y158519D02*
Y240261D01*
X172720Y517761D02*
X205740Y550781D01*
X165280Y457200D02*
X172720Y464640D01*
X99060Y457200D02*
X165280D01*
X348161Y130810D02*
X375870Y158519D01*
X39370Y373380D02*
X107950Y441960D01*
X383671Y104140D02*
X391110Y111580D01*
X24130Y382270D02*
X99060Y457200D01*
X24130Y149679D02*
Y382270D01*
X107950Y441960D02*
X180520D01*
X187960Y449399D02*
Y507107D01*
X180520Y441960D02*
X187960Y449399D01*
X172720Y464640D02*
Y517761D01*
X205740Y550781D02*
Y550783D01*
X39370Y156030D02*
Y373380D01*
X121920Y132080D02*
X162560Y172720D01*
X41729Y132080D02*
X121920D01*
X238760Y114300D02*
Y172720D01*
X224790Y100330D02*
X238760Y114300D01*
X157480Y100330D02*
X224790D01*
X39370Y156030D02*
X46810Y148590D01*
X113030D02*
X137160Y172720D01*
X24130Y149679D02*
X41729Y132080D01*
X46810Y148590D02*
X113030D01*
X169165Y407415D02*
Y419281D01*
X161726Y426720D02*
X169165Y419281D01*
Y407415D02*
X170180Y406400D01*
X264160Y116840D02*
Y172720D01*
Y116840D02*
X276860Y104140D01*
X300990Y130810D02*
X348161D01*
X289560Y142240D02*
X300990Y130810D01*
X289560Y142240D02*
Y172720D01*
X205740Y524887D02*
Y525780D01*
X187960Y507107D02*
X205740Y524887D01*
D25*
X170180Y406400D02*
D03*
X215900Y339090D02*
D03*
X251059Y406400D02*
D03*
X60960Y198120D02*
D03*
X86360Y172720D02*
D03*
Y198120D02*
D03*
X111760Y172720D02*
D03*
Y198120D02*
D03*
X137160Y172720D02*
D03*
Y198120D02*
D03*
X162560Y172720D02*
D03*
Y198120D02*
D03*
X187960Y172720D02*
D03*
Y198120D02*
D03*
X213360Y172720D02*
D03*
Y198120D02*
D03*
X238760Y172720D02*
D03*
Y198120D02*
D03*
X264160Y172720D02*
D03*
Y198120D02*
D03*
X289560Y172720D02*
D03*
Y198120D02*
D03*
X314960Y172720D02*
D03*
Y198120D02*
D03*
X340360Y172720D02*
D03*
Y198120D02*
D03*
D26*
X145181Y406400D02*
D03*
X190901Y339090D02*
D03*
X226060Y406400D02*
D03*
X60960Y172720D02*
D03*
D27*
X139700Y526177D02*
D03*
Y551179D02*
D03*
X271780Y501179D02*
D03*
Y526177D02*
D03*
Y551179D02*
D03*
X139700Y501179D02*
D03*
X205740Y500781D02*
D03*
Y525780D02*
D03*
Y550781D02*
D03*
D28*
X271780Y476178D02*
D03*
X139700D02*
D03*
X205740Y475780D02*
D03*
D29*
X31855Y31647D02*
D03*
X370945D02*
D03*
X31855Y571397D02*
D03*
X370945D02*
D03*
D30*
X317500Y444500D02*
D03*
Y317500D02*
D03*
Y63500D02*
D03*
X285750Y254000D02*
D03*
X254000Y63500D02*
D03*
X190500D02*
D03*
X158750Y508000D02*
D03*
Y127000D02*
D03*
X127000Y63500D02*
D03*
X63500D02*
D03*
D31*
X107950Y325120D02*
D03*
X318770Y149860D02*
D03*
X156210Y269240D02*
D03*
X157480Y100330D02*
D03*
M02*
