G04*
G04 #@! TF.GenerationSoftware,Altium Limited,Altium Designer,22.11.1 (43)*
G04*
G04 Layer_Color=255*
%FSLAX44Y44*%
%MOMM*%
G71*
G04*
G04 #@! TF.SameCoordinates,BBE4461F-FD4E-4243-A50F-CCB5411C037D*
G04*
G04*
G04 #@! TF.FilePolarity,Positive*
G04*
G01*
G75*
%ADD25C,1.8000*%
%ADD26R,1.8000X1.8000*%
%ADD27C,1.6000*%
%ADD28R,1.6000X1.5240*%
%ADD29C,3.1000*%
D25*
X170180Y406400D02*
D03*
X215900Y339090D02*
D03*
X251059Y406400D02*
D03*
X60960Y198120D02*
D03*
X86360Y172720D02*
D03*
Y198120D02*
D03*
X111760Y172720D02*
D03*
Y198120D02*
D03*
X137160Y172720D02*
D03*
Y198120D02*
D03*
X162560Y172720D02*
D03*
Y198120D02*
D03*
X187960Y172720D02*
D03*
Y198120D02*
D03*
X213360Y172720D02*
D03*
Y198120D02*
D03*
X238760Y172720D02*
D03*
Y198120D02*
D03*
X264160Y172720D02*
D03*
Y198120D02*
D03*
X289560Y172720D02*
D03*
Y198120D02*
D03*
X314960Y172720D02*
D03*
Y198120D02*
D03*
X340360Y172720D02*
D03*
Y198120D02*
D03*
D26*
X145181Y406400D02*
D03*
X190901Y339090D02*
D03*
X226060Y406400D02*
D03*
X60960Y172720D02*
D03*
D27*
X139700Y526177D02*
D03*
Y551179D02*
D03*
X271780Y501179D02*
D03*
Y526177D02*
D03*
Y551179D02*
D03*
X139700Y501179D02*
D03*
X205740Y500781D02*
D03*
Y525780D02*
D03*
Y550781D02*
D03*
D28*
X271780Y476178D02*
D03*
X139700D02*
D03*
X205740Y475780D02*
D03*
D29*
X31855Y31647D02*
D03*
X370945D02*
D03*
X31855Y571397D02*
D03*
X370945D02*
D03*
M02*
