G04*
G04 #@! TF.GenerationSoftware,Altium Limited,Altium Designer,22.11.1 (43)*
G04*
G04 Layer_Color=128*
%FSLAX44Y44*%
%MOMM*%
G71*
G04*
G04 #@! TF.SameCoordinates,BBE4461F-FD4E-4243-A50F-CCB5411C037D*
G04*
G04*
G04 #@! TF.FilePolarity,Positive*
G04*
G01*
G75*
%ADD12C,0.1270*%
D12*
X164680Y406400D02*
X175680D01*
X170180Y400900D02*
Y411900D01*
X139681Y406400D02*
X150681D01*
X145181Y400900D02*
Y411900D01*
X134200Y526177D02*
X145200D01*
X139700Y520677D02*
Y531678D01*
X134200Y551180D02*
X145200D01*
X139700Y545680D02*
Y556680D01*
X266280Y476178D02*
X277280D01*
X271780Y470677D02*
Y481678D01*
X266280Y501180D02*
X277280D01*
X271780Y495680D02*
Y506680D01*
X266280Y526177D02*
X277280D01*
X271780Y520677D02*
Y531678D01*
X266280Y551180D02*
X277280D01*
X271780Y545680D02*
Y556680D01*
X134200Y476178D02*
X145200D01*
X139700Y470677D02*
Y481678D01*
X134200Y501180D02*
X145200D01*
X139700Y495680D02*
Y506680D01*
X185401Y339090D02*
X196401D01*
X190901Y333590D02*
Y344590D01*
X210400Y339090D02*
X221400D01*
X215900Y333590D02*
Y344590D01*
X220560Y406400D02*
X231560D01*
X226060Y400900D02*
Y411900D01*
X245559Y406400D02*
X256559D01*
X251059Y400900D02*
Y411900D01*
X200240Y475780D02*
X211240D01*
X205740Y470280D02*
Y481280D01*
X200240Y500783D02*
X211240D01*
X205740Y495283D02*
Y506283D01*
X200240Y525780D02*
X211240D01*
X205740Y520280D02*
Y531280D01*
X200240Y550783D02*
X211240D01*
X205740Y545282D02*
Y556283D01*
X54960Y172720D02*
X66960D01*
X60960Y166720D02*
Y178720D01*
X54960Y198120D02*
X66960D01*
X60960Y192120D02*
Y204120D01*
X80360Y172720D02*
X92360D01*
X86360Y166720D02*
Y178720D01*
X80360Y198120D02*
X92360D01*
X86360Y192120D02*
Y204120D01*
X105760Y172720D02*
X117760D01*
X111760Y166720D02*
Y178720D01*
X105760Y198120D02*
X117760D01*
X111760Y192120D02*
Y204120D01*
X131160Y172720D02*
X143160D01*
X137160Y166720D02*
Y178720D01*
X131160Y198120D02*
X143160D01*
X137160Y192120D02*
Y204120D01*
X156560Y172720D02*
X168560D01*
X162560Y166720D02*
Y178720D01*
X156560Y198120D02*
X168560D01*
X162560Y192120D02*
Y204120D01*
X181960Y172720D02*
X193960D01*
X187960Y166720D02*
Y178720D01*
X181960Y198120D02*
X193960D01*
X187960Y192120D02*
Y204120D01*
X207360Y172720D02*
X219360D01*
X213360Y166720D02*
Y178720D01*
X207360Y198120D02*
X219360D01*
X213360Y192120D02*
Y204120D01*
X232760Y172720D02*
X244760D01*
X238760Y166720D02*
Y178720D01*
X232760Y198120D02*
X244760D01*
X238760Y192120D02*
Y204120D01*
X258160Y172720D02*
X270160D01*
X264160Y166720D02*
Y178720D01*
X258160Y198120D02*
X270160D01*
X264160Y192120D02*
Y204120D01*
X283560Y172720D02*
X295560D01*
X289560Y166720D02*
Y178720D01*
X283560Y198120D02*
X295560D01*
X289560Y192120D02*
Y204120D01*
X308960Y172720D02*
X320960D01*
X314960Y166720D02*
Y178720D01*
X308960Y198120D02*
X320960D01*
X314960Y192120D02*
Y204120D01*
X334360Y172720D02*
X346360D01*
X340360Y166720D02*
Y178720D01*
X334360Y198120D02*
X346360D01*
X340360Y192120D02*
Y204120D01*
X16355Y31647D02*
X47355D01*
X31855Y16147D02*
Y47147D01*
X355445Y31647D02*
X386445D01*
X370945Y16147D02*
Y47147D01*
X16355Y571397D02*
X47355D01*
X31855Y555897D02*
Y586898D01*
X355445Y571397D02*
X386445D01*
X370945Y555897D02*
Y586898D01*
X315468Y444500D02*
X319532D01*
X317500Y442468D02*
Y446532D01*
X315468Y317500D02*
X319532D01*
X317500Y315468D02*
Y319532D01*
X315468Y63500D02*
X319532D01*
X317500Y61468D02*
Y65532D01*
X283718Y254000D02*
X287782D01*
X285750Y251968D02*
Y256032D01*
X251968Y63500D02*
X256032D01*
X254000Y61468D02*
Y65532D01*
X188468Y63500D02*
X192532D01*
X190500Y61468D02*
Y65532D01*
X156718Y508000D02*
X160782D01*
X158750Y505968D02*
Y510032D01*
X156718Y127000D02*
X160782D01*
X158750Y124968D02*
Y129032D01*
X124968Y63500D02*
X129032D01*
X127000Y61468D02*
Y65532D01*
X61468Y63500D02*
X65532D01*
X63500Y61468D02*
Y65532D01*
X106450Y325120D02*
X109450D01*
X107950Y323620D02*
Y326620D01*
X317270Y149860D02*
X320270D01*
X318770Y148360D02*
Y151360D01*
X154710Y269240D02*
X157710D01*
X156210Y267740D02*
Y270740D01*
X155980Y100330D02*
X158980D01*
X157480Y98830D02*
Y101830D01*
M02*
