G04*
G04 #@! TF.GenerationSoftware,Altium Limited,Altium Designer,22.11.1 (43)*
G04*
G04 Layer_Color=32768*
%FSLAX44Y44*%
%MOMM*%
G71*
G04*
G04 #@! TF.SameCoordinates,BBE4461F-FD4E-4243-A50F-CCB5411C037D*
G04*
G04*
G04 #@! TF.FilePolarity,Positive*
G04*
G01*
G75*
%ADD32C,0.0508*%
G36*
X274980Y547979D02*
X268580D01*
Y554379D01*
X274980D01*
Y547979D01*
D02*
G37*
G36*
X142900D02*
X136500D01*
Y554379D01*
X142900D01*
Y547979D01*
D02*
G37*
G36*
X208940Y547581D02*
X202540D01*
Y553981D01*
X208940D01*
Y547581D01*
D02*
G37*
G36*
X274980Y522978D02*
X268580D01*
Y529377D01*
X274980D01*
Y522978D01*
D02*
G37*
G36*
X142900D02*
X136500D01*
Y529377D01*
X142900D01*
Y522978D01*
D02*
G37*
G36*
X208940Y522580D02*
X202540D01*
Y528980D01*
X208940D01*
Y522580D01*
D02*
G37*
G36*
X274980Y497979D02*
X268580D01*
Y504379D01*
X274980D01*
Y497979D01*
D02*
G37*
G36*
X142900D02*
X136500D01*
Y504379D01*
X142900D01*
Y497979D01*
D02*
G37*
G36*
X208940Y497581D02*
X202540D01*
Y503981D01*
X208940D01*
Y497581D01*
D02*
G37*
G36*
X274980Y472978D02*
X268580D01*
Y479378D01*
X274980D01*
Y472978D01*
D02*
G37*
G36*
X142900D02*
X136500D01*
Y479378D01*
X142900D01*
Y472978D01*
D02*
G37*
G36*
X208940Y472580D02*
X202540D01*
Y478980D01*
X208940D01*
Y472580D01*
D02*
G37*
G36*
X296380Y451427D02*
X296380Y450931D01*
X296029Y450579D01*
X295781Y450579D01*
X295532Y450579D01*
X295181Y450930D01*
X295181Y451427D01*
X295532Y451778D01*
X295781Y451779D01*
X296029Y451779D01*
X296380Y451427D01*
D02*
G37*
G36*
X164300D02*
X164300Y450931D01*
X163949Y450579D01*
X163701Y450579D01*
X163452Y450579D01*
X163101Y450930D01*
X163101Y451427D01*
X163452Y451778D01*
X163701Y451779D01*
X163949Y451779D01*
X164300Y451427D01*
D02*
G37*
G36*
X230340Y451030D02*
X230340Y450533D01*
X229989Y450182D01*
X229741Y450182D01*
X229492Y450182D01*
X229141Y450533D01*
X229141Y451030D01*
X229492Y451381D01*
X229741Y451381D01*
X229989Y451381D01*
X230340Y451030D01*
D02*
G37*
G36*
X301610Y420429D02*
X290210D01*
Y427929D01*
X301610D01*
Y420429D01*
D02*
G37*
G36*
X254259Y403200D02*
X247859D01*
Y409600D01*
X254259D01*
Y403200D01*
D02*
G37*
G36*
X229260D02*
X222860D01*
Y409600D01*
X229260D01*
Y403200D01*
D02*
G37*
G36*
X173379D02*
X166980D01*
Y409600D01*
X173379D01*
Y403200D01*
D02*
G37*
G36*
X148381D02*
X141981D01*
Y409600D01*
X148381D01*
Y403200D01*
D02*
G37*
G36*
X285029Y381078D02*
Y380084D01*
X284327Y379381D01*
X283333D01*
X282630Y380084D01*
Y381078D01*
X283333Y381780D01*
X284327D01*
X285029Y381078D01*
D02*
G37*
G36*
X301610Y374981D02*
X290210D01*
Y382481D01*
X301610D01*
Y374981D01*
D02*
G37*
G36*
X201659Y371649D02*
Y371400D01*
Y371152D01*
X201308Y370800D01*
X200811D01*
X200459Y371152D01*
Y371400D01*
Y371649D01*
X200811Y372000D01*
X201308D01*
X201659Y371649D01*
D02*
G37*
G36*
X120780D02*
Y371400D01*
Y371152D01*
X120429Y370800D01*
X119932D01*
X119580Y371152D01*
Y371400D01*
Y371649D01*
X119932Y372000D01*
X120429D01*
X120780Y371649D01*
D02*
G37*
G36*
X142860Y350579D02*
X131460D01*
Y358079D01*
X142860D01*
Y350579D01*
D02*
G37*
G36*
X266050Y350300D02*
X254650D01*
Y357800D01*
X266050D01*
Y350300D01*
D02*
G37*
G36*
X219099Y335890D02*
X212700D01*
Y342290D01*
X219099D01*
Y335890D01*
D02*
G37*
G36*
X194101D02*
X187701D01*
Y342290D01*
X194101D01*
Y335890D01*
D02*
G37*
G36*
X126279Y311228D02*
Y310234D01*
X125577Y309531D01*
X124583D01*
X123880Y310234D01*
Y311228D01*
X124583Y311930D01*
X125577D01*
X126279Y311228D01*
D02*
G37*
G36*
X249469Y310948D02*
Y309955D01*
X248767Y309252D01*
X247773D01*
X247070Y309955D01*
Y310948D01*
X247773Y311651D01*
X248767D01*
X249469Y310948D01*
D02*
G37*
G36*
X142860Y305131D02*
X131460D01*
Y312631D01*
X142860D01*
Y305131D01*
D02*
G37*
G36*
X266050Y304851D02*
X254650D01*
Y312351D01*
X266050D01*
Y304851D01*
D02*
G37*
G36*
X166500Y304339D02*
Y304090D01*
Y303842D01*
X166149Y303490D01*
X165652D01*
X165300Y303842D01*
Y304090D01*
Y304339D01*
X165652Y304690D01*
X166149D01*
X166500Y304339D01*
D02*
G37*
D32*
X150510Y310130D02*
Y353080D01*
X123810D02*
X150510D01*
X123810Y310130D02*
Y353080D01*
Y310130D02*
X150510D01*
X120180Y371400D02*
Y430400D01*
Y371400D02*
X195180D01*
Y430400D01*
X120180D02*
X195180D01*
X309260Y379980D02*
Y422930D01*
X282560D02*
X309260D01*
X282560Y379980D02*
Y422930D01*
Y379980D02*
X309260D01*
X273700Y309851D02*
Y352801D01*
X247000D02*
X273700D01*
X247000Y309851D02*
Y352801D01*
Y309851D02*
X273700D01*
X295780Y451178D02*
Y576178D01*
X236780D02*
X295780D01*
X236780Y451178D02*
Y576178D01*
Y451178D02*
X295780D01*
X163700D02*
Y576178D01*
X104700D02*
X163700D01*
X104700Y451178D02*
Y576178D01*
Y451178D02*
X163700D01*
X165900Y363090D02*
X240900D01*
Y304090D02*
Y363090D01*
X165900Y304090D02*
X240900D01*
X165900D02*
Y363090D01*
X201059Y430400D02*
X276059D01*
Y371400D02*
Y430400D01*
X201059Y371400D02*
X276059D01*
X201059D02*
Y430400D01*
X229740Y450780D02*
Y575780D01*
X170740D02*
X229740D01*
X170740Y450780D02*
Y575780D01*
Y450780D02*
X229740D01*
M02*
