M48
;Layer_Color=9474304
;FILE_FORMAT=4:4
METRIC,LZ
;TYPE=PLATED
T1F00S00C0.3000
T2F00S00C0.4064
T3F00S00C1.1000
T4F00S00C1.2000
;TYPE=NON_PLATED
T5F00S00C3.1000
%
T01
X0015748Y0010033
X0015621Y0026924
X0010795Y0032512
X0031877Y0014986
T02
X000635Y000635
X00127
X001905
X00254
X003175
X0028575Y00254
X003175Y003175
X0015875Y00127
Y00508
X003175Y004445
T03
X00190901Y0033909
X002159
X0022606Y004064
X00251059
X0017018
X00145181
X001397Y00476178
Y0050118
Y00526177
Y0055118
X0020574Y00550783
Y0052578
Y00500783
Y0047578
X0027178Y00476178
Y0050118
Y00526177
Y0055118
T04
X0006096Y0017272
Y0019812
X0008636
Y0017272
X0011176
Y0019812
X0013716
Y0017272
X0016256
Y0019812
X0018796
Y0017272
X0021336
Y0019812
X0023876
Y0017272
X0026416
Y0019812
X0028956
Y0017272
X0031496
Y0019812
X0034036
Y0017272
T05
X00031855Y00031647
X00370945
Y00571397
X00031855
M30
