G04*
G04 #@! TF.GenerationSoftware,Altium Limited,Altium Designer,22.11.1 (43)*
G04*
G04 Layer_Physical_Order=1*
G04 Layer_Color=255*
%FSLAX44Y44*%
%MOMM*%
G71*
G04*
G04 #@! TF.SameCoordinates,BBE4461F-FD4E-4243-A50F-CCB5411C037D*
G04*
G04*
G04 #@! TF.FilePolarity,Positive*
G04*
G01*
G75*
%ADD13R,2.0000X2.0000*%
%ADD24C,1.2700*%
%ADD25C,1.8000*%
%ADD26R,1.8000X1.8000*%
%ADD27C,1.6000*%
%ADD28R,1.6000X1.5240*%
%ADD29C,3.1000*%
%ADD30C,0.7620*%
%ADD31C,0.6000*%
G36*
X261240Y501161D02*
Y499791D01*
X261958Y497110D01*
X263346Y494707D01*
X265308Y492745D01*
X267712Y491357D01*
X270392Y490639D01*
X273168D01*
X275848Y491357D01*
X277329Y492212D01*
X349780D01*
X355674Y486318D01*
X355188Y485144D01*
X282320D01*
Y486338D01*
X261240D01*
Y466018D01*
X282320D01*
Y467211D01*
X353228D01*
X366903Y453536D01*
Y157154D01*
X353336Y143587D01*
X326598D01*
X326036Y144726D01*
X326535Y145377D01*
X327431Y147539D01*
X327737Y149860D01*
X327431Y152181D01*
X326535Y154343D01*
X325110Y156200D01*
X323253Y157625D01*
X321091Y158521D01*
X318770Y158827D01*
X249914D01*
X247727Y161014D01*
Y165367D01*
X247994Y165634D01*
X249513Y168266D01*
X250300Y171201D01*
Y171450D01*
X227220D01*
Y171201D01*
X228006Y168266D01*
X229526Y165634D01*
X229793Y165367D01*
Y157299D01*
X230099Y154979D01*
X230995Y152816D01*
X232420Y150959D01*
X238619Y144760D01*
X238133Y143587D01*
X225784D01*
X222327Y147044D01*
Y165367D01*
X222594Y165634D01*
X224114Y168266D01*
X224900Y171201D01*
Y174239D01*
X224114Y177174D01*
X222594Y179806D01*
X220446Y181954D01*
X217814Y183473D01*
X214879Y184260D01*
X211841D01*
X208906Y183473D01*
X206274Y181954D01*
X204126Y179806D01*
X202607Y177174D01*
X201820Y174239D01*
Y171201D01*
X202607Y168266D01*
X204126Y165634D01*
X204393Y165367D01*
Y143329D01*
X204699Y141009D01*
X205595Y138846D01*
X207020Y136989D01*
X215662Y128347D01*
X215636Y128005D01*
X215321Y127077D01*
X199114D01*
X196927Y129264D01*
Y165367D01*
X197194Y165634D01*
X198713Y168266D01*
X199500Y171201D01*
Y174239D01*
X198713Y177174D01*
X197194Y179806D01*
X195046Y181954D01*
X192414Y183473D01*
X189479Y184260D01*
X186441D01*
X183506Y183473D01*
X180874Y181954D01*
X178726Y179806D01*
X177206Y177174D01*
X176420Y174239D01*
Y171201D01*
X177206Y168266D01*
X178726Y165634D01*
X178993Y165367D01*
Y125549D01*
X179299Y123229D01*
X180195Y121066D01*
X181620Y119209D01*
X189059Y111770D01*
X190916Y110345D01*
X193079Y109449D01*
X195399Y109143D01*
X362093D01*
X364414Y109449D01*
X366576Y110345D01*
X368433Y111770D01*
X396212Y139548D01*
X397385Y139062D01*
Y5155D01*
X5155D01*
Y183613D01*
X6328Y184099D01*
X41937Y148490D01*
X43794Y147065D01*
X45957Y146169D01*
X48278Y145863D01*
X76270D01*
X78591Y146169D01*
X80754Y147065D01*
X82611Y148490D01*
X91686Y157565D01*
X93111Y159422D01*
X94007Y161585D01*
X94313Y163906D01*
Y164353D01*
X95594Y165634D01*
X97114Y168266D01*
X97900Y171201D01*
Y174239D01*
X97114Y177174D01*
X95594Y179806D01*
X93446Y181954D01*
X90814Y183473D01*
X87879Y184260D01*
X84841D01*
X81906Y183473D01*
X79274Y181954D01*
X77126Y179806D01*
X75606Y177174D01*
X74820Y174239D01*
Y171201D01*
X75606Y168266D01*
X76126Y167366D01*
X73770Y165010D01*
X72500Y165536D01*
Y184260D01*
X62101D01*
X60954Y185407D01*
X61440Y186580D01*
X62479D01*
X65414Y187367D01*
X68046Y188886D01*
X70194Y191034D01*
X71714Y193666D01*
X72500Y196601D01*
Y197640D01*
X73673Y198126D01*
X74820Y196979D01*
Y196601D01*
X75606Y193666D01*
X77126Y191034D01*
X79274Y188886D01*
X81906Y187367D01*
X84841Y186580D01*
X87879D01*
X90814Y187367D01*
X93446Y188886D01*
X95594Y191034D01*
X97114Y193666D01*
X97900Y196601D01*
Y197640D01*
X99073Y198126D01*
X100220Y196979D01*
Y196601D01*
X101006Y193666D01*
X102526Y191034D01*
X104674Y188886D01*
X107306Y187367D01*
X110241Y186580D01*
X113279D01*
X116214Y187367D01*
X118846Y188886D01*
X120994Y191034D01*
X122514Y193666D01*
X123300Y196601D01*
Y199639D01*
X123152Y200191D01*
X124291Y200848D01*
X125620Y199519D01*
Y196601D01*
X126406Y193666D01*
X127926Y191034D01*
X130074Y188886D01*
X132706Y187367D01*
X135641Y186580D01*
X138679D01*
X141614Y187367D01*
X144246Y188886D01*
X146394Y191034D01*
X147914Y193666D01*
X148700Y196601D01*
Y199639D01*
X147914Y202574D01*
X146394Y205206D01*
X144246Y207354D01*
X141614Y208874D01*
X141403Y208930D01*
X140850Y209650D01*
X99137Y251364D01*
Y320014D01*
X100407Y320347D01*
X101610Y318780D01*
X103467Y317355D01*
X105629Y316459D01*
X107950Y316153D01*
X116936D01*
X124620Y308469D01*
Y296070D01*
X148804D01*
Y295619D01*
X149110Y293298D01*
X150005Y291136D01*
X151430Y289279D01*
X178993Y261716D01*
Y205473D01*
X178726Y205206D01*
X177206Y202574D01*
X176420Y199639D01*
Y196601D01*
X177206Y193666D01*
X178726Y191034D01*
X180874Y188886D01*
X183506Y187367D01*
X186441Y186580D01*
X189479D01*
X192414Y187367D01*
X195046Y188886D01*
X197194Y191034D01*
X198713Y193666D01*
X199500Y196601D01*
Y199639D01*
X198713Y202574D01*
X197194Y205206D01*
X196927Y205473D01*
Y263676D01*
X198100Y264162D01*
X204393Y257868D01*
Y205473D01*
X204126Y205206D01*
X202607Y202574D01*
X201820Y199639D01*
Y196601D01*
X202607Y193666D01*
X204126Y191034D01*
X206274Y188886D01*
X208906Y187367D01*
X211841Y186580D01*
X214879D01*
X217814Y187367D01*
X220446Y188886D01*
X222594Y191034D01*
X224114Y193666D01*
X224900Y196601D01*
Y199639D01*
X224114Y202574D01*
X222594Y205206D01*
X222327Y205473D01*
Y259828D01*
X223500Y260314D01*
X255193Y228621D01*
Y205473D01*
X254926Y205206D01*
X253407Y202574D01*
X252620Y199639D01*
Y196601D01*
X253407Y193666D01*
X254926Y191034D01*
X257074Y188886D01*
X259706Y187367D01*
X262641Y186580D01*
X265679D01*
X268614Y187367D01*
X271246Y188886D01*
X273394Y191034D01*
X274914Y193666D01*
X275700Y196601D01*
Y199639D01*
X274914Y202574D01*
X273394Y205206D01*
X273127Y205473D01*
Y232335D01*
X272821Y234656D01*
X271925Y236819D01*
X270500Y238676D01*
X199867Y309309D01*
Y327550D01*
X202441D01*
Y341157D01*
X202518Y341740D01*
Y346047D01*
X209454Y352983D01*
X247810D01*
Y341790D01*
X272890D01*
Y366870D01*
X260491D01*
X259070Y368290D01*
X257213Y369715D01*
X255051Y370611D01*
X252730Y370917D01*
X205740D01*
X203444Y370614D01*
X203393Y370653D01*
X202736Y371703D01*
X210756Y379722D01*
X212180Y381579D01*
X213076Y383742D01*
X213382Y386062D01*
Y394542D01*
X214520Y394860D01*
Y394860D01*
X237600D01*
Y404897D01*
X238260Y405410D01*
X239519Y404881D01*
X240305Y401946D01*
X241824Y399314D01*
X243973Y397166D01*
X246604Y395647D01*
X249539Y394860D01*
X252578D01*
X255513Y395647D01*
X258144Y397166D01*
X260293Y399314D01*
X261812Y401946D01*
X262599Y404881D01*
Y407919D01*
X261812Y410854D01*
X260293Y413486D01*
X258144Y415634D01*
X255513Y417154D01*
X252578Y417940D01*
X251639D01*
X251153Y419113D01*
X261202Y429163D01*
X281106D01*
X283370Y426899D01*
Y411919D01*
X308450D01*
Y415493D01*
X330476D01*
X332663Y413306D01*
Y253904D01*
X288419Y209660D01*
X288041D01*
X285106Y208874D01*
X282474Y207354D01*
X280326Y205206D01*
X278806Y202574D01*
X278020Y199639D01*
Y196601D01*
X278806Y193666D01*
X280326Y191034D01*
X282474Y188886D01*
X285106Y187367D01*
X288041Y186580D01*
X291079D01*
X294014Y187367D01*
X296646Y188886D01*
X298794Y191034D01*
X300313Y193666D01*
X301100Y196601D01*
Y196979D01*
X302247Y198126D01*
X303420Y197640D01*
Y196601D01*
X304207Y193666D01*
X305726Y191034D01*
X307874Y188886D01*
X310506Y187367D01*
X313441Y186580D01*
X316479D01*
X319414Y187367D01*
X322046Y188886D01*
X324194Y191034D01*
X325714Y193666D01*
X326500Y196601D01*
Y199639D01*
X325714Y202574D01*
X324194Y205206D01*
X322046Y207354D01*
X319414Y208874D01*
X316479Y209660D01*
X315440D01*
X314954Y210833D01*
X347970Y243850D01*
X349395Y245707D01*
X350291Y247869D01*
X350597Y250190D01*
Y417020D01*
X350291Y419341D01*
X349395Y421503D01*
X347970Y423360D01*
X340531Y430800D01*
X338674Y432225D01*
X336511Y433121D01*
X334190Y433426D01*
X308450D01*
Y436999D01*
X298624D01*
X298600Y437030D01*
X291161Y444470D01*
X289304Y445895D01*
X287141Y446791D01*
X284820Y447096D01*
X257488D01*
X255167Y446791D01*
X253005Y445895D01*
X251147Y444470D01*
X226828Y420151D01*
X225834Y418855D01*
X224919Y417940D01*
X221368D01*
X220882Y419113D01*
X244210Y442442D01*
X245635Y444299D01*
X246531Y446461D01*
X246837Y448782D01*
Y488553D01*
X259970Y501687D01*
X261240Y501161D01*
D02*
G37*
G36*
X397385Y471628D02*
X396212Y471142D01*
X359834Y507519D01*
X357977Y508944D01*
X355815Y509840D01*
X353494Y510145D01*
X277329D01*
X275848Y511001D01*
X273168Y511719D01*
X271798D01*
X271272Y512989D01*
X274197Y515913D01*
X275848Y516356D01*
X278252Y517743D01*
X280214Y519706D01*
X281602Y522109D01*
X282320Y524790D01*
Y527565D01*
X281602Y530246D01*
X280214Y532649D01*
X278252Y534612D01*
X275848Y535999D01*
X273168Y536717D01*
X271796D01*
X271270Y537988D01*
X274197Y540914D01*
X275848Y541357D01*
X278252Y542745D01*
X280214Y544707D01*
X281602Y547110D01*
X282320Y549791D01*
Y552566D01*
X281602Y555247D01*
X280214Y557650D01*
X278252Y559613D01*
X275848Y561000D01*
X273168Y561719D01*
X270392D01*
X267712Y561000D01*
X265308Y559613D01*
X263346Y557650D01*
X261958Y555247D01*
X261516Y553595D01*
X216290Y508369D01*
X215551Y507407D01*
X214884Y507332D01*
X213981Y507446D01*
X212212Y509215D01*
X209808Y510603D01*
X207128Y511321D01*
X204352D01*
X201672Y510603D01*
X199268Y509215D01*
X199170Y509117D01*
X196418D01*
X194097Y508811D01*
X191935Y507915D01*
X190078Y506490D01*
X181620Y498032D01*
X180195Y496175D01*
X179299Y494013D01*
X178993Y491692D01*
Y467244D01*
X171566Y459817D01*
X82550D01*
X80229Y459511D01*
X78067Y458615D01*
X76210Y457190D01*
X67290Y448271D01*
X66117Y448757D01*
Y465024D01*
X68304Y467211D01*
X129160D01*
Y466018D01*
X150240D01*
Y486338D01*
X129160D01*
Y485144D01*
X66344D01*
X65858Y486318D01*
X71121Y491581D01*
X135245D01*
X135632Y491357D01*
X138312Y490639D01*
X141088D01*
X143768Y491357D01*
X146172Y492745D01*
X148134Y494707D01*
X149522Y497110D01*
X150240Y499791D01*
Y502566D01*
X149522Y505247D01*
X148134Y507650D01*
X146172Y509613D01*
X143768Y511001D01*
X141088Y511719D01*
X138312D01*
X135632Y511001D01*
X133228Y509613D01*
X133130Y509514D01*
X69161D01*
X68675Y510687D01*
X75198Y517211D01*
X134151D01*
X135632Y516356D01*
X138312Y515638D01*
X141088D01*
X143768Y516356D01*
X146172Y517743D01*
X148134Y519706D01*
X149522Y522109D01*
X150240Y524790D01*
Y527565D01*
X149522Y530246D01*
X148134Y532649D01*
X146172Y534612D01*
X143768Y535999D01*
X141088Y536717D01*
X138312D01*
X135632Y535999D01*
X134151Y535144D01*
X73239D01*
X72752Y536317D01*
X78648Y542213D01*
X134149D01*
X135632Y541357D01*
X138312Y540639D01*
X141088D01*
X143768Y541357D01*
X146172Y542745D01*
X148134Y544707D01*
X149522Y547110D01*
X150240Y549791D01*
Y552566D01*
X149522Y555247D01*
X148134Y557650D01*
X146172Y559613D01*
X143768Y561000D01*
X141088Y561719D01*
X138312D01*
X135632Y561000D01*
X134153Y560147D01*
X74934D01*
X72613Y559841D01*
X70451Y558945D01*
X68594Y557520D01*
X6328Y495255D01*
X5155Y495741D01*
Y597385D01*
X397385D01*
Y471628D01*
D02*
G37*
G36*
X213088Y468090D02*
X212533Y467787D01*
X212042Y467283D01*
X211617Y466577D01*
X211257Y465670D01*
X210963Y464561D01*
X210734Y463250D01*
X210571Y461737D01*
X210440Y458107D01*
X197740D01*
X197771Y468191D01*
X213710D01*
X213088Y468090D01*
D02*
G37*
G36*
X180387Y422998D02*
X180208Y421640D01*
Y414487D01*
X178938Y413961D01*
X177265Y415634D01*
X174634Y417154D01*
X171699Y417940D01*
X168660D01*
X165725Y417154D01*
X163094Y415634D01*
X160945Y413486D01*
X159426Y410854D01*
X158639Y407919D01*
Y404881D01*
X159426Y401946D01*
X160945Y399314D01*
X163094Y397166D01*
X165725Y395647D01*
X168660Y394860D01*
X171699D01*
X174634Y395647D01*
X177265Y397166D01*
X178938Y398839D01*
X180208Y398313D01*
Y396089D01*
X151430Y367311D01*
X150970Y366711D01*
X149700Y367142D01*
Y367149D01*
X146127D01*
Y394665D01*
X146322Y394860D01*
X156721D01*
Y417940D01*
X133641D01*
Y407541D01*
X130820Y404720D01*
X129395Y402863D01*
X128499Y400700D01*
X128193Y398379D01*
Y367149D01*
X124620D01*
Y342069D01*
X148804D01*
Y321150D01*
X137301D01*
X126990Y331460D01*
X125133Y332885D01*
X122971Y333781D01*
X120650Y334087D01*
X107950D01*
X105629Y333781D01*
X103467Y332885D01*
X101610Y331460D01*
X100407Y329893D01*
X99137Y330226D01*
Y421916D01*
X101324Y424103D01*
X179053D01*
X179257Y424130D01*
X180387Y422998D01*
D02*
G37*
%LPC*%
G36*
X318770Y450847D02*
Y445770D01*
X323847D01*
X322883Y448097D01*
X321097Y449883D01*
X318770Y450847D01*
D02*
G37*
G36*
X316230D02*
X313903Y449883D01*
X312117Y448097D01*
X311153Y445770D01*
X316230D01*
Y450847D01*
D02*
G37*
G36*
X323847Y443230D02*
X318770D01*
Y438153D01*
X321097Y439117D01*
X322883Y440903D01*
X323847Y443230D01*
D02*
G37*
G36*
X316230D02*
X311153D01*
X312117Y440903D01*
X313903Y439117D01*
X316230Y438153D01*
Y443230D01*
D02*
G37*
G36*
X318770Y323847D02*
Y318770D01*
X323847D01*
X322883Y321097D01*
X321097Y322883D01*
X318770Y323847D01*
D02*
G37*
G36*
X316230D02*
X313903Y322883D01*
X312117Y321097D01*
X311153Y318770D01*
X316230D01*
Y323847D01*
D02*
G37*
G36*
X308450Y391000D02*
X283370D01*
Y365920D01*
X288213D01*
Y319484D01*
X286026Y317297D01*
X272890D01*
Y320871D01*
X247810D01*
Y317297D01*
X228783D01*
X224867Y321214D01*
Y331737D01*
X225134Y332004D01*
X226653Y334636D01*
X227439Y337571D01*
Y340609D01*
X226653Y343544D01*
X225134Y346176D01*
X222985Y348324D01*
X220354Y349843D01*
X217419Y350630D01*
X214380D01*
X211445Y349843D01*
X208814Y348324D01*
X206665Y346176D01*
X205146Y343544D01*
X204359Y340609D01*
Y337571D01*
X205146Y334636D01*
X206665Y332004D01*
X206933Y331736D01*
Y317500D01*
X207239Y315179D01*
X208135Y313017D01*
X209560Y311160D01*
X218729Y301990D01*
X220586Y300565D01*
X222749Y299669D01*
X225069Y299364D01*
X247810D01*
Y295791D01*
X272890D01*
Y299364D01*
X289741D01*
X292061Y299669D01*
X294224Y300565D01*
X296081Y301990D01*
X303520Y309430D01*
X304945Y311287D01*
X305841Y313449D01*
X306147Y315770D01*
Y365920D01*
X308450D01*
Y391000D01*
D02*
G37*
G36*
X323847Y316230D02*
X318770D01*
Y311153D01*
X321097Y312117D01*
X322883Y313903D01*
X323847Y316230D01*
D02*
G37*
G36*
X316230D02*
X311153D01*
X312117Y313903D01*
X313903Y312117D01*
X316230Y311153D01*
Y316230D01*
D02*
G37*
G36*
X287020Y260347D02*
Y255270D01*
X292097D01*
X291133Y257597D01*
X289347Y259383D01*
X287020Y260347D01*
D02*
G37*
G36*
X284480D02*
X282153Y259383D01*
X280367Y257597D01*
X279403Y255270D01*
X284480D01*
Y260347D01*
D02*
G37*
G36*
X292097Y252730D02*
X287020D01*
Y247653D01*
X289347Y248617D01*
X291133Y250403D01*
X292097Y252730D01*
D02*
G37*
G36*
X284480D02*
X279403D01*
X280367Y250403D01*
X282153Y248617D01*
X284480Y247653D01*
Y252730D01*
D02*
G37*
G36*
X156210Y278207D02*
X153889Y277901D01*
X151727Y277005D01*
X149870Y275580D01*
X148445Y273723D01*
X147549Y271561D01*
X147243Y269240D01*
X147549Y266919D01*
X148445Y264757D01*
X149870Y262900D01*
X153593Y259176D01*
Y205473D01*
X153326Y205206D01*
X151806Y202574D01*
X151020Y199639D01*
Y199390D01*
X174100D01*
Y199639D01*
X173314Y202574D01*
X171794Y205206D01*
X171527Y205473D01*
Y262890D01*
X171221Y265211D01*
X170325Y267373D01*
X168900Y269230D01*
X162550Y275580D01*
X160693Y277005D01*
X158531Y277901D01*
X156210Y278207D01*
D02*
G37*
G36*
X341879Y209660D02*
X338841D01*
X335906Y208874D01*
X333274Y207354D01*
X331126Y205206D01*
X329607Y202574D01*
X328820Y199639D01*
Y196601D01*
X329607Y193666D01*
X331126Y191034D01*
X333274Y188886D01*
X335906Y187367D01*
X338841Y186580D01*
X341879D01*
X344814Y187367D01*
X347446Y188886D01*
X349594Y191034D01*
X351114Y193666D01*
X351900Y196601D01*
Y199639D01*
X351114Y202574D01*
X349594Y205206D01*
X347446Y207354D01*
X344814Y208874D01*
X341879Y209660D01*
D02*
G37*
G36*
X240279D02*
X237241D01*
X234306Y208874D01*
X231674Y207354D01*
X229526Y205206D01*
X228006Y202574D01*
X227220Y199639D01*
Y196601D01*
X228006Y193666D01*
X229526Y191034D01*
X231674Y188886D01*
X234306Y187367D01*
X237241Y186580D01*
X240279D01*
X243214Y187367D01*
X245846Y188886D01*
X247994Y191034D01*
X249513Y193666D01*
X250300Y196601D01*
Y199639D01*
X249513Y202574D01*
X247994Y205206D01*
X245846Y207354D01*
X243214Y208874D01*
X240279Y209660D01*
D02*
G37*
G36*
X174100Y196850D02*
X163830D01*
Y186580D01*
X164079D01*
X167014Y187367D01*
X169646Y188886D01*
X171794Y191034D01*
X173314Y193666D01*
X174100Y196601D01*
Y196850D01*
D02*
G37*
G36*
X161290D02*
X151020D01*
Y196601D01*
X151806Y193666D01*
X153326Y191034D01*
X155474Y188886D01*
X158106Y187367D01*
X161041Y186580D01*
X161290D01*
Y196850D01*
D02*
G37*
G36*
X240279Y184260D02*
X240030D01*
Y173990D01*
X250300D01*
Y174239D01*
X249513Y177174D01*
X247994Y179806D01*
X245846Y181954D01*
X243214Y183473D01*
X240279Y184260D01*
D02*
G37*
G36*
X237490D02*
X237241D01*
X234306Y183473D01*
X231674Y181954D01*
X229526Y179806D01*
X228006Y177174D01*
X227220Y174239D01*
Y173990D01*
X237490D01*
Y184260D01*
D02*
G37*
G36*
X113279D02*
X113030D01*
Y173990D01*
X123300D01*
Y174239D01*
X122514Y177174D01*
X120994Y179806D01*
X118846Y181954D01*
X116214Y183473D01*
X113279Y184260D01*
D02*
G37*
G36*
X110490D02*
X110241D01*
X107306Y183473D01*
X104674Y181954D01*
X102526Y179806D01*
X101006Y177174D01*
X100220Y174239D01*
Y173990D01*
X110490D01*
Y184260D01*
D02*
G37*
G36*
X341879D02*
X338841D01*
X335906Y183473D01*
X333274Y181954D01*
X331126Y179806D01*
X329607Y177174D01*
X328820Y174239D01*
Y171201D01*
X329607Y168266D01*
X331126Y165634D01*
X333274Y163486D01*
X335906Y161966D01*
X338841Y161180D01*
X341879D01*
X344814Y161966D01*
X347446Y163486D01*
X349594Y165634D01*
X351114Y168266D01*
X351900Y171201D01*
Y174239D01*
X351114Y177174D01*
X349594Y179806D01*
X347446Y181954D01*
X344814Y183473D01*
X341879Y184260D01*
D02*
G37*
G36*
X316479D02*
X313441D01*
X310506Y183473D01*
X307874Y181954D01*
X305726Y179806D01*
X304207Y177174D01*
X303420Y174239D01*
Y171201D01*
X304207Y168266D01*
X305726Y165634D01*
X307874Y163486D01*
X310506Y161966D01*
X313441Y161180D01*
X316479D01*
X319414Y161966D01*
X322046Y163486D01*
X324194Y165634D01*
X325714Y168266D01*
X326500Y171201D01*
Y174239D01*
X325714Y177174D01*
X324194Y179806D01*
X322046Y181954D01*
X319414Y183473D01*
X316479Y184260D01*
D02*
G37*
G36*
X291079D02*
X288041D01*
X285106Y183473D01*
X282474Y181954D01*
X280326Y179806D01*
X278806Y177174D01*
X278020Y174239D01*
Y171201D01*
X278806Y168266D01*
X280326Y165634D01*
X282474Y163486D01*
X285106Y161966D01*
X288041Y161180D01*
X291079D01*
X294014Y161966D01*
X296646Y163486D01*
X298794Y165634D01*
X300313Y168266D01*
X301100Y171201D01*
Y174239D01*
X300313Y177174D01*
X298794Y179806D01*
X296646Y181954D01*
X294014Y183473D01*
X291079Y184260D01*
D02*
G37*
G36*
X265679D02*
X262641D01*
X259706Y183473D01*
X257074Y181954D01*
X254926Y179806D01*
X253407Y177174D01*
X252620Y174239D01*
Y171201D01*
X253407Y168266D01*
X254926Y165634D01*
X257074Y163486D01*
X259706Y161966D01*
X262641Y161180D01*
X265679D01*
X268614Y161966D01*
X271246Y163486D01*
X273394Y165634D01*
X274914Y168266D01*
X275700Y171201D01*
Y174239D01*
X274914Y177174D01*
X273394Y179806D01*
X271246Y181954D01*
X268614Y183473D01*
X265679Y184260D01*
D02*
G37*
G36*
X164079D02*
X161041D01*
X158106Y183473D01*
X155474Y181954D01*
X153326Y179806D01*
X151806Y177174D01*
X151020Y174239D01*
Y171201D01*
X151806Y168266D01*
X153326Y165634D01*
X155474Y163486D01*
X158106Y161966D01*
X161041Y161180D01*
X164079D01*
X167014Y161966D01*
X169646Y163486D01*
X171794Y165634D01*
X173314Y168266D01*
X174100Y171201D01*
Y174239D01*
X173314Y177174D01*
X171794Y179806D01*
X169646Y181954D01*
X167014Y183473D01*
X164079Y184260D01*
D02*
G37*
G36*
X138679D02*
X135641D01*
X132706Y183473D01*
X130074Y181954D01*
X127926Y179806D01*
X126406Y177174D01*
X125620Y174239D01*
Y171201D01*
X126406Y168266D01*
X127926Y165634D01*
X130074Y163486D01*
X132706Y161966D01*
X135641Y161180D01*
X138679D01*
X141614Y161966D01*
X144246Y163486D01*
X146394Y165634D01*
X147914Y168266D01*
X148700Y171201D01*
Y174239D01*
X147914Y177174D01*
X146394Y179806D01*
X144246Y181954D01*
X141614Y183473D01*
X138679Y184260D01*
D02*
G37*
G36*
X160020Y133347D02*
Y128270D01*
X165097D01*
X164133Y130597D01*
X162347Y132383D01*
X160020Y133347D01*
D02*
G37*
G36*
X157480D02*
X155153Y132383D01*
X153367Y130597D01*
X152403Y128270D01*
X157480D01*
Y133347D01*
D02*
G37*
G36*
X165097Y125730D02*
X160020D01*
Y120653D01*
X162347Y121617D01*
X164133Y123403D01*
X165097Y125730D01*
D02*
G37*
G36*
X157480D02*
X152403D01*
X153367Y123403D01*
X155153Y121617D01*
X157480Y120653D01*
Y125730D01*
D02*
G37*
G36*
X123300Y171450D02*
X100220D01*
Y171201D01*
X101006Y168266D01*
X102526Y165634D01*
X102793Y165367D01*
Y110490D01*
X103099Y108169D01*
X103995Y106007D01*
X105420Y104150D01*
X115580Y93990D01*
X117437Y92565D01*
X119599Y91669D01*
X121920Y91363D01*
X157480D01*
X159801Y91669D01*
X161963Y92565D01*
X163820Y93990D01*
X165245Y95847D01*
X166141Y98009D01*
X166447Y100330D01*
X166141Y102651D01*
X165245Y104813D01*
X163820Y106670D01*
X161963Y108095D01*
X159801Y108991D01*
X157480Y109297D01*
X125634D01*
X120727Y114204D01*
Y165367D01*
X120994Y165634D01*
X122514Y168266D01*
X123300Y171201D01*
Y171450D01*
D02*
G37*
G36*
X318770Y69847D02*
Y64770D01*
X323847D01*
X322883Y67097D01*
X321097Y68883D01*
X318770Y69847D01*
D02*
G37*
G36*
X316230D02*
X313903Y68883D01*
X312117Y67097D01*
X311153Y64770D01*
X316230D01*
Y69847D01*
D02*
G37*
G36*
X255270D02*
Y64770D01*
X260347D01*
X259383Y67097D01*
X257597Y68883D01*
X255270Y69847D01*
D02*
G37*
G36*
X252730D02*
X250403Y68883D01*
X248617Y67097D01*
X247653Y64770D01*
X252730D01*
Y69847D01*
D02*
G37*
G36*
X191770D02*
Y64770D01*
X196847D01*
X195883Y67097D01*
X194097Y68883D01*
X191770Y69847D01*
D02*
G37*
G36*
X189230D02*
X186903Y68883D01*
X185117Y67097D01*
X184153Y64770D01*
X189230D01*
Y69847D01*
D02*
G37*
G36*
X128270D02*
Y64770D01*
X133347D01*
X132383Y67097D01*
X130597Y68883D01*
X128270Y69847D01*
D02*
G37*
G36*
X125730D02*
X123403Y68883D01*
X121617Y67097D01*
X120653Y64770D01*
X125730D01*
Y69847D01*
D02*
G37*
G36*
X64770D02*
Y64770D01*
X69847D01*
X68883Y67097D01*
X67097Y68883D01*
X64770Y69847D01*
D02*
G37*
G36*
X62230D02*
X59903Y68883D01*
X58117Y67097D01*
X57153Y64770D01*
X62230D01*
Y69847D01*
D02*
G37*
G36*
X323847Y62230D02*
X318770D01*
Y57153D01*
X321097Y58117D01*
X322883Y59903D01*
X323847Y62230D01*
D02*
G37*
G36*
X316230D02*
X311153D01*
X312117Y59903D01*
X313903Y58117D01*
X316230Y57153D01*
Y62230D01*
D02*
G37*
G36*
X260347D02*
X255270D01*
Y57153D01*
X257597Y58117D01*
X259383Y59903D01*
X260347Y62230D01*
D02*
G37*
G36*
X252730D02*
X247653D01*
X248617Y59903D01*
X250403Y58117D01*
X252730Y57153D01*
Y62230D01*
D02*
G37*
G36*
X196847D02*
X191770D01*
Y57153D01*
X194097Y58117D01*
X195883Y59903D01*
X196847Y62230D01*
D02*
G37*
G36*
X189230D02*
X184153D01*
X185117Y59903D01*
X186903Y58117D01*
X189230Y57153D01*
Y62230D01*
D02*
G37*
G36*
X133347D02*
X128270D01*
Y57153D01*
X130597Y58117D01*
X132383Y59903D01*
X133347Y62230D01*
D02*
G37*
G36*
X125730D02*
X120653D01*
X121617Y59903D01*
X123403Y58117D01*
X125730Y57153D01*
Y62230D01*
D02*
G37*
G36*
X69847D02*
X64770D01*
Y57153D01*
X67097Y58117D01*
X68883Y59903D01*
X69847Y62230D01*
D02*
G37*
G36*
X62230D02*
X57153D01*
X58117Y59903D01*
X59903Y58117D01*
X62230Y57153D01*
Y62230D01*
D02*
G37*
G36*
X372722Y49688D02*
X369168D01*
X365683Y48994D01*
X362400Y47634D01*
X359445Y45660D01*
X356932Y43147D01*
X354958Y40193D01*
X353598Y36909D01*
X352905Y33424D01*
Y29871D01*
X353598Y26385D01*
X354958Y23102D01*
X356932Y20148D01*
X359445Y17635D01*
X362400Y15660D01*
X365683Y14301D01*
X369168Y13607D01*
X372722D01*
X376207Y14301D01*
X379490Y15660D01*
X382445Y17635D01*
X384958Y20148D01*
X386932Y23102D01*
X388292Y26385D01*
X388985Y29871D01*
Y33424D01*
X388292Y36909D01*
X386932Y40193D01*
X384958Y43147D01*
X382445Y45660D01*
X379490Y47634D01*
X376207Y48994D01*
X372722Y49688D01*
D02*
G37*
G36*
X33632D02*
X30078D01*
X26593Y48994D01*
X23310Y47634D01*
X20355Y45660D01*
X17842Y43147D01*
X15868Y40193D01*
X14508Y36909D01*
X13815Y33424D01*
Y29871D01*
X14508Y26385D01*
X15868Y23102D01*
X17842Y20148D01*
X20355Y17635D01*
X23310Y15660D01*
X26593Y14301D01*
X30078Y13607D01*
X33632D01*
X37117Y14301D01*
X40400Y15660D01*
X43355Y17635D01*
X45868Y20148D01*
X47842Y23102D01*
X49202Y26385D01*
X49895Y29871D01*
Y33424D01*
X49202Y36909D01*
X47842Y40193D01*
X45868Y43147D01*
X43355Y45660D01*
X40400Y47634D01*
X37117Y48994D01*
X33632Y49688D01*
D02*
G37*
G36*
X372722Y589437D02*
X369168D01*
X365683Y588744D01*
X362400Y587384D01*
X359445Y585410D01*
X356932Y582897D01*
X354958Y579943D01*
X353598Y576660D01*
X352905Y573174D01*
Y569621D01*
X353598Y566135D01*
X354958Y562852D01*
X356932Y559897D01*
X359445Y557385D01*
X362400Y555410D01*
X365683Y554051D01*
X369168Y553357D01*
X372722D01*
X376207Y554051D01*
X379490Y555410D01*
X382445Y557385D01*
X384958Y559897D01*
X386932Y562852D01*
X388292Y566135D01*
X388985Y569621D01*
Y573174D01*
X388292Y576660D01*
X386932Y579943D01*
X384958Y582897D01*
X382445Y585410D01*
X379490Y587384D01*
X376207Y588744D01*
X372722Y589437D01*
D02*
G37*
G36*
X33632D02*
X30078D01*
X26593Y588744D01*
X23310Y587384D01*
X20355Y585410D01*
X17842Y582897D01*
X15868Y579943D01*
X14508Y576660D01*
X13815Y573174D01*
Y569621D01*
X14508Y566135D01*
X15868Y562852D01*
X17842Y559897D01*
X20355Y557385D01*
X23310Y555410D01*
X26593Y554051D01*
X30078Y553357D01*
X33632D01*
X37117Y554051D01*
X40400Y555410D01*
X43355Y557385D01*
X45868Y559897D01*
X47842Y562852D01*
X49202Y566135D01*
X49895Y569621D01*
Y573174D01*
X49202Y576660D01*
X47842Y579943D01*
X45868Y582897D01*
X43355Y585410D01*
X40400Y587384D01*
X37117Y588744D01*
X33632Y589437D01*
D02*
G37*
G36*
X207128Y561321D02*
X204352D01*
X201672Y560603D01*
X199268Y559215D01*
X197306Y557253D01*
X195918Y554850D01*
X195200Y552169D01*
Y549394D01*
X195918Y546713D01*
X197306Y544310D01*
X199268Y542347D01*
X201672Y540960D01*
X204352Y540241D01*
X207128D01*
X209808Y540960D01*
X212212Y542347D01*
X214174Y544310D01*
X215562Y546713D01*
X216280Y549394D01*
Y552169D01*
X215562Y554850D01*
X214174Y557253D01*
X212212Y559215D01*
X209808Y560603D01*
X207128Y561321D01*
D02*
G37*
G36*
Y536320D02*
X204352D01*
X201672Y535602D01*
X199268Y534214D01*
X197306Y532252D01*
X195918Y529848D01*
X195200Y527168D01*
Y524392D01*
X195918Y521712D01*
X197306Y519308D01*
X199268Y517346D01*
X201672Y515958D01*
X204352Y515240D01*
X207128D01*
X209808Y515958D01*
X212212Y517346D01*
X214174Y519308D01*
X215562Y521712D01*
X216280Y524392D01*
Y527168D01*
X215562Y529848D01*
X214174Y532252D01*
X212212Y534214D01*
X209808Y535602D01*
X207128Y536320D01*
D02*
G37*
G36*
X160020Y514347D02*
Y509270D01*
X165097D01*
X164133Y511597D01*
X162347Y513383D01*
X160020Y514347D01*
D02*
G37*
G36*
X157480D02*
X155153Y513383D01*
X153367Y511597D01*
X152403Y509270D01*
X157480D01*
Y514347D01*
D02*
G37*
G36*
X165097Y506730D02*
X160020D01*
Y501653D01*
X162347Y502617D01*
X164133Y504403D01*
X165097Y506730D01*
D02*
G37*
G36*
X157480D02*
X152403D01*
X153367Y504403D01*
X155153Y502617D01*
X157480Y501653D01*
Y506730D01*
D02*
G37*
%LPD*%
D13*
X137160Y308610D02*
D03*
Y354609D02*
D03*
X295910Y378460D02*
D03*
Y424459D02*
D03*
X260350Y308331D02*
D03*
Y354330D02*
D03*
D24*
X137160Y398379D02*
X145181Y406400D01*
X137160Y354609D02*
Y398379D01*
X120650Y325120D02*
X137160Y308610D01*
X107950Y325120D02*
X120650D01*
X225069Y308331D02*
X289741D01*
X215900Y317500D02*
X225069Y308331D01*
X215900Y317500D02*
Y339090D01*
X295910Y378460D02*
X297180Y377190D01*
Y315770D02*
Y377190D01*
X289741Y308331D02*
X297180Y315770D01*
X193551Y349761D02*
X205740Y361950D01*
X252730D01*
X190901Y339090D02*
X193551Y341740D01*
Y349761D01*
X173011Y354658D02*
X204415Y386062D01*
X189175Y392375D02*
Y421640D01*
X157771Y295619D02*
Y360971D01*
X204415Y386062D02*
Y415327D01*
X157771Y360971D02*
X189175Y392375D01*
X173011Y301932D02*
Y354658D01*
X252730Y361950D02*
X260350Y354330D01*
X341630Y250190D02*
Y417020D01*
X289560Y198120D02*
X341630Y250190D01*
X295910Y424459D02*
X334190D01*
X341630Y417020D01*
X292260Y428109D02*
Y430690D01*
X226060Y406400D02*
X233169Y413509D01*
Y413810D01*
X257488Y438130D01*
X284820D02*
X292260Y430690D01*
X257488Y438130D02*
X284820D01*
X292260Y428109D02*
X295910Y424459D01*
X134510Y202204D02*
X137160Y199554D01*
X90170Y247650D02*
X134510Y203310D01*
X90170Y247650D02*
Y425630D01*
X137160Y198120D02*
Y199554D01*
X134510Y202204D02*
Y203310D01*
X90170Y425630D02*
X97610Y433070D01*
X179053D01*
X72390Y237490D02*
Y440690D01*
X82550Y450850D02*
X175280D01*
X72390Y440690D02*
X82550Y450850D01*
X72390Y237490D02*
X111760Y198120D01*
X57150Y227330D02*
Y468738D01*
X11430Y191678D02*
Y487676D01*
X41910Y218604D02*
Y475051D01*
X26670Y207010D02*
Y481363D01*
X11430Y487676D02*
X74934Y551180D01*
X67407Y500547D02*
X139067D01*
X41910Y475051D02*
X67407Y500547D01*
X71484Y526177D02*
X139700D01*
X57150Y468738D02*
X64590Y476178D01*
X139700D01*
X11430Y191678D02*
X48278Y154830D01*
X74934Y551180D02*
X139700D01*
X26670Y481363D02*
X71484Y526177D01*
X48278Y154830D02*
X76270D01*
X85346Y163906D01*
Y171706D02*
X86360Y172720D01*
X85346Y163906D02*
Y171706D01*
X41910Y218604D02*
X60960Y199554D01*
Y198120D02*
Y199554D01*
X57150Y227330D02*
X86360Y198120D01*
X26670Y207010D02*
X60960Y172720D01*
X204415Y415327D02*
X237870Y448782D01*
X189175Y421640D02*
X222630Y455095D01*
X271780Y476178D02*
X356942D01*
X375870Y153440D02*
Y457250D01*
X353494Y501179D02*
X391110Y463563D01*
Y147127D02*
Y463563D01*
X195399Y118110D02*
X362093D01*
X391110Y147127D01*
X356942Y476178D02*
X375870Y457250D01*
X271781Y501179D02*
X353494D01*
X357051Y134620D02*
X375870Y153440D01*
X238760Y157299D02*
Y172720D01*
X246199Y149860D02*
X318770D01*
X238760Y157299D02*
X246199Y149860D01*
X222069Y134620D02*
X357051D01*
X213360Y143329D02*
X222069Y134620D01*
X162560Y198120D02*
Y262890D01*
X156210Y269240D02*
X162560Y262890D01*
X190901Y305594D02*
X264160Y232335D01*
X187960Y198120D02*
Y265430D01*
X213360Y198120D02*
Y261583D01*
X264160Y198120D02*
Y232335D01*
X173011Y301932D02*
X213360Y261583D01*
X157771Y295619D02*
X187960Y265430D01*
X190901Y305594D02*
Y339090D01*
X121920Y100330D02*
X157480D01*
X111760Y110490D02*
Y172720D01*
Y110490D02*
X121920Y100330D01*
X213360Y143329D02*
Y172720D01*
X187960Y125549D02*
Y172720D01*
Y125549D02*
X195399Y118110D01*
X271780Y501180D02*
X271781Y501179D01*
X237870Y492267D02*
X271780Y526177D01*
X237870Y448782D02*
Y492267D01*
X204090Y474510D02*
X205360Y475780D01*
X179053Y433070D02*
X204090Y458107D01*
X187960Y463530D02*
Y491692D01*
X205360Y475780D02*
X205740D01*
X175280Y450850D02*
X187960Y463530D01*
X204090Y458107D02*
Y474510D01*
X222630Y455095D02*
Y502029D01*
X205107Y500150D02*
X205740Y500783D01*
X196418Y500150D02*
X205107D01*
X187960Y491692D02*
X196418Y500150D01*
X222630Y502029D02*
X271780Y551179D01*
Y551180D01*
X139067Y500547D02*
X139700Y501180D01*
D25*
X170180Y406400D02*
D03*
X215900Y339090D02*
D03*
X251059Y406400D02*
D03*
X60960Y198120D02*
D03*
X86360Y172720D02*
D03*
Y198120D02*
D03*
X111760Y172720D02*
D03*
Y198120D02*
D03*
X137160Y172720D02*
D03*
Y198120D02*
D03*
X162560Y172720D02*
D03*
Y198120D02*
D03*
X187960Y172720D02*
D03*
Y198120D02*
D03*
X213360Y172720D02*
D03*
Y198120D02*
D03*
X238760Y172720D02*
D03*
Y198120D02*
D03*
X264160Y172720D02*
D03*
Y198120D02*
D03*
X289560Y172720D02*
D03*
Y198120D02*
D03*
X314960Y172720D02*
D03*
Y198120D02*
D03*
X340360Y172720D02*
D03*
Y198120D02*
D03*
D26*
X145181Y406400D02*
D03*
X190901Y339090D02*
D03*
X226060Y406400D02*
D03*
X60960Y172720D02*
D03*
D27*
X139700Y526177D02*
D03*
Y551179D02*
D03*
X271780Y501179D02*
D03*
Y526177D02*
D03*
Y551179D02*
D03*
X139700Y501179D02*
D03*
X205740Y500781D02*
D03*
Y525780D02*
D03*
Y550781D02*
D03*
D28*
X271780Y476178D02*
D03*
X139700D02*
D03*
X205740Y475780D02*
D03*
D29*
X31855Y31647D02*
D03*
X370945D02*
D03*
X31855Y571397D02*
D03*
X370945D02*
D03*
D30*
X317500Y444500D02*
D03*
Y317500D02*
D03*
Y63500D02*
D03*
X285750Y254000D02*
D03*
X254000Y63500D02*
D03*
X190500D02*
D03*
X158750Y508000D02*
D03*
Y127000D02*
D03*
X127000Y63500D02*
D03*
X63500D02*
D03*
D31*
X107950Y325120D02*
D03*
X318770Y149860D02*
D03*
X156210Y269240D02*
D03*
X157480Y100330D02*
D03*
M02*
