M48
;Layer_Color=9474304
;FILE_FORMAT=4:4
METRIC,LZ
;TYPE=PLATED
T1F00S00C0.3000
T2F00S00C0.4064
T3F00S00C0.7000
T4F00S00C0.8000
T5F00S00C0.9144
T6F00S00C1.0000
T7F00S00C1.0160
T8F00S00C1.1000
T9F00S00C1.2000
T11F00S00C1.5000
T12F00S00C2.3000
T13F00S00C2.5000
;TYPE=NON_PLATED
T14F00S00C3.1000
%
T01
X00594641Y00103737
X0069215Y0010414
X0078105Y002921
X0083947
X00860859Y00271629
X0092329Y0029464
X0086741Y0046863
X0078486Y0040513
X00661924Y00420835
X00647954Y0048514
X0070485Y0050546
X00525645Y00260609
X0051562Y0026543
X0042291Y0015494
X0030353Y0018415
Y0019812
X002921Y002413
X002794Y0024003
X002667Y002413
X0024384Y0025527
X0021844Y0025654
X001651Y0022987
X0020447Y001397
X0006858Y0065405
X0004318Y006731
X0012446Y0077724
X0014351Y0065659
X0019558Y0065532
X0023368Y006477
X0022098Y0063119
X0021082Y0069215
X0025273Y0071628
X0044591Y0068245
X004826Y0070358
X0050292Y007039
X0051435Y0076581
X0046228Y0077851
X004572Y0084709
X0047879Y008382
X0051435Y0084074
Y0062484
X004064Y0063119
X0018923Y0089662
X0017907Y0088646
X0075184Y0084201
X0076581Y0084582
X0077343Y0085725
Y0078994
X007493Y0079375
Y0080518
X0074295Y0077216
X0077978Y0073914
X008001Y0073279
X0081153
X0081407Y00719534
X008255Y0071374
X0083185Y0070358
X0084201Y0069469
X0084328Y0068072
X00818613Y00785397
X0081661Y0088773
X0082169Y0089789
X0083947Y0089281
X0084836Y0088519
X0067818Y0074295
X0069469Y0052324
X0080391
X00860425Y00523875
X0089138Y0058547
X009525Y0073279
Y0079375
X0077216Y009271
X005937Y0093218
X0055245Y009325
X0045593Y0098552
T02
X000635Y0004699
X00254
X003175
X00381
X004445
X00508
X005715
X00635
X00762
X008255
X00889
X0092075Y0011049
X0085725
X0079375
X0073025
X0098425
X009525Y0017399
X0098425Y0023749
X009525Y0030099
X0098425Y0036449
X0092075
X0079375
X0073025
X00762Y0030099
X0079375Y0023749
X0085725
X00889Y0017399
X008255
X00762
X00635
X005715
X0060325Y0023749
X0053975
Y0036449
X0060325
X00635Y0042799
X005715
X00635Y0030099
X0073025Y0049149
X0047625
X0041275Y0023749
X0034925
X0015875
X00508Y0017399
X0009525Y0023749
X00127Y0030099
X000635
X0009525Y0036449
X000635Y0042799
Y0055499
X00127
X0009525Y0061849
Y0074549
X000635Y0080899
X0015875Y0074549
Y0061849
X001905Y0055499
X00254
X003175
X00381
X004445
X00508
X0041275Y0061849
X0034925
Y0074549
X003175Y0080899
X0034925Y0087249
X0041275
X0066675
X0079375
X008255Y0080899
X00889
X0092075Y0074549
X00889Y0068199
X006985
X00635
X0066675Y0061849
X0060325
X0053975
X005715Y0055499
X00762
X009525Y0068199
X00635Y0093599
X005715
X00508
X004445
X003175
X00254
T03
X0014478Y0046101
X0017018
X0019558
X0022098
X0011938
X0009398
X0006858
X0004318
Y0058801
X0006858
X0009398
X0011938
X0014478
X0017018
X0019558
X0022098
Y0056261
Y0053721
T04
X00903941Y00422229
Y0043623
Y0045023
Y00464231
T05
X00922061Y00532347
Y0055735
Y0057735
Y00602347
X00948261
Y0057735
Y0055735
Y00532347
T06
X00945141Y00312619
Y00337622
X00925141
Y00312619
T07
X005588Y00460375
X005842
X006096
X00635
X005334
X00508
X004826
X004572
X0042799
X0040259
X0037719
X0035179
X0032639
X0030099
X0027559
X0025019
Y00587375
X0027559
X0030099
X0032639
X0035179
X0037719
X0040259
X0042799
X004572
X004826
X00508
X005334
X005588
X005842
X006096
X00635
T08
X00120063Y00050267
X00145062
X00198521Y0004953
X0022352
X00277061
X0030206
X0059055Y0003683
X00615549
X00669691
X0069469
X0039243Y00750622
Y00775623
Y00800624
Y00825624
Y00850624
X00392429Y00875624
X00544829Y0087622
X0054483Y0085122
Y0082622
Y0080122
Y00776219
Y00751218
X006096
Y00776219
Y0080122
Y0082622
Y0085122
X00609599Y0087622
X0095885Y0086487
Y0089027
Y0091567
Y0083947
T09
X0098044Y0044323
X0048768Y0038227
X0046228
X0043688
X0041148
X0038608
X0036068
X0033528
X0030988
X0028448
X0025908
X0023368
X0020828
Y0035687
X0023368
X0025908
X0028448
X0030988
X0033528
X0036068
X0038608
X0041148
X0043688
X0046228
X0048768
T11
X0002907Y0079074
Y0084074
X0007907
Y0079074
T12
X0097536Y0050165
X00918561
Y00633049
X0097536
T13
X00972239Y00264922
Y00385319
T14
X0003048Y0003048
X0097028
X00970385Y00966367
X00030585Y00968907
M30
