G04*
G04 #@! TF.GenerationSoftware,Altium Limited,Altium Designer,22.11.1 (43)*
G04*
G04 Layer_Color=16711935*
%FSLAX44Y44*%
%MOMM*%
G71*
G04*
G04 #@! TF.SameCoordinates,C47467C8-9064-4A8D-955C-1DE8D4ADFDDE*
G04*
G04*
G04 #@! TF.FilePolarity,Negative*
G04*
G01*
G75*
%ADD54C,1.7272*%
%ADD84C,3.2032*%
%ADD85C,1.4032*%
%ADD86C,2.2032*%
%ADD87O,2.7032X2.0032*%
%ADD88C,1.8032*%
%ADD89C,3.7032*%
%ADD90C,1.6256*%
%ADD91R,2.0032X2.0032*%
%ADD92C,2.0032*%
%ADD93C,1.9000*%
%ADD94R,1.9000X1.9000*%
%ADD95R,1.8032X1.7272*%
%ADD96C,3.3032*%
%ADD97C,1.9032*%
%ADD98R,1.9032X1.9032*%
%ADD99C,2.5032*%
%ADD100C,0.8032*%
%ADD101C,0.9652*%
D54*
X948261Y577349D02*
D03*
Y557349D02*
D03*
Y532348D02*
D03*
X922061Y577349D02*
D03*
Y557349D02*
D03*
Y532348D02*
D03*
X948261Y602348D02*
D03*
X922061D02*
D03*
D84*
X975360Y633049D02*
D03*
Y501650D02*
D03*
X918560Y633049D02*
D03*
Y501650D02*
D03*
D85*
X903940Y464231D02*
D03*
Y450230D02*
D03*
Y436230D02*
D03*
Y422229D02*
D03*
D86*
X980440Y443230D02*
D03*
D87*
X923940Y470731D02*
D03*
Y415729D02*
D03*
D88*
X945140Y337621D02*
D03*
X925140D02*
D03*
Y312619D02*
D03*
X945140D02*
D03*
X220980Y537210D02*
D03*
Y562610D02*
D03*
Y588010D02*
D03*
X195580D02*
D03*
X170180D02*
D03*
X93980D02*
D03*
X68580D02*
D03*
X43180D02*
D03*
Y461010D02*
D03*
X68580D02*
D03*
X93980D02*
D03*
X119380D02*
D03*
X144780D02*
D03*
X220980D02*
D03*
X195580D02*
D03*
X170180D02*
D03*
X119380Y588010D02*
D03*
X144780D02*
D03*
X609600Y751215D02*
D03*
Y801218D02*
D03*
Y826219D02*
D03*
Y851217D02*
D03*
Y776216D02*
D03*
X544830D02*
D03*
Y851217D02*
D03*
Y826219D02*
D03*
Y801218D02*
D03*
Y751215D02*
D03*
X392429Y775621D02*
D03*
Y850622D02*
D03*
Y825623D02*
D03*
Y800622D02*
D03*
Y750620D02*
D03*
D89*
X972240Y264921D02*
D03*
Y385319D02*
D03*
D90*
X351790Y460375D02*
D03*
X377190D02*
D03*
X402590D02*
D03*
X427990D02*
D03*
X326390D02*
D03*
X300990D02*
D03*
X275590D02*
D03*
X250190D02*
D03*
X427990Y587375D02*
D03*
X402590D02*
D03*
X377190D02*
D03*
X351790D02*
D03*
X326390D02*
D03*
X300990D02*
D03*
X275590D02*
D03*
X250190D02*
D03*
X558800Y460375D02*
D03*
X584200D02*
D03*
X609600D02*
D03*
X635000D02*
D03*
X533400D02*
D03*
X508000D02*
D03*
X482600D02*
D03*
X457200D02*
D03*
X635000Y587375D02*
D03*
X609600D02*
D03*
X584200D02*
D03*
X558800D02*
D03*
X533400D02*
D03*
X508000D02*
D03*
X482600D02*
D03*
X457200D02*
D03*
D91*
X208280Y356870D02*
D03*
D92*
Y382270D02*
D03*
X233680Y356870D02*
D03*
Y382270D02*
D03*
X259080Y356870D02*
D03*
Y382270D02*
D03*
X284480Y356870D02*
D03*
Y382270D02*
D03*
X309880Y356870D02*
D03*
Y382270D02*
D03*
X335280Y356870D02*
D03*
Y382270D02*
D03*
X360680Y356870D02*
D03*
Y382270D02*
D03*
X386080Y356870D02*
D03*
Y382270D02*
D03*
X411480Y356870D02*
D03*
Y382270D02*
D03*
X436880Y356870D02*
D03*
Y382270D02*
D03*
X462280Y356870D02*
D03*
Y382270D02*
D03*
X487680Y356870D02*
D03*
Y382270D02*
D03*
D93*
X590550Y36830D02*
D03*
X669691D02*
D03*
X223519Y49530D02*
D03*
X302059D02*
D03*
X145062Y50267D02*
D03*
D94*
X615549Y36830D02*
D03*
X694690D02*
D03*
X198521Y49530D02*
D03*
X277061D02*
D03*
X120063Y50267D02*
D03*
D95*
X609600Y876219D02*
D03*
X544830D02*
D03*
X392429Y875623D02*
D03*
D96*
X970385Y966367D02*
D03*
X970280Y30480D02*
D03*
X30585Y968907D02*
D03*
X30480Y30480D02*
D03*
D97*
X958850Y890270D02*
D03*
Y864870D02*
D03*
Y915670D02*
D03*
D98*
Y839470D02*
D03*
D99*
X29070Y840741D02*
D03*
Y790741D02*
D03*
X79070Y790738D02*
D03*
Y840738D02*
D03*
D100*
X455930Y985520D02*
D03*
X478790Y838200D02*
D03*
X742950Y772160D02*
D03*
X923290Y294640D02*
D03*
X779780Y739140D02*
D03*
X891380Y585470D02*
D03*
X860859Y271629D02*
D03*
X552450Y932500D02*
D03*
X593700Y932180D02*
D03*
X773430Y789940D02*
D03*
X818613Y785397D02*
D03*
X784860Y405130D02*
D03*
X839470Y292100D02*
D03*
X781050D02*
D03*
X692150Y104140D02*
D03*
X303530Y184150D02*
D03*
X860425Y523875D02*
D03*
X803910Y523240D02*
D03*
X867410Y468630D02*
D03*
X704850Y505460D02*
D03*
X843280Y680720D02*
D03*
X694690Y523240D02*
D03*
X814070Y719534D02*
D03*
X800100Y732790D02*
D03*
X189230Y896620D02*
D03*
X179070Y886460D02*
D03*
X124460Y777240D02*
D03*
X43180Y673100D02*
D03*
X647954Y485140D02*
D03*
X661924Y420835D02*
D03*
X952500Y732790D02*
D03*
Y793750D02*
D03*
X594641Y103737D02*
D03*
X678180Y742950D02*
D03*
X842010Y694690D02*
D03*
X831850Y703580D02*
D03*
X292100Y241300D02*
D03*
X525645Y260609D02*
D03*
X825500Y713740D02*
D03*
X811530Y732790D02*
D03*
X279400Y240030D02*
D03*
X266700Y241300D02*
D03*
X243840Y255270D02*
D03*
X218440Y256540D02*
D03*
X165100Y229870D02*
D03*
X422910Y154940D02*
D03*
X772160Y927100D02*
D03*
X252730Y716280D02*
D03*
X210820Y692150D02*
D03*
X220980Y631190D02*
D03*
X233680Y647700D02*
D03*
X482600Y703580D02*
D03*
X406400Y631190D02*
D03*
X514350Y624840D02*
D03*
X749300Y793750D02*
D03*
Y805180D02*
D03*
X445910Y682450D02*
D03*
X195580Y655320D02*
D03*
X143510Y656590D02*
D03*
X773430Y857250D02*
D03*
X68580Y654050D02*
D03*
X751840Y842010D02*
D03*
X765810Y845820D02*
D03*
X502920Y703900D02*
D03*
X848360Y885190D02*
D03*
X839470Y892810D02*
D03*
X821690Y897890D02*
D03*
X816610Y887730D02*
D03*
X514350Y840740D02*
D03*
Y765810D02*
D03*
X457200Y847090D02*
D03*
X462280Y778510D02*
D03*
X204470Y139700D02*
D03*
X515620Y265430D02*
D03*
X303530Y198120D02*
D03*
D101*
X952500Y681990D02*
D03*
X984250Y364490D02*
D03*
X952500Y300990D02*
D03*
X984250Y237490D02*
D03*
X952500Y173990D02*
D03*
X984250Y110490D02*
D03*
X889000Y808990D02*
D03*
X920750Y745490D02*
D03*
X889000Y681990D02*
D03*
X920750Y364490D02*
D03*
X889000Y173990D02*
D03*
X920750Y110490D02*
D03*
X889000Y46990D02*
D03*
X825500Y808990D02*
D03*
X857250Y237490D02*
D03*
X825500Y173990D02*
D03*
X857250Y110490D02*
D03*
X825500Y46990D02*
D03*
X793750Y872490D02*
D03*
X762000Y554990D02*
D03*
X793750Y364490D02*
D03*
X762000Y300990D02*
D03*
X793750Y237490D02*
D03*
X762000Y173990D02*
D03*
X793750Y110490D02*
D03*
X762000Y46990D02*
D03*
X698500Y681990D02*
D03*
X730250Y491490D02*
D03*
Y364490D02*
D03*
Y110490D02*
D03*
X635000Y935990D02*
D03*
X666750Y872490D02*
D03*
X635000Y681990D02*
D03*
X666750Y618490D02*
D03*
X635000Y427990D02*
D03*
Y300990D02*
D03*
Y173990D02*
D03*
Y46990D02*
D03*
X571500Y935990D02*
D03*
X603250Y618490D02*
D03*
X571500Y554990D02*
D03*
Y427990D02*
D03*
X603250Y364490D02*
D03*
Y237490D02*
D03*
X571500Y173990D02*
D03*
Y46990D02*
D03*
X508000Y935990D02*
D03*
X539750Y618490D02*
D03*
X508000Y554990D02*
D03*
X539750Y364490D02*
D03*
Y237490D02*
D03*
X508000Y173990D02*
D03*
Y46990D02*
D03*
X444500Y935990D02*
D03*
Y554990D02*
D03*
X476250Y491490D02*
D03*
X444500Y46990D02*
D03*
X412750Y872490D02*
D03*
Y618490D02*
D03*
X381000Y554990D02*
D03*
X412750Y237490D02*
D03*
X381000Y46990D02*
D03*
X317500Y935990D02*
D03*
X349250Y872490D02*
D03*
X317500Y808990D02*
D03*
X349250Y745490D02*
D03*
Y618490D02*
D03*
X317500Y554990D02*
D03*
X349250Y237490D02*
D03*
X317500Y46990D02*
D03*
X254000Y935990D02*
D03*
Y554990D02*
D03*
Y46990D02*
D03*
X190500Y554990D02*
D03*
X158750Y745490D02*
D03*
Y618490D02*
D03*
X127000Y554990D02*
D03*
Y300990D02*
D03*
X158750Y237490D02*
D03*
X63500Y808990D02*
D03*
X95250Y745490D02*
D03*
Y618490D02*
D03*
X63500Y554990D02*
D03*
Y427990D02*
D03*
X95250Y364490D02*
D03*
X63500Y300990D02*
D03*
X95250Y237490D02*
D03*
X63500Y46990D02*
D03*
M02*
