G04*
G04 #@! TF.GenerationSoftware,Altium Limited,Altium Designer,22.11.1 (43)*
G04*
G04 Layer_Color=32768*
%FSLAX44Y44*%
%MOMM*%
G71*
G04*
G04 #@! TF.SameCoordinates,C47467C8-9064-4A8D-955C-1DE8D4ADFDDE*
G04*
G04*
G04 #@! TF.FilePolarity,Positive*
G04*
G01*
G75*
%ADD115C,1.2700*%
%ADD149C,0.0508*%
G36*
X169548Y972966D02*
X169553Y972721D01*
D01*
Y972721D01*
Y972721D01*
X169548Y972476D01*
X169198Y972134D01*
X168953D01*
Y960220D01*
X164953D01*
Y972720D01*
X168354D01*
X168354Y972721D01*
X168358Y972966D01*
X168708Y973308D01*
X169198D01*
X169548Y972966D01*
D02*
G37*
G36*
X548665Y965330D02*
X535915D01*
Y969330D01*
X548665D01*
Y965330D01*
D02*
G37*
G36*
X414594Y969578D02*
Y969330D01*
X426745D01*
Y965330D01*
X413995D01*
Y968730D01*
X413746D01*
X413395Y969082D01*
Y969578D01*
X413746Y969930D01*
X414243D01*
X414594Y969578D01*
D02*
G37*
G36*
X394274Y969258D02*
Y969010D01*
X406425D01*
Y965010D01*
X393675D01*
Y968410D01*
X393426D01*
X393075Y968762D01*
Y969258D01*
X393426Y969610D01*
X393923D01*
X394274Y969258D01*
D02*
G37*
G36*
X385495Y965010D02*
X372746D01*
Y969010D01*
X385495D01*
Y965010D01*
D02*
G37*
G36*
X364515D02*
X351765D01*
Y969010D01*
X364515D01*
Y965010D01*
D02*
G37*
G36*
X152953Y960220D02*
X148953D01*
Y972720D01*
X152953D01*
Y960220D01*
D02*
G37*
G36*
X210960Y973094D02*
Y972845D01*
Y972597D01*
X210608Y972246D01*
X210360D01*
Y960095D01*
X206360D01*
Y972845D01*
X209760D01*
Y972845D01*
Y973094D01*
X210112Y973445D01*
X210608D01*
X210960Y973094D01*
D02*
G37*
G36*
X194360Y960095D02*
X190360D01*
Y972845D01*
X194360D01*
Y960095D01*
D02*
G37*
G36*
X426745Y949330D02*
X413995D01*
Y953330D01*
X426745D01*
Y949330D01*
D02*
G37*
G36*
X406425Y949010D02*
X393675D01*
Y953010D01*
X406425D01*
Y949010D01*
D02*
G37*
G36*
X548665Y949930D02*
X548914D01*
X549265Y949578D01*
Y949082D01*
X548914Y948730D01*
X548417D01*
X548066Y949082D01*
Y949330D01*
X535915D01*
Y953330D01*
X548665D01*
Y949930D01*
D02*
G37*
G36*
X385495Y949610D02*
X385744D01*
X386096Y949258D01*
Y948762D01*
X385744Y948410D01*
X385247D01*
X384896Y948762D01*
Y949010D01*
X372746D01*
Y953010D01*
X385495D01*
Y949610D01*
D02*
G37*
G36*
X364515D02*
X364764D01*
X365115Y949258D01*
Y948762D01*
X364764Y948410D01*
X364267D01*
X363916Y948762D01*
Y949010D01*
X351765D01*
Y953010D01*
X364515D01*
Y949610D01*
D02*
G37*
G36*
X424344Y935094D02*
X424685Y934744D01*
Y934256D01*
X424344Y933907D01*
X424100Y933901D01*
X423857Y933907D01*
X423516Y934256D01*
Y934744D01*
X423857Y935094D01*
X424100Y935100D01*
X424100D01*
X424344Y935094D01*
D02*
G37*
G36*
X382435D02*
X382775Y934744D01*
Y934256D01*
X382435Y933907D01*
X382191Y933901D01*
X381946Y933907D01*
X381606Y934256D01*
Y934744D01*
X381946Y935094D01*
X382191Y935100D01*
X382191D01*
X382435Y935094D01*
D02*
G37*
G36*
X421250Y931500D02*
Y928900D01*
X416950D01*
Y931500D01*
Y934500D01*
X421250D01*
Y931500D01*
D02*
G37*
G36*
X402251D02*
Y928900D01*
X397951D01*
Y931500D01*
Y934500D01*
X402251D01*
Y931500D01*
D02*
G37*
G36*
X379340D02*
Y928900D01*
X375040D01*
Y931500D01*
Y934500D01*
X379340D01*
Y931500D01*
D02*
G37*
G36*
X360341D02*
Y928900D01*
X356041D01*
Y931500D01*
Y934500D01*
X360341D01*
Y931500D01*
D02*
G37*
G36*
X545101Y913400D02*
Y910500D01*
X540800D01*
Y913400D01*
Y916100D01*
X545101D01*
Y913400D01*
D02*
G37*
G36*
X411750D02*
Y910500D01*
X407450D01*
Y913400D01*
Y916100D01*
X411750D01*
Y913400D01*
D02*
G37*
G36*
X369841D02*
Y910500D01*
X365540D01*
Y913400D01*
Y916100D01*
X369841D01*
Y913400D01*
D02*
G37*
G36*
X538194Y911094D02*
X538535Y910744D01*
Y910256D01*
X538194Y909906D01*
X537950Y909900D01*
X537950D01*
X537706Y909906D01*
X537365Y910256D01*
Y910744D01*
X537706Y911094D01*
X537950Y911100D01*
X538194Y911094D01*
D02*
G37*
G36*
X478470Y882945D02*
X474470D01*
Y895695D01*
X478470D01*
Y882945D01*
D02*
G37*
G36*
X462470D02*
X459070D01*
Y882945D01*
Y882696D01*
X458718Y882345D01*
X458222D01*
X457870Y882696D01*
Y882945D01*
Y883193D01*
X458222Y883544D01*
X458470D01*
Y895695D01*
X462470D01*
Y882945D01*
D02*
G37*
G36*
X-49600Y880258D02*
Y879761D01*
X-49952Y879409D01*
X-50449D01*
X-50800Y879761D01*
Y880258D01*
X-50449Y880609D01*
X-49952D01*
X-49600Y880258D01*
D02*
G37*
G36*
X548030Y873018D02*
X541630D01*
Y879417D01*
X548030D01*
Y873018D01*
D02*
G37*
G36*
X395629Y872422D02*
X389229D01*
Y878822D01*
X395629D01*
Y872422D01*
D02*
G37*
G36*
X178234Y868608D02*
Y868360D01*
X190385D01*
Y864360D01*
X177635D01*
Y867760D01*
X177386D01*
X177035Y868111D01*
Y868608D01*
X177386Y868960D01*
X177883D01*
X178234Y868608D01*
D02*
G37*
G36*
X168795Y864360D02*
X156045D01*
Y868360D01*
X168795D01*
Y864360D01*
D02*
G37*
G36*
X478790Y862625D02*
X474790D01*
Y875375D01*
X478790D01*
Y862625D01*
D02*
G37*
G36*
X462790D02*
X459390D01*
Y862625D01*
Y862376D01*
X459038Y862025D01*
X458542D01*
X458190Y862376D01*
Y862625D01*
Y862873D01*
X458542Y863224D01*
X458790D01*
Y875375D01*
X462790D01*
Y862625D01*
D02*
G37*
G36*
X141780Y861035D02*
X137780D01*
Y873785D01*
X141780D01*
Y861035D01*
D02*
G37*
G36*
X125780D02*
X122380D01*
Y861035D01*
Y860786D01*
X122028Y860435D01*
X121532D01*
X121180Y860786D01*
Y861035D01*
Y861283D01*
X121532Y861634D01*
X121780D01*
Y873785D01*
X125780D01*
Y861035D01*
D02*
G37*
G36*
X436888Y857364D02*
X437231Y857015D01*
X437231Y856525D01*
X436889Y856175D01*
X436644Y856170D01*
X436644Y856170D01*
X436399Y856175D01*
X436056Y856525D01*
X436056Y857014D01*
X436399Y857364D01*
X436644Y857369D01*
X436888Y857364D01*
D02*
G37*
G36*
X498145Y849170D02*
X487545D01*
Y853270D01*
X498145D01*
Y849170D01*
D02*
G37*
G36*
X448745D02*
X438145D01*
Y853270D01*
X448745D01*
Y849170D01*
D02*
G37*
G36*
X190385Y848360D02*
X177635D01*
Y852360D01*
X190385D01*
Y848360D01*
D02*
G37*
G36*
X548030Y848016D02*
X541630D01*
Y854416D01*
X548030D01*
Y848016D01*
D02*
G37*
G36*
X168795Y848960D02*
X169044D01*
X169395Y848608D01*
Y848112D01*
X169044Y847760D01*
X168547D01*
X168196Y848112D01*
Y848360D01*
X156045D01*
Y852360D01*
X168795D01*
Y848960D01*
D02*
G37*
G36*
X395629Y847421D02*
X389229D01*
Y853820D01*
X395629D01*
Y847421D01*
D02*
G37*
G36*
X142380Y853714D02*
Y853465D01*
Y853217D01*
X142028Y852866D01*
X141780D01*
Y840715D01*
X137780D01*
Y853465D01*
X141180D01*
Y853465D01*
Y853714D01*
X141532Y854065D01*
X142028D01*
X142380Y853714D01*
D02*
G37*
G36*
X125780Y840715D02*
X121780D01*
Y853465D01*
X125780D01*
Y840715D01*
D02*
G37*
G36*
X498145Y836470D02*
X487545D01*
Y840570D01*
X498145D01*
Y836470D01*
D02*
G37*
G36*
X448745D02*
X438145D01*
Y840570D01*
X448745D01*
Y836470D01*
D02*
G37*
G36*
X31579Y846798D02*
X33061Y845942D01*
X34271Y844732D01*
X35127Y843250D01*
X35570Y841597D01*
Y839885D01*
X35127Y838232D01*
X34271Y836750D01*
X33061Y835539D01*
X31579Y834684D01*
X29926Y834241D01*
X28214D01*
X26561Y834684D01*
X25079Y835539D01*
X23869Y836750D01*
X23013Y838232D01*
X22570Y839885D01*
Y841597D01*
X23013Y843250D01*
X23869Y844732D01*
X25079Y845942D01*
X26561Y846798D01*
X28214Y847241D01*
X29926D01*
X31579Y846798D01*
D02*
G37*
G36*
X81579Y846795D02*
X83061Y845939D01*
X84271Y844729D01*
X85127Y843247D01*
X85570Y841594D01*
Y839883D01*
X85127Y838229D01*
X84271Y836747D01*
X83061Y835537D01*
X81579Y834681D01*
X79926Y834238D01*
X78214D01*
X76561Y834681D01*
X75079Y835537D01*
X73869Y836747D01*
X73013Y838229D01*
X72570Y839883D01*
Y841594D01*
X73013Y843247D01*
X73869Y844729D01*
X75079Y845939D01*
X76561Y846795D01*
X78214Y847238D01*
X79926D01*
X81579Y846795D01*
D02*
G37*
G36*
X498145Y823770D02*
X487545D01*
Y827870D01*
X498145D01*
Y823770D01*
D02*
G37*
G36*
X448745D02*
X438145D01*
Y827870D01*
X448745D01*
Y823770D01*
D02*
G37*
G36*
X197310Y824478D02*
Y824230D01*
Y823982D01*
X196958Y823630D01*
X196462D01*
X196110Y823982D01*
Y824230D01*
Y824478D01*
X196462Y824830D01*
X196958D01*
X197310Y824478D01*
D02*
G37*
G36*
X548030Y823015D02*
X541630D01*
Y829415D01*
X548030D01*
Y823015D01*
D02*
G37*
G36*
X395629Y822420D02*
X389229D01*
Y828819D01*
X395629D01*
Y822420D01*
D02*
G37*
G36*
X193680Y820480D02*
Y818230D01*
X189580D01*
Y820480D01*
Y828830D01*
X193680D01*
Y820480D01*
D02*
G37*
G36*
X180980D02*
Y818230D01*
X176880D01*
Y820480D01*
Y828830D01*
X180980D01*
Y820480D01*
D02*
G37*
G36*
X168280D02*
Y818230D01*
X164180D01*
Y820480D01*
Y828830D01*
X168280D01*
Y820480D01*
D02*
G37*
G36*
X155580D02*
Y818230D01*
X151480D01*
Y820480D01*
Y828830D01*
X155580D01*
Y820480D01*
D02*
G37*
G36*
X498145Y811070D02*
X487545D01*
Y815170D01*
X498145D01*
Y811070D01*
D02*
G37*
G36*
X448745D02*
X438145D01*
Y815170D01*
X448745D01*
Y811070D01*
D02*
G37*
G36*
X498145Y798370D02*
X487545D01*
Y802470D01*
X498145D01*
Y798370D01*
D02*
G37*
G36*
X448745D02*
X438145D01*
Y802470D01*
X448745D01*
Y798370D01*
D02*
G37*
G36*
X548030Y798014D02*
X541630D01*
Y804414D01*
X548030D01*
Y798014D01*
D02*
G37*
G36*
X395629Y797418D02*
X389229D01*
Y803818D01*
X395629D01*
Y797418D01*
D02*
G37*
G36*
X498145Y785670D02*
X487545D01*
Y789770D01*
X498145D01*
Y785670D01*
D02*
G37*
G36*
X448745D02*
X438145D01*
Y789770D01*
X448745D01*
Y785670D01*
D02*
G37*
G36*
X31579Y796798D02*
X33061Y795942D01*
X34271Y794732D01*
X35127Y793250D01*
X35570Y791597D01*
Y789885D01*
X35127Y788232D01*
X34271Y786750D01*
X33061Y785540D01*
X31579Y784684D01*
X29926Y784241D01*
X28214D01*
X26561Y784684D01*
X25079Y785540D01*
X23869Y786750D01*
X23013Y788232D01*
X22570Y789885D01*
Y791597D01*
X23013Y793250D01*
X23869Y794732D01*
X25079Y795942D01*
X26561Y796798D01*
X28214Y797241D01*
X29926D01*
X31579Y796798D01*
D02*
G37*
G36*
X81579Y796795D02*
X83061Y795940D01*
X84271Y794729D01*
X85127Y793247D01*
X85570Y791594D01*
Y789883D01*
X85127Y788229D01*
X84271Y786747D01*
X83061Y785537D01*
X81579Y784681D01*
X79926Y784238D01*
X78214D01*
X76561Y784681D01*
X75079Y785537D01*
X73869Y786747D01*
X73013Y788229D01*
X72570Y789883D01*
Y791594D01*
X73013Y793247D01*
X73869Y794729D01*
X75079Y795940D01*
X76561Y796795D01*
X78214Y797238D01*
X79926D01*
X81579Y796795D01*
D02*
G37*
G36*
X548030Y773015D02*
X541630D01*
Y779415D01*
X548030D01*
Y773015D01*
D02*
G37*
G36*
X498145Y772970D02*
X487545D01*
Y777070D01*
X498145D01*
Y772970D01*
D02*
G37*
G36*
X448745D02*
X438145D01*
Y777070D01*
X448745D01*
Y772970D01*
D02*
G37*
G36*
X395629Y772420D02*
X389229D01*
Y778819D01*
X395629D01*
Y772420D01*
D02*
G37*
G36*
X193680Y777080D02*
Y768830D01*
X189580D01*
Y777080D01*
Y779430D01*
X193680D01*
Y777080D01*
D02*
G37*
G36*
X180980D02*
Y768830D01*
X176880D01*
Y777080D01*
Y779430D01*
X180980D01*
Y777080D01*
D02*
G37*
G36*
X168280D02*
Y768830D01*
X164180D01*
Y777080D01*
Y779430D01*
X168280D01*
Y777080D01*
D02*
G37*
G36*
X155580D02*
Y768830D01*
X151480D01*
Y777080D01*
Y779430D01*
X155580D01*
Y777080D01*
D02*
G37*
G36*
X498145Y760270D02*
X487545D01*
Y764370D01*
X498145D01*
Y760270D01*
D02*
G37*
G36*
X448745D02*
X438145D01*
Y764370D01*
X448745D01*
Y760270D01*
D02*
G37*
G36*
X548030Y748014D02*
X541630D01*
Y754414D01*
X548030D01*
Y748014D01*
D02*
G37*
G36*
X395629Y747418D02*
X389229D01*
Y753818D01*
X395629D01*
Y747418D01*
D02*
G37*
G36*
X506844Y744594D02*
X507184Y744244D01*
Y743756D01*
X506844Y743407D01*
X506600Y743400D01*
X506356Y743407D01*
X506015Y743756D01*
Y744244D01*
X506356Y744594D01*
X506600Y744600D01*
X506600D01*
X506844Y744594D01*
D02*
G37*
G36*
X452894Y744434D02*
X453235Y744084D01*
Y743596D01*
X452894Y743247D01*
X452650Y743240D01*
X452406Y743247D01*
X452065Y743596D01*
Y744084D01*
X452406Y744434D01*
X452650Y744440D01*
X452650D01*
X452894Y744434D01*
D02*
G37*
G36*
X503749Y741000D02*
Y738400D01*
X499449D01*
Y741000D01*
Y744000D01*
X503749D01*
Y741000D01*
D02*
G37*
G36*
X484750D02*
Y738400D01*
X480450D01*
Y741000D01*
Y744000D01*
X484750D01*
Y741000D01*
D02*
G37*
G36*
X449800Y740840D02*
Y738240D01*
X445499D01*
Y740840D01*
Y743840D01*
X449800D01*
Y740840D01*
D02*
G37*
G36*
X430801D02*
Y738240D01*
X426500D01*
Y740840D01*
Y743840D01*
X430801D01*
Y740840D01*
D02*
G37*
G36*
X418528Y725869D02*
Y725372D01*
X418177Y725021D01*
X417680D01*
X417329Y725372D01*
Y725869D01*
X417680Y726220D01*
X418177D01*
X418528Y725869D01*
D02*
G37*
G36*
X494250Y722900D02*
Y720000D01*
X489949D01*
Y722900D01*
Y725600D01*
X494250D01*
Y722900D01*
D02*
G37*
G36*
X440300Y722740D02*
Y719840D01*
X436000D01*
Y722740D01*
Y725440D01*
X440300D01*
Y722740D01*
D02*
G37*
G36*
X457145Y703324D02*
Y701474D01*
X453395D01*
Y703324D01*
Y707573D01*
X457145D01*
Y703324D01*
D02*
G37*
G36*
X509295Y699900D02*
X496545D01*
Y703900D01*
X509295D01*
Y699900D01*
D02*
G37*
G36*
X476824Y704148D02*
Y703900D01*
X488975D01*
Y699900D01*
X476225D01*
Y703300D01*
X475976D01*
X475625Y703652D01*
Y704148D01*
X475976Y704500D01*
X476473D01*
X476824Y704148D01*
D02*
G37*
G36*
X422214D02*
Y703900D01*
X434365D01*
Y699900D01*
X421615D01*
Y703300D01*
X421366D01*
X421015Y703652D01*
Y704148D01*
X421366Y704500D01*
X421863D01*
X422214Y704148D01*
D02*
G37*
G36*
X488975Y683900D02*
X476225D01*
Y687900D01*
X488975D01*
Y683900D01*
D02*
G37*
G36*
X434365D02*
X421615D01*
Y687900D01*
X434365D01*
Y683900D01*
D02*
G37*
G36*
X509295Y684500D02*
X509544D01*
X509895Y684148D01*
Y683652D01*
X509544Y683300D01*
X509047D01*
X508696Y683652D01*
Y683900D01*
X496545D01*
Y687900D01*
X509295D01*
Y684500D01*
D02*
G37*
G36*
X466644Y683223D02*
Y679074D01*
X462894D01*
Y683223D01*
Y685173D01*
X466644D01*
Y683223D01*
D02*
G37*
G36*
X447645D02*
Y679074D01*
X443895D01*
Y683223D01*
Y685173D01*
X447645D01*
Y683223D01*
D02*
G37*
G36*
X440871Y679323D02*
Y678826D01*
X440519Y678474D01*
X440023D01*
X439671Y678826D01*
Y679323D01*
X440023Y679674D01*
X440519D01*
X440871Y679323D01*
D02*
G37*
G36*
X476824Y631118D02*
Y630870D01*
X488975D01*
Y626870D01*
X476225D01*
Y630270D01*
X475976D01*
X475625Y630621D01*
Y631118D01*
X475976Y631470D01*
X476473D01*
X476824Y631118D01*
D02*
G37*
G36*
X451424D02*
Y630870D01*
X463575D01*
Y626870D01*
X450825D01*
Y630270D01*
X450576D01*
X450225Y630621D01*
Y631118D01*
X450576Y631470D01*
X451073D01*
X451424Y631118D01*
D02*
G37*
G36*
X422214D02*
Y630870D01*
X434365D01*
Y626870D01*
X421615D01*
Y630270D01*
X421366D01*
X421015Y630621D01*
Y631118D01*
X421366Y631470D01*
X421863D01*
X422214Y631118D01*
D02*
G37*
G36*
X269814D02*
Y630870D01*
X281965D01*
Y626870D01*
X269215D01*
Y630270D01*
X268966D01*
X268615Y630621D01*
Y631118D01*
X268966Y631470D01*
X269463D01*
X269814Y631118D01*
D02*
G37*
G36*
X243144D02*
Y630870D01*
X255295D01*
Y626870D01*
X242545D01*
Y630270D01*
X242296D01*
X241945Y630621D01*
Y631118D01*
X242296Y631470D01*
X242793D01*
X243144Y631118D01*
D02*
G37*
G36*
X215204D02*
Y630870D01*
X227355D01*
Y626870D01*
X214605D01*
Y630270D01*
X214356D01*
X214005Y630621D01*
Y631118D01*
X214356Y631470D01*
X214853D01*
X215204Y631118D01*
D02*
G37*
G36*
X189804D02*
Y630870D01*
X201955D01*
Y626870D01*
X189205D01*
Y630270D01*
X188956D01*
X188605Y630621D01*
Y631118D01*
X188956Y631470D01*
X189453D01*
X189804Y631118D01*
D02*
G37*
G36*
X137734D02*
Y630870D01*
X149885D01*
Y626870D01*
X137135D01*
Y630270D01*
X136886D01*
X136535Y630621D01*
Y631118D01*
X136886Y631470D01*
X137383D01*
X137734Y631118D01*
D02*
G37*
G36*
X62804D02*
Y630870D01*
X74955D01*
Y626870D01*
X62205D01*
Y630270D01*
X61956D01*
X61605Y630621D01*
Y631118D01*
X61956Y631470D01*
X62453D01*
X62804Y631118D01*
D02*
G37*
G36*
X37404D02*
Y630870D01*
X49555D01*
Y626870D01*
X36805D01*
Y630270D01*
X36556D01*
X36205Y630621D01*
Y631118D01*
X36556Y631470D01*
X37053D01*
X37404Y631118D01*
D02*
G37*
G36*
X488975Y610870D02*
X476225D01*
Y614870D01*
X488975D01*
Y610870D01*
D02*
G37*
G36*
X463575D02*
X450825D01*
Y614870D01*
X463575D01*
Y610870D01*
D02*
G37*
G36*
X434365D02*
X421615D01*
Y614870D01*
X434365D01*
Y610870D01*
D02*
G37*
G36*
X281965D02*
X269215D01*
Y614870D01*
X281965D01*
Y610870D01*
D02*
G37*
G36*
X255295D02*
X242545D01*
Y614870D01*
X255295D01*
Y610870D01*
D02*
G37*
G36*
X227355D02*
X214605D01*
Y614870D01*
X227355D01*
Y610870D01*
D02*
G37*
G36*
X201955D02*
X189205D01*
Y614870D01*
X201955D01*
Y610870D01*
D02*
G37*
G36*
X149885D02*
X137135D01*
Y614870D01*
X149885D01*
Y610870D01*
D02*
G37*
G36*
X74955D02*
X62205D01*
Y614870D01*
X74955D01*
Y610870D01*
D02*
G37*
G36*
X49555D02*
X36805D01*
Y614870D01*
X49555D01*
Y610870D01*
D02*
G37*
G36*
X208051Y542519D02*
Y542271D01*
Y542023D01*
X207700Y541671D01*
X207203D01*
X206852Y542023D01*
Y542271D01*
Y542519D01*
X207203Y542871D01*
X207700D01*
X208051Y542519D01*
D02*
G37*
G36*
X412521Y541249D02*
Y541001D01*
Y540752D01*
X412170Y540401D01*
X411673D01*
X411321Y540752D01*
Y541001D01*
Y541249D01*
X411673Y541601D01*
X412170D01*
X412521Y541249D01*
D02*
G37*
G36*
X207450Y505770D02*
X180950D01*
Y512770D01*
X207450D01*
Y505770D01*
D02*
G37*
G36*
X161950D02*
X135451D01*
Y512770D01*
X161950D01*
Y505770D01*
D02*
G37*
G36*
X411920Y504500D02*
X385420D01*
Y511500D01*
X411920D01*
Y504500D01*
D02*
G37*
G36*
X366420D02*
X339921D01*
Y511500D01*
X366420D01*
Y504500D01*
D02*
G37*
G36*
X340795Y228746D02*
X340800Y228501D01*
D01*
Y228501D01*
Y228501D01*
X340795Y228256D01*
X340445Y227914D01*
X340200D01*
Y216000D01*
X336200D01*
Y228500D01*
X339601D01*
X339600Y228501D01*
X339606Y228746D01*
X339955Y229088D01*
X340445D01*
X340795Y228746D01*
D02*
G37*
G36*
X179644Y225988D02*
Y225740D01*
X191795D01*
Y221740D01*
X179045D01*
Y225140D01*
X178796D01*
X178445Y225492D01*
Y225988D01*
X178796Y226340D01*
X179293D01*
X179644Y225988D01*
D02*
G37*
G36*
X324200Y216000D02*
X320200D01*
Y228500D01*
X324200D01*
Y216000D01*
D02*
G37*
G36*
X381280Y228874D02*
Y228625D01*
Y228377D01*
X380928Y228026D01*
X380680D01*
Y215875D01*
X376680D01*
Y228625D01*
X380080D01*
Y228625D01*
Y228874D01*
X380432Y229225D01*
X380928D01*
X381280Y228874D01*
D02*
G37*
G36*
X364680Y215875D02*
X360680D01*
Y228625D01*
X364680D01*
Y215875D01*
D02*
G37*
G36*
X162840Y219984D02*
Y219735D01*
Y219487D01*
X162488Y219136D01*
X162240D01*
Y206985D01*
X158240D01*
Y219735D01*
X161640D01*
Y219735D01*
Y219984D01*
X161992Y220335D01*
X162488D01*
X162840Y219984D01*
D02*
G37*
G36*
X146240Y206985D02*
X142240D01*
Y219735D01*
X146240D01*
Y206985D01*
D02*
G37*
G36*
X125060Y219984D02*
Y219735D01*
Y219487D01*
X124708Y219136D01*
X124460D01*
Y206985D01*
X120460D01*
Y219735D01*
X123860D01*
Y219735D01*
Y219984D01*
X124212Y220335D01*
X124708D01*
X125060Y219984D01*
D02*
G37*
G36*
X108460Y206985D02*
X104460D01*
Y219735D01*
X108460D01*
Y206985D01*
D02*
G37*
G36*
X191795Y205740D02*
X179045D01*
Y209740D01*
X191795D01*
Y205740D01*
D02*
G37*
G36*
X341138Y204616D02*
X341143Y204371D01*
D01*
Y204371D01*
Y204371D01*
X341138Y204126D01*
X340788Y203784D01*
X340543D01*
Y191870D01*
X336543D01*
Y204370D01*
X339944D01*
X339943Y204371D01*
X339949Y204616D01*
X340298Y204958D01*
X340788D01*
X341138Y204616D01*
D02*
G37*
G36*
X324543Y191870D02*
X320543D01*
Y204370D01*
X324543D01*
Y191870D01*
D02*
G37*
G36*
X381280Y204744D02*
Y204495D01*
Y204247D01*
X380928Y203896D01*
X380680D01*
Y191745D01*
X376680D01*
Y204495D01*
X380080D01*
Y204495D01*
Y204744D01*
X380432Y205095D01*
X380928D01*
X381280Y204744D01*
D02*
G37*
G36*
X364680Y191745D02*
X360680D01*
Y204495D01*
X364680D01*
Y191745D01*
D02*
G37*
G36*
X179644Y188208D02*
Y187960D01*
X191795D01*
Y183960D01*
X179045D01*
Y187360D01*
X178796D01*
X178445Y187712D01*
Y188208D01*
X178796Y188560D01*
X179293D01*
X179644Y188208D01*
D02*
G37*
G36*
X341138Y180486D02*
X341143Y180241D01*
D01*
Y180241D01*
Y180241D01*
X341138Y179996D01*
X340788Y179654D01*
X340543D01*
Y167740D01*
X336543D01*
Y180240D01*
X339944D01*
X339943Y180241D01*
X339949Y180486D01*
X340298Y180828D01*
X340788D01*
X341138Y180486D01*
D02*
G37*
G36*
X191795Y167960D02*
X179045D01*
Y171960D01*
X191795D01*
Y167960D01*
D02*
G37*
G36*
X324543Y167740D02*
X320543D01*
Y180240D01*
X324543D01*
Y167740D01*
D02*
G37*
G36*
X381600Y180614D02*
Y180365D01*
Y180117D01*
X381248Y179766D01*
X381000D01*
Y167615D01*
X377000D01*
Y180365D01*
X380400D01*
Y180365D01*
Y180614D01*
X380752Y180965D01*
X381248D01*
X381600Y180614D01*
D02*
G37*
G36*
X365000Y167615D02*
X361000D01*
Y180365D01*
X365000D01*
Y167615D01*
D02*
G37*
G36*
X85710Y154999D02*
X74310D01*
Y162500D01*
X85710D01*
Y154999D01*
D02*
G37*
G36*
X69129Y115648D02*
Y114654D01*
X68427Y113952D01*
X67433D01*
X66730Y114654D01*
Y115648D01*
X67433Y116350D01*
X68427D01*
X69129Y115648D01*
D02*
G37*
G36*
X85710Y109551D02*
X74310D01*
Y117051D01*
X85710D01*
Y109551D01*
D02*
G37*
G36*
X325145Y99820D02*
X312395D01*
Y103820D01*
X325145D01*
Y99820D01*
D02*
G37*
G36*
X246405D02*
X233655D01*
Y103820D01*
X246405D01*
Y99820D01*
D02*
G37*
G36*
X297272Y94126D02*
X297277Y93881D01*
D01*
Y93881D01*
Y93881D01*
X297272Y93636D01*
X296922Y93294D01*
X296677D01*
Y81380D01*
X292677D01*
Y93880D01*
X296078D01*
X296078Y93881D01*
X296083Y94126D01*
X296432Y94468D01*
X296922D01*
X297272Y94126D01*
D02*
G37*
G36*
X218532D02*
X218537Y93881D01*
D01*
Y93881D01*
Y93881D01*
X218532Y93636D01*
X218182Y93294D01*
X217937D01*
Y81380D01*
X213937D01*
Y93880D01*
X217338D01*
X217338Y93881D01*
X217343Y94126D01*
X217692Y94468D01*
X218182D01*
X218532Y94126D01*
D02*
G37*
G36*
X325145Y84420D02*
X325394D01*
X325745Y84068D01*
Y83572D01*
X325394Y83220D01*
X324897D01*
X324546Y83572D01*
Y83820D01*
X312395D01*
Y87820D01*
X325145D01*
Y84420D01*
D02*
G37*
G36*
X246405D02*
X246654D01*
X247005Y84068D01*
Y83572D01*
X246654Y83220D01*
X246157D01*
X245806Y83572D01*
Y83820D01*
X233655D01*
Y87820D01*
X246405D01*
Y84420D01*
D02*
G37*
G36*
X280677Y81380D02*
X276677D01*
Y93880D01*
X280677D01*
Y81380D01*
D02*
G37*
G36*
X201937D02*
X197937D01*
Y93880D01*
X201937D01*
Y81380D01*
D02*
G37*
G36*
X75504Y76448D02*
Y76200D01*
X87655D01*
Y72200D01*
X74905D01*
Y75600D01*
X74656D01*
X74305Y75952D01*
Y76448D01*
X74656Y76800D01*
X75153D01*
X75504Y76448D01*
D02*
G37*
G36*
X87655Y56200D02*
X74905D01*
Y60200D01*
X87655D01*
Y56200D01*
D02*
G37*
G36*
X148262Y47067D02*
X141862D01*
Y53467D01*
X148262D01*
Y47067D01*
D02*
G37*
G36*
X123263D02*
X116863D01*
Y53467D01*
X123263D01*
Y47067D01*
D02*
G37*
G36*
X305259Y46330D02*
X298859D01*
Y52730D01*
X305259D01*
Y46330D01*
D02*
G37*
G36*
X280261D02*
X273861D01*
Y52730D01*
X280261D01*
Y46330D01*
D02*
G37*
G36*
X226719D02*
X220320D01*
Y52730D01*
X226719D01*
Y46330D01*
D02*
G37*
G36*
X201721D02*
X195321D01*
Y52730D01*
X201721D01*
Y46330D01*
D02*
G37*
G36*
X75029Y36000D02*
X75274Y35995D01*
X75616Y35645D01*
Y35400D01*
X87530D01*
Y31400D01*
X75030D01*
Y34801D01*
X75029Y34801D01*
X74784Y34806D01*
X74442Y35155D01*
Y35645D01*
X74784Y35995D01*
X75029Y36000D01*
X75029D01*
X75029D01*
D01*
D02*
G37*
G36*
X87530Y15400D02*
X75030D01*
Y19400D01*
X87530D01*
Y15400D01*
D02*
G37*
G36*
X95662Y15515D02*
Y15267D01*
Y15018D01*
X95311Y14667D01*
X94814D01*
X94463Y15018D01*
Y15267D01*
Y15515D01*
X94814Y15867D01*
X95311D01*
X95662Y15515D01*
D02*
G37*
G36*
X252660Y14779D02*
Y14530D01*
Y14282D01*
X252308Y13930D01*
X251811D01*
X251460Y14282D01*
Y14530D01*
Y14779D01*
X251811Y15130D01*
X252308D01*
X252660Y14779D01*
D02*
G37*
G36*
X174120D02*
Y14530D01*
Y14282D01*
X173769Y13930D01*
X173272D01*
X172920Y14282D01*
Y14530D01*
Y14779D01*
X173272Y15130D01*
X173769D01*
X174120Y14779D01*
D02*
G37*
G36*
X948261Y560921D02*
X948971D01*
X950284Y560377D01*
X951289Y559372D01*
X951833Y558059D01*
X951833Y556638D01*
X951289Y555325D01*
X950284Y554320D01*
X948971Y553776D01*
X948260Y553776D01*
X947550D01*
X946237Y554320D01*
X945232Y555325D01*
X944688Y556638D01*
X944688Y558059D01*
X945232Y559372D01*
X946237Y560377D01*
X947550Y560921D01*
X948261Y560921D01*
D02*
G37*
G36*
X922061D02*
X922771D01*
X924084Y560377D01*
X925089Y559372D01*
X925633Y558059D01*
X925633Y556638D01*
X925089Y555325D01*
X924084Y554320D01*
X922771Y553776D01*
X922060Y553776D01*
X921350D01*
X920037Y554320D01*
X919032Y555325D01*
X918488Y556638D01*
X918488Y558059D01*
X919032Y559372D01*
X920037Y560377D01*
X921350Y560921D01*
X922061Y560921D01*
D02*
G37*
G36*
X622071Y543789D02*
Y543541D01*
Y543293D01*
X621720Y542941D01*
X621223D01*
X620872Y543293D01*
Y543541D01*
Y543789D01*
X621223Y544141D01*
X621720D01*
X622071Y543789D01*
D02*
G37*
G36*
X777354Y535847D02*
Y535599D01*
X789505D01*
Y531599D01*
X776755D01*
Y534999D01*
X776506D01*
X776155Y535350D01*
Y535847D01*
X776506Y536199D01*
X777003D01*
X777354Y535847D01*
D02*
G37*
G36*
X948261Y535920D02*
X948971D01*
X950284Y535376D01*
X951289Y534371D01*
X951833Y533058D01*
X951833Y531637D01*
X951289Y530324D01*
X950284Y529319D01*
X948971Y528775D01*
X948260Y528775D01*
X947550D01*
X946237Y529319D01*
X945232Y530324D01*
X944688Y531637D01*
X944688Y533058D01*
X945232Y534371D01*
X946237Y535376D01*
X947550Y535920D01*
X948261Y535920D01*
D02*
G37*
G36*
X922061D02*
X922771D01*
X924084Y535376D01*
X925089Y534371D01*
X925633Y533058D01*
X925633Y531637D01*
X925089Y530324D01*
X924084Y529319D01*
X922771Y528775D01*
X922060Y528775D01*
X921350D01*
X920037Y529319D01*
X919032Y530324D01*
X918488Y531637D01*
X918488Y533058D01*
X919032Y534371D01*
X920037Y535376D01*
X921350Y535920D01*
X922061Y535920D01*
D02*
G37*
G36*
X789505Y515599D02*
X776755D01*
Y519599D01*
X789505D01*
Y515599D01*
D02*
G37*
G36*
X621470Y507040D02*
X594970D01*
Y514040D01*
X621470D01*
Y507040D01*
D02*
G37*
G36*
X575970D02*
X549471D01*
Y514040D01*
X575970D01*
Y507040D01*
D02*
G37*
G36*
X976737Y512141D02*
X979393Y511415D01*
X981773Y510028D01*
X983714Y508075D01*
X985087Y505687D01*
X985797Y503027D01*
X985797Y500273D01*
X985086Y497612D01*
X983714Y495224D01*
X981773Y493271D01*
X979393Y491884D01*
X976737Y491158D01*
X975360Y491150D01*
X975360Y491150D01*
X973983Y491158D01*
X971326Y491884D01*
X968947Y493271D01*
X967005Y495224D01*
X965633Y497612D01*
X964923Y500273D01*
X964923Y503027D01*
X965633Y505688D01*
X967005Y508075D01*
X968947Y510028D01*
X971327Y511415D01*
X973983Y512141D01*
X975360Y512149D01*
X975360Y512150D01*
X976737Y512141D01*
D02*
G37*
G36*
X919938D02*
X922594Y511415D01*
X924973Y510028D01*
X926915Y508075D01*
X928287Y505687D01*
X928997Y503027D01*
X928997Y500273D01*
X928287Y497612D01*
X926915Y495224D01*
X924973Y493271D01*
X922594Y491884D01*
X919937Y491158D01*
X918560Y491150D01*
X918560Y491150D01*
X917183Y491158D01*
X914527Y491884D01*
X912147Y493271D01*
X910206Y495224D01*
X908834Y497612D01*
X908124Y500273D01*
X908124Y503027D01*
X908834Y505688D01*
X910206Y508075D01*
X912148Y510028D01*
X914527Y511415D01*
X917184Y512141D01*
X918560Y512149D01*
X918560Y512150D01*
X919938Y512141D01*
D02*
G37*
G36*
X900570Y486898D02*
Y486401D01*
X900219Y486050D01*
X899722D01*
X899370Y486401D01*
Y486898D01*
X899722Y487249D01*
X900219D01*
X900570Y486898D01*
D02*
G37*
G36*
X877270Y480660D02*
X877512Y480651D01*
X877849Y480302D01*
X877848Y479818D01*
X877512Y479470D01*
X877270Y479461D01*
X877270Y479461D01*
X877028Y479470D01*
X876692Y479818D01*
X876692Y480303D01*
X877028Y480651D01*
X877270Y480660D01*
X877270Y480660D01*
D02*
G37*
G36*
X927440Y465530D02*
X920440D01*
Y475930D01*
X927440D01*
Y465530D01*
D02*
G37*
G36*
X903940Y467232D02*
X904537D01*
X905640Y466775D01*
X906485Y465930D01*
X906942Y464827D01*
X906942Y463633D01*
X906485Y462530D01*
X905640Y461686D01*
X904537Y461229D01*
X903940Y461229D01*
X903343D01*
X902240Y461686D01*
X901396Y462530D01*
X900939Y463633D01*
X900939Y464827D01*
X901396Y465931D01*
X902240Y466775D01*
X903343Y467232D01*
X903940Y467232D01*
D02*
G37*
G36*
Y453231D02*
X904537D01*
X905640Y452774D01*
X906485Y451930D01*
X906942Y450827D01*
X906942Y449633D01*
X906485Y448530D01*
X905640Y447685D01*
X904537Y447228D01*
X903940Y447229D01*
X903343D01*
X902240Y447686D01*
X901396Y448530D01*
X900939Y449633D01*
X900939Y450827D01*
X901396Y451930D01*
X902240Y452775D01*
X903343Y453231D01*
X903940Y453231D01*
D02*
G37*
G36*
X981424Y448214D02*
X983235Y447440D01*
X984617Y446037D01*
X985364Y444215D01*
X985364Y442246D01*
X984617Y440424D01*
X983235Y439021D01*
X981424Y438247D01*
X980440Y438232D01*
Y438232D01*
X979455Y438247D01*
X977645Y439021D01*
X976263Y440424D01*
X975516Y442246D01*
X975516Y444215D01*
X976263Y446037D01*
X977645Y447440D01*
X979455Y448214D01*
X980440Y448229D01*
Y448229D01*
X981424Y448214D01*
D02*
G37*
G36*
X903940Y439231D02*
X904537D01*
X905640Y438774D01*
X906485Y437929D01*
X906942Y436826D01*
X906942Y435632D01*
X906485Y434529D01*
X905640Y433685D01*
X904537Y433228D01*
X903940Y433228D01*
X903343D01*
X902240Y433685D01*
X901396Y434529D01*
X900939Y435633D01*
X900939Y436827D01*
X901396Y437930D01*
X902240Y438774D01*
X903343Y439231D01*
X903940Y439231D01*
D02*
G37*
G36*
X870680Y428329D02*
X865080D01*
Y432629D01*
X870680D01*
Y428329D01*
D02*
G37*
G36*
X789270Y435884D02*
Y435635D01*
Y435387D01*
X788918Y435036D01*
X788670D01*
Y422885D01*
X784670D01*
Y435635D01*
X788070D01*
Y435635D01*
Y435884D01*
X788422Y436235D01*
X788918D01*
X789270Y435884D01*
D02*
G37*
G36*
X772670Y422885D02*
X768670D01*
Y435635D01*
X772670D01*
Y422885D01*
D02*
G37*
G36*
X903940Y425230D02*
X904537D01*
X905640Y424773D01*
X906485Y423929D01*
X906942Y422826D01*
X906942Y421632D01*
X906485Y420529D01*
X905640Y419684D01*
X904537Y419227D01*
X903940Y419227D01*
X903343D01*
X902240Y419684D01*
X901396Y420529D01*
X900939Y421632D01*
X900939Y422826D01*
X901396Y423929D01*
X902240Y424773D01*
X903343Y425230D01*
X903940Y425230D01*
D02*
G37*
G36*
X852280Y418829D02*
X846680D01*
Y423130D01*
X852280D01*
Y418829D01*
D02*
G37*
G36*
X927440Y410530D02*
X920440D01*
Y420930D01*
X927440D01*
Y410530D01*
D02*
G37*
G36*
X870680Y409330D02*
X865080D01*
Y413630D01*
X870680D01*
Y409330D01*
D02*
G37*
G36*
X871274Y406724D02*
X871280Y406479D01*
Y406479D01*
X871274Y406236D01*
X870924Y405895D01*
X870436D01*
X870087Y406236D01*
X870080Y406479D01*
X870087Y406724D01*
X870436Y407064D01*
X870924D01*
X871274Y406724D01*
D02*
G37*
G36*
X913571Y387169D02*
X913571D01*
X913571D01*
D01*
D02*
G37*
G36*
X913812Y387159D02*
X914147Y386811D01*
Y386328D01*
X913812Y385979D01*
X913571Y385970D01*
X913329Y385979D01*
X912994Y386328D01*
Y386811D01*
X913329Y387159D01*
X913571Y387169D01*
X913812Y387159D01*
D02*
G37*
G36*
X981240Y384069D02*
X963240D01*
Y386569D01*
X981240D01*
Y384069D01*
D02*
G37*
G36*
X861271Y374705D02*
Y374456D01*
Y374208D01*
X860920Y373857D01*
X860423D01*
X860072Y374208D01*
Y374456D01*
Y374705D01*
X860423Y375056D01*
X860920D01*
X861271Y374705D01*
D02*
G37*
G36*
X859820Y366057D02*
Y363932D01*
X857321D01*
Y366057D01*
Y374457D01*
X859820D01*
Y366057D01*
D02*
G37*
G36*
X853420D02*
Y363932D01*
X850921D01*
Y366057D01*
Y374457D01*
X853420D01*
Y366057D01*
D02*
G37*
G36*
X847021D02*
Y363932D01*
X844520D01*
Y366057D01*
Y374457D01*
X847021D01*
Y366057D01*
D02*
G37*
G36*
X840621D02*
Y363932D01*
X838120D01*
Y366057D01*
Y374457D01*
X840621D01*
Y366057D01*
D02*
G37*
G36*
X834221D02*
Y363932D01*
X831721D01*
Y366057D01*
Y374457D01*
X834221D01*
Y366057D01*
D02*
G37*
G36*
X827821D02*
Y363932D01*
X825320D01*
Y366057D01*
Y374457D01*
X827821D01*
Y366057D01*
D02*
G37*
G36*
X821421D02*
Y363932D01*
X818921D01*
Y366057D01*
Y374457D01*
X821421D01*
Y366057D01*
D02*
G37*
G36*
X815021D02*
Y363932D01*
X812521D01*
Y366057D01*
Y374457D01*
X815021D01*
Y366057D01*
D02*
G37*
G36*
X870056Y360722D02*
X870399Y360372D01*
X870398Y359883D01*
X870055Y359533D01*
X869810Y359528D01*
X869810Y359528D01*
X869566Y359534D01*
X869223Y359884D01*
X869224Y360373D01*
X869567Y360723D01*
X869812Y360728D01*
X870056Y360722D01*
D02*
G37*
G36*
X894801Y350129D02*
X886801D01*
Y359129D01*
X894801D01*
Y350129D01*
D02*
G37*
G36*
X877820D02*
X869820D01*
Y359129D01*
X877820D01*
Y350129D01*
D02*
G37*
G36*
X946140Y335121D02*
X944140D01*
Y340121D01*
X946140D01*
Y335121D01*
D02*
G37*
G36*
X926140D02*
X924140D01*
Y340121D01*
X926140D01*
Y335121D01*
D02*
G37*
G36*
X894801Y329128D02*
X886801D01*
Y338128D01*
X894801D01*
Y329128D01*
D02*
G37*
G36*
X877820D02*
X869820D01*
Y338128D01*
X877820D01*
Y329128D01*
D02*
G37*
G36*
X859820Y322807D02*
Y314507D01*
X857321D01*
Y322807D01*
Y325032D01*
X859820D01*
Y322807D01*
D02*
G37*
G36*
X853420D02*
Y314507D01*
X850921D01*
Y322807D01*
Y325032D01*
X853420D01*
Y322807D01*
D02*
G37*
G36*
X847021D02*
Y314507D01*
X844520D01*
Y322807D01*
Y325032D01*
X847021D01*
Y322807D01*
D02*
G37*
G36*
X840621D02*
Y314507D01*
X838120D01*
Y322807D01*
Y325032D01*
X840621D01*
Y322807D01*
D02*
G37*
G36*
X834221D02*
Y314507D01*
X831721D01*
Y322807D01*
Y325032D01*
X834221D01*
Y322807D01*
D02*
G37*
G36*
X827821D02*
Y314507D01*
X825320D01*
Y322807D01*
Y325032D01*
X827821D01*
Y322807D01*
D02*
G37*
G36*
X821421D02*
Y314507D01*
X818921D01*
Y322807D01*
Y325032D01*
X821421D01*
Y322807D01*
D02*
G37*
G36*
X815021D02*
Y314507D01*
X812521D01*
Y322807D01*
Y325032D01*
X815021D01*
Y322807D01*
D02*
G37*
G36*
X946140Y310119D02*
X944140D01*
Y315119D01*
X946140D01*
Y310119D01*
D02*
G37*
G36*
X926140D02*
X924140D01*
Y315119D01*
X926140D01*
Y310119D01*
D02*
G37*
G36*
X895724Y291878D02*
Y291629D01*
X907874D01*
Y287629D01*
X895124D01*
Y291030D01*
X894875D01*
X894524Y291381D01*
Y291878D01*
X894875Y292229D01*
X895372D01*
X895724Y291878D01*
D02*
G37*
G36*
X875404D02*
Y291629D01*
X887554D01*
Y287629D01*
X874804D01*
Y291030D01*
X874556D01*
X874204Y291381D01*
Y291878D01*
X874556Y292229D01*
X875052D01*
X875404Y291878D01*
D02*
G37*
G36*
X867234Y287629D02*
X854484D01*
Y291629D01*
X867234D01*
Y287629D01*
D02*
G37*
G36*
X846914Y287309D02*
X834164D01*
Y291309D01*
X846914D01*
Y287309D01*
D02*
G37*
G36*
X907874Y271629D02*
X895124D01*
Y275629D01*
X907874D01*
Y271629D01*
D02*
G37*
G36*
X887554D02*
X874804D01*
Y275629D01*
X887554D01*
Y271629D01*
D02*
G37*
G36*
X867234Y272229D02*
X867483D01*
X867834Y271878D01*
Y271381D01*
X867483Y271030D01*
X866986D01*
X866635Y271381D01*
Y271629D01*
X854484D01*
Y275629D01*
X867234D01*
Y272229D01*
D02*
G37*
G36*
X846914Y271909D02*
X847163D01*
X847514Y271558D01*
Y271061D01*
X847163Y270710D01*
X846666D01*
X846315Y271061D01*
Y271309D01*
X834164D01*
Y275309D01*
X846914D01*
Y271909D01*
D02*
G37*
G36*
X981240Y263671D02*
X963240D01*
Y266171D01*
X981240D01*
Y263671D01*
D02*
G37*
G36*
X944384Y256274D02*
X944725Y255924D01*
Y255436D01*
X944384Y255086D01*
X944140Y255080D01*
X943896Y255086D01*
X943555Y255436D01*
Y255924D01*
X943896Y256274D01*
X944140Y256280D01*
X944140D01*
X944384Y256274D01*
D02*
G37*
G36*
X941290Y252680D02*
Y250080D01*
X936990D01*
Y252680D01*
Y255680D01*
X941290D01*
Y252680D01*
D02*
G37*
G36*
X922290D02*
Y250080D01*
X917990D01*
Y252680D01*
Y255680D01*
X922290D01*
Y252680D01*
D02*
G37*
G36*
X931790Y234580D02*
Y231680D01*
X927490D01*
Y234580D01*
Y237280D01*
X931790D01*
Y234580D01*
D02*
G37*
G36*
X706694Y104388D02*
Y104140D01*
X718845D01*
Y100140D01*
X706095D01*
Y103540D01*
X705846D01*
X705495Y103892D01*
Y104388D01*
X705846Y104740D01*
X706343D01*
X706694Y104388D01*
D02*
G37*
G36*
X686374D02*
Y104140D01*
X698525D01*
Y100140D01*
X685775D01*
Y103540D01*
X685526D01*
X685175Y103892D01*
Y104388D01*
X685526Y104740D01*
X686023D01*
X686374Y104388D01*
D02*
G37*
G36*
X678205Y100140D02*
X665455D01*
Y104140D01*
X678205D01*
Y100140D01*
D02*
G37*
G36*
X621336Y99737D02*
X608586D01*
Y103737D01*
X621336D01*
Y99737D01*
D02*
G37*
G36*
X588865Y103985D02*
Y103737D01*
X601016D01*
Y99737D01*
X588266D01*
Y103137D01*
X588017D01*
X587666Y103488D01*
Y103985D01*
X588017Y104336D01*
X588514D01*
X588865Y103985D01*
D02*
G37*
G36*
X568545D02*
Y103737D01*
X580696D01*
Y99737D01*
X567946D01*
Y103137D01*
X567697D01*
X567346Y103488D01*
Y103985D01*
X567697Y104336D01*
X568194D01*
X568545Y103985D01*
D02*
G37*
G36*
X644770Y101710D02*
Y99110D01*
X640470D01*
Y101710D01*
Y104710D01*
X644770D01*
Y101710D01*
D02*
G37*
G36*
X718845Y84140D02*
X706095D01*
Y88140D01*
X718845D01*
Y84140D01*
D02*
G37*
G36*
X698525D02*
X685775D01*
Y88140D01*
X698525D01*
Y84140D01*
D02*
G37*
G36*
X601016Y83737D02*
X588266D01*
Y87737D01*
X601016D01*
Y83737D01*
D02*
G37*
G36*
X580696D02*
X567946D01*
Y87737D01*
X580696D01*
Y83737D01*
D02*
G37*
G36*
X678205Y84740D02*
X678454D01*
X678805Y84388D01*
Y83892D01*
X678454Y83540D01*
X677957D01*
X677606Y83892D01*
Y84140D01*
X665455D01*
Y88140D01*
X678205D01*
Y84740D01*
D02*
G37*
G36*
X621336Y84336D02*
X621585D01*
X621936Y83985D01*
Y83488D01*
X621585Y83137D01*
X621088D01*
X620737Y83488D01*
Y83737D01*
X608586D01*
Y87737D01*
X621336D01*
Y84336D01*
D02*
G37*
G36*
X654270Y83610D02*
Y80710D01*
X649969D01*
Y83610D01*
Y86310D01*
X654270D01*
Y83610D01*
D02*
G37*
G36*
X635271D02*
Y80710D01*
X630970D01*
Y83610D01*
Y86310D01*
X635271D01*
Y83610D01*
D02*
G37*
G36*
X628364Y81303D02*
X628705Y80954D01*
Y80466D01*
X628364Y80116D01*
X628120Y80110D01*
X628120D01*
X627876Y80116D01*
X627535Y80466D01*
Y80954D01*
X627876Y81303D01*
X628120Y81310D01*
X628364Y81303D01*
D02*
G37*
G36*
X720291Y72078D02*
Y71830D01*
Y71581D01*
X719939Y71230D01*
X719442D01*
X719091Y71581D01*
Y71830D01*
Y72078D01*
X719442Y72430D01*
X719939D01*
X720291Y72078D01*
D02*
G37*
G36*
X641150D02*
Y71830D01*
Y71581D01*
X640798Y71230D01*
X640301D01*
X639950Y71581D01*
Y71830D01*
Y72078D01*
X640301Y72430D01*
X640798D01*
X641150Y72078D01*
D02*
G37*
G36*
X697890Y33630D02*
X691490D01*
Y40030D01*
X697890D01*
Y33630D01*
D02*
G37*
G36*
X672891D02*
X666491D01*
Y40030D01*
X672891D01*
Y33630D01*
D02*
G37*
G36*
X618749D02*
X612349D01*
Y40030D01*
X618749D01*
Y33630D01*
D02*
G37*
G36*
X593750D02*
X587351D01*
Y40030D01*
X593750D01*
Y33630D01*
D02*
G37*
G36*
X609625Y965330D02*
X596875D01*
Y969330D01*
X609625D01*
Y965330D01*
D02*
G37*
G36*
X577154Y969578D02*
Y969330D01*
X589305D01*
Y965330D01*
X576555D01*
Y968730D01*
X576306D01*
X575955Y969082D01*
Y969578D01*
X576306Y969930D01*
X576803D01*
X577154Y969578D01*
D02*
G37*
G36*
X568985Y965330D02*
X556235D01*
Y969330D01*
X568985D01*
Y965330D01*
D02*
G37*
G36*
X589305Y949330D02*
X576555D01*
Y953330D01*
X589305D01*
Y949330D01*
D02*
G37*
G36*
X609625Y949930D02*
X609874D01*
X610225Y949578D01*
Y949082D01*
X609874Y948730D01*
X609377D01*
X609026Y949082D01*
Y949330D01*
X596875D01*
Y953330D01*
X609625D01*
Y949930D01*
D02*
G37*
G36*
X568985D02*
X569234D01*
X569585Y949578D01*
Y949082D01*
X569234Y948730D01*
X568737D01*
X568386Y949082D01*
Y949330D01*
X556235D01*
Y953330D01*
X568985D01*
Y949930D01*
D02*
G37*
G36*
X746064Y947357D02*
Y947109D01*
X758215D01*
Y943109D01*
X745465D01*
Y946509D01*
X745216D01*
X744865Y946860D01*
Y947357D01*
X745216Y947708D01*
X745713D01*
X746064Y947357D01*
D02*
G37*
G36*
X674944Y947348D02*
Y947100D01*
X687095D01*
Y943100D01*
X674345D01*
Y946500D01*
X674096D01*
X673745Y946852D01*
Y947348D01*
X674096Y947700D01*
X674593D01*
X674944Y947348D01*
D02*
G37*
G36*
X554600Y931500D02*
Y928900D01*
X550300D01*
Y931500D01*
Y934500D01*
X554600D01*
Y931500D01*
D02*
G37*
G36*
X595850Y931180D02*
Y928580D01*
X591549D01*
Y931180D01*
Y934180D01*
X595850D01*
Y931180D01*
D02*
G37*
G36*
X758215Y927109D02*
X745465D01*
Y931109D01*
X758215D01*
Y927109D01*
D02*
G37*
G36*
X687095Y927100D02*
X674345D01*
Y931100D01*
X687095D01*
Y927100D01*
D02*
G37*
G36*
X831154Y928298D02*
Y928050D01*
X843305D01*
Y924050D01*
X830555D01*
Y927450D01*
X830306D01*
X829955Y927802D01*
Y928298D01*
X830306Y928650D01*
X830803D01*
X831154Y928298D01*
D02*
G37*
G36*
X814095Y924050D02*
X801345D01*
Y928050D01*
X814095D01*
Y924050D01*
D02*
G37*
G36*
X962050Y912470D02*
X955650D01*
Y918870D01*
X962050D01*
Y912470D01*
D02*
G37*
G36*
X564100Y913400D02*
Y910500D01*
X559799D01*
Y913400D01*
Y916100D01*
X564100D01*
Y913400D01*
D02*
G37*
G36*
X605349Y913080D02*
Y910180D01*
X601049D01*
Y913080D01*
Y915780D01*
X605349D01*
Y913080D01*
D02*
G37*
G36*
X586350D02*
Y910180D01*
X582050D01*
Y913080D01*
Y915780D01*
X586350D01*
Y913080D01*
D02*
G37*
G36*
X579444Y910773D02*
X579784Y910424D01*
Y909936D01*
X579444Y909586D01*
X579199Y909580D01*
X579199D01*
X578955Y909586D01*
X578615Y909936D01*
Y910424D01*
X578955Y910773D01*
X579199Y910780D01*
X579444Y910773D01*
D02*
G37*
G36*
X843305Y908050D02*
X830555D01*
Y912050D01*
X843305D01*
Y908050D01*
D02*
G37*
G36*
X814095Y908650D02*
X814344D01*
X814695Y908298D01*
Y907802D01*
X814344Y907450D01*
X813847D01*
X813496Y907802D01*
Y908050D01*
X801345D01*
Y912050D01*
X814095D01*
Y908650D01*
D02*
G37*
G36*
X758215Y905329D02*
X745465D01*
Y909329D01*
X758215D01*
Y905329D01*
D02*
G37*
G36*
X687095Y905320D02*
X674345D01*
Y909320D01*
X687095D01*
Y905320D01*
D02*
G37*
G36*
X733780Y894619D02*
X728780D01*
Y905620D01*
X733780D01*
Y894619D01*
D02*
G37*
G36*
X724906Y931860D02*
Y913222D01*
X718880Y907472D01*
Y894619D01*
X713680D01*
Y907472D01*
X707656Y913222D01*
Y931860D01*
X713406Y936570D01*
X719156D01*
X724906Y931860D01*
D02*
G37*
G36*
X703780Y894619D02*
X698780D01*
Y905620D01*
X703780D01*
Y894619D01*
D02*
G37*
G36*
X694382Y894869D02*
X694382Y894372D01*
X694031Y894020D01*
X693782Y894020D01*
X693533Y894020D01*
X693182Y894371D01*
X693181Y894869D01*
X693533Y895221D01*
X693781Y895221D01*
X694030Y895221D01*
X694382Y894869D01*
D02*
G37*
G36*
X758215Y889928D02*
X758464D01*
X758815Y889577D01*
Y889080D01*
X758464Y888729D01*
X757967D01*
X757616Y889080D01*
Y889329D01*
X745465D01*
Y893329D01*
X758215D01*
Y889928D01*
D02*
G37*
G36*
X687095Y889920D02*
X687344D01*
X687695Y889568D01*
Y889072D01*
X687344Y888720D01*
X686847D01*
X686496Y889072D01*
Y889320D01*
X674345D01*
Y893320D01*
X687095D01*
Y889920D01*
D02*
G37*
G36*
X962050Y887070D02*
X955650D01*
Y893470D01*
X962050D01*
Y887070D01*
D02*
G37*
G36*
X612800Y873018D02*
X606400D01*
Y879417D01*
X612800D01*
Y873018D01*
D02*
G37*
G36*
X962050Y861670D02*
X955650D01*
Y868070D01*
X962050D01*
Y861670D01*
D02*
G37*
G36*
X725770Y868954D02*
Y868705D01*
Y868457D01*
X725418Y868106D01*
X725170D01*
Y855955D01*
X721170D01*
Y868705D01*
X724570D01*
Y868705D01*
Y868954D01*
X724922Y869305D01*
X725418D01*
X725770Y868954D01*
D02*
G37*
G36*
X709170Y855955D02*
X705170D01*
Y868705D01*
X709170D01*
Y855955D01*
D02*
G37*
G36*
X612800Y848016D02*
X606400D01*
Y854416D01*
X612800D01*
Y848016D01*
D02*
G37*
G36*
X674944Y843528D02*
Y843280D01*
X687095D01*
Y839280D01*
X674345D01*
Y842680D01*
X674096D01*
X673745Y843032D01*
Y843528D01*
X674096Y843880D01*
X674593D01*
X674944Y843528D01*
D02*
G37*
G36*
X729581Y838742D02*
X720581D01*
Y846742D01*
X729581D01*
Y838742D01*
D02*
G37*
G36*
X708580D02*
X699580D01*
Y846742D01*
X708580D01*
Y838742D01*
D02*
G37*
G36*
X962050Y836270D02*
X955650D01*
Y842670D01*
X962050D01*
Y836270D01*
D02*
G37*
G36*
X971950Y827019D02*
Y826522D01*
X971598Y826171D01*
X971101D01*
X970750Y826522D01*
Y827019D01*
X971101Y827371D01*
X971598D01*
X971950Y827019D01*
D02*
G37*
G36*
X687095Y823280D02*
X674345D01*
Y827280D01*
X687095D01*
Y823280D01*
D02*
G37*
G36*
X612800Y823015D02*
X606400D01*
Y829415D01*
X612800D01*
Y823015D01*
D02*
G37*
G36*
X729581Y821760D02*
X720581D01*
Y829760D01*
X729581D01*
Y821760D01*
D02*
G37*
G36*
X708580D02*
X699580D01*
Y829760D01*
X708580D01*
Y821760D01*
D02*
G37*
G36*
X698827Y822339D02*
X699176Y821996D01*
X699181Y821751D01*
X699181Y821751D01*
X699176Y821506D01*
X698826Y821164D01*
X698336Y821164D01*
X697987Y821507D01*
X697982Y821752D01*
X697982Y821752D01*
X697987Y821997D01*
X698337Y822339D01*
X698827Y822339D01*
D02*
G37*
G36*
X972500Y807695D02*
X968500D01*
Y820445D01*
X972500D01*
Y807695D01*
D02*
G37*
G36*
X956500D02*
X953100D01*
Y807695D01*
Y807446D01*
X952748Y807095D01*
X952252D01*
X951900Y807446D01*
Y807695D01*
Y807943D01*
X952252Y808294D01*
X952500D01*
Y820445D01*
X956500D01*
Y807695D01*
D02*
G37*
G36*
X612800Y798014D02*
X606400D01*
Y804414D01*
X612800D01*
Y798014D01*
D02*
G37*
G36*
X723580Y797535D02*
X719580D01*
Y810285D01*
X723580D01*
Y797535D01*
D02*
G37*
G36*
X707580D02*
X704180D01*
Y797535D01*
Y797286D01*
X703828Y796935D01*
X703332D01*
X702980Y797286D01*
Y797535D01*
Y797783D01*
X703332Y798134D01*
X703580D01*
Y810285D01*
X707580D01*
Y797535D01*
D02*
G37*
G36*
X973100Y800374D02*
Y800125D01*
Y799877D01*
X972748Y799526D01*
X972500D01*
Y787375D01*
X968500D01*
Y800125D01*
X971900D01*
Y800125D01*
Y800374D01*
X972252Y800725D01*
X972748D01*
X973100Y800374D01*
D02*
G37*
G36*
X956500Y787375D02*
X952500D01*
Y800125D01*
X956500D01*
Y787375D01*
D02*
G37*
G36*
X724180Y790214D02*
Y789965D01*
Y789717D01*
X723828Y789366D01*
X723580D01*
Y777215D01*
X719580D01*
Y789965D01*
X722980D01*
Y789965D01*
Y790214D01*
X723332Y790565D01*
X723828D01*
X724180Y790214D01*
D02*
G37*
G36*
X707580Y777215D02*
X703580D01*
Y789965D01*
X707580D01*
Y777215D01*
D02*
G37*
G36*
X612800Y773015D02*
X606400D01*
Y779415D01*
X612800D01*
Y773015D01*
D02*
G37*
G36*
X972500Y767055D02*
X968500D01*
Y779805D01*
X972500D01*
Y767055D01*
D02*
G37*
G36*
X956500D02*
X953100D01*
Y767055D01*
Y766806D01*
X952748Y766455D01*
X952252D01*
X951900Y766806D01*
Y767055D01*
Y767303D01*
X952252Y767654D01*
X952500D01*
Y779805D01*
X956500D01*
Y767055D01*
D02*
G37*
G36*
X724180Y769894D02*
Y769645D01*
Y769397D01*
X723828Y769046D01*
X723580D01*
Y756895D01*
X719580D01*
Y769645D01*
X722980D01*
Y769645D01*
Y769894D01*
X723332Y770245D01*
X723828D01*
X724180Y769894D01*
D02*
G37*
G36*
X707580Y756895D02*
X703580D01*
Y769645D01*
X707580D01*
Y756895D01*
D02*
G37*
G36*
X612800Y748014D02*
X606400D01*
Y754414D01*
X612800D01*
Y748014D01*
D02*
G37*
G36*
X973100Y759734D02*
Y759485D01*
Y759237D01*
X972748Y758886D01*
X972500D01*
Y746735D01*
X968500D01*
Y759485D01*
X971900D01*
Y759485D01*
Y759734D01*
X972252Y760085D01*
X972748D01*
X973100Y759734D01*
D02*
G37*
G36*
X956500Y746735D02*
X952500D01*
Y759485D01*
X956500D01*
Y746735D01*
D02*
G37*
G36*
X723580Y736575D02*
X719580D01*
Y749325D01*
X723580D01*
Y736575D01*
D02*
G37*
G36*
X707580D02*
X704180D01*
Y736575D01*
Y736326D01*
X703828Y735975D01*
X703332D01*
X702980Y736326D01*
Y736575D01*
Y736823D01*
X703332Y737174D01*
X703580D01*
Y749325D01*
X707580D01*
Y736575D01*
D02*
G37*
G36*
X972820Y726415D02*
X968820D01*
Y739165D01*
X972820D01*
Y726415D01*
D02*
G37*
G36*
X956820D02*
X953420D01*
Y726415D01*
Y726166D01*
X953068Y725815D01*
X952572D01*
X952220Y726166D01*
Y726415D01*
Y726663D01*
X952572Y727014D01*
X952820D01*
Y739165D01*
X956820D01*
Y726415D01*
D02*
G37*
G36*
X635699Y726465D02*
Y725968D01*
X635347Y725617D01*
X634850D01*
X634499Y725968D01*
Y726465D01*
X634850Y726816D01*
X635347D01*
X635699Y726465D01*
D02*
G37*
G36*
X570928D02*
Y725968D01*
X570577Y725617D01*
X570080D01*
X569729Y725968D01*
Y726465D01*
X570080Y726816D01*
X570577D01*
X570928Y726465D01*
D02*
G37*
G36*
X740271Y709470D02*
X728271D01*
Y715470D01*
X740271D01*
Y709470D01*
D02*
G37*
G36*
X671270D02*
X659270D01*
Y715470D01*
X671270D01*
Y709470D01*
D02*
G37*
G36*
X871245Y700850D02*
X858495D01*
Y704850D01*
X871245D01*
Y700850D01*
D02*
G37*
G36*
X659518Y694572D02*
X659870Y694220D01*
X659869Y693971D01*
X659869Y693723D01*
X659517Y693371D01*
X659020Y693371D01*
X658669Y693723D01*
X658669Y693972D01*
X658669Y694221D01*
X659021Y694572D01*
X659518Y694572D01*
D02*
G37*
G36*
X871245Y685450D02*
X871494D01*
X871845Y685098D01*
Y684602D01*
X871494Y684250D01*
X870997D01*
X870646Y684602D01*
Y684850D01*
X858495D01*
Y688850D01*
X871245D01*
Y685450D01*
D02*
G37*
G36*
X869973Y633234D02*
X869980Y632990D01*
X869973Y632746D01*
X869624Y632405D01*
X869136D01*
X868786Y632746D01*
X868780Y632990D01*
Y632990D01*
X868786Y633234D01*
X869136Y633575D01*
X869624D01*
X869973Y633234D01*
D02*
G37*
G36*
X629224Y631118D02*
Y630870D01*
X641375D01*
Y626870D01*
X628625D01*
Y630270D01*
X628376D01*
X628025Y630621D01*
Y631118D01*
X628376Y631470D01*
X628873D01*
X629224Y631118D01*
D02*
G37*
G36*
X874980Y625840D02*
X869380D01*
Y630140D01*
X874980D01*
Y625840D01*
D02*
G37*
G36*
X976737Y643540D02*
X979393Y642814D01*
X981773Y641428D01*
X983714Y639474D01*
X985087Y637087D01*
X985797Y634426D01*
X985797Y631672D01*
X985086Y629011D01*
X983714Y626623D01*
X981773Y624670D01*
X979393Y623284D01*
X976737Y622557D01*
X975360Y622549D01*
X975360Y622549D01*
X973983Y622557D01*
X971326Y623284D01*
X968947Y624670D01*
X967005Y626623D01*
X965633Y629011D01*
X964923Y631672D01*
X964923Y634426D01*
X965633Y637087D01*
X967005Y639475D01*
X968947Y641428D01*
X971327Y642814D01*
X973983Y643540D01*
X975360Y643549D01*
X975360Y643549D01*
X976737Y643540D01*
D02*
G37*
G36*
X919938D02*
X922594Y642814D01*
X924973Y641428D01*
X926915Y639474D01*
X928287Y637087D01*
X928997Y634426D01*
X928997Y631672D01*
X928287Y629011D01*
X926915Y626623D01*
X924973Y624670D01*
X922594Y623284D01*
X919937Y622557D01*
X918560Y622549D01*
X918560Y622549D01*
X917183Y622557D01*
X914527Y623284D01*
X912147Y624670D01*
X910206Y626623D01*
X908834Y629011D01*
X908124Y631672D01*
X908124Y634426D01*
X908834Y637087D01*
X910206Y639475D01*
X912148Y641428D01*
X914527Y642814D01*
X917184Y643540D01*
X918560Y643549D01*
X918560Y643549D01*
X919938Y643540D01*
D02*
G37*
G36*
X893380Y616340D02*
X887780D01*
Y620640D01*
X893380D01*
Y616340D01*
D02*
G37*
G36*
X789505Y615419D02*
X776755D01*
Y619419D01*
X789505D01*
Y615419D01*
D02*
G37*
G36*
X641375Y610870D02*
X628625D01*
Y614870D01*
X641375D01*
Y610870D01*
D02*
G37*
G36*
X874980Y606840D02*
X869380D01*
Y611141D01*
X874980D01*
Y606840D01*
D02*
G37*
G36*
X869973Y600214D02*
X869980Y599970D01*
X869973Y599726D01*
X869624Y599385D01*
X869136D01*
X868786Y599726D01*
X868780Y599970D01*
Y599970D01*
X868786Y600214D01*
X869136Y600555D01*
X869624D01*
X869973Y600214D01*
D02*
G37*
G36*
X789505Y600019D02*
X789754D01*
X790105Y599667D01*
Y599170D01*
X789754Y598819D01*
X789257D01*
X788906Y599170D01*
Y599419D01*
X776755D01*
Y603419D01*
X789505D01*
Y600019D01*
D02*
G37*
G36*
X948261Y605920D02*
X948971D01*
X950284Y605376D01*
X951289Y604371D01*
X951833Y603058D01*
X951833Y601637D01*
X951289Y600323D01*
X950284Y599319D01*
X948971Y598775D01*
X948260Y598775D01*
X947550D01*
X946237Y599319D01*
X945232Y600324D01*
X944688Y601637D01*
X944688Y603058D01*
X945232Y604371D01*
X946237Y605376D01*
X947550Y605920D01*
X948261Y605920D01*
D02*
G37*
G36*
X922061D02*
X922771D01*
X924084Y605376D01*
X925089Y604371D01*
X925633Y603058D01*
X925633Y601637D01*
X925089Y600323D01*
X924084Y599319D01*
X922771Y598775D01*
X922060Y598775D01*
X921350D01*
X920037Y599319D01*
X919032Y600324D01*
X918488Y601637D01*
X918488Y603058D01*
X919032Y604371D01*
X920037Y605376D01*
X921350Y605920D01*
X922061Y605920D01*
D02*
G37*
G36*
X874980Y592820D02*
X869380D01*
Y597120D01*
X874980D01*
Y592820D01*
D02*
G37*
G36*
X893380Y583320D02*
X887780D01*
Y587620D01*
X893380D01*
Y583320D01*
D02*
G37*
G36*
X874980Y573820D02*
X869380D01*
Y578120D01*
X874980D01*
Y573820D01*
D02*
G37*
G36*
X948261Y580921D02*
X948971D01*
X950284Y580377D01*
X951289Y579372D01*
X951833Y578059D01*
X951833Y576638D01*
X951289Y575325D01*
X950284Y574320D01*
X948971Y573776D01*
X948260Y573776D01*
X947550D01*
X946237Y574320D01*
X945232Y575325D01*
X944688Y576638D01*
X944688Y578059D01*
X945232Y579372D01*
X946237Y580377D01*
X947550Y580921D01*
X948261Y580921D01*
D02*
G37*
G36*
X922061D02*
X922771D01*
X924084Y580377D01*
X925089Y579372D01*
X925633Y578059D01*
X925633Y576638D01*
X925089Y575325D01*
X924084Y574320D01*
X922771Y573776D01*
X922060Y573776D01*
X921350D01*
X920037Y574320D01*
X919032Y575325D01*
X918488Y576638D01*
X918488Y578059D01*
X919032Y579372D01*
X920037Y580377D01*
X921350Y580921D01*
X922061Y580921D01*
D02*
G37*
D115*
X55856Y739305D02*
G03*
X55904Y739305I24J-9055D01*
G01*
X968986Y199555D02*
G03*
X969034Y199555I24J-9055D01*
G01*
X925806Y28105D02*
G03*
X925854Y28105I24J-9055D01*
G01*
X73636Y990765D02*
G03*
X73684Y990765I24J-9055D01*
G01*
D149*
X899970Y486650D02*
X1080310D01*
Y648049D01*
X899970D02*
X1080310D01*
X899970Y486650D02*
Y648049D01*
X877270Y406729D02*
Y480060D01*
X1037290D01*
Y406729D02*
Y480060D01*
X877270Y406729D02*
X1037290D01*
X1076570Y385616D02*
X1076739Y264117D01*
X913740Y385616D02*
X1076570D01*
X913740Y264117D02*
Y385616D01*
Y264117D02*
X1076739D01*
X62205Y610870D02*
Y630870D01*
Y610870D02*
X74955D01*
Y630870D01*
X62205D02*
X74955D01*
X320200Y216000D02*
Y228500D01*
X340200D01*
Y216000D02*
Y228500D01*
X320200Y216000D02*
X340200D01*
X565550Y12830D02*
X640550D01*
X565550D02*
Y71830D01*
X640550D01*
Y12830D02*
Y71830D01*
X719691Y12830D02*
Y71830D01*
X644691D02*
X719691D01*
X644691Y12830D02*
Y71830D01*
Y12830D02*
X719691D01*
X706095Y104140D02*
X718845D01*
Y84140D02*
Y104140D01*
X706095Y84140D02*
X718845D01*
X706095D02*
Y104140D01*
X628120Y99210D02*
X657120D01*
Y86210D02*
Y99210D01*
X628120Y86210D02*
X657120D01*
X628120D02*
Y99210D01*
X588266Y103737D02*
X601016D01*
Y83737D02*
Y103737D01*
X588266Y83737D02*
X601016D01*
X588266D02*
Y103737D01*
X608586Y83737D02*
X621336D01*
X608586D02*
Y103737D01*
X621336D01*
Y83737D02*
Y103737D01*
X685775Y104140D02*
X698525D01*
Y84140D02*
Y104140D01*
X685775Y84140D02*
X698525D01*
X685775D02*
Y104140D01*
X665455Y84140D02*
X678205D01*
X665455D02*
Y104140D01*
X678205D01*
Y84140D02*
Y104140D01*
X567946Y103737D02*
X580696D01*
Y83737D02*
Y103737D01*
X567946Y83737D02*
X580696D01*
X567946D02*
Y103737D01*
X380680Y215875D02*
Y228625D01*
X360680Y215875D02*
X380680D01*
X360680D02*
Y228625D01*
X380680D01*
X320543Y191870D02*
Y204370D01*
X340543D01*
Y191870D02*
Y204370D01*
X320543Y191870D02*
X340543D01*
X360680Y204495D02*
X380680D01*
X360680Y191745D02*
Y204495D01*
Y191745D02*
X380680D01*
Y204495D01*
X320543Y167740D02*
Y180240D01*
X340543D01*
Y167740D02*
Y180240D01*
X320543Y167740D02*
X340543D01*
X381000Y167615D02*
Y180365D01*
X361000Y167615D02*
X381000D01*
X361000D02*
Y180365D01*
X381000D01*
X342920Y475000D02*
Y541000D01*
X395720D01*
X408920Y527800D01*
Y488200D02*
Y527800D01*
X395720Y475000D02*
X408920Y488200D01*
X342920Y475000D02*
X395720D01*
X189205Y610870D02*
Y630870D01*
Y610870D02*
X201955D01*
Y630870D01*
X189205D02*
X201955D01*
X214605Y610870D02*
Y630870D01*
Y610870D02*
X227355D01*
Y630870D01*
X214605D02*
X227355D01*
X137135Y610870D02*
Y630870D01*
Y610870D02*
X149885D01*
Y630870D01*
X137135D02*
X149885D01*
X36805D02*
X49555D01*
Y610870D02*
Y630870D01*
X36805Y610870D02*
X49555D01*
X36805D02*
Y630870D01*
X628625Y610870D02*
Y630870D01*
Y610870D02*
X641375D01*
Y630870D01*
X628625D02*
X641375D01*
X476225Y610870D02*
Y630870D01*
Y610870D02*
X488975D01*
Y630870D01*
X476225D02*
X488975D01*
X450825Y610870D02*
Y630870D01*
Y610870D02*
X463575D01*
Y630870D01*
X450825D02*
X463575D01*
X552470Y477540D02*
X605270D01*
X618470Y490740D01*
Y530340D01*
X605270Y543540D02*
X618470Y530340D01*
X552470Y543540D02*
X605270D01*
X552470Y477540D02*
Y543540D01*
X242545Y610870D02*
Y630870D01*
Y610870D02*
X255295D01*
Y630870D01*
X242545D02*
X255295D01*
X421615Y610870D02*
Y630870D01*
Y610870D02*
X434365D01*
Y630870D01*
X421615D02*
X434365D01*
X269215Y610870D02*
Y630870D01*
Y610870D02*
X281965D01*
Y630870D01*
X269215D02*
X281965D01*
X138450Y476270D02*
Y542270D01*
X191250D01*
X204450Y529070D01*
Y489470D02*
Y529070D01*
X191250Y476270D02*
X204450Y489470D01*
X138450Y476270D02*
X191250D01*
X173520Y73530D02*
X248520D01*
Y14530D02*
Y73530D01*
X173520Y14530D02*
X248520D01*
X173520D02*
Y73530D01*
X252060D02*
X327060D01*
Y14530D02*
Y73530D01*
X252060Y14530D02*
X327060D01*
X252060D02*
Y73530D01*
X669270Y693969D02*
Y730970D01*
X730271D01*
Y693969D02*
Y730970D01*
X669270Y693969D02*
X730271D01*
X210360Y960095D02*
Y972845D01*
X190360Y960095D02*
X210360D01*
X190360D02*
Y972845D01*
X210360D01*
X177635Y848360D02*
Y868360D01*
Y848360D02*
X190385D01*
Y868360D01*
X177635D02*
X190385D01*
X147580Y818830D02*
X197580D01*
X147580Y778830D02*
Y818830D01*
Y778830D02*
X197580D01*
Y818830D01*
X156045Y848360D02*
X168795D01*
X156045D02*
Y868360D01*
X168795D01*
Y848360D02*
Y868360D01*
X141780Y840715D02*
Y853465D01*
X121780Y840715D02*
X141780D01*
X121780D02*
Y853465D01*
X141780D01*
X148953Y960220D02*
Y972720D01*
X168953D01*
Y960220D02*
Y972720D01*
X148953Y960220D02*
X168953D01*
X121780Y861035D02*
Y873785D01*
X141780D01*
Y861035D02*
Y873785D01*
X121780Y861035D02*
X141780D01*
X858495Y684850D02*
X871245D01*
X858495D02*
Y704850D01*
X871245D01*
Y684850D02*
Y704850D01*
X448645Y856270D02*
X487645D01*
Y757270D02*
Y856270D01*
X448645Y757270D02*
X487645D01*
X448645D02*
Y856270D01*
X382191Y916000D02*
Y929000D01*
X353190D02*
X382191D01*
X353190Y916000D02*
Y929000D01*
Y916000D02*
X382191D01*
X364515Y949010D02*
Y969010D01*
X351765D02*
X364515D01*
X351765Y949010D02*
Y969010D01*
Y949010D02*
X364515D01*
X413995Y969330D02*
X426745D01*
Y949330D02*
Y969330D01*
X413995Y949330D02*
X426745D01*
X413995D02*
Y969330D01*
X424100Y916000D02*
Y929000D01*
X395100D02*
X424100D01*
X395100Y916000D02*
Y929000D01*
Y916000D02*
X424100D01*
X635100Y726215D02*
Y901216D01*
X576100D02*
X635100D01*
X576100Y726215D02*
Y901216D01*
Y726215D02*
X635100D01*
X511330D02*
X570330D01*
X511330D02*
Y901216D01*
X570330D01*
Y726215D02*
Y901216D01*
X358930Y725619D02*
X417930D01*
X358930D02*
Y900620D01*
X417930D01*
Y725619D02*
Y900620D01*
X458470Y882945D02*
Y895695D01*
X478470D01*
Y882945D02*
Y895695D01*
X458470Y882945D02*
X478470D01*
X458790Y862625D02*
Y875375D01*
X478790D01*
Y862625D02*
Y875375D01*
X458790Y862625D02*
X478790D01*
X393675Y949010D02*
Y969010D01*
Y949010D02*
X406425D01*
Y969010D01*
X393675D02*
X406425D01*
X385495Y949010D02*
Y969010D01*
X372746D02*
X385495D01*
X372746Y949010D02*
Y969010D01*
Y949010D02*
X385495D01*
X537950Y929000D02*
X566950D01*
Y916000D02*
Y929000D01*
X537950Y916000D02*
X566950D01*
X537950D02*
Y929000D01*
X579199Y915680D02*
Y928680D01*
Y915680D02*
X608200D01*
Y928680D01*
X579199D02*
X608200D01*
X535915Y949330D02*
X548665D01*
X535915D02*
Y969330D01*
X548665D01*
Y949330D02*
Y969330D01*
X596875Y949330D02*
X609625D01*
X596875D02*
Y969330D01*
X609625D01*
Y949330D02*
Y969330D01*
X556235Y949330D02*
X568985D01*
X556235D02*
Y969330D01*
X568985D01*
Y949330D02*
Y969330D01*
X576555D02*
X589305D01*
Y949330D02*
Y969330D01*
X576555Y949330D02*
X589305D01*
X576555D02*
Y969330D01*
X477599Y725500D02*
X506600D01*
X477599D02*
Y738500D01*
X506600D01*
Y725500D02*
Y738500D01*
X104460Y219735D02*
X124460D01*
X104460Y206985D02*
Y219735D01*
Y206985D02*
X124460D01*
Y219735D01*
X162240Y206985D02*
Y219735D01*
X142240Y206985D02*
X162240D01*
X142240D02*
Y219735D01*
X162240D01*
X834164Y271309D02*
X846914D01*
X834164D02*
Y291309D01*
X846914D01*
Y271309D02*
Y291309D01*
X811671Y364032D02*
X860671D01*
X811671Y324931D02*
Y364032D01*
Y324931D02*
X860671D01*
Y364032D01*
X440270Y684824D02*
Y701824D01*
X470270D01*
Y684824D02*
Y701824D01*
X440270Y684824D02*
X470270D01*
X421615Y683900D02*
Y703900D01*
Y683900D02*
X434365D01*
Y703900D01*
X421615D02*
X434365D01*
X509295Y683900D02*
Y703900D01*
X496545D02*
X509295D01*
X496545Y683900D02*
Y703900D01*
Y683900D02*
X509295D01*
X693781Y905597D02*
Y930597D01*
Y905597D02*
X738781D01*
Y930597D01*
X693781D02*
X738781D01*
X852180Y406479D02*
Y435480D01*
X865180D01*
Y406479D02*
Y435480D01*
X852180Y406479D02*
X865180D01*
X179045Y187960D02*
X191795D01*
Y167960D02*
Y187960D01*
X179045Y167960D02*
X191795D01*
X179045D02*
Y187960D01*
Y225740D02*
X191795D01*
Y205740D02*
Y225740D01*
X179045Y205740D02*
X191795D01*
X179045D02*
Y225740D01*
X952820Y726415D02*
X972820D01*
Y739165D01*
X952820D02*
X972820D01*
X952820Y726415D02*
Y739165D01*
X703580Y736575D02*
X723580D01*
Y749325D01*
X703580D02*
X723580D01*
X703580Y736575D02*
Y749325D01*
Y769645D02*
X723580D01*
X703580Y756895D02*
Y769645D01*
Y756895D02*
X723580D01*
Y769645D01*
X703580Y789965D02*
X723580D01*
X703580Y777215D02*
Y789965D01*
Y777215D02*
X723580D01*
Y789965D01*
X814095Y908050D02*
Y928050D01*
X801345D02*
X814095D01*
X801345Y908050D02*
Y928050D01*
Y908050D02*
X814095D01*
X971350Y826770D02*
Y928371D01*
X946350D02*
X971350D01*
X946350Y826770D02*
Y928371D01*
Y826770D02*
X971350D01*
X952500Y807695D02*
X972500D01*
Y820445D01*
X952500D02*
X972500D01*
X952500Y807695D02*
Y820445D01*
Y800125D02*
X972500D01*
X952500Y787375D02*
Y800125D01*
Y787375D02*
X972500D01*
Y800125D01*
X952500Y767055D02*
X972500D01*
Y779805D01*
X952500D02*
X972500D01*
X952500Y767055D02*
Y779805D01*
Y759485D02*
X972500D01*
X952500Y746735D02*
Y759485D01*
Y746735D02*
X972500D01*
Y759485D01*
X830555Y908050D02*
Y928050D01*
Y908050D02*
X843305D01*
Y928050D01*
X830555D02*
X843305D01*
X705170Y868705D02*
X725170D01*
X705170Y855955D02*
Y868705D01*
Y855955D02*
X725170D01*
Y868705D01*
X674345Y823280D02*
Y843280D01*
Y823280D02*
X687095D01*
Y843280D01*
X674345D02*
X687095D01*
X703580Y797535D02*
X723580D01*
Y810285D01*
X703580D02*
X723580D01*
X703580Y797535D02*
Y810285D01*
X698581Y821751D02*
X730581D01*
Y846752D01*
X698581D02*
X730581D01*
X698581Y821751D02*
Y846752D01*
X66660Y114550D02*
X93360D01*
X66660D02*
Y157500D01*
X93360D01*
Y114550D02*
Y157500D01*
X745465Y927109D02*
Y947109D01*
Y927109D02*
X758215D01*
Y947109D01*
X745465D02*
X758215D01*
Y889329D02*
Y909329D01*
X745465D02*
X758215D01*
X745465Y889329D02*
Y909329D01*
Y889329D02*
X758215D01*
X674345Y927100D02*
Y947100D01*
Y927100D02*
X687095D01*
Y947100D01*
X674345D02*
X687095D01*
Y889320D02*
Y909320D01*
X674345D02*
X687095D01*
X674345Y889320D02*
Y909320D01*
Y889320D02*
X687095D01*
X476225Y683900D02*
Y703900D01*
Y683900D02*
X488975D01*
Y703900D01*
X476225D02*
X488975D01*
X452650Y725340D02*
Y738340D01*
X423650D02*
X452650D01*
X423650Y725340D02*
Y738340D01*
Y725340D02*
X452650D01*
X197937Y81380D02*
X217937D01*
Y93880D01*
X197937D02*
X217937D01*
X197937Y81380D02*
Y93880D01*
X246405Y83820D02*
Y103820D01*
X233655D02*
X246405D01*
X233655Y83820D02*
Y103820D01*
Y83820D02*
X246405D01*
X276677Y81380D02*
X296677D01*
Y93880D01*
X276677D02*
X296677D01*
X276677Y81380D02*
Y93880D01*
X325145Y83820D02*
Y103820D01*
X312395D02*
X325145D01*
X312395Y83820D02*
Y103820D01*
Y83820D02*
X325145D01*
X74905Y56200D02*
Y76200D01*
Y56200D02*
X87655D01*
Y76200D01*
X74905D02*
X87655D01*
X87530Y15400D02*
Y35400D01*
X75030D02*
X87530D01*
X75030Y15400D02*
Y35400D01*
Y15400D02*
X87530D01*
X95063Y15267D02*
Y74267D01*
Y15267D02*
X170063D01*
Y74267D01*
X95063D02*
X170063D01*
X776755Y515599D02*
Y535599D01*
Y515599D02*
X789505D01*
Y535599D01*
X776755D02*
X789505D01*
X874880Y599970D02*
X887880D01*
X874880Y570970D02*
Y599970D01*
Y570970D02*
X887880D01*
Y599970D01*
X874880Y632990D02*
X887880D01*
X874880Y603990D02*
Y632990D01*
Y603990D02*
X887880D01*
Y632990D01*
X789505Y599419D02*
Y619419D01*
X776755D02*
X789505D01*
X776755Y599419D02*
Y619419D01*
Y599419D02*
X789505D01*
X768670Y435635D02*
X788670D01*
X768670Y422885D02*
Y435635D01*
Y422885D02*
X788670D01*
Y435635D01*
X944140Y237180D02*
Y250180D01*
X915140D02*
X944140D01*
X915140Y237180D02*
Y250180D01*
Y237180D02*
X944140D01*
X867234Y271629D02*
Y291629D01*
X854484D02*
X867234D01*
X854484Y271629D02*
Y291629D01*
Y271629D02*
X867234D01*
X874804D02*
Y291629D01*
Y271629D02*
X887554D01*
Y291629D01*
X874804D02*
X887554D01*
X895124Y271629D02*
Y291629D01*
Y271629D02*
X907874D01*
Y291629D01*
X895124D02*
X907874D01*
X869811Y328129D02*
Y360129D01*
Y328129D02*
X894811D01*
Y360129D01*
X869811D02*
X894811D01*
X106340Y761469D02*
Y880009D01*
X-50200Y761469D02*
X106340D01*
X-50200D02*
Y880009D01*
X106340D01*
M02*
