G04*
G04 #@! TF.GenerationSoftware,Altium Limited,Altium Designer,22.11.1 (43)*
G04*
G04 Layer_Color=2752767*
%FSLAX44Y44*%
%MOMM*%
G71*
G04*
G04 #@! TF.SameCoordinates,C47467C8-9064-4A8D-955C-1DE8D4ADFDDE*
G04*
G04*
G04 #@! TF.FilePolarity,Positive*
G04*
G01*
G75*
%ADD17C,0.1270*%
%ADD150C,0.1693*%
%ADD151C,0.1016*%
D17*
X943182Y572270D02*
X945722D01*
X948261Y574810D01*
X950801Y572270D01*
X953342D01*
Y574810D01*
X950801Y577350D01*
X953342Y579890D01*
Y582430D01*
X950801D01*
X948261Y579890D01*
X945722Y582430D01*
X943182D01*
Y579890D01*
X945722Y577350D01*
X943182Y574810D01*
Y572270D01*
Y552270D02*
X945722D01*
X948261Y554810D01*
X950801Y552270D01*
X953342D01*
Y554810D01*
X950801Y557350D01*
X953342Y559890D01*
Y562430D01*
X950801D01*
X948261Y559890D01*
X945722Y562430D01*
X943182D01*
Y559890D01*
X945722Y557350D01*
X943182Y554810D01*
Y552270D01*
Y527267D02*
X945722D01*
X948261Y529807D01*
X950801Y527267D01*
X953342D01*
Y529807D01*
X950801Y532347D01*
X953342Y534887D01*
Y537427D01*
X950801D01*
X948261Y534887D01*
X945722Y537427D01*
X943182D01*
Y534887D01*
X945722Y532347D01*
X943182Y529807D01*
Y527267D01*
X916981Y572270D02*
X919521D01*
X922061Y574810D01*
X924601Y572270D01*
X927141D01*
Y574810D01*
X924601Y577350D01*
X927141Y579890D01*
Y582430D01*
X924601D01*
X922061Y579890D01*
X919521Y582430D01*
X916981D01*
Y579890D01*
X919521Y577350D01*
X916981Y574810D01*
Y572270D01*
Y552270D02*
X919521D01*
X922061Y554810D01*
X924601Y552270D01*
X927141D01*
Y554810D01*
X924601Y557350D01*
X927141Y559890D01*
Y562430D01*
X924601D01*
X922061Y559890D01*
X919521Y562430D01*
X916981D01*
Y559890D01*
X919521Y557350D01*
X916981Y554810D01*
Y552270D01*
Y527267D02*
X919521D01*
X922061Y529807D01*
X924601Y527267D01*
X927141D01*
Y529807D01*
X924601Y532347D01*
X927141Y534887D01*
Y537427D01*
X924601D01*
X922061Y534887D01*
X919521Y537427D01*
X916981D01*
Y534887D01*
X919521Y532347D01*
X916981Y529807D01*
Y527267D01*
X970280Y633049D02*
X975360Y638129D01*
X980440Y633049D01*
X975360Y627969D01*
X970280Y633049D01*
Y501650D02*
X975360Y506730D01*
X980440Y501650D01*
X975360Y496570D01*
X970280Y501650D01*
X913481Y633049D02*
X918561Y638129D01*
X923641Y633049D01*
X918561Y627969D01*
X913481Y633049D01*
Y501650D02*
X918561Y506730D01*
X923641Y501650D01*
X918561Y496570D01*
X913481Y501650D01*
X943182Y597267D02*
X945722D01*
X948261Y599807D01*
X950801Y597267D01*
X953342D01*
Y599807D01*
X950801Y602347D01*
X953342Y604887D01*
Y607427D01*
X950801D01*
X948261Y604887D01*
X945722Y607427D01*
X943182D01*
Y604887D01*
X945722Y602347D01*
X943182Y599807D01*
Y597267D01*
X916981D02*
X919521D01*
X922061Y599807D01*
X924601Y597267D01*
X927141D01*
Y599807D01*
X924601Y602347D01*
X927141Y604887D01*
Y607427D01*
X924601D01*
X922061Y604887D01*
X919521Y607427D01*
X916981D01*
Y604887D01*
X919521Y602347D01*
X916981Y599807D01*
Y597267D01*
X975360Y438150D02*
Y448310D01*
X985520D01*
Y438150D01*
X975360D01*
X977392Y440182D02*
Y446278D01*
X983488D01*
Y440182D01*
X977392D01*
X923941Y465651D02*
X918860Y475811D01*
X929020D01*
X923941Y465651D01*
Y467683D02*
X920892Y473779D01*
X926989D01*
X923941Y467683D01*
Y410649D02*
X918860Y420809D01*
X929020D01*
X923941Y410649D01*
Y412681D02*
X920892Y418777D01*
X926989D01*
X923941Y412681D01*
X940061Y332542D02*
X942601Y337622D01*
X940061Y342702D01*
X945141Y340162D01*
X950221Y342702D01*
X947681Y337622D01*
X950221Y332542D01*
X945141Y335082D01*
X940061Y332542D01*
X969699Y262382D02*
Y259842D01*
X974779D01*
Y262382D01*
X977319D01*
Y267462D01*
X974779D01*
Y270002D01*
X969699D01*
Y267462D01*
X967159D01*
Y262382D01*
X969699D01*
Y382779D02*
Y380239D01*
X974779D01*
Y382779D01*
X977319D01*
Y387859D01*
X974779D01*
Y390399D01*
X969699D01*
Y387859D01*
X967159D01*
Y382779D01*
X969699D01*
X920061Y332542D02*
X922601Y337622D01*
X920061Y342702D01*
X925141Y340162D01*
X930221Y342702D01*
X927681Y337622D01*
X930221Y332542D01*
X925141Y335082D01*
X920061Y332542D01*
Y307539D02*
X922601Y312619D01*
X920061Y317699D01*
X925141Y315159D01*
X930221Y317699D01*
X927681Y312619D01*
X930221Y307539D01*
X925141Y310079D01*
X920061Y307539D01*
X940061D02*
X942601Y312619D01*
X940061Y317699D01*
X945141Y315159D01*
X950221Y317699D01*
X947681Y312619D01*
X950221Y307539D01*
X945141Y310079D01*
X940061Y307539D01*
X351790Y460375D02*
Y468839D01*
X356022Y473071D01*
X360254Y468839D01*
Y460375D01*
Y466723D01*
X351790D01*
X377190Y460375D02*
Y468839D01*
X381422Y473071D01*
X385654Y468839D01*
Y460375D01*
Y466723D01*
X377190D01*
X402590Y460375D02*
Y468839D01*
X406822Y473071D01*
X411054Y468839D01*
Y460375D01*
Y466723D01*
X402590D01*
X427990Y460375D02*
Y468839D01*
X432222Y473071D01*
X436454Y468839D01*
Y460375D01*
Y466723D01*
X427990D01*
X326390Y460375D02*
Y468839D01*
X330622Y473071D01*
X334854Y468839D01*
Y460375D01*
Y466723D01*
X326390D01*
X300990Y460375D02*
Y468839D01*
X305222Y473071D01*
X309454Y468839D01*
Y460375D01*
Y466723D01*
X300990D01*
X275590Y460375D02*
Y468839D01*
X279822Y473071D01*
X284054Y468839D01*
Y460375D01*
Y466723D01*
X275590D01*
X250190Y460375D02*
Y468839D01*
X254422Y473071D01*
X258654Y468839D01*
Y460375D01*
Y466723D01*
X250190D01*
X427990Y587375D02*
Y595839D01*
X432222Y600071D01*
X436454Y595839D01*
Y587375D01*
Y593723D01*
X427990D01*
X402590Y587375D02*
Y595839D01*
X406822Y600071D01*
X411054Y595839D01*
Y587375D01*
Y593723D01*
X402590D01*
X377190Y587375D02*
Y595839D01*
X381422Y600071D01*
X385654Y595839D01*
Y587375D01*
Y593723D01*
X377190D01*
X351790Y587375D02*
Y595839D01*
X356022Y600071D01*
X360254Y595839D01*
Y587375D01*
Y593723D01*
X351790D01*
X326390Y587375D02*
Y595839D01*
X330622Y600071D01*
X334854Y595839D01*
Y587375D01*
Y593723D01*
X326390D01*
X300990Y587375D02*
Y595839D01*
X305222Y600071D01*
X309454Y595839D01*
Y587375D01*
Y593723D01*
X300990D01*
X275590Y587375D02*
Y595839D01*
X279822Y600071D01*
X284054Y595839D01*
Y587375D01*
Y593723D01*
X275590D01*
X250190Y587375D02*
Y595839D01*
X254422Y600071D01*
X258654Y595839D01*
Y587375D01*
Y593723D01*
X250190D01*
X203200Y351790D02*
Y361950D01*
X213360D01*
Y351790D01*
X203200D01*
X205232Y353822D02*
Y359918D01*
X211328D01*
Y353822D01*
X205232D01*
X203200Y377190D02*
Y387350D01*
X213360D01*
Y377190D01*
X203200D01*
X205232Y379222D02*
Y385318D01*
X211328D01*
Y379222D01*
X205232D01*
X228600Y351790D02*
Y361950D01*
X238760D01*
Y351790D01*
X228600D01*
X230632Y353822D02*
Y359918D01*
X236728D01*
Y353822D01*
X230632D01*
X228600Y377190D02*
Y387350D01*
X238760D01*
Y377190D01*
X228600D01*
X230632Y379222D02*
Y385318D01*
X236728D01*
Y379222D01*
X230632D01*
X254000Y351790D02*
Y361950D01*
X264160D01*
Y351790D01*
X254000D01*
X256032Y353822D02*
Y359918D01*
X262128D01*
Y353822D01*
X256032D01*
X254000Y377190D02*
Y387350D01*
X264160D01*
Y377190D01*
X254000D01*
X256032Y379222D02*
Y385318D01*
X262128D01*
Y379222D01*
X256032D01*
X279400Y351790D02*
Y361950D01*
X289560D01*
Y351790D01*
X279400D01*
X281432Y353822D02*
Y359918D01*
X287528D01*
Y353822D01*
X281432D01*
X279400Y377190D02*
Y387350D01*
X289560D01*
Y377190D01*
X279400D01*
X281432Y379222D02*
Y385318D01*
X287528D01*
Y379222D01*
X281432D01*
X304800Y351790D02*
Y361950D01*
X314960D01*
Y351790D01*
X304800D01*
X306832Y353822D02*
Y359918D01*
X312928D01*
Y353822D01*
X306832D01*
X304800Y377190D02*
Y387350D01*
X314960D01*
Y377190D01*
X304800D01*
X306832Y379222D02*
Y385318D01*
X312928D01*
Y379222D01*
X306832D01*
X330200Y351790D02*
Y361950D01*
X340360D01*
Y351790D01*
X330200D01*
X332232Y353822D02*
Y359918D01*
X338328D01*
Y353822D01*
X332232D01*
X330200Y377190D02*
Y387350D01*
X340360D01*
Y377190D01*
X330200D01*
X332232Y379222D02*
Y385318D01*
X338328D01*
Y379222D01*
X332232D01*
X355600Y351790D02*
Y361950D01*
X365760D01*
Y351790D01*
X355600D01*
X357632Y353822D02*
Y359918D01*
X363728D01*
Y353822D01*
X357632D01*
X355600Y377190D02*
Y387350D01*
X365760D01*
Y377190D01*
X355600D01*
X357632Y379222D02*
Y385318D01*
X363728D01*
Y379222D01*
X357632D01*
X381000Y351790D02*
Y361950D01*
X391160D01*
Y351790D01*
X381000D01*
X383032Y353822D02*
Y359918D01*
X389128D01*
Y353822D01*
X383032D01*
X381000Y377190D02*
Y387350D01*
X391160D01*
Y377190D01*
X381000D01*
X383032Y379222D02*
Y385318D01*
X389128D01*
Y379222D01*
X383032D01*
X406400Y351790D02*
Y361950D01*
X416560D01*
Y351790D01*
X406400D01*
X408432Y353822D02*
Y359918D01*
X414528D01*
Y353822D01*
X408432D01*
X406400Y377190D02*
Y387350D01*
X416560D01*
Y377190D01*
X406400D01*
X408432Y379222D02*
Y385318D01*
X414528D01*
Y379222D01*
X408432D01*
X431800Y351790D02*
Y361950D01*
X441960D01*
Y351790D01*
X431800D01*
X433832Y353822D02*
Y359918D01*
X439928D01*
Y353822D01*
X433832D01*
X431800Y377190D02*
Y387350D01*
X441960D01*
Y377190D01*
X431800D01*
X433832Y379222D02*
Y385318D01*
X439928D01*
Y379222D01*
X433832D01*
X457200Y351790D02*
Y361950D01*
X467360D01*
Y351790D01*
X457200D01*
X459232Y353822D02*
Y359918D01*
X465328D01*
Y353822D01*
X459232D01*
X457200Y377190D02*
Y387350D01*
X467360D01*
Y377190D01*
X457200D01*
X459232Y379222D02*
Y385318D01*
X465328D01*
Y379222D01*
X459232D01*
X482600Y351790D02*
Y361950D01*
X492760D01*
Y351790D01*
X482600D01*
X484632Y353822D02*
Y359918D01*
X490728D01*
Y353822D01*
X484632D01*
X482600Y377190D02*
Y387350D01*
X492760D01*
Y377190D01*
X482600D01*
X484632Y379222D02*
Y385318D01*
X490728D01*
Y379222D01*
X484632D01*
X590550Y31750D02*
X585470Y41910D01*
X595630D01*
X590550Y31750D01*
X615549D02*
X610469Y41910D01*
X620629D01*
X615549Y31750D01*
X694690D02*
X689610Y41910D01*
X699770D01*
X694690Y31750D01*
X669691D02*
X664611Y41910D01*
X674771D01*
X669691Y31750D01*
X558800Y460375D02*
Y468839D01*
X563032Y473071D01*
X567264Y468839D01*
Y460375D01*
Y466723D01*
X558800D01*
X584200Y460375D02*
Y468839D01*
X588432Y473071D01*
X592664Y468839D01*
Y460375D01*
Y466723D01*
X584200D01*
X609600Y460375D02*
Y468839D01*
X613832Y473071D01*
X618064Y468839D01*
Y460375D01*
Y466723D01*
X609600D01*
X635000Y460375D02*
Y468839D01*
X639232Y473071D01*
X643464Y468839D01*
Y460375D01*
Y466723D01*
X635000D01*
X533400Y460375D02*
Y468839D01*
X537632Y473071D01*
X541864Y468839D01*
Y460375D01*
Y466723D01*
X533400D01*
X508000Y460375D02*
Y468839D01*
X512232Y473071D01*
X516464Y468839D01*
Y460375D01*
Y466723D01*
X508000D01*
X482600Y460375D02*
Y468839D01*
X486832Y473071D01*
X491064Y468839D01*
Y460375D01*
Y466723D01*
X482600D01*
X457200Y460375D02*
Y468839D01*
X461432Y473071D01*
X465664Y468839D01*
Y460375D01*
Y466723D01*
X457200D01*
X635000Y587375D02*
Y595839D01*
X639232Y600071D01*
X643464Y595839D01*
Y587375D01*
Y593723D01*
X635000D01*
X609600Y587375D02*
Y595839D01*
X613832Y600071D01*
X618064Y595839D01*
Y587375D01*
Y593723D01*
X609600D01*
X584200Y587375D02*
Y595839D01*
X588432Y600071D01*
X592664Y595839D01*
Y587375D01*
Y593723D01*
X584200D01*
X558800Y587375D02*
Y595839D01*
X563032Y600071D01*
X567264Y595839D01*
Y587375D01*
Y593723D01*
X558800D01*
X533400Y587375D02*
Y595839D01*
X537632Y600071D01*
X541864Y595839D01*
Y587375D01*
Y593723D01*
X533400D01*
X508000Y587375D02*
Y595839D01*
X512232Y600071D01*
X516464Y595839D01*
Y587375D01*
Y593723D01*
X508000D01*
X482600Y587375D02*
Y595839D01*
X486832Y600071D01*
X491064Y595839D01*
Y587375D01*
Y593723D01*
X482600D01*
X457200Y587375D02*
Y595839D01*
X461432Y600071D01*
X465664Y595839D01*
Y587375D01*
Y593723D01*
X457200D01*
X215900Y532130D02*
X218440D01*
X220980Y534670D01*
X223520Y532130D01*
X226060D01*
Y534670D01*
X223520Y537210D01*
X226060Y539750D01*
Y542290D01*
X223520D01*
X220980Y539750D01*
X218440Y542290D01*
X215900D01*
Y539750D01*
X218440Y537210D01*
X215900Y534670D01*
Y532130D01*
X217932Y534162D02*
X219456D01*
X220980Y535686D01*
X222504Y534162D01*
X224028D01*
Y535686D01*
X222504Y537210D01*
X224028Y538734D01*
Y540258D01*
X222504D01*
X220980Y538734D01*
X219456Y540258D01*
X217932D01*
Y538734D01*
X219456Y537210D01*
X217932Y535686D01*
Y534162D01*
X215900Y557530D02*
X218440D01*
X220980Y560070D01*
X223520Y557530D01*
X226060D01*
Y560070D01*
X223520Y562610D01*
X226060Y565150D01*
Y567690D01*
X223520D01*
X220980Y565150D01*
X218440Y567690D01*
X215900D01*
Y565150D01*
X218440Y562610D01*
X215900Y560070D01*
Y557530D01*
X217932Y559562D02*
X219456D01*
X220980Y561086D01*
X222504Y559562D01*
X224028D01*
Y561086D01*
X222504Y562610D01*
X224028Y564134D01*
Y565658D01*
X222504D01*
X220980Y564134D01*
X219456Y565658D01*
X217932D01*
Y564134D01*
X219456Y562610D01*
X217932Y561086D01*
Y559562D01*
X215900Y582930D02*
X218440D01*
X220980Y585470D01*
X223520Y582930D01*
X226060D01*
Y585470D01*
X223520Y588010D01*
X226060Y590550D01*
Y593090D01*
X223520D01*
X220980Y590550D01*
X218440Y593090D01*
X215900D01*
Y590550D01*
X218440Y588010D01*
X215900Y585470D01*
Y582930D01*
X217932Y584962D02*
X219456D01*
X220980Y586486D01*
X222504Y584962D01*
X224028D01*
Y586486D01*
X222504Y588010D01*
X224028Y589534D01*
Y591058D01*
X222504D01*
X220980Y589534D01*
X219456Y591058D01*
X217932D01*
Y589534D01*
X219456Y588010D01*
X217932Y586486D01*
Y584962D01*
X190500Y582930D02*
X193040D01*
X195580Y585470D01*
X198120Y582930D01*
X200660D01*
Y585470D01*
X198120Y588010D01*
X200660Y590550D01*
Y593090D01*
X198120D01*
X195580Y590550D01*
X193040Y593090D01*
X190500D01*
Y590550D01*
X193040Y588010D01*
X190500Y585470D01*
Y582930D01*
X192532Y584962D02*
X194056D01*
X195580Y586486D01*
X197104Y584962D01*
X198628D01*
Y586486D01*
X197104Y588010D01*
X198628Y589534D01*
Y591058D01*
X197104D01*
X195580Y589534D01*
X194056Y591058D01*
X192532D01*
Y589534D01*
X194056Y588010D01*
X192532Y586486D01*
Y584962D01*
X165100Y582930D02*
X167640D01*
X170180Y585470D01*
X172720Y582930D01*
X175260D01*
Y585470D01*
X172720Y588010D01*
X175260Y590550D01*
Y593090D01*
X172720D01*
X170180Y590550D01*
X167640Y593090D01*
X165100D01*
Y590550D01*
X167640Y588010D01*
X165100Y585470D01*
Y582930D01*
X167132Y584962D02*
X168656D01*
X170180Y586486D01*
X171704Y584962D01*
X173228D01*
Y586486D01*
X171704Y588010D01*
X173228Y589534D01*
Y591058D01*
X171704D01*
X170180Y589534D01*
X168656Y591058D01*
X167132D01*
Y589534D01*
X168656Y588010D01*
X167132Y586486D01*
Y584962D01*
X88900Y582930D02*
X91440D01*
X93980Y585470D01*
X96520Y582930D01*
X99060D01*
Y585470D01*
X96520Y588010D01*
X99060Y590550D01*
Y593090D01*
X96520D01*
X93980Y590550D01*
X91440Y593090D01*
X88900D01*
Y590550D01*
X91440Y588010D01*
X88900Y585470D01*
Y582930D01*
X90932Y584962D02*
X92456D01*
X93980Y586486D01*
X95504Y584962D01*
X97028D01*
Y586486D01*
X95504Y588010D01*
X97028Y589534D01*
Y591058D01*
X95504D01*
X93980Y589534D01*
X92456Y591058D01*
X90932D01*
Y589534D01*
X92456Y588010D01*
X90932Y586486D01*
Y584962D01*
X63500Y582930D02*
X66040D01*
X68580Y585470D01*
X71120Y582930D01*
X73660D01*
Y585470D01*
X71120Y588010D01*
X73660Y590550D01*
Y593090D01*
X71120D01*
X68580Y590550D01*
X66040Y593090D01*
X63500D01*
Y590550D01*
X66040Y588010D01*
X63500Y585470D01*
Y582930D01*
X65532Y584962D02*
X67056D01*
X68580Y586486D01*
X70104Y584962D01*
X71628D01*
Y586486D01*
X70104Y588010D01*
X71628Y589534D01*
Y591058D01*
X70104D01*
X68580Y589534D01*
X67056Y591058D01*
X65532D01*
Y589534D01*
X67056Y588010D01*
X65532Y586486D01*
Y584962D01*
X38100Y582930D02*
X40640D01*
X43180Y585470D01*
X45720Y582930D01*
X48260D01*
Y585470D01*
X45720Y588010D01*
X48260Y590550D01*
Y593090D01*
X45720D01*
X43180Y590550D01*
X40640Y593090D01*
X38100D01*
Y590550D01*
X40640Y588010D01*
X38100Y585470D01*
Y582930D01*
X40132Y584962D02*
X41656D01*
X43180Y586486D01*
X44704Y584962D01*
X46228D01*
Y586486D01*
X44704Y588010D01*
X46228Y589534D01*
Y591058D01*
X44704D01*
X43180Y589534D01*
X41656Y591058D01*
X40132D01*
Y589534D01*
X41656Y588010D01*
X40132Y586486D01*
Y584962D01*
X38100Y455930D02*
X40640D01*
X43180Y458470D01*
X45720Y455930D01*
X48260D01*
Y458470D01*
X45720Y461010D01*
X48260Y463550D01*
Y466090D01*
X45720D01*
X43180Y463550D01*
X40640Y466090D01*
X38100D01*
Y463550D01*
X40640Y461010D01*
X38100Y458470D01*
Y455930D01*
X40132Y457962D02*
X41656D01*
X43180Y459486D01*
X44704Y457962D01*
X46228D01*
Y459486D01*
X44704Y461010D01*
X46228Y462534D01*
Y464058D01*
X44704D01*
X43180Y462534D01*
X41656Y464058D01*
X40132D01*
Y462534D01*
X41656Y461010D01*
X40132Y459486D01*
Y457962D01*
X63500Y455930D02*
X66040D01*
X68580Y458470D01*
X71120Y455930D01*
X73660D01*
Y458470D01*
X71120Y461010D01*
X73660Y463550D01*
Y466090D01*
X71120D01*
X68580Y463550D01*
X66040Y466090D01*
X63500D01*
Y463550D01*
X66040Y461010D01*
X63500Y458470D01*
Y455930D01*
X65532Y457962D02*
X67056D01*
X68580Y459486D01*
X70104Y457962D01*
X71628D01*
Y459486D01*
X70104Y461010D01*
X71628Y462534D01*
Y464058D01*
X70104D01*
X68580Y462534D01*
X67056Y464058D01*
X65532D01*
Y462534D01*
X67056Y461010D01*
X65532Y459486D01*
Y457962D01*
X88900Y455930D02*
X91440D01*
X93980Y458470D01*
X96520Y455930D01*
X99060D01*
Y458470D01*
X96520Y461010D01*
X99060Y463550D01*
Y466090D01*
X96520D01*
X93980Y463550D01*
X91440Y466090D01*
X88900D01*
Y463550D01*
X91440Y461010D01*
X88900Y458470D01*
Y455930D01*
X90932Y457962D02*
X92456D01*
X93980Y459486D01*
X95504Y457962D01*
X97028D01*
Y459486D01*
X95504Y461010D01*
X97028Y462534D01*
Y464058D01*
X95504D01*
X93980Y462534D01*
X92456Y464058D01*
X90932D01*
Y462534D01*
X92456Y461010D01*
X90932Y459486D01*
Y457962D01*
X114300Y455930D02*
X116840D01*
X119380Y458470D01*
X121920Y455930D01*
X124460D01*
Y458470D01*
X121920Y461010D01*
X124460Y463550D01*
Y466090D01*
X121920D01*
X119380Y463550D01*
X116840Y466090D01*
X114300D01*
Y463550D01*
X116840Y461010D01*
X114300Y458470D01*
Y455930D01*
X116332Y457962D02*
X117856D01*
X119380Y459486D01*
X120904Y457962D01*
X122428D01*
Y459486D01*
X120904Y461010D01*
X122428Y462534D01*
Y464058D01*
X120904D01*
X119380Y462534D01*
X117856Y464058D01*
X116332D01*
Y462534D01*
X117856Y461010D01*
X116332Y459486D01*
Y457962D01*
X139700Y455930D02*
X142240D01*
X144780Y458470D01*
X147320Y455930D01*
X149860D01*
Y458470D01*
X147320Y461010D01*
X149860Y463550D01*
Y466090D01*
X147320D01*
X144780Y463550D01*
X142240Y466090D01*
X139700D01*
Y463550D01*
X142240Y461010D01*
X139700Y458470D01*
Y455930D01*
X141732Y457962D02*
X143256D01*
X144780Y459486D01*
X146304Y457962D01*
X147828D01*
Y459486D01*
X146304Y461010D01*
X147828Y462534D01*
Y464058D01*
X146304D01*
X144780Y462534D01*
X143256Y464058D01*
X141732D01*
Y462534D01*
X143256Y461010D01*
X141732Y459486D01*
Y457962D01*
X215900Y455930D02*
X218440D01*
X220980Y458470D01*
X223520Y455930D01*
X226060D01*
Y458470D01*
X223520Y461010D01*
X226060Y463550D01*
Y466090D01*
X223520D01*
X220980Y463550D01*
X218440Y466090D01*
X215900D01*
Y463550D01*
X218440Y461010D01*
X215900Y458470D01*
Y455930D01*
X217932Y457962D02*
X219456D01*
X220980Y459486D01*
X222504Y457962D01*
X224028D01*
Y459486D01*
X222504Y461010D01*
X224028Y462534D01*
Y464058D01*
X222504D01*
X220980Y462534D01*
X219456Y464058D01*
X217932D01*
Y462534D01*
X219456Y461010D01*
X217932Y459486D01*
Y457962D01*
X190500Y455930D02*
X193040D01*
X195580Y458470D01*
X198120Y455930D01*
X200660D01*
Y458470D01*
X198120Y461010D01*
X200660Y463550D01*
Y466090D01*
X198120D01*
X195580Y463550D01*
X193040Y466090D01*
X190500D01*
Y463550D01*
X193040Y461010D01*
X190500Y458470D01*
Y455930D01*
X192532Y457962D02*
X194056D01*
X195580Y459486D01*
X197104Y457962D01*
X198628D01*
Y459486D01*
X197104Y461010D01*
X198628Y462534D01*
Y464058D01*
X197104D01*
X195580Y462534D01*
X194056Y464058D01*
X192532D01*
Y462534D01*
X194056Y461010D01*
X192532Y459486D01*
Y457962D01*
X165100Y455930D02*
X167640D01*
X170180Y458470D01*
X172720Y455930D01*
X175260D01*
Y458470D01*
X172720Y461010D01*
X175260Y463550D01*
Y466090D01*
X172720D01*
X170180Y463550D01*
X167640Y466090D01*
X165100D01*
Y463550D01*
X167640Y461010D01*
X165100Y458470D01*
Y455930D01*
X167132Y457962D02*
X168656D01*
X170180Y459486D01*
X171704Y457962D01*
X173228D01*
Y459486D01*
X171704Y461010D01*
X173228Y462534D01*
Y464058D01*
X171704D01*
X170180Y462534D01*
X168656Y464058D01*
X167132D01*
Y462534D01*
X168656Y461010D01*
X167132Y459486D01*
Y457962D01*
X114300Y582930D02*
X116840D01*
X119380Y585470D01*
X121920Y582930D01*
X124460D01*
Y585470D01*
X121920Y588010D01*
X124460Y590550D01*
Y593090D01*
X121920D01*
X119380Y590550D01*
X116840Y593090D01*
X114300D01*
Y590550D01*
X116840Y588010D01*
X114300Y585470D01*
Y582930D01*
X116332Y584962D02*
X117856D01*
X119380Y586486D01*
X120904Y584962D01*
X122428D01*
Y586486D01*
X120904Y588010D01*
X122428Y589534D01*
Y591058D01*
X120904D01*
X119380Y589534D01*
X117856Y591058D01*
X116332D01*
Y589534D01*
X117856Y588010D01*
X116332Y586486D01*
Y584962D01*
X139700Y582930D02*
X142240D01*
X144780Y585470D01*
X147320Y582930D01*
X149860D01*
Y585470D01*
X147320Y588010D01*
X149860Y590550D01*
Y593090D01*
X147320D01*
X144780Y590550D01*
X142240Y593090D01*
X139700D01*
Y590550D01*
X142240Y588010D01*
X139700Y585470D01*
Y582930D01*
X141732Y584962D02*
X143256D01*
X144780Y586486D01*
X146304Y584962D01*
X147828D01*
Y586486D01*
X146304Y588010D01*
X147828Y589534D01*
Y591058D01*
X146304D01*
X144780Y589534D01*
X143256Y591058D01*
X141732D01*
Y589534D01*
X143256Y588010D01*
X141732Y586486D01*
Y584962D01*
X198521Y44450D02*
X193441Y54610D01*
X203601D01*
X198521Y44450D01*
X223520D02*
X218440Y54610D01*
X228600D01*
X223520Y44450D01*
X277061D02*
X271981Y54610D01*
X282141D01*
X277061Y44450D01*
X302060D02*
X296980Y54610D01*
X307140D01*
X302060Y44450D01*
X609600Y746138D02*
X604520Y756298D01*
X614680D01*
X609600Y746138D01*
Y796140D02*
X604520Y806300D01*
X614680D01*
X609600Y796140D01*
Y821140D02*
X604520Y831300D01*
X614680D01*
X609600Y821140D01*
Y846140D02*
X604520Y856300D01*
X614680D01*
X609600Y846140D01*
X609599Y871140D02*
X604520Y881300D01*
X614679D01*
X609599Y871140D01*
X609600Y771139D02*
X604520Y781299D01*
X614680D01*
X609600Y771139D01*
X544830D02*
X539750Y781299D01*
X549910D01*
X544830Y771139D01*
X544829Y871140D02*
X539749Y881300D01*
X549910D01*
X544829Y871140D01*
X544830Y846140D02*
X539750Y856300D01*
X549910D01*
X544830Y846140D01*
Y821140D02*
X539750Y831300D01*
X549910D01*
X544830Y821140D01*
Y796140D02*
X539750Y806300D01*
X549910D01*
X544830Y796140D01*
Y746138D02*
X539750Y756298D01*
X549910D01*
X544830Y746138D01*
X392430Y770543D02*
X387350Y780703D01*
X397509D01*
X392430Y770543D01*
X392429Y870544D02*
X387349Y880704D01*
X397509D01*
X392429Y870544D01*
X392430Y845544D02*
X387350Y855704D01*
X397509D01*
X392430Y845544D01*
Y820545D02*
X387350Y830704D01*
X397509D01*
X392430Y820545D01*
Y795545D02*
X387350Y805704D01*
X397509D01*
X392430Y795545D01*
Y745542D02*
X387350Y755702D01*
X397509D01*
X392430Y745542D01*
X145062Y45187D02*
X139982Y55347D01*
X150142D01*
X145062Y45187D01*
X965305Y961287D02*
Y971447D01*
X975465D01*
Y961287D01*
X965305D01*
X958850Y885190D02*
X953770Y895350D01*
X963930D01*
X958850Y885190D01*
Y859790D02*
X953770Y869950D01*
X963930D01*
X958850Y859790D01*
Y834390D02*
X953770Y844550D01*
X963930D01*
X958850Y834390D01*
Y910590D02*
X953770Y920750D01*
X963930D01*
X958850Y910590D01*
X965200Y25400D02*
Y35560D01*
X975360D01*
Y25400D01*
X965200D01*
X120063Y45187D02*
X114983Y55347D01*
X125143D01*
X120063Y45187D01*
X25505Y963827D02*
Y973987D01*
X35665D01*
Y963827D01*
X25505D01*
X25400Y25400D02*
Y35560D01*
X35560D01*
Y25400D01*
X25400D01*
X455930Y980440D02*
X458470Y982980D01*
X461010D01*
X458470Y985520D01*
X461010Y988060D01*
X458470D01*
X455930Y990600D01*
X453390Y988060D01*
X450850D01*
X453390Y985520D01*
X450850Y982980D01*
X453390D01*
X455930Y980440D01*
X478790Y833120D02*
X481330Y835660D01*
X483870D01*
X481330Y838200D01*
X483870Y840740D01*
X481330D01*
X478790Y843280D01*
X476250Y840740D01*
X473710D01*
X476250Y838200D01*
X473710Y835660D01*
X476250D01*
X478790Y833120D01*
X742950Y767080D02*
X745490Y769620D01*
X748030D01*
X745490Y772160D01*
X748030Y774700D01*
X745490D01*
X742950Y777240D01*
X740410Y774700D01*
X737870D01*
X740410Y772160D01*
X737870Y769620D01*
X740410D01*
X742950Y767080D01*
X923290Y289560D02*
X925830Y292100D01*
X928370D01*
X925830Y294640D01*
X928370Y297180D01*
X925830D01*
X923290Y299720D01*
X920750Y297180D01*
X918210D01*
X920750Y294640D01*
X918210Y292100D01*
X920750D01*
X923290Y289560D01*
X779780Y734060D02*
X782320Y736600D01*
X784860D01*
X782320Y739140D01*
X784860Y741680D01*
X782320D01*
X779780Y744220D01*
X777240Y741680D01*
X774700D01*
X777240Y739140D01*
X774700Y736600D01*
X777240D01*
X779780Y734060D01*
X891380Y580390D02*
X893920Y582930D01*
X896460D01*
X893920Y585470D01*
X896460Y588010D01*
X893920D01*
X891380Y590550D01*
X888840Y588010D01*
X886300D01*
X888840Y585470D01*
X886300Y582930D01*
X888840D01*
X891380Y580390D01*
X860859Y266549D02*
X863399Y269089D01*
X865939D01*
X863399Y271629D01*
X865939Y274169D01*
X863399D01*
X860859Y276709D01*
X858319Y274169D01*
X855779D01*
X858319Y271629D01*
X855779Y269089D01*
X858319D01*
X860859Y266549D01*
X552450Y927420D02*
X554990Y929960D01*
X557530D01*
X554990Y932500D01*
X557530Y935040D01*
X554990D01*
X552450Y937580D01*
X549910Y935040D01*
X547370D01*
X549910Y932500D01*
X547370Y929960D01*
X549910D01*
X552450Y927420D01*
X593700Y927100D02*
X596240Y929640D01*
X598780D01*
X596240Y932180D01*
X598780Y934720D01*
X596240D01*
X593700Y937260D01*
X591160Y934720D01*
X588620D01*
X591160Y932180D01*
X588620Y929640D01*
X591160D01*
X593700Y927100D01*
X773430Y784860D02*
X775970Y787400D01*
X778510D01*
X775970Y789940D01*
X778510Y792480D01*
X775970D01*
X773430Y795020D01*
X770890Y792480D01*
X768350D01*
X770890Y789940D01*
X768350Y787400D01*
X770890D01*
X773430Y784860D01*
X952500Y676910D02*
X955040Y679450D01*
X957580D01*
X955040Y681990D01*
X957580Y684530D01*
X955040D01*
X952500Y687070D01*
X949960Y684530D01*
X947420D01*
X949960Y681990D01*
X947420Y679450D01*
X949960D01*
X952500Y676910D01*
Y678942D02*
X954024Y680466D01*
X955548D01*
X954024Y681990D01*
X955548Y683514D01*
X954024D01*
X952500Y685038D01*
X950976Y683514D01*
X949452D01*
X950976Y681990D01*
X949452Y680466D01*
X950976D01*
X952500Y678942D01*
X984250Y359410D02*
X986790Y361950D01*
X989330D01*
X986790Y364490D01*
X989330Y367030D01*
X986790D01*
X984250Y369570D01*
X981710Y367030D01*
X979170D01*
X981710Y364490D01*
X979170Y361950D01*
X981710D01*
X984250Y359410D01*
Y361442D02*
X985774Y362966D01*
X987298D01*
X985774Y364490D01*
X987298Y366014D01*
X985774D01*
X984250Y367538D01*
X982726Y366014D01*
X981202D01*
X982726Y364490D01*
X981202Y362966D01*
X982726D01*
X984250Y361442D01*
X952500Y295910D02*
X955040Y298450D01*
X957580D01*
X955040Y300990D01*
X957580Y303530D01*
X955040D01*
X952500Y306070D01*
X949960Y303530D01*
X947420D01*
X949960Y300990D01*
X947420Y298450D01*
X949960D01*
X952500Y295910D01*
Y297942D02*
X954024Y299466D01*
X955548D01*
X954024Y300990D01*
X955548Y302514D01*
X954024D01*
X952500Y304038D01*
X950976Y302514D01*
X949452D01*
X950976Y300990D01*
X949452Y299466D01*
X950976D01*
X952500Y297942D01*
X984250Y232410D02*
X986790Y234950D01*
X989330D01*
X986790Y237490D01*
X989330Y240030D01*
X986790D01*
X984250Y242570D01*
X981710Y240030D01*
X979170D01*
X981710Y237490D01*
X979170Y234950D01*
X981710D01*
X984250Y232410D01*
Y234442D02*
X985774Y235966D01*
X987298D01*
X985774Y237490D01*
X987298Y239014D01*
X985774D01*
X984250Y240538D01*
X982726Y239014D01*
X981202D01*
X982726Y237490D01*
X981202Y235966D01*
X982726D01*
X984250Y234442D01*
X952500Y168910D02*
X955040Y171450D01*
X957580D01*
X955040Y173990D01*
X957580Y176530D01*
X955040D01*
X952500Y179070D01*
X949960Y176530D01*
X947420D01*
X949960Y173990D01*
X947420Y171450D01*
X949960D01*
X952500Y168910D01*
Y170942D02*
X954024Y172466D01*
X955548D01*
X954024Y173990D01*
X955548Y175514D01*
X954024D01*
X952500Y177038D01*
X950976Y175514D01*
X949452D01*
X950976Y173990D01*
X949452Y172466D01*
X950976D01*
X952500Y170942D01*
X984250Y105410D02*
X986790Y107950D01*
X989330D01*
X986790Y110490D01*
X989330Y113030D01*
X986790D01*
X984250Y115570D01*
X981710Y113030D01*
X979170D01*
X981710Y110490D01*
X979170Y107950D01*
X981710D01*
X984250Y105410D01*
Y107442D02*
X985774Y108966D01*
X987298D01*
X985774Y110490D01*
X987298Y112014D01*
X985774D01*
X984250Y113538D01*
X982726Y112014D01*
X981202D01*
X982726Y110490D01*
X981202Y108966D01*
X982726D01*
X984250Y107442D01*
X889000Y803910D02*
X891540Y806450D01*
X894080D01*
X891540Y808990D01*
X894080Y811530D01*
X891540D01*
X889000Y814070D01*
X886460Y811530D01*
X883920D01*
X886460Y808990D01*
X883920Y806450D01*
X886460D01*
X889000Y803910D01*
Y805942D02*
X890524Y807466D01*
X892048D01*
X890524Y808990D01*
X892048Y810514D01*
X890524D01*
X889000Y812038D01*
X887476Y810514D01*
X885952D01*
X887476Y808990D01*
X885952Y807466D01*
X887476D01*
X889000Y805942D01*
X920750Y740410D02*
X923290Y742950D01*
X925830D01*
X923290Y745490D01*
X925830Y748030D01*
X923290D01*
X920750Y750570D01*
X918210Y748030D01*
X915670D01*
X918210Y745490D01*
X915670Y742950D01*
X918210D01*
X920750Y740410D01*
Y742442D02*
X922274Y743966D01*
X923798D01*
X922274Y745490D01*
X923798Y747014D01*
X922274D01*
X920750Y748538D01*
X919226Y747014D01*
X917702D01*
X919226Y745490D01*
X917702Y743966D01*
X919226D01*
X920750Y742442D01*
X889000Y676910D02*
X891540Y679450D01*
X894080D01*
X891540Y681990D01*
X894080Y684530D01*
X891540D01*
X889000Y687070D01*
X886460Y684530D01*
X883920D01*
X886460Y681990D01*
X883920Y679450D01*
X886460D01*
X889000Y676910D01*
Y678942D02*
X890524Y680466D01*
X892048D01*
X890524Y681990D01*
X892048Y683514D01*
X890524D01*
X889000Y685038D01*
X887476Y683514D01*
X885952D01*
X887476Y681990D01*
X885952Y680466D01*
X887476D01*
X889000Y678942D01*
X920750Y359410D02*
X923290Y361950D01*
X925830D01*
X923290Y364490D01*
X925830Y367030D01*
X923290D01*
X920750Y369570D01*
X918210Y367030D01*
X915670D01*
X918210Y364490D01*
X915670Y361950D01*
X918210D01*
X920750Y359410D01*
Y361442D02*
X922274Y362966D01*
X923798D01*
X922274Y364490D01*
X923798Y366014D01*
X922274D01*
X920750Y367538D01*
X919226Y366014D01*
X917702D01*
X919226Y364490D01*
X917702Y362966D01*
X919226D01*
X920750Y361442D01*
X889000Y168910D02*
X891540Y171450D01*
X894080D01*
X891540Y173990D01*
X894080Y176530D01*
X891540D01*
X889000Y179070D01*
X886460Y176530D01*
X883920D01*
X886460Y173990D01*
X883920Y171450D01*
X886460D01*
X889000Y168910D01*
Y170942D02*
X890524Y172466D01*
X892048D01*
X890524Y173990D01*
X892048Y175514D01*
X890524D01*
X889000Y177038D01*
X887476Y175514D01*
X885952D01*
X887476Y173990D01*
X885952Y172466D01*
X887476D01*
X889000Y170942D01*
X920750Y105410D02*
X923290Y107950D01*
X925830D01*
X923290Y110490D01*
X925830Y113030D01*
X923290D01*
X920750Y115570D01*
X918210Y113030D01*
X915670D01*
X918210Y110490D01*
X915670Y107950D01*
X918210D01*
X920750Y105410D01*
Y107442D02*
X922274Y108966D01*
X923798D01*
X922274Y110490D01*
X923798Y112014D01*
X922274D01*
X920750Y113538D01*
X919226Y112014D01*
X917702D01*
X919226Y110490D01*
X917702Y108966D01*
X919226D01*
X920750Y107442D01*
X889000Y41910D02*
X891540Y44450D01*
X894080D01*
X891540Y46990D01*
X894080Y49530D01*
X891540D01*
X889000Y52070D01*
X886460Y49530D01*
X883920D01*
X886460Y46990D01*
X883920Y44450D01*
X886460D01*
X889000Y41910D01*
Y43942D02*
X890524Y45466D01*
X892048D01*
X890524Y46990D01*
X892048Y48514D01*
X890524D01*
X889000Y50038D01*
X887476Y48514D01*
X885952D01*
X887476Y46990D01*
X885952Y45466D01*
X887476D01*
X889000Y43942D01*
X825500Y803910D02*
X828040Y806450D01*
X830580D01*
X828040Y808990D01*
X830580Y811530D01*
X828040D01*
X825500Y814070D01*
X822960Y811530D01*
X820420D01*
X822960Y808990D01*
X820420Y806450D01*
X822960D01*
X825500Y803910D01*
Y805942D02*
X827024Y807466D01*
X828548D01*
X827024Y808990D01*
X828548Y810514D01*
X827024D01*
X825500Y812038D01*
X823976Y810514D01*
X822452D01*
X823976Y808990D01*
X822452Y807466D01*
X823976D01*
X825500Y805942D01*
X857250Y232410D02*
X859790Y234950D01*
X862330D01*
X859790Y237490D01*
X862330Y240030D01*
X859790D01*
X857250Y242570D01*
X854710Y240030D01*
X852170D01*
X854710Y237490D01*
X852170Y234950D01*
X854710D01*
X857250Y232410D01*
Y234442D02*
X858774Y235966D01*
X860298D01*
X858774Y237490D01*
X860298Y239014D01*
X858774D01*
X857250Y240538D01*
X855726Y239014D01*
X854202D01*
X855726Y237490D01*
X854202Y235966D01*
X855726D01*
X857250Y234442D01*
X825500Y168910D02*
X828040Y171450D01*
X830580D01*
X828040Y173990D01*
X830580Y176530D01*
X828040D01*
X825500Y179070D01*
X822960Y176530D01*
X820420D01*
X822960Y173990D01*
X820420Y171450D01*
X822960D01*
X825500Y168910D01*
Y170942D02*
X827024Y172466D01*
X828548D01*
X827024Y173990D01*
X828548Y175514D01*
X827024D01*
X825500Y177038D01*
X823976Y175514D01*
X822452D01*
X823976Y173990D01*
X822452Y172466D01*
X823976D01*
X825500Y170942D01*
X857250Y105410D02*
X859790Y107950D01*
X862330D01*
X859790Y110490D01*
X862330Y113030D01*
X859790D01*
X857250Y115570D01*
X854710Y113030D01*
X852170D01*
X854710Y110490D01*
X852170Y107950D01*
X854710D01*
X857250Y105410D01*
Y107442D02*
X858774Y108966D01*
X860298D01*
X858774Y110490D01*
X860298Y112014D01*
X858774D01*
X857250Y113538D01*
X855726Y112014D01*
X854202D01*
X855726Y110490D01*
X854202Y108966D01*
X855726D01*
X857250Y107442D01*
X825500Y41910D02*
X828040Y44450D01*
X830580D01*
X828040Y46990D01*
X830580Y49530D01*
X828040D01*
X825500Y52070D01*
X822960Y49530D01*
X820420D01*
X822960Y46990D01*
X820420Y44450D01*
X822960D01*
X825500Y41910D01*
Y43942D02*
X827024Y45466D01*
X828548D01*
X827024Y46990D01*
X828548Y48514D01*
X827024D01*
X825500Y50038D01*
X823976Y48514D01*
X822452D01*
X823976Y46990D01*
X822452Y45466D01*
X823976D01*
X825500Y43942D01*
X793750Y867410D02*
X796290Y869950D01*
X798830D01*
X796290Y872490D01*
X798830Y875030D01*
X796290D01*
X793750Y877570D01*
X791210Y875030D01*
X788670D01*
X791210Y872490D01*
X788670Y869950D01*
X791210D01*
X793750Y867410D01*
Y869442D02*
X795274Y870966D01*
X796798D01*
X795274Y872490D01*
X796798Y874014D01*
X795274D01*
X793750Y875538D01*
X792226Y874014D01*
X790702D01*
X792226Y872490D01*
X790702Y870966D01*
X792226D01*
X793750Y869442D01*
X762000Y549910D02*
X764540Y552450D01*
X767080D01*
X764540Y554990D01*
X767080Y557530D01*
X764540D01*
X762000Y560070D01*
X759460Y557530D01*
X756920D01*
X759460Y554990D01*
X756920Y552450D01*
X759460D01*
X762000Y549910D01*
Y551942D02*
X763524Y553466D01*
X765048D01*
X763524Y554990D01*
X765048Y556514D01*
X763524D01*
X762000Y558038D01*
X760476Y556514D01*
X758952D01*
X760476Y554990D01*
X758952Y553466D01*
X760476D01*
X762000Y551942D01*
X793750Y359410D02*
X796290Y361950D01*
X798830D01*
X796290Y364490D01*
X798830Y367030D01*
X796290D01*
X793750Y369570D01*
X791210Y367030D01*
X788670D01*
X791210Y364490D01*
X788670Y361950D01*
X791210D01*
X793750Y359410D01*
Y361442D02*
X795274Y362966D01*
X796798D01*
X795274Y364490D01*
X796798Y366014D01*
X795274D01*
X793750Y367538D01*
X792226Y366014D01*
X790702D01*
X792226Y364490D01*
X790702Y362966D01*
X792226D01*
X793750Y361442D01*
X762000Y295910D02*
X764540Y298450D01*
X767080D01*
X764540Y300990D01*
X767080Y303530D01*
X764540D01*
X762000Y306070D01*
X759460Y303530D01*
X756920D01*
X759460Y300990D01*
X756920Y298450D01*
X759460D01*
X762000Y295910D01*
Y297942D02*
X763524Y299466D01*
X765048D01*
X763524Y300990D01*
X765048Y302514D01*
X763524D01*
X762000Y304038D01*
X760476Y302514D01*
X758952D01*
X760476Y300990D01*
X758952Y299466D01*
X760476D01*
X762000Y297942D01*
X793750Y232410D02*
X796290Y234950D01*
X798830D01*
X796290Y237490D01*
X798830Y240030D01*
X796290D01*
X793750Y242570D01*
X791210Y240030D01*
X788670D01*
X791210Y237490D01*
X788670Y234950D01*
X791210D01*
X793750Y232410D01*
Y234442D02*
X795274Y235966D01*
X796798D01*
X795274Y237490D01*
X796798Y239014D01*
X795274D01*
X793750Y240538D01*
X792226Y239014D01*
X790702D01*
X792226Y237490D01*
X790702Y235966D01*
X792226D01*
X793750Y234442D01*
X762000Y168910D02*
X764540Y171450D01*
X767080D01*
X764540Y173990D01*
X767080Y176530D01*
X764540D01*
X762000Y179070D01*
X759460Y176530D01*
X756920D01*
X759460Y173990D01*
X756920Y171450D01*
X759460D01*
X762000Y168910D01*
Y170942D02*
X763524Y172466D01*
X765048D01*
X763524Y173990D01*
X765048Y175514D01*
X763524D01*
X762000Y177038D01*
X760476Y175514D01*
X758952D01*
X760476Y173990D01*
X758952Y172466D01*
X760476D01*
X762000Y170942D01*
X793750Y105410D02*
X796290Y107950D01*
X798830D01*
X796290Y110490D01*
X798830Y113030D01*
X796290D01*
X793750Y115570D01*
X791210Y113030D01*
X788670D01*
X791210Y110490D01*
X788670Y107950D01*
X791210D01*
X793750Y105410D01*
Y107442D02*
X795274Y108966D01*
X796798D01*
X795274Y110490D01*
X796798Y112014D01*
X795274D01*
X793750Y113538D01*
X792226Y112014D01*
X790702D01*
X792226Y110490D01*
X790702Y108966D01*
X792226D01*
X793750Y107442D01*
X762000Y41910D02*
X764540Y44450D01*
X767080D01*
X764540Y46990D01*
X767080Y49530D01*
X764540D01*
X762000Y52070D01*
X759460Y49530D01*
X756920D01*
X759460Y46990D01*
X756920Y44450D01*
X759460D01*
X762000Y41910D01*
Y43942D02*
X763524Y45466D01*
X765048D01*
X763524Y46990D01*
X765048Y48514D01*
X763524D01*
X762000Y50038D01*
X760476Y48514D01*
X758952D01*
X760476Y46990D01*
X758952Y45466D01*
X760476D01*
X762000Y43942D01*
X698500Y676910D02*
X701040Y679450D01*
X703580D01*
X701040Y681990D01*
X703580Y684530D01*
X701040D01*
X698500Y687070D01*
X695960Y684530D01*
X693420D01*
X695960Y681990D01*
X693420Y679450D01*
X695960D01*
X698500Y676910D01*
Y678942D02*
X700024Y680466D01*
X701548D01*
X700024Y681990D01*
X701548Y683514D01*
X700024D01*
X698500Y685038D01*
X696976Y683514D01*
X695452D01*
X696976Y681990D01*
X695452Y680466D01*
X696976D01*
X698500Y678942D01*
X730250Y486410D02*
X732790Y488950D01*
X735330D01*
X732790Y491490D01*
X735330Y494030D01*
X732790D01*
X730250Y496570D01*
X727710Y494030D01*
X725170D01*
X727710Y491490D01*
X725170Y488950D01*
X727710D01*
X730250Y486410D01*
Y488442D02*
X731774Y489966D01*
X733298D01*
X731774Y491490D01*
X733298Y493014D01*
X731774D01*
X730250Y494538D01*
X728726Y493014D01*
X727202D01*
X728726Y491490D01*
X727202Y489966D01*
X728726D01*
X730250Y488442D01*
Y359410D02*
X732790Y361950D01*
X735330D01*
X732790Y364490D01*
X735330Y367030D01*
X732790D01*
X730250Y369570D01*
X727710Y367030D01*
X725170D01*
X727710Y364490D01*
X725170Y361950D01*
X727710D01*
X730250Y359410D01*
Y361442D02*
X731774Y362966D01*
X733298D01*
X731774Y364490D01*
X733298Y366014D01*
X731774D01*
X730250Y367538D01*
X728726Y366014D01*
X727202D01*
X728726Y364490D01*
X727202Y362966D01*
X728726D01*
X730250Y361442D01*
Y105410D02*
X732790Y107950D01*
X735330D01*
X732790Y110490D01*
X735330Y113030D01*
X732790D01*
X730250Y115570D01*
X727710Y113030D01*
X725170D01*
X727710Y110490D01*
X725170Y107950D01*
X727710D01*
X730250Y105410D01*
Y107442D02*
X731774Y108966D01*
X733298D01*
X731774Y110490D01*
X733298Y112014D01*
X731774D01*
X730250Y113538D01*
X728726Y112014D01*
X727202D01*
X728726Y110490D01*
X727202Y108966D01*
X728726D01*
X730250Y107442D01*
X635000Y930910D02*
X637540Y933450D01*
X640080D01*
X637540Y935990D01*
X640080Y938530D01*
X637540D01*
X635000Y941070D01*
X632460Y938530D01*
X629920D01*
X632460Y935990D01*
X629920Y933450D01*
X632460D01*
X635000Y930910D01*
Y932942D02*
X636524Y934466D01*
X638048D01*
X636524Y935990D01*
X638048Y937514D01*
X636524D01*
X635000Y939038D01*
X633476Y937514D01*
X631952D01*
X633476Y935990D01*
X631952Y934466D01*
X633476D01*
X635000Y932942D01*
X666750Y867410D02*
X669290Y869950D01*
X671830D01*
X669290Y872490D01*
X671830Y875030D01*
X669290D01*
X666750Y877570D01*
X664210Y875030D01*
X661670D01*
X664210Y872490D01*
X661670Y869950D01*
X664210D01*
X666750Y867410D01*
Y869442D02*
X668274Y870966D01*
X669798D01*
X668274Y872490D01*
X669798Y874014D01*
X668274D01*
X666750Y875538D01*
X665226Y874014D01*
X663702D01*
X665226Y872490D01*
X663702Y870966D01*
X665226D01*
X666750Y869442D01*
X635000Y676910D02*
X637540Y679450D01*
X640080D01*
X637540Y681990D01*
X640080Y684530D01*
X637540D01*
X635000Y687070D01*
X632460Y684530D01*
X629920D01*
X632460Y681990D01*
X629920Y679450D01*
X632460D01*
X635000Y676910D01*
Y678942D02*
X636524Y680466D01*
X638048D01*
X636524Y681990D01*
X638048Y683514D01*
X636524D01*
X635000Y685038D01*
X633476Y683514D01*
X631952D01*
X633476Y681990D01*
X631952Y680466D01*
X633476D01*
X635000Y678942D01*
X666750Y613410D02*
X669290Y615950D01*
X671830D01*
X669290Y618490D01*
X671830Y621030D01*
X669290D01*
X666750Y623570D01*
X664210Y621030D01*
X661670D01*
X664210Y618490D01*
X661670Y615950D01*
X664210D01*
X666750Y613410D01*
Y615442D02*
X668274Y616966D01*
X669798D01*
X668274Y618490D01*
X669798Y620014D01*
X668274D01*
X666750Y621538D01*
X665226Y620014D01*
X663702D01*
X665226Y618490D01*
X663702Y616966D01*
X665226D01*
X666750Y615442D01*
X635000Y422910D02*
X637540Y425450D01*
X640080D01*
X637540Y427990D01*
X640080Y430530D01*
X637540D01*
X635000Y433070D01*
X632460Y430530D01*
X629920D01*
X632460Y427990D01*
X629920Y425450D01*
X632460D01*
X635000Y422910D01*
Y424942D02*
X636524Y426466D01*
X638048D01*
X636524Y427990D01*
X638048Y429514D01*
X636524D01*
X635000Y431038D01*
X633476Y429514D01*
X631952D01*
X633476Y427990D01*
X631952Y426466D01*
X633476D01*
X635000Y424942D01*
Y295910D02*
X637540Y298450D01*
X640080D01*
X637540Y300990D01*
X640080Y303530D01*
X637540D01*
X635000Y306070D01*
X632460Y303530D01*
X629920D01*
X632460Y300990D01*
X629920Y298450D01*
X632460D01*
X635000Y295910D01*
Y297942D02*
X636524Y299466D01*
X638048D01*
X636524Y300990D01*
X638048Y302514D01*
X636524D01*
X635000Y304038D01*
X633476Y302514D01*
X631952D01*
X633476Y300990D01*
X631952Y299466D01*
X633476D01*
X635000Y297942D01*
Y168910D02*
X637540Y171450D01*
X640080D01*
X637540Y173990D01*
X640080Y176530D01*
X637540D01*
X635000Y179070D01*
X632460Y176530D01*
X629920D01*
X632460Y173990D01*
X629920Y171450D01*
X632460D01*
X635000Y168910D01*
Y170942D02*
X636524Y172466D01*
X638048D01*
X636524Y173990D01*
X638048Y175514D01*
X636524D01*
X635000Y177038D01*
X633476Y175514D01*
X631952D01*
X633476Y173990D01*
X631952Y172466D01*
X633476D01*
X635000Y170942D01*
Y41910D02*
X637540Y44450D01*
X640080D01*
X637540Y46990D01*
X640080Y49530D01*
X637540D01*
X635000Y52070D01*
X632460Y49530D01*
X629920D01*
X632460Y46990D01*
X629920Y44450D01*
X632460D01*
X635000Y41910D01*
Y43942D02*
X636524Y45466D01*
X638048D01*
X636524Y46990D01*
X638048Y48514D01*
X636524D01*
X635000Y50038D01*
X633476Y48514D01*
X631952D01*
X633476Y46990D01*
X631952Y45466D01*
X633476D01*
X635000Y43942D01*
X571500Y930910D02*
X574040Y933450D01*
X576580D01*
X574040Y935990D01*
X576580Y938530D01*
X574040D01*
X571500Y941070D01*
X568960Y938530D01*
X566420D01*
X568960Y935990D01*
X566420Y933450D01*
X568960D01*
X571500Y930910D01*
Y932942D02*
X573024Y934466D01*
X574548D01*
X573024Y935990D01*
X574548Y937514D01*
X573024D01*
X571500Y939038D01*
X569976Y937514D01*
X568452D01*
X569976Y935990D01*
X568452Y934466D01*
X569976D01*
X571500Y932942D01*
X603250Y613410D02*
X605790Y615950D01*
X608330D01*
X605790Y618490D01*
X608330Y621030D01*
X605790D01*
X603250Y623570D01*
X600710Y621030D01*
X598170D01*
X600710Y618490D01*
X598170Y615950D01*
X600710D01*
X603250Y613410D01*
Y615442D02*
X604774Y616966D01*
X606298D01*
X604774Y618490D01*
X606298Y620014D01*
X604774D01*
X603250Y621538D01*
X601726Y620014D01*
X600202D01*
X601726Y618490D01*
X600202Y616966D01*
X601726D01*
X603250Y615442D01*
X571500Y549910D02*
X574040Y552450D01*
X576580D01*
X574040Y554990D01*
X576580Y557530D01*
X574040D01*
X571500Y560070D01*
X568960Y557530D01*
X566420D01*
X568960Y554990D01*
X566420Y552450D01*
X568960D01*
X571500Y549910D01*
Y551942D02*
X573024Y553466D01*
X574548D01*
X573024Y554990D01*
X574548Y556514D01*
X573024D01*
X571500Y558038D01*
X569976Y556514D01*
X568452D01*
X569976Y554990D01*
X568452Y553466D01*
X569976D01*
X571500Y551942D01*
Y422910D02*
X574040Y425450D01*
X576580D01*
X574040Y427990D01*
X576580Y430530D01*
X574040D01*
X571500Y433070D01*
X568960Y430530D01*
X566420D01*
X568960Y427990D01*
X566420Y425450D01*
X568960D01*
X571500Y422910D01*
Y424942D02*
X573024Y426466D01*
X574548D01*
X573024Y427990D01*
X574548Y429514D01*
X573024D01*
X571500Y431038D01*
X569976Y429514D01*
X568452D01*
X569976Y427990D01*
X568452Y426466D01*
X569976D01*
X571500Y424942D01*
X603250Y359410D02*
X605790Y361950D01*
X608330D01*
X605790Y364490D01*
X608330Y367030D01*
X605790D01*
X603250Y369570D01*
X600710Y367030D01*
X598170D01*
X600710Y364490D01*
X598170Y361950D01*
X600710D01*
X603250Y359410D01*
Y361442D02*
X604774Y362966D01*
X606298D01*
X604774Y364490D01*
X606298Y366014D01*
X604774D01*
X603250Y367538D01*
X601726Y366014D01*
X600202D01*
X601726Y364490D01*
X600202Y362966D01*
X601726D01*
X603250Y361442D01*
Y232410D02*
X605790Y234950D01*
X608330D01*
X605790Y237490D01*
X608330Y240030D01*
X605790D01*
X603250Y242570D01*
X600710Y240030D01*
X598170D01*
X600710Y237490D01*
X598170Y234950D01*
X600710D01*
X603250Y232410D01*
Y234442D02*
X604774Y235966D01*
X606298D01*
X604774Y237490D01*
X606298Y239014D01*
X604774D01*
X603250Y240538D01*
X601726Y239014D01*
X600202D01*
X601726Y237490D01*
X600202Y235966D01*
X601726D01*
X603250Y234442D01*
X571500Y168910D02*
X574040Y171450D01*
X576580D01*
X574040Y173990D01*
X576580Y176530D01*
X574040D01*
X571500Y179070D01*
X568960Y176530D01*
X566420D01*
X568960Y173990D01*
X566420Y171450D01*
X568960D01*
X571500Y168910D01*
Y170942D02*
X573024Y172466D01*
X574548D01*
X573024Y173990D01*
X574548Y175514D01*
X573024D01*
X571500Y177038D01*
X569976Y175514D01*
X568452D01*
X569976Y173990D01*
X568452Y172466D01*
X569976D01*
X571500Y170942D01*
Y41910D02*
X574040Y44450D01*
X576580D01*
X574040Y46990D01*
X576580Y49530D01*
X574040D01*
X571500Y52070D01*
X568960Y49530D01*
X566420D01*
X568960Y46990D01*
X566420Y44450D01*
X568960D01*
X571500Y41910D01*
Y43942D02*
X573024Y45466D01*
X574548D01*
X573024Y46990D01*
X574548Y48514D01*
X573024D01*
X571500Y50038D01*
X569976Y48514D01*
X568452D01*
X569976Y46990D01*
X568452Y45466D01*
X569976D01*
X571500Y43942D01*
X508000Y930910D02*
X510540Y933450D01*
X513080D01*
X510540Y935990D01*
X513080Y938530D01*
X510540D01*
X508000Y941070D01*
X505460Y938530D01*
X502920D01*
X505460Y935990D01*
X502920Y933450D01*
X505460D01*
X508000Y930910D01*
Y932942D02*
X509524Y934466D01*
X511048D01*
X509524Y935990D01*
X511048Y937514D01*
X509524D01*
X508000Y939038D01*
X506476Y937514D01*
X504952D01*
X506476Y935990D01*
X504952Y934466D01*
X506476D01*
X508000Y932942D01*
X539750Y613410D02*
X542290Y615950D01*
X544830D01*
X542290Y618490D01*
X544830Y621030D01*
X542290D01*
X539750Y623570D01*
X537210Y621030D01*
X534670D01*
X537210Y618490D01*
X534670Y615950D01*
X537210D01*
X539750Y613410D01*
Y615442D02*
X541274Y616966D01*
X542798D01*
X541274Y618490D01*
X542798Y620014D01*
X541274D01*
X539750Y621538D01*
X538226Y620014D01*
X536702D01*
X538226Y618490D01*
X536702Y616966D01*
X538226D01*
X539750Y615442D01*
X508000Y549910D02*
X510540Y552450D01*
X513080D01*
X510540Y554990D01*
X513080Y557530D01*
X510540D01*
X508000Y560070D01*
X505460Y557530D01*
X502920D01*
X505460Y554990D01*
X502920Y552450D01*
X505460D01*
X508000Y549910D01*
Y551942D02*
X509524Y553466D01*
X511048D01*
X509524Y554990D01*
X511048Y556514D01*
X509524D01*
X508000Y558038D01*
X506476Y556514D01*
X504952D01*
X506476Y554990D01*
X504952Y553466D01*
X506476D01*
X508000Y551942D01*
X539750Y359410D02*
X542290Y361950D01*
X544830D01*
X542290Y364490D01*
X544830Y367030D01*
X542290D01*
X539750Y369570D01*
X537210Y367030D01*
X534670D01*
X537210Y364490D01*
X534670Y361950D01*
X537210D01*
X539750Y359410D01*
Y361442D02*
X541274Y362966D01*
X542798D01*
X541274Y364490D01*
X542798Y366014D01*
X541274D01*
X539750Y367538D01*
X538226Y366014D01*
X536702D01*
X538226Y364490D01*
X536702Y362966D01*
X538226D01*
X539750Y361442D01*
Y232410D02*
X542290Y234950D01*
X544830D01*
X542290Y237490D01*
X544830Y240030D01*
X542290D01*
X539750Y242570D01*
X537210Y240030D01*
X534670D01*
X537210Y237490D01*
X534670Y234950D01*
X537210D01*
X539750Y232410D01*
Y234442D02*
X541274Y235966D01*
X542798D01*
X541274Y237490D01*
X542798Y239014D01*
X541274D01*
X539750Y240538D01*
X538226Y239014D01*
X536702D01*
X538226Y237490D01*
X536702Y235966D01*
X538226D01*
X539750Y234442D01*
X508000Y168910D02*
X510540Y171450D01*
X513080D01*
X510540Y173990D01*
X513080Y176530D01*
X510540D01*
X508000Y179070D01*
X505460Y176530D01*
X502920D01*
X505460Y173990D01*
X502920Y171450D01*
X505460D01*
X508000Y168910D01*
Y170942D02*
X509524Y172466D01*
X511048D01*
X509524Y173990D01*
X511048Y175514D01*
X509524D01*
X508000Y177038D01*
X506476Y175514D01*
X504952D01*
X506476Y173990D01*
X504952Y172466D01*
X506476D01*
X508000Y170942D01*
Y41910D02*
X510540Y44450D01*
X513080D01*
X510540Y46990D01*
X513080Y49530D01*
X510540D01*
X508000Y52070D01*
X505460Y49530D01*
X502920D01*
X505460Y46990D01*
X502920Y44450D01*
X505460D01*
X508000Y41910D01*
Y43942D02*
X509524Y45466D01*
X511048D01*
X509524Y46990D01*
X511048Y48514D01*
X509524D01*
X508000Y50038D01*
X506476Y48514D01*
X504952D01*
X506476Y46990D01*
X504952Y45466D01*
X506476D01*
X508000Y43942D01*
X444500Y930910D02*
X447040Y933450D01*
X449580D01*
X447040Y935990D01*
X449580Y938530D01*
X447040D01*
X444500Y941070D01*
X441960Y938530D01*
X439420D01*
X441960Y935990D01*
X439420Y933450D01*
X441960D01*
X444500Y930910D01*
Y932942D02*
X446024Y934466D01*
X447548D01*
X446024Y935990D01*
X447548Y937514D01*
X446024D01*
X444500Y939038D01*
X442976Y937514D01*
X441452D01*
X442976Y935990D01*
X441452Y934466D01*
X442976D01*
X444500Y932942D01*
Y549910D02*
X447040Y552450D01*
X449580D01*
X447040Y554990D01*
X449580Y557530D01*
X447040D01*
X444500Y560070D01*
X441960Y557530D01*
X439420D01*
X441960Y554990D01*
X439420Y552450D01*
X441960D01*
X444500Y549910D01*
Y551942D02*
X446024Y553466D01*
X447548D01*
X446024Y554990D01*
X447548Y556514D01*
X446024D01*
X444500Y558038D01*
X442976Y556514D01*
X441452D01*
X442976Y554990D01*
X441452Y553466D01*
X442976D01*
X444500Y551942D01*
X476250Y486410D02*
X478790Y488950D01*
X481330D01*
X478790Y491490D01*
X481330Y494030D01*
X478790D01*
X476250Y496570D01*
X473710Y494030D01*
X471170D01*
X473710Y491490D01*
X471170Y488950D01*
X473710D01*
X476250Y486410D01*
Y488442D02*
X477774Y489966D01*
X479298D01*
X477774Y491490D01*
X479298Y493014D01*
X477774D01*
X476250Y494538D01*
X474726Y493014D01*
X473202D01*
X474726Y491490D01*
X473202Y489966D01*
X474726D01*
X476250Y488442D01*
X444500Y41910D02*
X447040Y44450D01*
X449580D01*
X447040Y46990D01*
X449580Y49530D01*
X447040D01*
X444500Y52070D01*
X441960Y49530D01*
X439420D01*
X441960Y46990D01*
X439420Y44450D01*
X441960D01*
X444500Y41910D01*
Y43942D02*
X446024Y45466D01*
X447548D01*
X446024Y46990D01*
X447548Y48514D01*
X446024D01*
X444500Y50038D01*
X442976Y48514D01*
X441452D01*
X442976Y46990D01*
X441452Y45466D01*
X442976D01*
X444500Y43942D01*
X412750Y867410D02*
X415290Y869950D01*
X417830D01*
X415290Y872490D01*
X417830Y875030D01*
X415290D01*
X412750Y877570D01*
X410210Y875030D01*
X407670D01*
X410210Y872490D01*
X407670Y869950D01*
X410210D01*
X412750Y867410D01*
Y869442D02*
X414274Y870966D01*
X415798D01*
X414274Y872490D01*
X415798Y874014D01*
X414274D01*
X412750Y875538D01*
X411226Y874014D01*
X409702D01*
X411226Y872490D01*
X409702Y870966D01*
X411226D01*
X412750Y869442D01*
Y613410D02*
X415290Y615950D01*
X417830D01*
X415290Y618490D01*
X417830Y621030D01*
X415290D01*
X412750Y623570D01*
X410210Y621030D01*
X407670D01*
X410210Y618490D01*
X407670Y615950D01*
X410210D01*
X412750Y613410D01*
Y615442D02*
X414274Y616966D01*
X415798D01*
X414274Y618490D01*
X415798Y620014D01*
X414274D01*
X412750Y621538D01*
X411226Y620014D01*
X409702D01*
X411226Y618490D01*
X409702Y616966D01*
X411226D01*
X412750Y615442D01*
X381000Y549910D02*
X383540Y552450D01*
X386080D01*
X383540Y554990D01*
X386080Y557530D01*
X383540D01*
X381000Y560070D01*
X378460Y557530D01*
X375920D01*
X378460Y554990D01*
X375920Y552450D01*
X378460D01*
X381000Y549910D01*
Y551942D02*
X382524Y553466D01*
X384048D01*
X382524Y554990D01*
X384048Y556514D01*
X382524D01*
X381000Y558038D01*
X379476Y556514D01*
X377952D01*
X379476Y554990D01*
X377952Y553466D01*
X379476D01*
X381000Y551942D01*
X412750Y232410D02*
X415290Y234950D01*
X417830D01*
X415290Y237490D01*
X417830Y240030D01*
X415290D01*
X412750Y242570D01*
X410210Y240030D01*
X407670D01*
X410210Y237490D01*
X407670Y234950D01*
X410210D01*
X412750Y232410D01*
Y234442D02*
X414274Y235966D01*
X415798D01*
X414274Y237490D01*
X415798Y239014D01*
X414274D01*
X412750Y240538D01*
X411226Y239014D01*
X409702D01*
X411226Y237490D01*
X409702Y235966D01*
X411226D01*
X412750Y234442D01*
X381000Y41910D02*
X383540Y44450D01*
X386080D01*
X383540Y46990D01*
X386080Y49530D01*
X383540D01*
X381000Y52070D01*
X378460Y49530D01*
X375920D01*
X378460Y46990D01*
X375920Y44450D01*
X378460D01*
X381000Y41910D01*
Y43942D02*
X382524Y45466D01*
X384048D01*
X382524Y46990D01*
X384048Y48514D01*
X382524D01*
X381000Y50038D01*
X379476Y48514D01*
X377952D01*
X379476Y46990D01*
X377952Y45466D01*
X379476D01*
X381000Y43942D01*
X317500Y930910D02*
X320040Y933450D01*
X322580D01*
X320040Y935990D01*
X322580Y938530D01*
X320040D01*
X317500Y941070D01*
X314960Y938530D01*
X312420D01*
X314960Y935990D01*
X312420Y933450D01*
X314960D01*
X317500Y930910D01*
Y932942D02*
X319024Y934466D01*
X320548D01*
X319024Y935990D01*
X320548Y937514D01*
X319024D01*
X317500Y939038D01*
X315976Y937514D01*
X314452D01*
X315976Y935990D01*
X314452Y934466D01*
X315976D01*
X317500Y932942D01*
X349250Y867410D02*
X351790Y869950D01*
X354330D01*
X351790Y872490D01*
X354330Y875030D01*
X351790D01*
X349250Y877570D01*
X346710Y875030D01*
X344170D01*
X346710Y872490D01*
X344170Y869950D01*
X346710D01*
X349250Y867410D01*
Y869442D02*
X350774Y870966D01*
X352298D01*
X350774Y872490D01*
X352298Y874014D01*
X350774D01*
X349250Y875538D01*
X347726Y874014D01*
X346202D01*
X347726Y872490D01*
X346202Y870966D01*
X347726D01*
X349250Y869442D01*
X317500Y803910D02*
X320040Y806450D01*
X322580D01*
X320040Y808990D01*
X322580Y811530D01*
X320040D01*
X317500Y814070D01*
X314960Y811530D01*
X312420D01*
X314960Y808990D01*
X312420Y806450D01*
X314960D01*
X317500Y803910D01*
Y805942D02*
X319024Y807466D01*
X320548D01*
X319024Y808990D01*
X320548Y810514D01*
X319024D01*
X317500Y812038D01*
X315976Y810514D01*
X314452D01*
X315976Y808990D01*
X314452Y807466D01*
X315976D01*
X317500Y805942D01*
X349250Y740410D02*
X351790Y742950D01*
X354330D01*
X351790Y745490D01*
X354330Y748030D01*
X351790D01*
X349250Y750570D01*
X346710Y748030D01*
X344170D01*
X346710Y745490D01*
X344170Y742950D01*
X346710D01*
X349250Y740410D01*
Y742442D02*
X350774Y743966D01*
X352298D01*
X350774Y745490D01*
X352298Y747014D01*
X350774D01*
X349250Y748538D01*
X347726Y747014D01*
X346202D01*
X347726Y745490D01*
X346202Y743966D01*
X347726D01*
X349250Y742442D01*
Y613410D02*
X351790Y615950D01*
X354330D01*
X351790Y618490D01*
X354330Y621030D01*
X351790D01*
X349250Y623570D01*
X346710Y621030D01*
X344170D01*
X346710Y618490D01*
X344170Y615950D01*
X346710D01*
X349250Y613410D01*
Y615442D02*
X350774Y616966D01*
X352298D01*
X350774Y618490D01*
X352298Y620014D01*
X350774D01*
X349250Y621538D01*
X347726Y620014D01*
X346202D01*
X347726Y618490D01*
X346202Y616966D01*
X347726D01*
X349250Y615442D01*
X317500Y549910D02*
X320040Y552450D01*
X322580D01*
X320040Y554990D01*
X322580Y557530D01*
X320040D01*
X317500Y560070D01*
X314960Y557530D01*
X312420D01*
X314960Y554990D01*
X312420Y552450D01*
X314960D01*
X317500Y549910D01*
Y551942D02*
X319024Y553466D01*
X320548D01*
X319024Y554990D01*
X320548Y556514D01*
X319024D01*
X317500Y558038D01*
X315976Y556514D01*
X314452D01*
X315976Y554990D01*
X314452Y553466D01*
X315976D01*
X317500Y551942D01*
X349250Y232410D02*
X351790Y234950D01*
X354330D01*
X351790Y237490D01*
X354330Y240030D01*
X351790D01*
X349250Y242570D01*
X346710Y240030D01*
X344170D01*
X346710Y237490D01*
X344170Y234950D01*
X346710D01*
X349250Y232410D01*
Y234442D02*
X350774Y235966D01*
X352298D01*
X350774Y237490D01*
X352298Y239014D01*
X350774D01*
X349250Y240538D01*
X347726Y239014D01*
X346202D01*
X347726Y237490D01*
X346202Y235966D01*
X347726D01*
X349250Y234442D01*
X317500Y41910D02*
X320040Y44450D01*
X322580D01*
X320040Y46990D01*
X322580Y49530D01*
X320040D01*
X317500Y52070D01*
X314960Y49530D01*
X312420D01*
X314960Y46990D01*
X312420Y44450D01*
X314960D01*
X317500Y41910D01*
Y43942D02*
X319024Y45466D01*
X320548D01*
X319024Y46990D01*
X320548Y48514D01*
X319024D01*
X317500Y50038D01*
X315976Y48514D01*
X314452D01*
X315976Y46990D01*
X314452Y45466D01*
X315976D01*
X317500Y43942D01*
X254000Y930910D02*
X256540Y933450D01*
X259080D01*
X256540Y935990D01*
X259080Y938530D01*
X256540D01*
X254000Y941070D01*
X251460Y938530D01*
X248920D01*
X251460Y935990D01*
X248920Y933450D01*
X251460D01*
X254000Y930910D01*
Y932942D02*
X255524Y934466D01*
X257048D01*
X255524Y935990D01*
X257048Y937514D01*
X255524D01*
X254000Y939038D01*
X252476Y937514D01*
X250952D01*
X252476Y935990D01*
X250952Y934466D01*
X252476D01*
X254000Y932942D01*
Y549910D02*
X256540Y552450D01*
X259080D01*
X256540Y554990D01*
X259080Y557530D01*
X256540D01*
X254000Y560070D01*
X251460Y557530D01*
X248920D01*
X251460Y554990D01*
X248920Y552450D01*
X251460D01*
X254000Y549910D01*
Y551942D02*
X255524Y553466D01*
X257048D01*
X255524Y554990D01*
X257048Y556514D01*
X255524D01*
X254000Y558038D01*
X252476Y556514D01*
X250952D01*
X252476Y554990D01*
X250952Y553466D01*
X252476D01*
X254000Y551942D01*
Y41910D02*
X256540Y44450D01*
X259080D01*
X256540Y46990D01*
X259080Y49530D01*
X256540D01*
X254000Y52070D01*
X251460Y49530D01*
X248920D01*
X251460Y46990D01*
X248920Y44450D01*
X251460D01*
X254000Y41910D01*
Y43942D02*
X255524Y45466D01*
X257048D01*
X255524Y46990D01*
X257048Y48514D01*
X255524D01*
X254000Y50038D01*
X252476Y48514D01*
X250952D01*
X252476Y46990D01*
X250952Y45466D01*
X252476D01*
X254000Y43942D01*
X190500Y549910D02*
X193040Y552450D01*
X195580D01*
X193040Y554990D01*
X195580Y557530D01*
X193040D01*
X190500Y560070D01*
X187960Y557530D01*
X185420D01*
X187960Y554990D01*
X185420Y552450D01*
X187960D01*
X190500Y549910D01*
Y551942D02*
X192024Y553466D01*
X193548D01*
X192024Y554990D01*
X193548Y556514D01*
X192024D01*
X190500Y558038D01*
X188976Y556514D01*
X187452D01*
X188976Y554990D01*
X187452Y553466D01*
X188976D01*
X190500Y551942D01*
X158750Y740410D02*
X161290Y742950D01*
X163830D01*
X161290Y745490D01*
X163830Y748030D01*
X161290D01*
X158750Y750570D01*
X156210Y748030D01*
X153670D01*
X156210Y745490D01*
X153670Y742950D01*
X156210D01*
X158750Y740410D01*
Y742442D02*
X160274Y743966D01*
X161798D01*
X160274Y745490D01*
X161798Y747014D01*
X160274D01*
X158750Y748538D01*
X157226Y747014D01*
X155702D01*
X157226Y745490D01*
X155702Y743966D01*
X157226D01*
X158750Y742442D01*
Y613410D02*
X161290Y615950D01*
X163830D01*
X161290Y618490D01*
X163830Y621030D01*
X161290D01*
X158750Y623570D01*
X156210Y621030D01*
X153670D01*
X156210Y618490D01*
X153670Y615950D01*
X156210D01*
X158750Y613410D01*
Y615442D02*
X160274Y616966D01*
X161798D01*
X160274Y618490D01*
X161798Y620014D01*
X160274D01*
X158750Y621538D01*
X157226Y620014D01*
X155702D01*
X157226Y618490D01*
X155702Y616966D01*
X157226D01*
X158750Y615442D01*
X127000Y549910D02*
X129540Y552450D01*
X132080D01*
X129540Y554990D01*
X132080Y557530D01*
X129540D01*
X127000Y560070D01*
X124460Y557530D01*
X121920D01*
X124460Y554990D01*
X121920Y552450D01*
X124460D01*
X127000Y549910D01*
Y551942D02*
X128524Y553466D01*
X130048D01*
X128524Y554990D01*
X130048Y556514D01*
X128524D01*
X127000Y558038D01*
X125476Y556514D01*
X123952D01*
X125476Y554990D01*
X123952Y553466D01*
X125476D01*
X127000Y551942D01*
Y295910D02*
X129540Y298450D01*
X132080D01*
X129540Y300990D01*
X132080Y303530D01*
X129540D01*
X127000Y306070D01*
X124460Y303530D01*
X121920D01*
X124460Y300990D01*
X121920Y298450D01*
X124460D01*
X127000Y295910D01*
Y297942D02*
X128524Y299466D01*
X130048D01*
X128524Y300990D01*
X130048Y302514D01*
X128524D01*
X127000Y304038D01*
X125476Y302514D01*
X123952D01*
X125476Y300990D01*
X123952Y299466D01*
X125476D01*
X127000Y297942D01*
X158750Y232410D02*
X161290Y234950D01*
X163830D01*
X161290Y237490D01*
X163830Y240030D01*
X161290D01*
X158750Y242570D01*
X156210Y240030D01*
X153670D01*
X156210Y237490D01*
X153670Y234950D01*
X156210D01*
X158750Y232410D01*
Y234442D02*
X160274Y235966D01*
X161798D01*
X160274Y237490D01*
X161798Y239014D01*
X160274D01*
X158750Y240538D01*
X157226Y239014D01*
X155702D01*
X157226Y237490D01*
X155702Y235966D01*
X157226D01*
X158750Y234442D01*
X63500Y803910D02*
X66040Y806450D01*
X68580D01*
X66040Y808990D01*
X68580Y811530D01*
X66040D01*
X63500Y814070D01*
X60960Y811530D01*
X58420D01*
X60960Y808990D01*
X58420Y806450D01*
X60960D01*
X63500Y803910D01*
Y805942D02*
X65024Y807466D01*
X66548D01*
X65024Y808990D01*
X66548Y810514D01*
X65024D01*
X63500Y812038D01*
X61976Y810514D01*
X60452D01*
X61976Y808990D01*
X60452Y807466D01*
X61976D01*
X63500Y805942D01*
X95250Y740410D02*
X97790Y742950D01*
X100330D01*
X97790Y745490D01*
X100330Y748030D01*
X97790D01*
X95250Y750570D01*
X92710Y748030D01*
X90170D01*
X92710Y745490D01*
X90170Y742950D01*
X92710D01*
X95250Y740410D01*
Y742442D02*
X96774Y743966D01*
X98298D01*
X96774Y745490D01*
X98298Y747014D01*
X96774D01*
X95250Y748538D01*
X93726Y747014D01*
X92202D01*
X93726Y745490D01*
X92202Y743966D01*
X93726D01*
X95250Y742442D01*
Y613410D02*
X97790Y615950D01*
X100330D01*
X97790Y618490D01*
X100330Y621030D01*
X97790D01*
X95250Y623570D01*
X92710Y621030D01*
X90170D01*
X92710Y618490D01*
X90170Y615950D01*
X92710D01*
X95250Y613410D01*
Y615442D02*
X96774Y616966D01*
X98298D01*
X96774Y618490D01*
X98298Y620014D01*
X96774D01*
X95250Y621538D01*
X93726Y620014D01*
X92202D01*
X93726Y618490D01*
X92202Y616966D01*
X93726D01*
X95250Y615442D01*
X63500Y549910D02*
X66040Y552450D01*
X68580D01*
X66040Y554990D01*
X68580Y557530D01*
X66040D01*
X63500Y560070D01*
X60960Y557530D01*
X58420D01*
X60960Y554990D01*
X58420Y552450D01*
X60960D01*
X63500Y549910D01*
Y551942D02*
X65024Y553466D01*
X66548D01*
X65024Y554990D01*
X66548Y556514D01*
X65024D01*
X63500Y558038D01*
X61976Y556514D01*
X60452D01*
X61976Y554990D01*
X60452Y553466D01*
X61976D01*
X63500Y551942D01*
Y422910D02*
X66040Y425450D01*
X68580D01*
X66040Y427990D01*
X68580Y430530D01*
X66040D01*
X63500Y433070D01*
X60960Y430530D01*
X58420D01*
X60960Y427990D01*
X58420Y425450D01*
X60960D01*
X63500Y422910D01*
Y424942D02*
X65024Y426466D01*
X66548D01*
X65024Y427990D01*
X66548Y429514D01*
X65024D01*
X63500Y431038D01*
X61976Y429514D01*
X60452D01*
X61976Y427990D01*
X60452Y426466D01*
X61976D01*
X63500Y424942D01*
X95250Y359410D02*
X97790Y361950D01*
X100330D01*
X97790Y364490D01*
X100330Y367030D01*
X97790D01*
X95250Y369570D01*
X92710Y367030D01*
X90170D01*
X92710Y364490D01*
X90170Y361950D01*
X92710D01*
X95250Y359410D01*
Y361442D02*
X96774Y362966D01*
X98298D01*
X96774Y364490D01*
X98298Y366014D01*
X96774D01*
X95250Y367538D01*
X93726Y366014D01*
X92202D01*
X93726Y364490D01*
X92202Y362966D01*
X93726D01*
X95250Y361442D01*
X63500Y295910D02*
X66040Y298450D01*
X68580D01*
X66040Y300990D01*
X68580Y303530D01*
X66040D01*
X63500Y306070D01*
X60960Y303530D01*
X58420D01*
X60960Y300990D01*
X58420Y298450D01*
X60960D01*
X63500Y295910D01*
Y297942D02*
X65024Y299466D01*
X66548D01*
X65024Y300990D01*
X66548Y302514D01*
X65024D01*
X63500Y304038D01*
X61976Y302514D01*
X60452D01*
X61976Y300990D01*
X60452Y299466D01*
X61976D01*
X63500Y297942D01*
X95250Y232410D02*
X97790Y234950D01*
X100330D01*
X97790Y237490D01*
X100330Y240030D01*
X97790D01*
X95250Y242570D01*
X92710Y240030D01*
X90170D01*
X92710Y237490D01*
X90170Y234950D01*
X92710D01*
X95250Y232410D01*
Y234442D02*
X96774Y235966D01*
X98298D01*
X96774Y237490D01*
X98298Y239014D01*
X96774D01*
X95250Y240538D01*
X93726Y239014D01*
X92202D01*
X93726Y237490D01*
X92202Y235966D01*
X93726D01*
X95250Y234442D01*
X63500Y41910D02*
X66040Y44450D01*
X68580D01*
X66040Y46990D01*
X68580Y49530D01*
X66040D01*
X63500Y52070D01*
X60960Y49530D01*
X58420D01*
X60960Y46990D01*
X58420Y44450D01*
X60960D01*
X63500Y41910D01*
Y43942D02*
X65024Y45466D01*
X66548D01*
X65024Y46990D01*
X66548Y48514D01*
X65024D01*
X63500Y50038D01*
X61976Y48514D01*
X60452D01*
X61976Y46990D01*
X60452Y45466D01*
X61976D01*
X63500Y43942D01*
X818613Y780317D02*
X821153Y782857D01*
X823693D01*
X821153Y785397D01*
X823693Y787937D01*
X821153D01*
X818613Y790477D01*
X816073Y787937D01*
X813533D01*
X816073Y785397D01*
X813533Y782857D01*
X816073D01*
X818613Y780317D01*
X784860Y400050D02*
X787400Y402590D01*
X789940D01*
X787400Y405130D01*
X789940Y407670D01*
X787400D01*
X784860Y410210D01*
X782320Y407670D01*
X779780D01*
X782320Y405130D01*
X779780Y402590D01*
X782320D01*
X784860Y400050D01*
X839470Y287020D02*
X842010Y289560D01*
X844550D01*
X842010Y292100D01*
X844550Y294640D01*
X842010D01*
X839470Y297180D01*
X836930Y294640D01*
X834390D01*
X836930Y292100D01*
X834390Y289560D01*
X836930D01*
X839470Y287020D01*
X781050D02*
X783590Y289560D01*
X786130D01*
X783590Y292100D01*
X786130Y294640D01*
X783590D01*
X781050Y297180D01*
X778510Y294640D01*
X775970D01*
X778510Y292100D01*
X775970Y289560D01*
X778510D01*
X781050Y287020D01*
X692150Y99060D02*
X694690Y101600D01*
X697230D01*
X694690Y104140D01*
X697230Y106680D01*
X694690D01*
X692150Y109220D01*
X689610Y106680D01*
X687070D01*
X689610Y104140D01*
X687070Y101600D01*
X689610D01*
X692150Y99060D01*
X303530Y179070D02*
X306070Y181610D01*
X308610D01*
X306070Y184150D01*
X308610Y186690D01*
X306070D01*
X303530Y189230D01*
X300990Y186690D01*
X298450D01*
X300990Y184150D01*
X298450Y181610D01*
X300990D01*
X303530Y179070D01*
X860425Y518795D02*
X862965Y521335D01*
X865505D01*
X862965Y523875D01*
X865505Y526415D01*
X862965D01*
X860425Y528955D01*
X857885Y526415D01*
X855345D01*
X857885Y523875D01*
X855345Y521335D01*
X857885D01*
X860425Y518795D01*
X803910Y518160D02*
X806450Y520700D01*
X808990D01*
X806450Y523240D01*
X808990Y525780D01*
X806450D01*
X803910Y528320D01*
X801370Y525780D01*
X798830D01*
X801370Y523240D01*
X798830Y520700D01*
X801370D01*
X803910Y518160D01*
X867410Y463550D02*
X869950Y466090D01*
X872490D01*
X869950Y468630D01*
X872490Y471170D01*
X869950D01*
X867410Y473710D01*
X864870Y471170D01*
X862330D01*
X864870Y468630D01*
X862330Y466090D01*
X864870D01*
X867410Y463550D01*
X704850Y500380D02*
X707390Y502920D01*
X709930D01*
X707390Y505460D01*
X709930Y508000D01*
X707390D01*
X704850Y510540D01*
X702310Y508000D01*
X699770D01*
X702310Y505460D01*
X699770Y502920D01*
X702310D01*
X704850Y500380D01*
X843280Y675640D02*
X845820Y678180D01*
X848360D01*
X845820Y680720D01*
X848360Y683260D01*
X845820D01*
X843280Y685800D01*
X840740Y683260D01*
X838200D01*
X840740Y680720D01*
X838200Y678180D01*
X840740D01*
X843280Y675640D01*
X694690Y518160D02*
X697230Y520700D01*
X699770D01*
X697230Y523240D01*
X699770Y525780D01*
X697230D01*
X694690Y528320D01*
X692150Y525780D01*
X689610D01*
X692150Y523240D01*
X689610Y520700D01*
X692150D01*
X694690Y518160D01*
X814070Y714454D02*
X816610Y716994D01*
X819150D01*
X816610Y719534D01*
X819150Y722074D01*
X816610D01*
X814070Y724614D01*
X811530Y722074D01*
X808990D01*
X811530Y719534D01*
X808990Y716994D01*
X811530D01*
X814070Y714454D01*
X800100Y727710D02*
X802640Y730250D01*
X805180D01*
X802640Y732790D01*
X805180Y735330D01*
X802640D01*
X800100Y737870D01*
X797560Y735330D01*
X795020D01*
X797560Y732790D01*
X795020Y730250D01*
X797560D01*
X800100Y727710D01*
X189230Y891540D02*
X191770Y894080D01*
X194310D01*
X191770Y896620D01*
X194310Y899160D01*
X191770D01*
X189230Y901700D01*
X186690Y899160D01*
X184150D01*
X186690Y896620D01*
X184150Y894080D01*
X186690D01*
X189230Y891540D01*
X179070Y881380D02*
X181610Y883920D01*
X184150D01*
X181610Y886460D01*
X184150Y889000D01*
X181610D01*
X179070Y891540D01*
X176530Y889000D01*
X173990D01*
X176530Y886460D01*
X173990Y883920D01*
X176530D01*
X179070Y881380D01*
X124460Y772160D02*
X127000Y774700D01*
X129540D01*
X127000Y777240D01*
X129540Y779780D01*
X127000D01*
X124460Y782320D01*
X121920Y779780D01*
X119380D01*
X121920Y777240D01*
X119380Y774700D01*
X121920D01*
X124460Y772160D01*
X43180Y668020D02*
X45720Y670560D01*
X48260D01*
X45720Y673100D01*
X48260Y675640D01*
X45720D01*
X43180Y678180D01*
X40640Y675640D01*
X38100D01*
X40640Y673100D01*
X38100Y670560D01*
X40640D01*
X43180Y668020D01*
X647954Y480060D02*
X650494Y482600D01*
X653034D01*
X650494Y485140D01*
X653034Y487680D01*
X650494D01*
X647954Y490220D01*
X645414Y487680D01*
X642874D01*
X645414Y485140D01*
X642874Y482600D01*
X645414D01*
X647954Y480060D01*
X661924Y415755D02*
X664464Y418295D01*
X667004D01*
X664464Y420835D01*
X667004Y423375D01*
X664464D01*
X661924Y425915D01*
X659384Y423375D01*
X656844D01*
X659384Y420835D01*
X656844Y418295D01*
X659384D01*
X661924Y415755D01*
X952500Y727710D02*
X955040Y730250D01*
X957580D01*
X955040Y732790D01*
X957580Y735330D01*
X955040D01*
X952500Y737870D01*
X949960Y735330D01*
X947420D01*
X949960Y732790D01*
X947420Y730250D01*
X949960D01*
X952500Y727710D01*
Y788670D02*
X955040Y791210D01*
X957580D01*
X955040Y793750D01*
X957580Y796290D01*
X955040D01*
X952500Y798830D01*
X949960Y796290D01*
X947420D01*
X949960Y793750D01*
X947420Y791210D01*
X949960D01*
X952500Y788670D01*
X594641Y98657D02*
X597181Y101197D01*
X599721D01*
X597181Y103737D01*
X599721Y106277D01*
X597181D01*
X594641Y108817D01*
X592101Y106277D01*
X589561D01*
X592101Y103737D01*
X589561Y101197D01*
X592101D01*
X594641Y98657D01*
X678180Y737870D02*
X680720Y740410D01*
X683260D01*
X680720Y742950D01*
X683260Y745490D01*
X680720D01*
X678180Y748030D01*
X675640Y745490D01*
X673100D01*
X675640Y742950D01*
X673100Y740410D01*
X675640D01*
X678180Y737870D01*
X842010Y689610D02*
X844550Y692150D01*
X847090D01*
X844550Y694690D01*
X847090Y697230D01*
X844550D01*
X842010Y699770D01*
X839470Y697230D01*
X836930D01*
X839470Y694690D01*
X836930Y692150D01*
X839470D01*
X842010Y689610D01*
X831850Y698500D02*
X834390Y701040D01*
X836930D01*
X834390Y703580D01*
X836930Y706120D01*
X834390D01*
X831850Y708660D01*
X829310Y706120D01*
X826770D01*
X829310Y703580D01*
X826770Y701040D01*
X829310D01*
X831850Y698500D01*
X292100Y236220D02*
X294640Y238760D01*
X297180D01*
X294640Y241300D01*
X297180Y243840D01*
X294640D01*
X292100Y246380D01*
X289560Y243840D01*
X287020D01*
X289560Y241300D01*
X287020Y238760D01*
X289560D01*
X292100Y236220D01*
X525645Y255529D02*
X528185Y258069D01*
X530725D01*
X528185Y260609D01*
X530725Y263149D01*
X528185D01*
X525645Y265689D01*
X523105Y263149D01*
X520565D01*
X523105Y260609D01*
X520565Y258069D01*
X523105D01*
X525645Y255529D01*
X825500Y708660D02*
X828040Y711200D01*
X830580D01*
X828040Y713740D01*
X830580Y716280D01*
X828040D01*
X825500Y718820D01*
X822960Y716280D01*
X820420D01*
X822960Y713740D01*
X820420Y711200D01*
X822960D01*
X825500Y708660D01*
X811530Y727710D02*
X814070Y730250D01*
X816610D01*
X814070Y732790D01*
X816610Y735330D01*
X814070D01*
X811530Y737870D01*
X808990Y735330D01*
X806450D01*
X808990Y732790D01*
X806450Y730250D01*
X808990D01*
X811530Y727710D01*
X279400Y234950D02*
X281940Y237490D01*
X284480D01*
X281940Y240030D01*
X284480Y242570D01*
X281940D01*
X279400Y245110D01*
X276860Y242570D01*
X274320D01*
X276860Y240030D01*
X274320Y237490D01*
X276860D01*
X279400Y234950D01*
X266700Y236220D02*
X269240Y238760D01*
X271780D01*
X269240Y241300D01*
X271780Y243840D01*
X269240D01*
X266700Y246380D01*
X264160Y243840D01*
X261620D01*
X264160Y241300D01*
X261620Y238760D01*
X264160D01*
X266700Y236220D01*
X243840Y250190D02*
X246380Y252730D01*
X248920D01*
X246380Y255270D01*
X248920Y257810D01*
X246380D01*
X243840Y260350D01*
X241300Y257810D01*
X238760D01*
X241300Y255270D01*
X238760Y252730D01*
X241300D01*
X243840Y250190D01*
X218440Y251460D02*
X220980Y254000D01*
X223520D01*
X220980Y256540D01*
X223520Y259080D01*
X220980D01*
X218440Y261620D01*
X215900Y259080D01*
X213360D01*
X215900Y256540D01*
X213360Y254000D01*
X215900D01*
X218440Y251460D01*
X165100Y224790D02*
X167640Y227330D01*
X170180D01*
X167640Y229870D01*
X170180Y232410D01*
X167640D01*
X165100Y234950D01*
X162560Y232410D01*
X160020D01*
X162560Y229870D01*
X160020Y227330D01*
X162560D01*
X165100Y224790D01*
X422910Y149860D02*
X425450Y152400D01*
X427990D01*
X425450Y154940D01*
X427990Y157480D01*
X425450D01*
X422910Y160020D01*
X420370Y157480D01*
X417830D01*
X420370Y154940D01*
X417830Y152400D01*
X420370D01*
X422910Y149860D01*
X772160Y922020D02*
X774700Y924560D01*
X777240D01*
X774700Y927100D01*
X777240Y929640D01*
X774700D01*
X772160Y932180D01*
X769620Y929640D01*
X767080D01*
X769620Y927100D01*
X767080Y924560D01*
X769620D01*
X772160Y922020D01*
X252730Y711200D02*
X255270Y713740D01*
X257810D01*
X255270Y716280D01*
X257810Y718820D01*
X255270D01*
X252730Y721360D01*
X250190Y718820D01*
X247650D01*
X250190Y716280D01*
X247650Y713740D01*
X250190D01*
X252730Y711200D01*
X210820Y687070D02*
X213360Y689610D01*
X215900D01*
X213360Y692150D01*
X215900Y694690D01*
X213360D01*
X210820Y697230D01*
X208280Y694690D01*
X205740D01*
X208280Y692150D01*
X205740Y689610D01*
X208280D01*
X210820Y687070D01*
X220980Y626110D02*
X223520Y628650D01*
X226060D01*
X223520Y631190D01*
X226060Y633730D01*
X223520D01*
X220980Y636270D01*
X218440Y633730D01*
X215900D01*
X218440Y631190D01*
X215900Y628650D01*
X218440D01*
X220980Y626110D01*
X233680Y642620D02*
X236220Y645160D01*
X238760D01*
X236220Y647700D01*
X238760Y650240D01*
X236220D01*
X233680Y652780D01*
X231140Y650240D01*
X228600D01*
X231140Y647700D01*
X228600Y645160D01*
X231140D01*
X233680Y642620D01*
X482600Y698500D02*
X485140Y701040D01*
X487680D01*
X485140Y703580D01*
X487680Y706120D01*
X485140D01*
X482600Y708660D01*
X480060Y706120D01*
X477520D01*
X480060Y703580D01*
X477520Y701040D01*
X480060D01*
X482600Y698500D01*
X406400Y626110D02*
X408940Y628650D01*
X411480D01*
X408940Y631190D01*
X411480Y633730D01*
X408940D01*
X406400Y636270D01*
X403860Y633730D01*
X401320D01*
X403860Y631190D01*
X401320Y628650D01*
X403860D01*
X406400Y626110D01*
X514350Y619760D02*
X516890Y622300D01*
X519430D01*
X516890Y624840D01*
X519430Y627380D01*
X516890D01*
X514350Y629920D01*
X511810Y627380D01*
X509270D01*
X511810Y624840D01*
X509270Y622300D01*
X511810D01*
X514350Y619760D01*
X749300Y788670D02*
X751840Y791210D01*
X754380D01*
X751840Y793750D01*
X754380Y796290D01*
X751840D01*
X749300Y798830D01*
X746760Y796290D01*
X744220D01*
X746760Y793750D01*
X744220Y791210D01*
X746760D01*
X749300Y788670D01*
Y800100D02*
X751840Y802640D01*
X754380D01*
X751840Y805180D01*
X754380Y807720D01*
X751840D01*
X749300Y810260D01*
X746760Y807720D01*
X744220D01*
X746760Y805180D01*
X744220Y802640D01*
X746760D01*
X749300Y800100D01*
X445910Y677370D02*
X448450Y679910D01*
X450990D01*
X448450Y682450D01*
X450990Y684990D01*
X448450D01*
X445910Y687530D01*
X443370Y684990D01*
X440830D01*
X443370Y682450D01*
X440830Y679910D01*
X443370D01*
X445910Y677370D01*
X195580Y650240D02*
X198120Y652780D01*
X200660D01*
X198120Y655320D01*
X200660Y657860D01*
X198120D01*
X195580Y660400D01*
X193040Y657860D01*
X190500D01*
X193040Y655320D01*
X190500Y652780D01*
X193040D01*
X195580Y650240D01*
X143510Y651510D02*
X146050Y654050D01*
X148590D01*
X146050Y656590D01*
X148590Y659130D01*
X146050D01*
X143510Y661670D01*
X140970Y659130D01*
X138430D01*
X140970Y656590D01*
X138430Y654050D01*
X140970D01*
X143510Y651510D01*
X773430Y852170D02*
X775970Y854710D01*
X778510D01*
X775970Y857250D01*
X778510Y859790D01*
X775970D01*
X773430Y862330D01*
X770890Y859790D01*
X768350D01*
X770890Y857250D01*
X768350Y854710D01*
X770890D01*
X773430Y852170D01*
X68580Y648970D02*
X71120Y651510D01*
X73660D01*
X71120Y654050D01*
X73660Y656590D01*
X71120D01*
X68580Y659130D01*
X66040Y656590D01*
X63500D01*
X66040Y654050D01*
X63500Y651510D01*
X66040D01*
X68580Y648970D01*
X751840Y836930D02*
X754380Y839470D01*
X756920D01*
X754380Y842010D01*
X756920Y844550D01*
X754380D01*
X751840Y847090D01*
X749300Y844550D01*
X746760D01*
X749300Y842010D01*
X746760Y839470D01*
X749300D01*
X751840Y836930D01*
X765810Y840740D02*
X768350Y843280D01*
X770890D01*
X768350Y845820D01*
X770890Y848360D01*
X768350D01*
X765810Y850900D01*
X763270Y848360D01*
X760730D01*
X763270Y845820D01*
X760730Y843280D01*
X763270D01*
X765810Y840740D01*
X502920Y698820D02*
X505460Y701360D01*
X508000D01*
X505460Y703900D01*
X508000Y706440D01*
X505460D01*
X502920Y708980D01*
X500380Y706440D01*
X497840D01*
X500380Y703900D01*
X497840Y701360D01*
X500380D01*
X502920Y698820D01*
X848360Y880110D02*
X850900Y882650D01*
X853440D01*
X850900Y885190D01*
X853440Y887730D01*
X850900D01*
X848360Y890270D01*
X845820Y887730D01*
X843280D01*
X845820Y885190D01*
X843280Y882650D01*
X845820D01*
X848360Y880110D01*
X839470Y887730D02*
X842010Y890270D01*
X844550D01*
X842010Y892810D01*
X844550Y895350D01*
X842010D01*
X839470Y897890D01*
X836930Y895350D01*
X834390D01*
X836930Y892810D01*
X834390Y890270D01*
X836930D01*
X839470Y887730D01*
X821690Y892810D02*
X824230Y895350D01*
X826770D01*
X824230Y897890D01*
X826770Y900430D01*
X824230D01*
X821690Y902970D01*
X819150Y900430D01*
X816610D01*
X819150Y897890D01*
X816610Y895350D01*
X819150D01*
X821690Y892810D01*
X816610Y882650D02*
X819150Y885190D01*
X821690D01*
X819150Y887730D01*
X821690Y890270D01*
X819150D01*
X816610Y892810D01*
X814070Y890270D01*
X811530D01*
X814070Y887730D01*
X811530Y885190D01*
X814070D01*
X816610Y882650D01*
X514350Y835660D02*
X516890Y838200D01*
X519430D01*
X516890Y840740D01*
X519430Y843280D01*
X516890D01*
X514350Y845820D01*
X511810Y843280D01*
X509270D01*
X511810Y840740D01*
X509270Y838200D01*
X511810D01*
X514350Y835660D01*
Y760730D02*
X516890Y763270D01*
X519430D01*
X516890Y765810D01*
X519430Y768350D01*
X516890D01*
X514350Y770890D01*
X511810Y768350D01*
X509270D01*
X511810Y765810D01*
X509270Y763270D01*
X511810D01*
X514350Y760730D01*
X457200Y842010D02*
X459740Y844550D01*
X462280D01*
X459740Y847090D01*
X462280Y849630D01*
X459740D01*
X457200Y852170D01*
X454660Y849630D01*
X452120D01*
X454660Y847090D01*
X452120Y844550D01*
X454660D01*
X457200Y842010D01*
X462280Y773430D02*
X464820Y775970D01*
X467360D01*
X464820Y778510D01*
X467360Y781050D01*
X464820D01*
X462280Y783590D01*
X459740Y781050D01*
X457200D01*
X459740Y778510D01*
X457200Y775970D01*
X459740D01*
X462280Y773430D01*
X204470Y134620D02*
X207010Y137160D01*
X209550D01*
X207010Y139700D01*
X209550Y142240D01*
X207010D01*
X204470Y144780D01*
X201930Y142240D01*
X199390D01*
X201930Y139700D01*
X199390Y137160D01*
X201930D01*
X204470Y134620D01*
X515620Y260350D02*
X518160Y262890D01*
X520700D01*
X518160Y265430D01*
X520700Y267970D01*
X518160D01*
X515620Y270510D01*
X513080Y267970D01*
X510540D01*
X513080Y265430D01*
X510540Y262890D01*
X513080D01*
X515620Y260350D01*
X303530Y193040D02*
X306070Y195580D01*
X308610D01*
X306070Y198120D01*
X308610Y200660D01*
X306070D01*
X303530Y203200D01*
X300990Y200660D01*
X298450D01*
X300990Y198120D01*
X298450Y195580D01*
X300990D01*
X303530Y193040D01*
D150*
X909020Y464231D02*
G03*
X909020Y464231I-5080J0D01*
G01*
Y450230D02*
G03*
X909020Y450230I-5080J0D01*
G01*
Y436230D02*
G03*
X909020Y436230I-5080J0D01*
G01*
Y422229D02*
G03*
X909020Y422229I-5080J0D01*
G01*
X34150Y840740D02*
G03*
X34150Y840740I-5080J0D01*
G01*
Y790740D02*
G03*
X34150Y790740I-5080J0D01*
G01*
X84150D02*
G03*
X84150Y790740I-5080J0D01*
G01*
Y840740D02*
G03*
X84150Y840740I-5080J0D01*
G01*
D151*
X906989Y464231D02*
G03*
X906989Y464231I-3048J0D01*
G01*
Y450230D02*
G03*
X906989Y450230I-3048J0D01*
G01*
Y436230D02*
G03*
X906989Y436230I-3048J0D01*
G01*
Y422229D02*
G03*
X906989Y422229I-3048J0D01*
G01*
M02*
