G04*
G04 #@! TF.GenerationSoftware,Altium Limited,Altium Designer,22.11.1 (43)*
G04*
G04 Layer_Color=32768*
%FSLAX44Y44*%
%MOMM*%
G71*
G04*
G04 #@! TF.SameCoordinates,C47467C8-9064-4A8D-955C-1DE8D4ADFDDE*
G04*
G04*
G04 #@! TF.FilePolarity,Positive*
G04*
G01*
G75*
G36*
X797308Y785391D02*
X793108D01*
Y787591D01*
X797308D01*
Y785391D01*
D02*
G37*
G36*
Y780389D02*
X793108D01*
Y782589D01*
X797308D01*
Y780389D01*
D02*
G37*
G36*
Y775391D02*
X793108D01*
Y777591D01*
X797308D01*
Y775391D01*
D02*
G37*
G36*
Y770389D02*
X793108D01*
Y772589D01*
X797308D01*
Y770389D01*
D02*
G37*
G36*
X810808Y754890D02*
X808607D01*
Y759090D01*
X810808D01*
Y754890D01*
D02*
G37*
G36*
X294250Y215666D02*
X289950D01*
Y219366D01*
X294250D01*
Y215666D01*
D02*
G37*
G36*
X281550D02*
X277250D01*
Y219366D01*
X281550D01*
Y215666D01*
D02*
G37*
G36*
X268850D02*
X264550D01*
Y219366D01*
X268850D01*
Y215666D01*
D02*
G37*
G36*
X256150D02*
X251850D01*
Y219366D01*
X256150D01*
Y215666D01*
D02*
G37*
G36*
X243450D02*
X239150D01*
Y219366D01*
X243450D01*
Y215666D01*
D02*
G37*
G36*
X230750D02*
X226450D01*
Y219366D01*
X230750D01*
Y215666D01*
D02*
G37*
G36*
X218050D02*
X213750D01*
Y219366D01*
X218050D01*
Y215666D01*
D02*
G37*
G36*
X205350D02*
X201050D01*
Y219366D01*
X205350D01*
Y215666D01*
D02*
G37*
G36*
X294250Y173166D02*
X289950D01*
Y176866D01*
X294250D01*
Y173166D01*
D02*
G37*
G36*
X281550D02*
X277250D01*
Y176866D01*
X281550D01*
Y173166D01*
D02*
G37*
G36*
X268850D02*
X264550D01*
Y176866D01*
X268850D01*
Y173166D01*
D02*
G37*
G36*
X256150D02*
X251850D01*
Y176866D01*
X256150D01*
Y173166D01*
D02*
G37*
G36*
X243450D02*
X239150D01*
Y176866D01*
X243450D01*
Y173166D01*
D02*
G37*
G36*
X230750D02*
X226450D01*
Y176866D01*
X230750D01*
Y173166D01*
D02*
G37*
G36*
X218050D02*
X213750D01*
Y176866D01*
X218050D01*
Y173166D01*
D02*
G37*
G36*
X205350D02*
X201050D01*
Y176866D01*
X205350D01*
Y173166D01*
D02*
G37*
G36*
X156540Y177444D02*
X159766Y177317D01*
Y165075D01*
X152756D01*
X152832Y177521D01*
X156540Y177444D01*
D02*
G37*
G36*
X110744D02*
X113970Y177317D01*
Y165075D01*
X106959D01*
X107036Y177521D01*
X110744Y177444D01*
D02*
G37*
G36*
X181550Y940140D02*
X177400D01*
Y944540D01*
X181550D01*
Y940140D01*
D02*
G37*
G36*
X139400D02*
X135250D01*
Y944540D01*
X139400D01*
Y940140D01*
D02*
G37*
G36*
X181550Y927440D02*
X177400D01*
Y931840D01*
X181550D01*
Y927440D01*
D02*
G37*
G36*
X139400D02*
X135250D01*
Y931840D01*
X139400D01*
Y927440D01*
D02*
G37*
G36*
X181550Y914740D02*
X177400D01*
Y919140D01*
X181550D01*
Y914740D01*
D02*
G37*
G36*
X139400D02*
X135250D01*
Y919140D01*
X139400D01*
Y914740D01*
D02*
G37*
G36*
X181550Y902040D02*
X177400D01*
Y906440D01*
X181550D01*
Y902040D01*
D02*
G37*
G36*
X139400D02*
X135250D01*
Y906440D01*
X139400D01*
Y902040D01*
D02*
G37*
G36*
X141790Y884859D02*
X140590D01*
Y888059D01*
X141790D01*
Y884859D01*
D02*
G37*
G36*
X123791D02*
X122590D01*
Y888059D01*
X123791D01*
Y884859D01*
D02*
G37*
G36*
X810808Y858890D02*
X808607D01*
Y863090D01*
X810808D01*
Y858890D01*
D02*
G37*
G36*
X797308Y845390D02*
X793108D01*
Y847591D01*
X797308D01*
Y845390D01*
D02*
G37*
G36*
Y840389D02*
X793108D01*
Y842589D01*
X797308D01*
Y840389D01*
D02*
G37*
G36*
Y835390D02*
X793108D01*
Y837591D01*
X797308D01*
Y835390D01*
D02*
G37*
G36*
Y830389D02*
X793108D01*
Y832589D01*
X797308D01*
Y830389D01*
D02*
G37*
G36*
Y825390D02*
X793108D01*
Y827591D01*
X797308D01*
Y825390D01*
D02*
G37*
G36*
Y820389D02*
X793108D01*
Y822589D01*
X797308D01*
Y820389D01*
D02*
G37*
G36*
Y815390D02*
X793108D01*
Y817591D01*
X797308D01*
Y815390D01*
D02*
G37*
G36*
Y810389D02*
X793108D01*
Y812589D01*
X797308D01*
Y810389D01*
D02*
G37*
G36*
Y805391D02*
X793108D01*
Y807591D01*
X797308D01*
Y805391D01*
D02*
G37*
G36*
Y800389D02*
X793108D01*
Y802589D01*
X797308D01*
Y800389D01*
D02*
G37*
G36*
Y795391D02*
X793108D01*
Y797591D01*
X797308D01*
Y795391D01*
D02*
G37*
G36*
Y790389D02*
X793108D01*
Y792589D01*
X797308D01*
Y790389D01*
D02*
G37*
G36*
X813609Y759090D02*
X815809D01*
Y754890D01*
X813609D01*
Y759090D01*
D01*
D02*
G37*
G36*
X818607D02*
X820808D01*
Y754890D01*
X818607D01*
Y759090D01*
D01*
D02*
G37*
G36*
X823609D02*
X825809D01*
Y754890D01*
X823609D01*
Y759090D01*
D01*
D02*
G37*
G36*
X828607D02*
X830808D01*
Y754890D01*
X828607D01*
Y759090D01*
D01*
D02*
G37*
G36*
X833609D02*
X835809D01*
Y754890D01*
X833609D01*
Y759090D01*
D01*
D02*
G37*
G36*
X838607D02*
X840808D01*
Y754890D01*
X838607D01*
Y759090D01*
D01*
D02*
G37*
G36*
X843609D02*
X845809D01*
Y754890D01*
X843609D01*
Y759090D01*
D01*
D02*
G37*
G36*
X848607D02*
X850807D01*
Y754890D01*
X848607D01*
Y759090D01*
D01*
D02*
G37*
G36*
X853609D02*
X855809D01*
Y754890D01*
X853609D01*
Y759090D01*
D01*
D02*
G37*
G36*
X858607D02*
X860807D01*
Y754890D01*
X858607D01*
Y759090D01*
D01*
D02*
G37*
G36*
X863609D02*
X865809D01*
Y754890D01*
X863609D01*
Y759090D01*
D01*
D02*
G37*
G36*
X868607D02*
X870807D01*
Y754890D01*
X868607D01*
Y759090D01*
D01*
D02*
G37*
G36*
X873609D02*
X875809D01*
Y754890D01*
X873609D01*
Y759090D01*
D01*
D02*
G37*
G36*
X878607D02*
X880807D01*
Y754890D01*
X878607D01*
Y759090D01*
D01*
D02*
G37*
G36*
X883609D02*
X885809D01*
Y754890D01*
X883609D01*
Y759090D01*
D01*
D02*
G37*
G36*
X897108Y772589D02*
X901308D01*
Y770389D01*
X897108D01*
Y772589D01*
D01*
D02*
G37*
G36*
Y777591D02*
X901308D01*
Y775391D01*
X897108D01*
Y777591D01*
D01*
D02*
G37*
G36*
Y782589D02*
X901308D01*
Y780389D01*
X897108D01*
Y782589D01*
D01*
D02*
G37*
G36*
Y787591D02*
X901308D01*
Y785391D01*
X897108D01*
Y787591D01*
D01*
D02*
G37*
G36*
Y792589D02*
X901308D01*
Y790389D01*
X897108D01*
Y792589D01*
D01*
D02*
G37*
G36*
Y797591D02*
X901308D01*
Y795391D01*
X897108D01*
Y797591D01*
D01*
D02*
G37*
G36*
Y802589D02*
X901308D01*
Y800389D01*
X897108D01*
Y802589D01*
D01*
D02*
G37*
G36*
Y807591D02*
X901308D01*
Y805391D01*
X897108D01*
Y807591D01*
D01*
D02*
G37*
G36*
X813609Y863090D02*
X815809D01*
Y858890D01*
X813609D01*
Y863090D01*
D01*
D02*
G37*
G36*
X818607D02*
X820808D01*
Y858890D01*
X818607D01*
Y863090D01*
D01*
D02*
G37*
G36*
X823609D02*
X825809D01*
Y858890D01*
X823609D01*
Y863090D01*
D01*
D02*
G37*
G36*
X828607D02*
X830808D01*
Y858890D01*
X828607D01*
Y863090D01*
D01*
D02*
G37*
G36*
X833609D02*
X835809D01*
Y858890D01*
X833609D01*
Y863090D01*
D01*
D02*
G37*
G36*
X838607D02*
X840808D01*
Y858890D01*
X838607D01*
Y863090D01*
D01*
D02*
G37*
G36*
X843609D02*
X845809D01*
Y858890D01*
X843609D01*
Y863090D01*
D01*
D02*
G37*
G36*
X848607D02*
X850807D01*
Y858890D01*
X848607D01*
Y863090D01*
D01*
D02*
G37*
G36*
X853609D02*
X855809D01*
Y858890D01*
X853609D01*
Y863090D01*
D01*
D02*
G37*
G36*
X858607D02*
X860807D01*
Y858890D01*
X858607D01*
Y863090D01*
D01*
D02*
G37*
G36*
X863609D02*
X865809D01*
Y858890D01*
X863609D01*
Y863090D01*
D01*
D02*
G37*
G36*
X868607D02*
X870807D01*
Y858890D01*
X868607D01*
Y863090D01*
D01*
D02*
G37*
G36*
X897108Y812589D02*
X901308D01*
Y810389D01*
X897108D01*
Y812589D01*
D01*
D02*
G37*
G36*
Y817591D02*
X901308D01*
Y815390D01*
X897108D01*
Y817591D01*
D01*
D02*
G37*
G36*
Y822589D02*
X901308D01*
Y820389D01*
X897108D01*
Y822589D01*
D01*
D02*
G37*
G36*
Y827591D02*
X901308D01*
Y825390D01*
X897108D01*
Y827591D01*
D01*
D02*
G37*
G36*
Y832589D02*
X901308D01*
Y830389D01*
X897108D01*
Y832589D01*
D01*
D02*
G37*
G36*
Y837591D02*
X901308D01*
Y835390D01*
X897108D01*
Y837591D01*
D01*
D02*
G37*
G36*
X873609Y863090D02*
X875809D01*
Y858890D01*
X873609D01*
Y863090D01*
D01*
D02*
G37*
G36*
X878607D02*
X880807D01*
Y858890D01*
X878607D01*
Y863090D01*
D01*
D02*
G37*
G36*
X883609D02*
X885809D01*
Y858890D01*
X883609D01*
Y863090D01*
D01*
D02*
G37*
G36*
X897108Y842589D02*
X901308D01*
Y840389D01*
X897108D01*
Y842589D01*
D01*
D02*
G37*
G36*
Y847591D02*
X901308D01*
Y845390D01*
X897108D01*
Y847591D01*
D01*
D02*
G37*
M02*
