G04*
G04 #@! TF.GenerationSoftware,Altium Limited,Altium Designer,22.11.1 (43)*
G04*
G04 Layer_Color=8421504*
%FSLAX44Y44*%
%MOMM*%
G71*
G04*
G04 #@! TF.SameCoordinates,C47467C8-9064-4A8D-955C-1DE8D4ADFDDE*
G04*
G04*
G04 #@! TF.FilePolarity,Positive*
G04*
G01*
G75*
%ADD20R,3.6016X1.2016*%
%ADD21R,1.2917X1.8296*%
%ADD22O,0.3500X1.9215*%
%ADD23C,1.5240*%
%ADD24R,1.0000X1.3995*%
%ADD25R,0.7000X1.2500*%
%ADD26R,3.5000X1.2000*%
%ADD27R,1.9200X0.8400*%
%ADD28R,2.2940X2.1491*%
%ADD29R,3.5000X2.3500*%
%ADD30R,1.1016X0.8516*%
%ADD31R,1.7516X4.6016*%
%ADD32R,2.3426X2.1491*%
%ADD33O,0.5684X1.9502*%
%ADD34O,1.8016X0.8016*%
%ADD35O,1.7450X0.5600*%
%ADD36O,0.4016X1.6016*%
%ADD37O,1.6016X0.4016*%
%ADD38R,5.9995X6.4999*%
%ADD39R,1.3487X2.1996*%
%ADD40R,2.0000X2.0000*%
%ADD41R,1.3995X1.0000*%
%ADD42R,0.5320X1.0375*%
%ADD43R,0.6720X1.5750*%
%ADD44O,1.1400X3.2261*%
%ADD45R,1.2016X3.6016*%
%ADD46R,1.2500X0.7000*%
%ADD47O,0.7036X2.0726*%
%ADD48R,1.4000X1.2000*%
%ADD49R,1.2000X1.4000*%
%ADD50R,4.2400X3.8100*%
G36*
X610150Y975830D02*
Y964330D01*
X609650Y963830D01*
X605450Y963830D01*
Y968280D01*
X600951D01*
Y963880D01*
X596850Y963830D01*
X596350Y964330D01*
Y975830D01*
X596850Y976330D01*
X609650D01*
X610150Y975830D01*
D02*
G37*
G36*
X569510D02*
Y964330D01*
X569010Y963830D01*
X564810Y963830D01*
Y968280D01*
X560311D01*
Y963880D01*
X556210Y963830D01*
X555710Y964330D01*
Y975830D01*
X556210Y976330D01*
X569010D01*
X569510Y975830D01*
D02*
G37*
G36*
X549190D02*
Y964330D01*
X548690Y963830D01*
X544490Y963830D01*
Y968280D01*
X539991D01*
Y963880D01*
X535890Y963830D01*
X535390Y964330D01*
Y975830D01*
X535890Y976330D01*
X548690D01*
X549190Y975830D01*
D02*
G37*
G36*
X589830Y975830D02*
Y964330D01*
X589330Y963830D01*
X585229Y963780D01*
Y968280D01*
X580730D01*
Y963880D01*
X576530Y963830D01*
X576030Y964330D01*
Y975830D01*
X576530Y976330D01*
X589330D01*
X589830Y975830D01*
D02*
G37*
G36*
X427270D02*
Y964330D01*
X426770Y963830D01*
X422669Y963780D01*
Y968280D01*
X418170D01*
Y963880D01*
X413970Y963830D01*
X413470Y964330D01*
Y975830D01*
X413970Y976330D01*
X426770D01*
X427270Y975830D01*
D02*
G37*
G36*
X386021Y975510D02*
Y964010D01*
X385520Y963510D01*
X381321Y963510D01*
Y967960D01*
X376821D01*
Y963560D01*
X372721Y963510D01*
X372220Y964010D01*
Y975510D01*
X372721Y976010D01*
X385520D01*
X386021Y975510D01*
D02*
G37*
G36*
X365040D02*
Y964010D01*
X364540Y963510D01*
X360340Y963510D01*
Y967960D01*
X355840D01*
Y963560D01*
X351740Y963510D01*
X351240Y964010D01*
Y975510D01*
X351740Y976010D01*
X364540D01*
X365040Y975510D01*
D02*
G37*
G36*
X406950Y975510D02*
Y964010D01*
X406450Y963510D01*
X402350Y963460D01*
Y967960D01*
X397850D01*
Y963560D01*
X393650Y963510D01*
X393150Y964010D01*
Y975510D01*
X393650Y976010D01*
X406450D01*
X406950Y975510D01*
D02*
G37*
G36*
X217360Y972870D02*
Y960070D01*
X216860Y959570D01*
X205360D01*
X204860Y960070D01*
X204810Y964171D01*
X209310D01*
Y968670D01*
X204910D01*
X204860Y972870D01*
X205360Y973370D01*
X216860D01*
X217360Y972870D01*
D02*
G37*
G36*
X195860D02*
X195860Y968670D01*
X191410D01*
Y964171D01*
X195810D01*
X195860Y960070D01*
X195360Y959570D01*
X183860D01*
X183360Y960070D01*
Y972870D01*
X183860Y973370D01*
X195360D01*
X195860Y972870D01*
D02*
G37*
G36*
X589830Y954330D02*
Y942830D01*
X589330Y942330D01*
X576530D01*
X576030Y942830D01*
Y954330D01*
X576530Y954830D01*
X580730Y954830D01*
Y950380D01*
X585229D01*
Y954780D01*
X589330Y954830D01*
X589830Y954330D01*
D02*
G37*
G36*
X427270D02*
Y942830D01*
X426770Y942330D01*
X413970D01*
X413470Y942830D01*
Y954330D01*
X413970Y954830D01*
X418170Y954830D01*
Y950380D01*
X422669D01*
Y954780D01*
X426770Y954830D01*
X427270Y954330D01*
D02*
G37*
G36*
X406950Y954010D02*
Y942510D01*
X406450Y942010D01*
X393650D01*
X393150Y942510D01*
Y954010D01*
X393650Y954510D01*
X397850Y954510D01*
Y950060D01*
X402350D01*
Y954460D01*
X406450Y954510D01*
X406950Y954010D01*
D02*
G37*
G36*
X600951Y950380D02*
X605450D01*
Y954780D01*
X609650Y954830D01*
X610150Y954330D01*
Y942830D01*
X609650Y942330D01*
X596850D01*
X596350Y942830D01*
Y954330D01*
X596850Y954830D01*
X600951Y954880D01*
Y950380D01*
D02*
G37*
G36*
X560311D02*
X564810D01*
Y954780D01*
X569010Y954830D01*
X569510Y954330D01*
Y942830D01*
X569010Y942330D01*
X556210D01*
X555710Y942830D01*
Y954330D01*
X556210Y954830D01*
X560311Y954880D01*
Y950380D01*
D02*
G37*
G36*
X539991D02*
X544490D01*
Y954780D01*
X548690Y954830D01*
X549190Y954330D01*
Y942830D01*
X548690Y942330D01*
X535890D01*
X535390Y942830D01*
Y954330D01*
X535890Y954830D01*
X539991Y954880D01*
Y950380D01*
D02*
G37*
G36*
X376821Y950060D02*
X381321D01*
Y954460D01*
X385520Y954510D01*
X386021Y954010D01*
Y942510D01*
X385520Y942010D01*
X372721D01*
X372220Y942510D01*
Y954010D01*
X372721Y954510D01*
X376821Y954560D01*
Y950060D01*
D02*
G37*
G36*
X355840D02*
X360340D01*
Y954460D01*
X364540Y954510D01*
X365040Y954010D01*
Y942510D01*
X364540Y942010D01*
X351740D01*
X351240Y942510D01*
Y954010D01*
X351740Y954510D01*
X355840Y954560D01*
Y950060D01*
D02*
G37*
G36*
X758740Y953609D02*
Y942109D01*
X758240Y941609D01*
X754139Y941558D01*
Y946059D01*
X749640D01*
Y941658D01*
X745440Y941609D01*
X744940Y942109D01*
Y953609D01*
X745440Y954109D01*
X758240D01*
X758740Y953609D01*
D02*
G37*
G36*
X687620Y953600D02*
Y942100D01*
X687120Y941600D01*
X683019Y941550D01*
Y946050D01*
X678520D01*
Y941650D01*
X674320Y941600D01*
X673820Y942100D01*
Y953600D01*
X674320Y954100D01*
X687120D01*
X687620Y953600D01*
D02*
G37*
G36*
X758740Y932109D02*
Y920609D01*
X758240Y920109D01*
X745440D01*
X744940Y920609D01*
Y932109D01*
X745440Y932609D01*
X749640Y932608D01*
Y928159D01*
X754139D01*
Y932559D01*
X758240Y932609D01*
X758740Y932109D01*
D02*
G37*
G36*
X687620Y932100D02*
Y920600D01*
X687120Y920100D01*
X674320D01*
X673820Y920600D01*
Y932100D01*
X674320Y932600D01*
X678520Y932600D01*
Y928150D01*
X683019D01*
Y932550D01*
X687120Y932600D01*
X687620Y932100D01*
D02*
G37*
G36*
X814620Y934550D02*
Y923050D01*
X814120Y922550D01*
X809920Y922550D01*
Y927000D01*
X805421D01*
Y922600D01*
X801320Y922550D01*
X800820Y923050D01*
Y934550D01*
X801320Y935050D01*
X814120D01*
X814620Y934550D01*
D02*
G37*
G36*
X843830Y934550D02*
Y923050D01*
X843330Y922550D01*
X839230Y922500D01*
Y927000D01*
X834730D01*
Y922600D01*
X830530Y922550D01*
X830030Y923050D01*
Y934550D01*
X830530Y935050D01*
X843330D01*
X843830Y934550D01*
D02*
G37*
G36*
Y913050D02*
Y901550D01*
X843330Y901050D01*
X830530D01*
X830030Y901550D01*
Y913050D01*
X830530Y913550D01*
X834730Y913550D01*
Y909100D01*
X839230D01*
Y913500D01*
X843330Y913550D01*
X843830Y913050D01*
D02*
G37*
G36*
X758740Y915828D02*
Y904329D01*
X758240Y903829D01*
X754040Y903829D01*
Y908279D01*
X749540D01*
Y903879D01*
X745440Y903829D01*
X744940Y904329D01*
Y915828D01*
X745440Y916329D01*
X758240D01*
X758740Y915828D01*
D02*
G37*
G36*
X687620Y915820D02*
Y904320D01*
X687120Y903820D01*
X682920Y903820D01*
Y908270D01*
X678420D01*
Y903870D01*
X674320Y903820D01*
X673820Y904320D01*
Y915820D01*
X674320Y916320D01*
X687120D01*
X687620Y915820D01*
D02*
G37*
G36*
X805421Y909100D02*
X809920D01*
Y913500D01*
X814120Y913550D01*
X814620Y913050D01*
Y901550D01*
X814120Y901050D01*
X801320D01*
X800820Y901550D01*
Y913050D01*
X801320Y913550D01*
X805421Y913600D01*
Y909100D01*
D02*
G37*
G36*
X716946Y944168D02*
X717389Y944127D01*
X717830Y944064D01*
X718268Y943981D01*
X718701Y943878D01*
X719129Y943754D01*
X719551Y943611D01*
X719965Y943447D01*
X720371Y943265D01*
X720769Y943064D01*
X721156Y942844D01*
X721533Y942606D01*
X721898Y942351D01*
X722251Y942080D01*
X722591Y941792D01*
X722916Y941488D01*
X723228Y941169D01*
X723524Y940836D01*
X723804Y940490D01*
X724067Y940131D01*
X724314Y939760D01*
X724542Y939378D01*
X724753Y938985D01*
X724945Y938583D01*
X725118Y938173D01*
X725271Y937755D01*
X725405Y937330D01*
X725518Y936899D01*
X725612Y936463D01*
X725684Y936024D01*
X725736Y935582D01*
X725768Y935137D01*
X725778Y934692D01*
Y916150D01*
X725768Y915705D01*
X725736Y915261D01*
X725684Y914818D01*
X725612Y914379D01*
X725518Y913943D01*
X725405Y913512D01*
X725271Y913088D01*
X725118Y912670D01*
X724945Y912259D01*
X724753Y911857D01*
X724542Y911464D01*
X724314Y911082D01*
X724067Y910711D01*
X723804Y910352D01*
X723524Y910006D01*
X723228Y909673D01*
X722916Y909354D01*
X722591Y909051D01*
X722251Y908763D01*
X721898Y908491D01*
X721533Y908236D01*
X721156Y907998D01*
X720769Y907778D01*
X720371Y907577D01*
X719578Y907395D01*
Y890421D01*
X712979D01*
Y907395D01*
X712185Y907577D01*
X711788Y907778D01*
X711400Y907998D01*
X711023Y908236D01*
X710658Y908491D01*
X710305Y908763D01*
X709966Y909051D01*
X709640Y909354D01*
X709329Y909673D01*
X709033Y910006D01*
X708753Y910352D01*
X708489Y910711D01*
X708243Y911082D01*
X708014Y911464D01*
X707803Y911857D01*
X707612Y912259D01*
X707439Y912670D01*
X707285Y913088D01*
X707152Y913512D01*
X707038Y913943D01*
X706945Y914379D01*
X706872Y914818D01*
X706820Y915261D01*
X706789Y915705D01*
X706778Y916150D01*
Y934692D01*
X706789Y935137D01*
X706820Y935582D01*
X706872Y936024D01*
X706945Y936463D01*
X707038Y936899D01*
X707152Y937330D01*
X707285Y937755D01*
X707439Y938173D01*
X707612Y938583D01*
X707803Y938985D01*
X708014Y939378D01*
X708243Y939760D01*
X708489Y940131D01*
X708753Y940490D01*
X709033Y940836D01*
X709329Y941169D01*
X709640Y941488D01*
X709966Y941792D01*
X710305Y942080D01*
X710658Y942351D01*
X711023Y942606D01*
X711400Y942844D01*
X711788Y943064D01*
X712185Y943265D01*
X712591Y943447D01*
X713006Y943611D01*
X713427Y943754D01*
X713855Y943878D01*
X714289Y943981D01*
X714726Y944064D01*
X715167Y944127D01*
X715611Y944168D01*
X716056Y944189D01*
X716501D01*
X716946Y944168D01*
D02*
G37*
G36*
X485470Y895720D02*
Y882920D01*
X484970Y882420D01*
X473470D01*
X472970Y882920D01*
X472970Y887120D01*
X477420D01*
Y891619D01*
X473020D01*
X472970Y895720D01*
X473470Y896220D01*
X484970D01*
X485470Y895720D01*
D02*
G37*
G36*
X463970D02*
X464020Y891619D01*
X459520D01*
Y887120D01*
X463920D01*
X463970Y882920D01*
X463470Y882420D01*
X451970D01*
X451470Y882920D01*
Y895720D01*
X451970Y896220D01*
X463470D01*
X463970Y895720D01*
D02*
G37*
G36*
X749540Y890379D02*
X754040D01*
Y894779D01*
X758240Y894828D01*
X758740Y894329D01*
Y882829D01*
X758240Y882328D01*
X745440D01*
X744940Y882829D01*
Y894329D01*
X745440Y894828D01*
X749540Y894879D01*
Y890379D01*
D02*
G37*
G36*
X678420Y890370D02*
X682920D01*
Y894770D01*
X687120Y894820D01*
X687620Y894320D01*
Y882820D01*
X687120Y882320D01*
X674320D01*
X673820Y882820D01*
Y894320D01*
X674320Y894820D01*
X678420Y894870D01*
Y890370D01*
D02*
G37*
G36*
X169320Y874860D02*
Y863360D01*
X168820Y862860D01*
X164620Y862860D01*
Y867310D01*
X160121D01*
Y862910D01*
X156020Y862860D01*
X155520Y863360D01*
Y874860D01*
X156020Y875360D01*
X168820D01*
X169320Y874860D01*
D02*
G37*
G36*
X190910Y874860D02*
Y863360D01*
X190410Y862860D01*
X186310Y862810D01*
Y867310D01*
X181810D01*
Y862910D01*
X177610Y862860D01*
X177110Y863360D01*
Y874860D01*
X177610Y875360D01*
X190410D01*
X190910Y874860D01*
D02*
G37*
G36*
X485790Y875400D02*
Y862600D01*
X485290Y862100D01*
X473790D01*
X473290Y862600D01*
X473290Y866800D01*
X477740D01*
Y871300D01*
X473340D01*
X473290Y875400D01*
X473790Y875900D01*
X485290D01*
X485790Y875400D01*
D02*
G37*
G36*
X464290D02*
X464340Y871300D01*
X459840D01*
Y866800D01*
X464240D01*
X464290Y862600D01*
X463790Y862100D01*
X452290D01*
X451790Y862600D01*
Y875400D01*
X452290Y875900D01*
X463790D01*
X464290Y875400D01*
D02*
G37*
G36*
X148780Y873810D02*
Y861010D01*
X148280Y860510D01*
X136780D01*
X136280Y861010D01*
X136280Y865210D01*
X140730D01*
Y869709D01*
X136330D01*
X136280Y873810D01*
X136780Y874310D01*
X148280D01*
X148780Y873810D01*
D02*
G37*
G36*
X127280D02*
X127330Y869709D01*
X122830D01*
Y865210D01*
X127230D01*
X127280Y861010D01*
X126780Y860510D01*
X115280D01*
X114780Y861010D01*
Y873810D01*
X115280Y874310D01*
X126780D01*
X127280Y873810D01*
D02*
G37*
G36*
X732170Y868730D02*
Y855930D01*
X731670Y855430D01*
X720170D01*
X719670Y855930D01*
X719620Y860031D01*
X724120D01*
Y864530D01*
X719720D01*
X719670Y868730D01*
X720170Y869230D01*
X731670D01*
X732170Y868730D01*
D02*
G37*
G36*
X710670D02*
X710670Y864530D01*
X706220D01*
Y860031D01*
X710620D01*
X710670Y855930D01*
X710170Y855430D01*
X698670D01*
X698170Y855930D01*
Y868730D01*
X698670Y869230D01*
X710170D01*
X710670Y868730D01*
D02*
G37*
G36*
X190910Y853360D02*
Y841860D01*
X190410Y841360D01*
X177610D01*
X177110Y841860D01*
Y853360D01*
X177610Y853860D01*
X181810Y853860D01*
Y849410D01*
X186310D01*
Y853810D01*
X190410Y853860D01*
X190910Y853360D01*
D02*
G37*
G36*
X160121Y849410D02*
X164620D01*
Y853810D01*
X168820Y853860D01*
X169320Y853360D01*
Y841860D01*
X168820Y841360D01*
X156020D01*
X155520Y841860D01*
Y853360D01*
X156020Y853860D01*
X160121Y853910D01*
Y849410D01*
D02*
G37*
G36*
X148780Y853490D02*
Y840690D01*
X148280Y840190D01*
X136780D01*
X136280Y840690D01*
X136230Y844790D01*
X140730D01*
Y849290D01*
X136330D01*
X136280Y853490D01*
X136780Y853990D01*
X148280D01*
X148780Y853490D01*
D02*
G37*
G36*
X127280D02*
X127280Y849290D01*
X122830D01*
Y844790D01*
X127230D01*
X127280Y840690D01*
X126780Y840190D01*
X115280D01*
X114780Y840690D01*
Y853490D01*
X115280Y853990D01*
X126780D01*
X127280Y853490D01*
D02*
G37*
G36*
X687620Y849780D02*
Y838280D01*
X687120Y837780D01*
X683019Y837730D01*
Y842230D01*
X678520D01*
Y837830D01*
X674320Y837780D01*
X673820Y838280D01*
Y849780D01*
X674320Y850280D01*
X687120D01*
X687620Y849780D01*
D02*
G37*
G36*
Y828280D02*
Y816780D01*
X687120Y816280D01*
X674320D01*
X673820Y816780D01*
Y828280D01*
X674320Y828780D01*
X678520Y828780D01*
Y824330D01*
X683019D01*
Y828730D01*
X687120Y828780D01*
X687620Y828280D01*
D02*
G37*
G36*
X979500Y820470D02*
Y807670D01*
X979000Y807170D01*
X967500D01*
X967000Y807670D01*
X967000Y811870D01*
X971450D01*
Y816369D01*
X967050D01*
X967000Y820470D01*
X967500Y820970D01*
X979000D01*
X979500Y820470D01*
D02*
G37*
G36*
X958000D02*
X958050Y816369D01*
X953550D01*
Y811870D01*
X957950D01*
X958000Y807670D01*
X957500Y807170D01*
X946000D01*
X945500Y807670D01*
Y820470D01*
X946000Y820970D01*
X957500D01*
X958000Y820470D01*
D02*
G37*
G36*
X730580Y810310D02*
Y797510D01*
X730080Y797010D01*
X718580D01*
X718080Y797510D01*
X718080Y801710D01*
X722530D01*
Y806209D01*
X718130D01*
X718080Y810310D01*
X718580Y810810D01*
X730080D01*
X730580Y810310D01*
D02*
G37*
G36*
X709080D02*
X709130Y806209D01*
X704630D01*
Y801710D01*
X709030D01*
X709080Y797510D01*
X708580Y797010D01*
X697080D01*
X696580Y797510D01*
Y810310D01*
X697080Y810810D01*
X708580D01*
X709080Y810310D01*
D02*
G37*
G36*
X979500Y800150D02*
Y787350D01*
X979000Y786850D01*
X967500D01*
X967000Y787350D01*
X966950Y791451D01*
X971450D01*
Y795950D01*
X967050D01*
X967000Y800150D01*
X967500Y800650D01*
X979000D01*
X979500Y800150D01*
D02*
G37*
G36*
X958000D02*
X958000Y795950D01*
X953550D01*
Y791451D01*
X957950D01*
X958000Y787350D01*
X957500Y786850D01*
X946000D01*
X945500Y787350D01*
Y800150D01*
X946000Y800650D01*
X957500D01*
X958000Y800150D01*
D02*
G37*
G36*
X730580Y789990D02*
Y777190D01*
X730080Y776690D01*
X718580D01*
X718080Y777190D01*
X718030Y781291D01*
X722530D01*
Y785790D01*
X718130D01*
X718080Y789990D01*
X718580Y790490D01*
X730080D01*
X730580Y789990D01*
D02*
G37*
G36*
X709080D02*
X709080Y785790D01*
X704630D01*
Y781291D01*
X709030D01*
X709080Y777190D01*
X708580Y776690D01*
X697080D01*
X696580Y777190D01*
Y789990D01*
X697080Y790490D01*
X708580D01*
X709080Y789990D01*
D02*
G37*
G36*
X979500Y779830D02*
Y767030D01*
X979000Y766530D01*
X967500D01*
X967000Y767030D01*
X967000Y771230D01*
X971450D01*
Y775730D01*
X967050D01*
X967000Y779830D01*
X967500Y780330D01*
X979000D01*
X979500Y779830D01*
D02*
G37*
G36*
X958000D02*
X958050Y775730D01*
X953550D01*
Y771230D01*
X957950D01*
X958000Y767030D01*
X957500Y766530D01*
X946000D01*
X945500Y767030D01*
Y779830D01*
X946000Y780330D01*
X957500D01*
X958000Y779830D01*
D02*
G37*
G36*
X730580Y769670D02*
Y756870D01*
X730080Y756370D01*
X718580D01*
X718080Y756870D01*
X718030Y760971D01*
X722530D01*
Y765470D01*
X718130D01*
X718080Y769670D01*
X718580Y770170D01*
X730080D01*
X730580Y769670D01*
D02*
G37*
G36*
X709080D02*
X709080Y765470D01*
X704630D01*
Y760971D01*
X709030D01*
X709080Y756870D01*
X708580Y756370D01*
X697080D01*
X696580Y756870D01*
Y769670D01*
X697080Y770170D01*
X708580D01*
X709080Y769670D01*
D02*
G37*
G36*
X979500Y759510D02*
Y746710D01*
X979000Y746210D01*
X967500D01*
X967000Y746710D01*
X966950Y750810D01*
X971450D01*
Y755310D01*
X967050D01*
X967000Y759510D01*
X967500Y760010D01*
X979000D01*
X979500Y759510D01*
D02*
G37*
G36*
X958000D02*
X958000Y755310D01*
X953550D01*
Y750810D01*
X957950D01*
X958000Y746710D01*
X957500Y746210D01*
X946000D01*
X945500Y746710D01*
Y759510D01*
X946000Y760010D01*
X957500D01*
X958000Y759510D01*
D02*
G37*
G36*
X730580Y749350D02*
Y736550D01*
X730080Y736050D01*
X718580D01*
X718080Y736550D01*
X718080Y740750D01*
X722530D01*
Y745249D01*
X718130D01*
X718080Y749350D01*
X718580Y749850D01*
X730080D01*
X730580Y749350D01*
D02*
G37*
G36*
X709080D02*
X709130Y745249D01*
X704630D01*
Y740750D01*
X709030D01*
X709080Y736550D01*
X708580Y736050D01*
X697080D01*
X696580Y736550D01*
Y749350D01*
X697080Y749850D01*
X708580D01*
X709080Y749350D01*
D02*
G37*
G36*
X979820Y739190D02*
Y726390D01*
X979320Y725890D01*
X967820D01*
X967320Y726390D01*
X967320Y730590D01*
X971770D01*
Y735089D01*
X967370D01*
X967320Y739190D01*
X967820Y739690D01*
X979320D01*
X979820Y739190D01*
D02*
G37*
G36*
X958320D02*
X958370Y735089D01*
X953870D01*
Y730590D01*
X958270D01*
X958320Y726390D01*
X957820Y725890D01*
X946320D01*
X945820Y726390D01*
Y739190D01*
X946320Y739690D01*
X957820D01*
X958320Y739190D01*
D02*
G37*
G36*
X871770Y711350D02*
Y699850D01*
X871270Y699350D01*
X867070Y699350D01*
Y703800D01*
X862570D01*
Y699400D01*
X858470Y699350D01*
X857970Y699850D01*
Y711350D01*
X858470Y711850D01*
X871270D01*
X871770Y711350D01*
D02*
G37*
G36*
X509820Y710400D02*
Y698900D01*
X509320Y698400D01*
X505120Y698400D01*
Y702850D01*
X500620D01*
Y698450D01*
X496520Y698400D01*
X496020Y698900D01*
Y710400D01*
X496520Y710900D01*
X509320D01*
X509820Y710400D01*
D02*
G37*
G36*
X489500Y710400D02*
Y698900D01*
X489000Y698400D01*
X484899Y698350D01*
Y702850D01*
X480400D01*
Y698450D01*
X476200Y698400D01*
X475700Y698900D01*
Y710400D01*
X476200Y710900D01*
X489000D01*
X489500Y710400D01*
D02*
G37*
G36*
X434890D02*
Y698900D01*
X434390Y698400D01*
X430289Y698350D01*
Y702850D01*
X425790D01*
Y698450D01*
X421590Y698400D01*
X421090Y698900D01*
Y710400D01*
X421590Y710900D01*
X434390D01*
X434890Y710400D01*
D02*
G37*
G36*
X489500Y688900D02*
Y677400D01*
X489000Y676900D01*
X476200D01*
X475700Y677400D01*
Y688900D01*
X476200Y689400D01*
X480400Y689400D01*
Y684950D01*
X484899D01*
Y689350D01*
X489000Y689400D01*
X489500Y688900D01*
D02*
G37*
G36*
X434890D02*
Y677400D01*
X434390Y676900D01*
X421590D01*
X421090Y677400D01*
Y688900D01*
X421590Y689400D01*
X425790Y689400D01*
Y684950D01*
X430289D01*
Y689350D01*
X434390Y689400D01*
X434890Y688900D01*
D02*
G37*
G36*
X862570Y685900D02*
X867070D01*
Y690300D01*
X871270Y690350D01*
X871770Y689850D01*
Y678350D01*
X871270Y677850D01*
X858470D01*
X857970Y678350D01*
Y689850D01*
X858470Y690350D01*
X862570Y690400D01*
Y685900D01*
D02*
G37*
G36*
X500620Y684950D02*
X505120D01*
Y689350D01*
X509320Y689400D01*
X509820Y688900D01*
Y677400D01*
X509320Y676900D01*
X496520D01*
X496020Y677400D01*
Y688900D01*
X496520Y689400D01*
X500620Y689450D01*
Y684950D01*
D02*
G37*
G36*
X641900Y637370D02*
Y625870D01*
X641400Y625370D01*
X637299Y625320D01*
Y629820D01*
X632800D01*
Y625420D01*
X628600Y625370D01*
X628100Y625870D01*
Y637370D01*
X628600Y637870D01*
X641400D01*
X641900Y637370D01*
D02*
G37*
G36*
X489500D02*
Y625870D01*
X489000Y625370D01*
X484899Y625320D01*
Y629820D01*
X480400D01*
Y625420D01*
X476200Y625370D01*
X475700Y625870D01*
Y637370D01*
X476200Y637870D01*
X489000D01*
X489500Y637370D01*
D02*
G37*
G36*
X464100D02*
Y625870D01*
X463600Y625370D01*
X459500Y625320D01*
Y629820D01*
X455000D01*
Y625420D01*
X450800Y625370D01*
X450300Y625870D01*
Y637370D01*
X450800Y637870D01*
X463600D01*
X464100Y637370D01*
D02*
G37*
G36*
X434890D02*
Y625870D01*
X434390Y625370D01*
X430289Y625320D01*
Y629820D01*
X425790D01*
Y625420D01*
X421590Y625370D01*
X421090Y625870D01*
Y637370D01*
X421590Y637870D01*
X434390D01*
X434890Y637370D01*
D02*
G37*
G36*
X282490D02*
Y625870D01*
X281990Y625370D01*
X277889Y625320D01*
Y629820D01*
X273390D01*
Y625420D01*
X269190Y625370D01*
X268690Y625870D01*
Y637370D01*
X269190Y637870D01*
X281990D01*
X282490Y637370D01*
D02*
G37*
G36*
X255820D02*
Y625870D01*
X255320Y625370D01*
X251220Y625320D01*
Y629820D01*
X246720D01*
Y625420D01*
X242520Y625370D01*
X242020Y625870D01*
Y637370D01*
X242520Y637870D01*
X255320D01*
X255820Y637370D01*
D02*
G37*
G36*
X227880D02*
Y625870D01*
X227380Y625370D01*
X223279Y625320D01*
Y629820D01*
X218780D01*
Y625420D01*
X214580Y625370D01*
X214080Y625870D01*
Y637370D01*
X214580Y637870D01*
X227380D01*
X227880Y637370D01*
D02*
G37*
G36*
X202480D02*
Y625870D01*
X201980Y625370D01*
X197880Y625320D01*
Y629820D01*
X193380D01*
Y625420D01*
X189180Y625370D01*
X188680Y625870D01*
Y637370D01*
X189180Y637870D01*
X201980D01*
X202480Y637370D01*
D02*
G37*
G36*
X150410D02*
Y625870D01*
X149910Y625370D01*
X145809Y625320D01*
Y629820D01*
X141310D01*
Y625420D01*
X137110Y625370D01*
X136610Y625870D01*
Y637370D01*
X137110Y637870D01*
X149910D01*
X150410Y637370D01*
D02*
G37*
G36*
X75480D02*
Y625870D01*
X74980Y625370D01*
X70880Y625320D01*
Y629820D01*
X66380D01*
Y625420D01*
X62180Y625370D01*
X61680Y625870D01*
Y637370D01*
X62180Y637870D01*
X74980D01*
X75480Y637370D01*
D02*
G37*
G36*
X50080D02*
Y625870D01*
X49580Y625370D01*
X45479Y625320D01*
Y629820D01*
X40980D01*
Y625420D01*
X36780Y625370D01*
X36280Y625870D01*
Y637370D01*
X36780Y637870D01*
X49580D01*
X50080Y637370D01*
D02*
G37*
G36*
X790030Y625919D02*
Y614419D01*
X789530Y613919D01*
X785330Y613919D01*
Y618369D01*
X780831D01*
Y613969D01*
X776730Y613919D01*
X776230Y614419D01*
Y625919D01*
X776730Y626419D01*
X789530D01*
X790030Y625919D01*
D02*
G37*
G36*
X641900Y615870D02*
Y604370D01*
X641400Y603870D01*
X628600D01*
X628100Y604370D01*
Y615870D01*
X628600Y616370D01*
X632800Y616370D01*
Y611920D01*
X637299D01*
Y616320D01*
X641400Y616370D01*
X641900Y615870D01*
D02*
G37*
G36*
X489500D02*
Y604370D01*
X489000Y603870D01*
X476200D01*
X475700Y604370D01*
Y615870D01*
X476200Y616370D01*
X480400Y616370D01*
Y611920D01*
X484899D01*
Y616320D01*
X489000Y616370D01*
X489500Y615870D01*
D02*
G37*
G36*
X464100D02*
Y604370D01*
X463600Y603870D01*
X450800D01*
X450300Y604370D01*
Y615870D01*
X450800Y616370D01*
X455000Y616370D01*
Y611920D01*
X459500D01*
Y616320D01*
X463600Y616370D01*
X464100Y615870D01*
D02*
G37*
G36*
X434890D02*
Y604370D01*
X434390Y603870D01*
X421590D01*
X421090Y604370D01*
Y615870D01*
X421590Y616370D01*
X425790Y616370D01*
Y611920D01*
X430289D01*
Y616320D01*
X434390Y616370D01*
X434890Y615870D01*
D02*
G37*
G36*
X282490D02*
Y604370D01*
X281990Y603870D01*
X269190D01*
X268690Y604370D01*
Y615870D01*
X269190Y616370D01*
X273390Y616370D01*
Y611920D01*
X277889D01*
Y616320D01*
X281990Y616370D01*
X282490Y615870D01*
D02*
G37*
G36*
X255820D02*
Y604370D01*
X255320Y603870D01*
X242520D01*
X242020Y604370D01*
Y615870D01*
X242520Y616370D01*
X246720Y616370D01*
Y611920D01*
X251220D01*
Y616320D01*
X255320Y616370D01*
X255820Y615870D01*
D02*
G37*
G36*
X227880D02*
Y604370D01*
X227380Y603870D01*
X214580D01*
X214080Y604370D01*
Y615870D01*
X214580Y616370D01*
X218780Y616370D01*
Y611920D01*
X223279D01*
Y616320D01*
X227380Y616370D01*
X227880Y615870D01*
D02*
G37*
G36*
X202480D02*
Y604370D01*
X201980Y603870D01*
X189180D01*
X188680Y604370D01*
Y615870D01*
X189180Y616370D01*
X193380Y616370D01*
Y611920D01*
X197880D01*
Y616320D01*
X201980Y616370D01*
X202480Y615870D01*
D02*
G37*
G36*
X150410D02*
Y604370D01*
X149910Y603870D01*
X137110D01*
X136610Y604370D01*
Y615870D01*
X137110Y616370D01*
X141310Y616370D01*
Y611920D01*
X145809D01*
Y616320D01*
X149910Y616370D01*
X150410Y615870D01*
D02*
G37*
G36*
X75480D02*
Y604370D01*
X74980Y603870D01*
X62180D01*
X61680Y604370D01*
Y615870D01*
X62180Y616370D01*
X66380Y616370D01*
Y611920D01*
X70880D01*
Y616320D01*
X74980Y616370D01*
X75480Y615870D01*
D02*
G37*
G36*
X50080D02*
Y604370D01*
X49580Y603870D01*
X36780D01*
X36280Y604370D01*
Y615870D01*
X36780Y616370D01*
X40980Y616370D01*
Y611920D01*
X45479D01*
Y616320D01*
X49580Y616370D01*
X50080Y615870D01*
D02*
G37*
G36*
X780831Y600469D02*
X785330D01*
Y604869D01*
X789530Y604919D01*
X790030Y604419D01*
Y592919D01*
X789530Y592419D01*
X776730D01*
X776230Y592919D01*
Y604419D01*
X776730Y604919D01*
X780831Y604969D01*
Y600469D01*
D02*
G37*
G36*
X790030Y542099D02*
Y530599D01*
X789530Y530099D01*
X785430Y530049D01*
Y534549D01*
X780930D01*
Y530149D01*
X776730Y530099D01*
X776230Y530599D01*
Y542099D01*
X776730Y542599D01*
X789530D01*
X790030Y542099D01*
D02*
G37*
G36*
Y520599D02*
Y509099D01*
X789530Y508599D01*
X776730D01*
X776230Y509099D01*
Y520599D01*
X776730Y521099D01*
X780930Y521099D01*
Y516649D01*
X785430D01*
Y521049D01*
X789530Y521099D01*
X790030Y520599D01*
D02*
G37*
G36*
X795670Y435660D02*
Y422860D01*
X795170Y422360D01*
X783670D01*
X783170Y422860D01*
X783120Y426960D01*
X787620D01*
Y431460D01*
X783220D01*
X783170Y435660D01*
X783670Y436160D01*
X795170D01*
X795670Y435660D01*
D02*
G37*
G36*
X774170D02*
X774170Y431460D01*
X769720D01*
Y426960D01*
X774120D01*
X774170Y422860D01*
X773670Y422360D01*
X762170D01*
X761670Y422860D01*
Y435660D01*
X762170Y436160D01*
X773670D01*
X774170Y435660D01*
D02*
G37*
G36*
X867759Y298129D02*
Y286629D01*
X867259Y286129D01*
X863060Y286129D01*
Y290579D01*
X858560D01*
Y286180D01*
X854460Y286129D01*
X853959Y286629D01*
Y298129D01*
X854460Y298629D01*
X867259D01*
X867759Y298129D01*
D02*
G37*
G36*
X908399Y298130D02*
Y286629D01*
X907899Y286129D01*
X903799Y286079D01*
Y290579D01*
X899299D01*
Y286179D01*
X895099Y286129D01*
X894599Y286629D01*
Y298130D01*
X895099Y298630D01*
X907899D01*
X908399Y298130D01*
D02*
G37*
G36*
X888079D02*
Y286629D01*
X887579Y286129D01*
X883479Y286079D01*
Y290579D01*
X878979D01*
Y286179D01*
X874779Y286129D01*
X874279Y286629D01*
Y298130D01*
X874779Y298630D01*
X887579D01*
X888079Y298130D01*
D02*
G37*
G36*
X847439Y297809D02*
Y286309D01*
X846939Y285809D01*
X842740Y285809D01*
Y290259D01*
X838240D01*
Y285860D01*
X834140Y285809D01*
X833639Y286309D01*
Y297809D01*
X834140Y298309D01*
X846939D01*
X847439Y297809D01*
D02*
G37*
G36*
X908399Y276629D02*
Y265130D01*
X907899Y264629D01*
X895099D01*
X894599Y265130D01*
Y276629D01*
X895099Y277129D01*
X899299Y277129D01*
Y272679D01*
X903799D01*
Y277079D01*
X907899Y277129D01*
X908399Y276629D01*
D02*
G37*
G36*
X888079D02*
Y265130D01*
X887579Y264629D01*
X874779D01*
X874279Y265130D01*
Y276629D01*
X874779Y277129D01*
X878979Y277129D01*
Y272679D01*
X883479D01*
Y277079D01*
X887579Y277129D01*
X888079Y276629D01*
D02*
G37*
G36*
X858560Y272679D02*
X863060D01*
Y277080D01*
X867259Y277129D01*
X867759Y276629D01*
Y265129D01*
X867259Y264629D01*
X854460D01*
X853959Y265129D01*
Y276629D01*
X854460Y277129D01*
X858560Y277180D01*
Y272679D01*
D02*
G37*
G36*
X838240Y272359D02*
X842740D01*
Y276759D01*
X846939Y276809D01*
X847439Y276309D01*
Y264809D01*
X846939Y264309D01*
X834140D01*
X833639Y264809D01*
Y276309D01*
X834140Y276809D01*
X838240Y276859D01*
Y272359D01*
D02*
G37*
G36*
X192320Y232240D02*
Y220740D01*
X191820Y220240D01*
X187719Y220190D01*
Y224690D01*
X183220D01*
Y220290D01*
X179020Y220240D01*
X178520Y220740D01*
Y232240D01*
X179020Y232740D01*
X191820D01*
X192320Y232240D01*
D02*
G37*
G36*
X387680Y228650D02*
Y215850D01*
X387180Y215350D01*
X375680D01*
X375180Y215850D01*
X375130Y219951D01*
X379630D01*
Y224450D01*
X375230D01*
X375180Y228650D01*
X375680Y229150D01*
X387180D01*
X387680Y228650D01*
D02*
G37*
G36*
X366180D02*
X366180Y224450D01*
X361730D01*
Y219951D01*
X366130D01*
X366180Y215850D01*
X365680Y215350D01*
X354180D01*
X353680Y215850D01*
Y228650D01*
X354180Y229150D01*
X365680D01*
X366180Y228650D01*
D02*
G37*
G36*
X192320Y210740D02*
Y199240D01*
X191820Y198740D01*
X179020D01*
X178520Y199240D01*
Y210740D01*
X179020Y211240D01*
X183220Y211240D01*
Y206790D01*
X187719D01*
Y211190D01*
X191820Y211240D01*
X192320Y210740D01*
D02*
G37*
G36*
X169240Y219760D02*
Y206960D01*
X168740Y206460D01*
X157240D01*
X156740Y206960D01*
X156690Y211061D01*
X161190D01*
Y215560D01*
X156790D01*
X156740Y219760D01*
X157240Y220260D01*
X168740D01*
X169240Y219760D01*
D02*
G37*
G36*
X147740D02*
X147740Y215560D01*
X143290D01*
Y211061D01*
X147690D01*
X147740Y206960D01*
X147240Y206460D01*
X135740D01*
X135240Y206960D01*
Y219760D01*
X135740Y220260D01*
X147240D01*
X147740Y219760D01*
D02*
G37*
G36*
X131460D02*
Y206960D01*
X130960Y206460D01*
X119460D01*
X118960Y206960D01*
X118910Y211061D01*
X123410D01*
Y215560D01*
X119010D01*
X118960Y219760D01*
X119460Y220260D01*
X130960D01*
X131460Y219760D01*
D02*
G37*
G36*
X109960D02*
X109960Y215560D01*
X105510D01*
Y211061D01*
X109910D01*
X109960Y206960D01*
X109460Y206460D01*
X97960D01*
X97460Y206960D01*
Y219760D01*
X97960Y220260D01*
X109460D01*
X109960Y219760D01*
D02*
G37*
G36*
X387680Y204520D02*
Y191720D01*
X387180Y191220D01*
X375680D01*
X375180Y191720D01*
X375130Y195821D01*
X379630D01*
Y200320D01*
X375230D01*
X375180Y204520D01*
X375680Y205020D01*
X387180D01*
X387680Y204520D01*
D02*
G37*
G36*
X366180D02*
X366180Y200320D01*
X361730D01*
Y195821D01*
X366130D01*
X366180Y191720D01*
X365680Y191220D01*
X354180D01*
X353680Y191720D01*
Y204520D01*
X354180Y205020D01*
X365680D01*
X366180Y204520D01*
D02*
G37*
G36*
X192320Y194460D02*
Y182960D01*
X191820Y182460D01*
X187719Y182410D01*
Y186910D01*
X183220D01*
Y182510D01*
X179020Y182460D01*
X178520Y182960D01*
Y194460D01*
X179020Y194960D01*
X191820D01*
X192320Y194460D01*
D02*
G37*
G36*
Y172960D02*
Y161460D01*
X191820Y160960D01*
X179020D01*
X178520Y161460D01*
Y172960D01*
X179020Y173460D01*
X183220Y173460D01*
Y169010D01*
X187719D01*
Y173410D01*
X191820Y173460D01*
X192320Y172960D01*
D02*
G37*
G36*
X388000Y180390D02*
Y167590D01*
X387500Y167090D01*
X376000D01*
X375500Y167590D01*
X375450Y171691D01*
X379950D01*
Y176190D01*
X375550D01*
X375500Y180390D01*
X376000Y180890D01*
X387500D01*
X388000Y180390D01*
D02*
G37*
G36*
X366500D02*
X366500Y176190D01*
X362050D01*
Y171691D01*
X366450D01*
X366500Y167590D01*
X366000Y167090D01*
X354500D01*
X354000Y167590D01*
Y180390D01*
X354500Y180890D01*
X366000D01*
X366500Y180390D01*
D02*
G37*
G36*
X678730Y110640D02*
Y99140D01*
X678230Y98640D01*
X674030Y98640D01*
Y103090D01*
X669530D01*
Y98690D01*
X665430Y98640D01*
X664930Y99140D01*
Y110640D01*
X665430Y111140D01*
X678230D01*
X678730Y110640D01*
D02*
G37*
G36*
X719370Y110640D02*
Y99140D01*
X718870Y98640D01*
X714770Y98590D01*
Y103090D01*
X710270D01*
Y98690D01*
X706070Y98640D01*
X705570Y99140D01*
Y110640D01*
X706070Y111140D01*
X718870D01*
X719370Y110640D01*
D02*
G37*
G36*
X699050D02*
Y99140D01*
X698550Y98640D01*
X694449Y98590D01*
Y103090D01*
X689950D01*
Y98690D01*
X685750Y98640D01*
X685250Y99140D01*
Y110640D01*
X685750Y111140D01*
X698550D01*
X699050Y110640D01*
D02*
G37*
G36*
X325670Y110320D02*
Y98820D01*
X325170Y98320D01*
X320970Y98320D01*
Y102770D01*
X316471D01*
Y98370D01*
X312370Y98320D01*
X311870Y98820D01*
Y110320D01*
X312370Y110820D01*
X325170D01*
X325670Y110320D01*
D02*
G37*
G36*
X246930D02*
Y98820D01*
X246430Y98320D01*
X242230Y98320D01*
Y102770D01*
X237731D01*
Y98370D01*
X233630Y98320D01*
X233130Y98820D01*
Y110320D01*
X233630Y110820D01*
X246430D01*
X246930Y110320D01*
D02*
G37*
G36*
X621861Y110237D02*
Y98737D01*
X621361Y98237D01*
X617161Y98237D01*
Y102687D01*
X612662D01*
Y98287D01*
X608561Y98237D01*
X608061Y98737D01*
Y110237D01*
X608561Y110737D01*
X621361D01*
X621861Y110237D01*
D02*
G37*
G36*
X601541Y110237D02*
Y98737D01*
X601041Y98237D01*
X596940Y98187D01*
Y102687D01*
X592440D01*
Y98287D01*
X588241Y98237D01*
X587741Y98737D01*
Y110237D01*
X588241Y110737D01*
X601041D01*
X601541Y110237D01*
D02*
G37*
G36*
X581221D02*
Y98737D01*
X580721Y98237D01*
X576620Y98187D01*
Y102687D01*
X572121D01*
Y98287D01*
X567921Y98237D01*
X567421Y98737D01*
Y110237D01*
X567921Y110737D01*
X580721D01*
X581221Y110237D01*
D02*
G37*
G36*
X719370Y89140D02*
Y77640D01*
X718870Y77140D01*
X706070D01*
X705570Y77640D01*
Y89140D01*
X706070Y89640D01*
X710270Y89640D01*
Y85190D01*
X714770D01*
Y89590D01*
X718870Y89640D01*
X719370Y89140D01*
D02*
G37*
G36*
X699050D02*
Y77640D01*
X698550Y77140D01*
X685750D01*
X685250Y77640D01*
Y89140D01*
X685750Y89640D01*
X689950Y89640D01*
Y85190D01*
X694449D01*
Y89590D01*
X698550Y89640D01*
X699050Y89140D01*
D02*
G37*
G36*
X601541Y88737D02*
Y77237D01*
X601041Y76737D01*
X588241D01*
X587741Y77237D01*
Y88737D01*
X588241Y89237D01*
X592440Y89237D01*
Y84787D01*
X596940D01*
Y89186D01*
X601041Y89237D01*
X601541Y88737D01*
D02*
G37*
G36*
X581221D02*
Y77237D01*
X580721Y76737D01*
X567921D01*
X567421Y77237D01*
Y88737D01*
X567921Y89237D01*
X572121Y89237D01*
Y84787D01*
X576620D01*
Y89186D01*
X580721Y89237D01*
X581221Y88737D01*
D02*
G37*
G36*
X669530Y85190D02*
X674030D01*
Y89590D01*
X678230Y89640D01*
X678730Y89140D01*
Y77640D01*
X678230Y77140D01*
X665430D01*
X664930Y77640D01*
Y89140D01*
X665430Y89640D01*
X669530Y89690D01*
Y85190D01*
D02*
G37*
G36*
X316471Y84870D02*
X320970D01*
Y89270D01*
X325170Y89320D01*
X325670Y88820D01*
Y77320D01*
X325170Y76820D01*
X312370D01*
X311870Y77320D01*
Y88820D01*
X312370Y89320D01*
X316471Y89370D01*
Y84870D01*
D02*
G37*
G36*
X237731D02*
X242230D01*
Y89270D01*
X246430Y89320D01*
X246930Y88820D01*
Y77320D01*
X246430Y76820D01*
X233630D01*
X233130Y77320D01*
Y88820D01*
X233630Y89320D01*
X237731Y89370D01*
Y84870D01*
D02*
G37*
G36*
X612662Y84787D02*
X617161D01*
Y89187D01*
X621361Y89237D01*
X621861Y88737D01*
Y77237D01*
X621361Y76736D01*
X608561D01*
X608061Y77237D01*
Y88737D01*
X608561Y89237D01*
X612662Y89287D01*
Y84787D01*
D02*
G37*
G36*
X88180Y82700D02*
Y71200D01*
X87680Y70700D01*
X83580Y70650D01*
Y75150D01*
X79080D01*
Y70750D01*
X74880Y70700D01*
X74380Y71200D01*
Y82700D01*
X74880Y83200D01*
X87680D01*
X88180Y82700D01*
D02*
G37*
G36*
Y61200D02*
Y49700D01*
X87680Y49200D01*
X74880D01*
X74380Y49700D01*
Y61200D01*
X74880Y61700D01*
X79080Y61700D01*
Y57250D01*
X83580D01*
Y61650D01*
X87680Y61700D01*
X88180Y61200D01*
D02*
G37*
D20*
X809851Y467359D02*
D03*
X764949D02*
D03*
X170449Y729284D02*
D03*
X215351D02*
D03*
X252999Y728981D02*
D03*
X297901D02*
D03*
D21*
X889480Y525780D02*
D03*
X860580D02*
D03*
X867410Y468630D02*
D03*
X838510D02*
D03*
X889480Y549910D02*
D03*
X860580D02*
D03*
D22*
X845769Y371639D02*
D03*
X839371D02*
D03*
X832970D02*
D03*
X826569D02*
D03*
X813770Y317324D02*
D03*
X820171D02*
D03*
X826569D02*
D03*
X832970D02*
D03*
X839371D02*
D03*
X845769D02*
D03*
X852170D02*
D03*
X858571D02*
D03*
X813770Y371639D02*
D03*
X820171D02*
D03*
X852170D02*
D03*
X858571D02*
D03*
D23*
X55880Y730250D02*
D03*
X969010Y190500D02*
D03*
X925830Y19050D02*
D03*
X73660Y981710D02*
D03*
D24*
X319697Y222250D02*
D03*
X340703D02*
D03*
X320040Y198120D02*
D03*
X341046D02*
D03*
X320040Y173990D02*
D03*
X341046D02*
D03*
X148450Y966470D02*
D03*
X169456D02*
D03*
X218440Y87630D02*
D03*
X197434D02*
D03*
X297180D02*
D03*
X276174D02*
D03*
D25*
X642620Y102710D02*
D03*
X633120Y82710D02*
D03*
X652120D02*
D03*
X358191Y932500D02*
D03*
X377190D02*
D03*
X367690Y912500D02*
D03*
X400101Y932500D02*
D03*
X419100D02*
D03*
X409600Y912500D02*
D03*
X552450Y932500D02*
D03*
X542950Y912500D02*
D03*
X561950D02*
D03*
X603199Y912180D02*
D03*
X584200D02*
D03*
X593700Y932180D02*
D03*
X492100Y722000D02*
D03*
X501599Y742000D02*
D03*
X482600D02*
D03*
X428650Y741840D02*
D03*
X447650D02*
D03*
X438150Y721840D02*
D03*
X920140Y253680D02*
D03*
X939140D02*
D03*
X929640Y233680D02*
D03*
D26*
X349221Y508001D02*
D03*
X402620D02*
D03*
X612170Y510541D02*
D03*
X558771D02*
D03*
X144751Y509271D02*
D03*
X198150D02*
D03*
D27*
X661670Y712470D02*
D03*
X737870D02*
D03*
D28*
X289420Y822437D02*
D03*
Y775223D02*
D03*
D29*
X233540Y833120D02*
D03*
Y772160D02*
D03*
D30*
X120214Y886460D02*
D03*
X143666D02*
D03*
D31*
X290831Y966559D02*
D03*
Y882561D02*
D03*
D32*
X217170Y943610D02*
D03*
Y892810D02*
D03*
D33*
X178930Y825881D02*
D03*
Y771779D02*
D03*
X153530D02*
D03*
X166230D02*
D03*
X191630D02*
D03*
X153530Y825881D02*
D03*
X166230D02*
D03*
X191630D02*
D03*
D34*
X187400Y904240D02*
D03*
Y916940D02*
D03*
Y929640D02*
D03*
Y942340D02*
D03*
X129400Y904240D02*
D03*
Y916940D02*
D03*
Y929640D02*
D03*
Y942340D02*
D03*
D35*
X439420Y775020D02*
D03*
Y762320D02*
D03*
X496870Y800420D02*
D03*
X439420Y851220D02*
D03*
Y838520D02*
D03*
Y825820D02*
D03*
Y813120D02*
D03*
Y800420D02*
D03*
Y787720D02*
D03*
X496870Y851220D02*
D03*
Y838520D02*
D03*
Y825820D02*
D03*
Y813120D02*
D03*
Y787720D02*
D03*
Y775020D02*
D03*
Y762320D02*
D03*
D36*
X809707Y865990D02*
D03*
X819707D02*
D03*
X824709D02*
D03*
X829707D02*
D03*
X834709D02*
D03*
X839707D02*
D03*
X844709D02*
D03*
X849707D02*
D03*
X854709D02*
D03*
X859707D02*
D03*
X864709D02*
D03*
X869707D02*
D03*
X874709D02*
D03*
X879707D02*
D03*
X884709D02*
D03*
Y751990D02*
D03*
X874709D02*
D03*
X869707D02*
D03*
X864709D02*
D03*
X859707D02*
D03*
X854709D02*
D03*
X849707D02*
D03*
X844709D02*
D03*
X839707D02*
D03*
X834709D02*
D03*
X829707D02*
D03*
X824709D02*
D03*
X819707D02*
D03*
X809707D02*
D03*
X814709Y865990D02*
D03*
X879707Y751990D02*
D03*
X814709D02*
D03*
D37*
X903972Y846491D02*
D03*
Y836491D02*
D03*
Y831489D02*
D03*
Y826491D02*
D03*
Y821489D02*
D03*
Y816491D02*
D03*
Y811489D02*
D03*
Y806491D02*
D03*
Y801489D02*
D03*
Y796491D02*
D03*
Y791489D02*
D03*
Y786491D02*
D03*
Y781489D02*
D03*
Y776491D02*
D03*
Y771489D02*
D03*
X790208D02*
D03*
Y776491D02*
D03*
Y781489D02*
D03*
Y786491D02*
D03*
Y796491D02*
D03*
Y801489D02*
D03*
Y806491D02*
D03*
Y811489D02*
D03*
Y816491D02*
D03*
Y821489D02*
D03*
Y826491D02*
D03*
Y831489D02*
D03*
Y836491D02*
D03*
Y841489D02*
D03*
Y846491D02*
D03*
X903972Y841489D02*
D03*
X790208Y791489D02*
D03*
D38*
X133350Y116840D02*
D03*
D39*
X156235Y187503D02*
D03*
X110439D02*
D03*
D40*
X80010Y159029D02*
D03*
Y113030D02*
D03*
D41*
X81280Y14897D02*
D03*
Y35903D02*
D03*
D42*
X445770Y682310D02*
D03*
X464769D02*
D03*
X455270Y704337D02*
D03*
D43*
X701280Y898298D02*
D03*
X731280D02*
D03*
D44*
X716279Y925422D02*
D03*
D45*
X821231Y502988D02*
D03*
Y547890D02*
D03*
X821230Y586399D02*
D03*
Y631301D02*
D03*
D46*
X848680Y420980D02*
D03*
X868680Y411480D02*
D03*
Y430479D02*
D03*
X871380Y575970D02*
D03*
Y594970D02*
D03*
X891380Y585470D02*
D03*
X871380Y608990D02*
D03*
Y627990D02*
D03*
X891380Y618490D02*
D03*
D47*
X215900Y168910D02*
D03*
X228600D02*
D03*
X241300D02*
D03*
X254000D02*
D03*
X266700D02*
D03*
X279400D02*
D03*
X292100D02*
D03*
X215900Y223622D02*
D03*
X228600D02*
D03*
X241300D02*
D03*
X254000D02*
D03*
X266700D02*
D03*
X279400D02*
D03*
X292100D02*
D03*
X203200D02*
D03*
Y168910D02*
D03*
D48*
X725582Y843001D02*
D03*
X703580Y825500D02*
D03*
Y843001D02*
D03*
X725582Y825500D02*
D03*
D49*
X891060Y333128D02*
D03*
X873559Y355129D02*
D03*
X891060D02*
D03*
X873559Y333128D02*
D03*
D50*
X90370Y910590D02*
D03*
X26530D02*
D03*
M02*
