G04*
G04 #@! TF.GenerationSoftware,Altium Limited,Altium Designer,22.11.1 (43)*
G04*
G04 Layer_Color=255*
%FSLAX44Y44*%
%MOMM*%
G71*
G04*
G04 #@! TF.SameCoordinates,C47467C8-9064-4A8D-955C-1DE8D4ADFDDE*
G04*
G04*
G04 #@! TF.FilePolarity,Positive*
G04*
G01*
G75*
%ADD23C,1.5240*%
%ADD132C,3.0000*%
%ADD133C,1.2000*%
%ADD134C,2.0000*%
%ADD135O,2.5000X1.8000*%
%ADD136C,1.6000*%
%ADD137C,3.5000*%
%ADD138R,1.8000X1.8000*%
%ADD139C,1.8000*%
%ADD140R,1.6000X1.5240*%
%ADD141C,3.1000*%
%ADD142C,1.7000*%
%ADD143R,1.7000X1.7000*%
%ADD144C,2.3000*%
D23*
X948261Y577349D02*
D03*
Y557349D02*
D03*
Y532348D02*
D03*
X922061Y577349D02*
D03*
Y557349D02*
D03*
Y532348D02*
D03*
X948261Y602348D02*
D03*
X922061D02*
D03*
X351790Y460375D02*
D03*
X377190D02*
D03*
X402590D02*
D03*
X427990D02*
D03*
X326390D02*
D03*
X300990D02*
D03*
X275590D02*
D03*
X250190D02*
D03*
X427990Y587375D02*
D03*
X402590D02*
D03*
X377190D02*
D03*
X351790D02*
D03*
X326390D02*
D03*
X300990D02*
D03*
X275590D02*
D03*
X250190D02*
D03*
X558800Y460375D02*
D03*
X584200D02*
D03*
X609600D02*
D03*
X635000D02*
D03*
X533400D02*
D03*
X508000D02*
D03*
X482600D02*
D03*
X457200D02*
D03*
X635000Y587375D02*
D03*
X609600D02*
D03*
X584200D02*
D03*
X558800D02*
D03*
X533400D02*
D03*
X508000D02*
D03*
X482600D02*
D03*
X457200D02*
D03*
D132*
X975360Y633049D02*
D03*
Y501650D02*
D03*
X918560Y633049D02*
D03*
Y501650D02*
D03*
D133*
X903940Y464231D02*
D03*
Y450230D02*
D03*
Y436230D02*
D03*
Y422229D02*
D03*
D134*
X980440Y443230D02*
D03*
D135*
X923940Y470731D02*
D03*
Y415729D02*
D03*
D136*
X945140Y337621D02*
D03*
X925140D02*
D03*
Y312619D02*
D03*
X945140D02*
D03*
X220980Y537210D02*
D03*
Y562610D02*
D03*
Y588010D02*
D03*
X195580D02*
D03*
X170180D02*
D03*
X93980D02*
D03*
X68580D02*
D03*
X43180D02*
D03*
Y461010D02*
D03*
X68580D02*
D03*
X93980D02*
D03*
X119380D02*
D03*
X144780D02*
D03*
X220980D02*
D03*
X195580D02*
D03*
X170180D02*
D03*
X119380Y588010D02*
D03*
X144780D02*
D03*
X609600Y751215D02*
D03*
Y801218D02*
D03*
Y826219D02*
D03*
Y851217D02*
D03*
Y776216D02*
D03*
X544830D02*
D03*
Y851217D02*
D03*
Y826219D02*
D03*
Y801218D02*
D03*
Y751215D02*
D03*
X392429Y775621D02*
D03*
Y850622D02*
D03*
Y825623D02*
D03*
Y800622D02*
D03*
Y750620D02*
D03*
D137*
X972240Y264921D02*
D03*
Y385319D02*
D03*
D138*
X208280Y356870D02*
D03*
X615549Y36830D02*
D03*
X694690D02*
D03*
X198521Y49530D02*
D03*
X277061D02*
D03*
X120063Y50267D02*
D03*
D139*
X208280Y382270D02*
D03*
X233680Y356870D02*
D03*
Y382270D02*
D03*
X259080Y356870D02*
D03*
Y382270D02*
D03*
X284480Y356870D02*
D03*
Y382270D02*
D03*
X309880Y356870D02*
D03*
Y382270D02*
D03*
X335280Y356870D02*
D03*
Y382270D02*
D03*
X360680Y356870D02*
D03*
Y382270D02*
D03*
X386080Y356870D02*
D03*
Y382270D02*
D03*
X411480Y356870D02*
D03*
Y382270D02*
D03*
X436880Y356870D02*
D03*
Y382270D02*
D03*
X462280Y356870D02*
D03*
Y382270D02*
D03*
X487680Y356870D02*
D03*
Y382270D02*
D03*
X590550Y36830D02*
D03*
X669691D02*
D03*
X223519Y49530D02*
D03*
X302059D02*
D03*
X145062Y50267D02*
D03*
D140*
X609600Y876219D02*
D03*
X544830D02*
D03*
X392429Y875623D02*
D03*
D141*
X970385Y966367D02*
D03*
X970280Y30480D02*
D03*
X30585Y968907D02*
D03*
X30480Y30480D02*
D03*
D142*
X958850Y890270D02*
D03*
Y864870D02*
D03*
Y915670D02*
D03*
D143*
Y839470D02*
D03*
D144*
X29070Y840741D02*
D03*
Y790741D02*
D03*
X79070Y790738D02*
D03*
Y840738D02*
D03*
M02*
